M48
; DRILL file {KiCad 7.0.10} date Mon 08 Jan 2024 06:21:35 PM WET
; FORMAT={-:-/ absolute / metric / decimal}
; #@! TF.CreationDate,2024-01-08T18:21:35+00:00
; #@! TF.GenerationSoftware,Kicad,Pcbnew,7.0.10
; #@! TF.FileFunction,Plated,1,2,PTH
FMAT,2
METRIC
; #@! TA.AperFunction,Plated,PTH,ViaDrill
T1C0.400
; #@! TA.AperFunction,Plated,PTH,ComponentDrill
T2C0.700
; #@! TA.AperFunction,Plated,PTH,ComponentDrill
T3C0.800
; #@! TA.AperFunction,Plated,PTH,ComponentDrill
T4C1.000
; #@! TA.AperFunction,Plated,PTH,ComponentDrill
T5C1.020
; #@! TA.AperFunction,Plated,PTH,ComponentDrill
T6C1.499
%
G90
G05
T1
X173.736Y-89.916
X174.752Y-69.596
X174.752Y-94.996
X175.514Y-92.456
T3
X81.0Y-60.375
X81.0Y-60.375
X81.0Y-67.995
X81.0Y-67.995
X81.0Y-79.375
X81.0Y-79.375
X81.0Y-86.995
X81.0Y-86.995
X81.0Y-98.375
X81.0Y-98.375
X81.0Y-105.995
X81.0Y-105.995
X100.0Y-48.875
X100.0Y-48.875
X100.0Y-56.495
X100.0Y-56.495
X100.0Y-67.875
X100.0Y-67.875
X100.0Y-75.495
X100.0Y-75.495
X100.0Y-86.875
X100.0Y-86.875
X100.0Y-94.495
X100.0Y-94.495
X119.0Y-44.625
X119.0Y-44.625
X119.0Y-52.245
X119.0Y-52.245
X119.0Y-63.625
X119.0Y-63.625
X119.0Y-71.245
X119.0Y-71.245
X119.0Y-82.625
X119.0Y-82.625
X119.0Y-90.245
X119.0Y-90.245
X138.0Y-46.75
X138.0Y-46.75
X138.0Y-54.37
X138.0Y-54.37
X138.0Y-65.75
X138.0Y-65.75
X138.0Y-73.37
X138.0Y-73.37
X138.0Y-84.75
X138.0Y-92.37
X156.179Y-123.749
X156.179Y-123.749
X157.0Y-56.25
X157.0Y-56.25
X157.0Y-63.87
X157.0Y-63.87
X157.0Y-75.25
X157.0Y-82.87
X157.0Y-94.25
X157.0Y-94.25
X157.0Y-101.87
X157.0Y-101.87
X159.989Y-117.149
X159.989Y-117.149
X172.689Y-133.401
X172.689Y-133.401
X176.499Y-126.801
X176.499Y-126.801
T4
X186.934Y-107.061
X186.944Y-110.871
X189.474Y-107.061
X189.484Y-110.871
X192.014Y-107.061
X192.024Y-110.871
X194.554Y-107.061
X194.564Y-110.871
T5
X181.864Y-54.356
X181.864Y-56.896
X181.864Y-59.436
X181.864Y-61.976
X181.864Y-64.516
X181.864Y-67.056
X181.864Y-69.596
X181.864Y-72.136
X181.864Y-74.676
X181.864Y-77.216
X181.864Y-79.756
X181.864Y-82.296
X181.864Y-84.836
X181.864Y-87.376
X181.864Y-89.916
X181.864Y-92.456
X181.864Y-94.996
X181.864Y-97.536
X181.864Y-100.076
X181.864Y-102.616
X188.214Y-102.386
X190.754Y-102.386
X193.294Y-102.386
X199.644Y-54.356
X199.644Y-56.896
X199.644Y-59.436
X199.644Y-61.976
X199.644Y-64.516
X199.644Y-67.056
X199.644Y-69.596
X199.644Y-72.136
X199.644Y-74.676
X199.644Y-77.216
X199.644Y-79.756
X199.644Y-82.296
X199.644Y-84.836
X199.644Y-87.376
X199.644Y-89.916
X199.644Y-92.456
X199.644Y-94.996
X199.644Y-97.536
X199.644Y-100.076
X199.644Y-102.616
T6
X86.69Y-61.655
X86.69Y-80.655
X86.69Y-99.655
X87.96Y-59.115
X87.96Y-78.115
X87.96Y-97.115
X93.04Y-59.115
X93.04Y-78.115
X93.04Y-97.115
X94.31Y-61.655
X94.31Y-80.655
X94.31Y-99.655
X105.69Y-50.155
X105.69Y-69.155
X105.69Y-88.155
X106.96Y-47.615
X106.96Y-66.615
X106.96Y-85.615
X112.04Y-47.615
X112.04Y-66.615
X112.04Y-85.615
X113.31Y-50.155
X113.31Y-69.155
X113.31Y-88.155
X124.69Y-45.905
X124.69Y-64.905
X124.69Y-83.905
X125.96Y-43.365
X125.96Y-62.365
X125.96Y-81.365
X131.04Y-43.365
X131.04Y-62.365
X131.04Y-81.365
X132.31Y-45.905
X132.31Y-64.905
X132.31Y-83.905
X143.69Y-48.03
X143.69Y-67.03
X143.69Y-86.03
X144.96Y-45.49
X144.96Y-64.49
X144.96Y-83.49
X150.04Y-45.49
X150.04Y-64.49
X150.04Y-83.49
X151.31Y-48.03
X151.31Y-67.03
X151.31Y-86.03
X162.69Y-57.53
X162.69Y-76.53
X162.69Y-95.53
X163.96Y-54.99
X163.96Y-73.99
X163.96Y-92.99
X164.47Y-120.835
X166.84Y-119.271
X169.04Y-54.99
X169.04Y-73.99
X169.04Y-92.99
X170.31Y-57.53
X170.31Y-76.53
X170.31Y-95.53
X171.07Y-124.645
X171.24Y-121.811
X180.946Y-130.568
X183.316Y-129.004
X187.546Y-134.378
X187.716Y-131.544
T2
X186.846Y-121.45G85X186.154Y-121.05
G05
X188.462Y-120.649G85X187.77Y-120.249
G05
X189.796Y-116.339G85X189.104Y-115.939
G05
X189.912Y-118.139G85X189.22Y-117.739
G05
X191.927Y-122.649G85X191.234Y-122.249
G05
X193.377Y-120.139G85X192.684Y-119.739
G05
X194.525Y-124.149G85X193.832Y-123.749
G05
X195.975Y-121.639G85X195.282Y-121.239
G05
M30
