G04 #@! TF.GenerationSoftware,KiCad,Pcbnew,7.0.10*
G04 #@! TF.CreationDate,2024-01-12T10:11:48+00:00*
G04 #@! TF.ProjectId,eobard,656f6261-7264-42e6-9b69-6361645f7063,2.4*
G04 #@! TF.SameCoordinates,Original*
G04 #@! TF.FileFunction,Legend,Bot*
G04 #@! TF.FilePolarity,Positive*
%FSLAX46Y46*%
G04 Gerber Fmt 4.6, Leading zero omitted, Abs format (unit mm)*
G04 Created by KiCad (PCBNEW 7.0.10) date 2024-01-12 10:11:48*
%MOMM*%
%LPD*%
G01*
G04 APERTURE LIST*
G04 Aperture macros list*
%AMHorizOval*
0 Thick line with rounded ends*
0 $1 width*
0 $2 $3 position (X,Y) of the first rounded end (center of the circle)*
0 $4 $5 position (X,Y) of the second rounded end (center of the circle)*
0 Add line between two ends*
20,1,$1,$2,$3,$4,$5,0*
0 Add two circle primitives to create the rounded ends*
1,1,$1,$2,$3*
1,1,$1,$4,$5*%
%AMRotRect*
0 Rectangle, with rotation*
0 The origin of the aperture is its center*
0 $1 length*
0 $2 width*
0 $3 Rotation angle, in degrees counterclockwise*
0 Add horizontal line*
21,1,$1,$2,0,0,$3*%
G04 Aperture macros list end*
%ADD10C,0.150000*%
%ADD11C,0.200000*%
%ADD12C,0.120000*%
%ADD13C,1.701800*%
%ADD14C,3.987800*%
%ADD15C,2.286000*%
%ADD16R,1.600000X1.600000*%
%ADD17O,1.600000X1.600000*%
%ADD18R,1.700000X1.700000*%
%ADD19O,1.700000X1.700000*%
%ADD20O,1.800000X1.800000*%
%ADD21O,1.500000X1.500000*%
%ADD22C,1.600000*%
%ADD23RotRect,1.600000X1.600000X60.000000*%
%ADD24HorizOval,1.600000X0.000000X0.000000X0.000000X0.000000X0*%
G04 APERTURE END LIST*
D10*
X180238400Y-52984400D02*
X201269600Y-52984400D01*
X201269600Y-103987600D01*
X180238400Y-103987600D01*
X180238400Y-52984400D01*
D11*
X183660088Y-111367219D02*
X184136279Y-111367219D01*
X184136279Y-111367219D02*
X184011279Y-110367219D01*
X183261278Y-110843409D02*
X182927945Y-110843409D01*
X182850564Y-111367219D02*
X183326755Y-111367219D01*
X183326755Y-111367219D02*
X183201755Y-110367219D01*
X183201755Y-110367219D02*
X182725564Y-110367219D01*
X182023183Y-110843409D02*
X182356516Y-110843409D01*
X182421993Y-111367219D02*
X182296993Y-110367219D01*
X182296993Y-110367219D02*
X181820802Y-110367219D01*
X181582707Y-110367219D02*
X181011278Y-110367219D01*
X181421993Y-111367219D02*
X181296993Y-110367219D01*
X190257219Y-73494047D02*
X189781028Y-73220237D01*
X190257219Y-72922618D02*
X189257219Y-73047618D01*
X189257219Y-73047618D02*
X189257219Y-73428571D01*
X189257219Y-73428571D02*
X189304838Y-73517856D01*
X189304838Y-73517856D02*
X189352457Y-73559523D01*
X189352457Y-73559523D02*
X189447695Y-73595237D01*
X189447695Y-73595237D02*
X189590552Y-73577380D01*
X189590552Y-73577380D02*
X189685790Y-73517856D01*
X189685790Y-73517856D02*
X189733409Y-73464285D01*
X189733409Y-73464285D02*
X189781028Y-73363095D01*
X189781028Y-73363095D02*
X189781028Y-72982142D01*
X190257219Y-74351190D02*
X189733409Y-74416666D01*
X189733409Y-74416666D02*
X189638171Y-74380952D01*
X189638171Y-74380952D02*
X189590552Y-74291666D01*
X189590552Y-74291666D02*
X189590552Y-74101190D01*
X189590552Y-74101190D02*
X189638171Y-73999999D01*
X190209600Y-74357142D02*
X190257219Y-74255952D01*
X190257219Y-74255952D02*
X190257219Y-74017856D01*
X190257219Y-74017856D02*
X190209600Y-73928571D01*
X190209600Y-73928571D02*
X190114361Y-73892856D01*
X190114361Y-73892856D02*
X190019123Y-73904761D01*
X190019123Y-73904761D02*
X189923885Y-73964285D01*
X189923885Y-73964285D02*
X189876266Y-74065476D01*
X189876266Y-74065476D02*
X189876266Y-74303571D01*
X189876266Y-74303571D02*
X189828647Y-74404761D01*
X190209600Y-74785714D02*
X190257219Y-74874999D01*
X190257219Y-74874999D02*
X190257219Y-75065476D01*
X190257219Y-75065476D02*
X190209600Y-75166666D01*
X190209600Y-75166666D02*
X190114361Y-75226190D01*
X190114361Y-75226190D02*
X190066742Y-75232142D01*
X190066742Y-75232142D02*
X189971504Y-75196428D01*
X189971504Y-75196428D02*
X189923885Y-75107142D01*
X189923885Y-75107142D02*
X189923885Y-74964285D01*
X189923885Y-74964285D02*
X189876266Y-74874999D01*
X189876266Y-74874999D02*
X189781028Y-74839285D01*
X189781028Y-74839285D02*
X189733409Y-74845238D01*
X189733409Y-74845238D02*
X189638171Y-74904761D01*
X189638171Y-74904761D02*
X189590552Y-75005952D01*
X189590552Y-75005952D02*
X189590552Y-75148809D01*
X189590552Y-75148809D02*
X189638171Y-75238095D01*
X189590552Y-75720238D02*
X190590552Y-75595238D01*
X189638171Y-75714285D02*
X189590552Y-75815476D01*
X189590552Y-75815476D02*
X189590552Y-76005952D01*
X189590552Y-76005952D02*
X189638171Y-76095238D01*
X189638171Y-76095238D02*
X189685790Y-76136904D01*
X189685790Y-76136904D02*
X189781028Y-76172619D01*
X189781028Y-76172619D02*
X190066742Y-76136904D01*
X190066742Y-76136904D02*
X190161980Y-76077381D01*
X190161980Y-76077381D02*
X190209600Y-76023809D01*
X190209600Y-76023809D02*
X190257219Y-75922619D01*
X190257219Y-75922619D02*
X190257219Y-75732142D01*
X190257219Y-75732142D02*
X190209600Y-75642857D01*
X190257219Y-76541666D02*
X189257219Y-76666666D01*
X189638171Y-76619047D02*
X189590552Y-76720238D01*
X189590552Y-76720238D02*
X189590552Y-76910714D01*
X189590552Y-76910714D02*
X189638171Y-77000000D01*
X189638171Y-77000000D02*
X189685790Y-77041666D01*
X189685790Y-77041666D02*
X189781028Y-77077381D01*
X189781028Y-77077381D02*
X190066742Y-77041666D01*
X190066742Y-77041666D02*
X190161980Y-76982143D01*
X190161980Y-76982143D02*
X190209600Y-76928571D01*
X190209600Y-76928571D02*
X190257219Y-76827381D01*
X190257219Y-76827381D02*
X190257219Y-76636904D01*
X190257219Y-76636904D02*
X190209600Y-76547619D01*
X190209600Y-77833333D02*
X190257219Y-77732143D01*
X190257219Y-77732143D02*
X190257219Y-77541666D01*
X190257219Y-77541666D02*
X190209600Y-77452381D01*
X190209600Y-77452381D02*
X190114361Y-77416666D01*
X190114361Y-77416666D02*
X189733409Y-77464286D01*
X189733409Y-77464286D02*
X189638171Y-77523809D01*
X189638171Y-77523809D02*
X189590552Y-77625000D01*
X189590552Y-77625000D02*
X189590552Y-77815476D01*
X189590552Y-77815476D02*
X189638171Y-77904762D01*
X189638171Y-77904762D02*
X189733409Y-77940476D01*
X189733409Y-77940476D02*
X189828647Y-77928571D01*
X189828647Y-77928571D02*
X189923885Y-77440476D01*
X190257219Y-78303571D02*
X189590552Y-78386905D01*
X189781028Y-78363095D02*
X189685790Y-78422619D01*
X189685790Y-78422619D02*
X189638171Y-78476190D01*
X189638171Y-78476190D02*
X189590552Y-78577381D01*
X189590552Y-78577381D02*
X189590552Y-78672619D01*
X190257219Y-78922619D02*
X189590552Y-79005953D01*
X189781028Y-78982143D02*
X189685790Y-79041667D01*
X189685790Y-79041667D02*
X189638171Y-79095238D01*
X189638171Y-79095238D02*
X189590552Y-79196429D01*
X189590552Y-79196429D02*
X189590552Y-79291667D01*
X189590552Y-79529763D02*
X190257219Y-79684525D01*
X189590552Y-80005953D02*
X190257219Y-79684525D01*
X190257219Y-79684525D02*
X190495314Y-79559525D01*
X190495314Y-79559525D02*
X190542933Y-79505953D01*
X190542933Y-79505953D02*
X190590552Y-79404763D01*
X190257219Y-81065477D02*
X189257219Y-81190477D01*
X189257219Y-81190477D02*
X189257219Y-81571430D01*
X189257219Y-81571430D02*
X189304838Y-81660715D01*
X189304838Y-81660715D02*
X189352457Y-81702382D01*
X189352457Y-81702382D02*
X189447695Y-81738096D01*
X189447695Y-81738096D02*
X189590552Y-81720239D01*
X189590552Y-81720239D02*
X189685790Y-81660715D01*
X189685790Y-81660715D02*
X189733409Y-81607144D01*
X189733409Y-81607144D02*
X189781028Y-81505954D01*
X189781028Y-81505954D02*
X189781028Y-81125001D01*
X190257219Y-82065477D02*
X189590552Y-82148811D01*
X189257219Y-82190477D02*
X189304838Y-82136906D01*
X189304838Y-82136906D02*
X189352457Y-82178573D01*
X189352457Y-82178573D02*
X189304838Y-82232144D01*
X189304838Y-82232144D02*
X189257219Y-82190477D01*
X189257219Y-82190477D02*
X189352457Y-82178573D01*
X190257219Y-83303572D02*
X189257219Y-83428572D01*
X189257219Y-83428572D02*
X189257219Y-83809525D01*
X189257219Y-83809525D02*
X189304838Y-83898810D01*
X189304838Y-83898810D02*
X189352457Y-83940477D01*
X189352457Y-83940477D02*
X189447695Y-83976191D01*
X189447695Y-83976191D02*
X189590552Y-83958334D01*
X189590552Y-83958334D02*
X189685790Y-83898810D01*
X189685790Y-83898810D02*
X189733409Y-83845239D01*
X189733409Y-83845239D02*
X189781028Y-83744049D01*
X189781028Y-83744049D02*
X189781028Y-83363096D01*
X190257219Y-84303572D02*
X189590552Y-84386906D01*
X189257219Y-84428572D02*
X189304838Y-84375001D01*
X189304838Y-84375001D02*
X189352457Y-84416668D01*
X189352457Y-84416668D02*
X189304838Y-84470239D01*
X189304838Y-84470239D02*
X189257219Y-84428572D01*
X189257219Y-84428572D02*
X189352457Y-84416668D01*
X190209600Y-85214286D02*
X190257219Y-85113096D01*
X190257219Y-85113096D02*
X190257219Y-84922620D01*
X190257219Y-84922620D02*
X190209600Y-84833334D01*
X190209600Y-84833334D02*
X190161980Y-84791667D01*
X190161980Y-84791667D02*
X190066742Y-84755953D01*
X190066742Y-84755953D02*
X189781028Y-84791667D01*
X189781028Y-84791667D02*
X189685790Y-84851191D01*
X189685790Y-84851191D02*
X189638171Y-84904762D01*
X189638171Y-84904762D02*
X189590552Y-85005953D01*
X189590552Y-85005953D02*
X189590552Y-85196429D01*
X189590552Y-85196429D02*
X189638171Y-85285715D01*
X190257219Y-85779763D02*
X190209600Y-85690477D01*
X190209600Y-85690477D02*
X190161980Y-85648810D01*
X190161980Y-85648810D02*
X190066742Y-85613096D01*
X190066742Y-85613096D02*
X189781028Y-85648810D01*
X189781028Y-85648810D02*
X189685790Y-85708334D01*
X189685790Y-85708334D02*
X189638171Y-85761905D01*
X189638171Y-85761905D02*
X189590552Y-85863096D01*
X189590552Y-85863096D02*
X189590552Y-86005953D01*
X189590552Y-86005953D02*
X189638171Y-86095239D01*
X189638171Y-86095239D02*
X189685790Y-86136905D01*
X189685790Y-86136905D02*
X189781028Y-86172620D01*
X189781028Y-86172620D02*
X190066742Y-86136905D01*
X190066742Y-86136905D02*
X190161980Y-86077382D01*
X190161980Y-86077382D02*
X190209600Y-86023810D01*
X190209600Y-86023810D02*
X190257219Y-85922620D01*
X190257219Y-85922620D02*
X190257219Y-85779763D01*
X191343409Y-74154761D02*
X191391028Y-74291666D01*
X191391028Y-74291666D02*
X191438647Y-74333332D01*
X191438647Y-74333332D02*
X191533885Y-74369047D01*
X191533885Y-74369047D02*
X191676742Y-74351189D01*
X191676742Y-74351189D02*
X191771980Y-74291666D01*
X191771980Y-74291666D02*
X191819600Y-74238094D01*
X191819600Y-74238094D02*
X191867219Y-74136904D01*
X191867219Y-74136904D02*
X191867219Y-73755951D01*
X191867219Y-73755951D02*
X190867219Y-73880951D01*
X190867219Y-73880951D02*
X190867219Y-74214285D01*
X190867219Y-74214285D02*
X190914838Y-74303570D01*
X190914838Y-74303570D02*
X190962457Y-74345237D01*
X190962457Y-74345237D02*
X191057695Y-74380951D01*
X191057695Y-74380951D02*
X191152933Y-74369047D01*
X191152933Y-74369047D02*
X191248171Y-74309523D01*
X191248171Y-74309523D02*
X191295790Y-74255951D01*
X191295790Y-74255951D02*
X191343409Y-74154761D01*
X191343409Y-74154761D02*
X191343409Y-73821428D01*
X191867219Y-74898809D02*
X191819600Y-74809523D01*
X191819600Y-74809523D02*
X191771980Y-74767856D01*
X191771980Y-74767856D02*
X191676742Y-74732142D01*
X191676742Y-74732142D02*
X191391028Y-74767856D01*
X191391028Y-74767856D02*
X191295790Y-74827380D01*
X191295790Y-74827380D02*
X191248171Y-74880951D01*
X191248171Y-74880951D02*
X191200552Y-74982142D01*
X191200552Y-74982142D02*
X191200552Y-75124999D01*
X191200552Y-75124999D02*
X191248171Y-75214285D01*
X191248171Y-75214285D02*
X191295790Y-75255951D01*
X191295790Y-75255951D02*
X191391028Y-75291666D01*
X191391028Y-75291666D02*
X191676742Y-75255951D01*
X191676742Y-75255951D02*
X191771980Y-75196428D01*
X191771980Y-75196428D02*
X191819600Y-75142856D01*
X191819600Y-75142856D02*
X191867219Y-75041666D01*
X191867219Y-75041666D02*
X191867219Y-74898809D01*
X191200552Y-75601190D02*
X191200552Y-75982142D01*
X190867219Y-75785713D02*
X191724361Y-75678571D01*
X191724361Y-75678571D02*
X191819600Y-75714285D01*
X191819600Y-75714285D02*
X191867219Y-75803571D01*
X191867219Y-75803571D02*
X191867219Y-75898809D01*
X191200552Y-76172619D02*
X191200552Y-76553571D01*
X190867219Y-76357142D02*
X191724361Y-76250000D01*
X191724361Y-76250000D02*
X191819600Y-76285714D01*
X191819600Y-76285714D02*
X191867219Y-76375000D01*
X191867219Y-76375000D02*
X191867219Y-76470238D01*
X191867219Y-76946429D02*
X191819600Y-76857143D01*
X191819600Y-76857143D02*
X191771980Y-76815476D01*
X191771980Y-76815476D02*
X191676742Y-76779762D01*
X191676742Y-76779762D02*
X191391028Y-76815476D01*
X191391028Y-76815476D02*
X191295790Y-76875000D01*
X191295790Y-76875000D02*
X191248171Y-76928571D01*
X191248171Y-76928571D02*
X191200552Y-77029762D01*
X191200552Y-77029762D02*
X191200552Y-77172619D01*
X191200552Y-77172619D02*
X191248171Y-77261905D01*
X191248171Y-77261905D02*
X191295790Y-77303571D01*
X191295790Y-77303571D02*
X191391028Y-77339286D01*
X191391028Y-77339286D02*
X191676742Y-77303571D01*
X191676742Y-77303571D02*
X191771980Y-77244048D01*
X191771980Y-77244048D02*
X191819600Y-77190476D01*
X191819600Y-77190476D02*
X191867219Y-77089286D01*
X191867219Y-77089286D02*
X191867219Y-76946429D01*
X191867219Y-77708333D02*
X191200552Y-77791667D01*
X191295790Y-77779762D02*
X191248171Y-77833333D01*
X191248171Y-77833333D02*
X191200552Y-77934524D01*
X191200552Y-77934524D02*
X191200552Y-78077381D01*
X191200552Y-78077381D02*
X191248171Y-78166667D01*
X191248171Y-78166667D02*
X191343409Y-78202381D01*
X191343409Y-78202381D02*
X191867219Y-78136905D01*
X191343409Y-78202381D02*
X191248171Y-78261905D01*
X191248171Y-78261905D02*
X191200552Y-78363095D01*
X191200552Y-78363095D02*
X191200552Y-78505952D01*
X191200552Y-78505952D02*
X191248171Y-78595238D01*
X191248171Y-78595238D02*
X191343409Y-78630952D01*
X191343409Y-78630952D02*
X191867219Y-78565476D01*
X191819600Y-79761905D02*
X191867219Y-79898809D01*
X191867219Y-79898809D02*
X191867219Y-80136905D01*
X191867219Y-80136905D02*
X191819600Y-80238095D01*
X191819600Y-80238095D02*
X191771980Y-80291667D01*
X191771980Y-80291667D02*
X191676742Y-80351190D01*
X191676742Y-80351190D02*
X191581504Y-80363095D01*
X191581504Y-80363095D02*
X191486266Y-80327381D01*
X191486266Y-80327381D02*
X191438647Y-80285714D01*
X191438647Y-80285714D02*
X191391028Y-80196429D01*
X191391028Y-80196429D02*
X191343409Y-80011905D01*
X191343409Y-80011905D02*
X191295790Y-79922619D01*
X191295790Y-79922619D02*
X191248171Y-79880952D01*
X191248171Y-79880952D02*
X191152933Y-79845238D01*
X191152933Y-79845238D02*
X191057695Y-79857143D01*
X191057695Y-79857143D02*
X190962457Y-79916667D01*
X190962457Y-79916667D02*
X190914838Y-79970238D01*
X190914838Y-79970238D02*
X190867219Y-80071429D01*
X190867219Y-80071429D02*
X190867219Y-80309524D01*
X190867219Y-80309524D02*
X190914838Y-80446429D01*
X191867219Y-80755952D02*
X191200552Y-80839286D01*
X190867219Y-80880952D02*
X190914838Y-80827381D01*
X190914838Y-80827381D02*
X190962457Y-80869048D01*
X190962457Y-80869048D02*
X190914838Y-80922619D01*
X190914838Y-80922619D02*
X190867219Y-80880952D01*
X190867219Y-80880952D02*
X190962457Y-80869048D01*
X191867219Y-81660714D02*
X190867219Y-81785714D01*
X191819600Y-81666666D02*
X191867219Y-81565476D01*
X191867219Y-81565476D02*
X191867219Y-81375000D01*
X191867219Y-81375000D02*
X191819600Y-81285714D01*
X191819600Y-81285714D02*
X191771980Y-81244047D01*
X191771980Y-81244047D02*
X191676742Y-81208333D01*
X191676742Y-81208333D02*
X191391028Y-81244047D01*
X191391028Y-81244047D02*
X191295790Y-81303571D01*
X191295790Y-81303571D02*
X191248171Y-81357142D01*
X191248171Y-81357142D02*
X191200552Y-81458333D01*
X191200552Y-81458333D02*
X191200552Y-81648809D01*
X191200552Y-81648809D02*
X191248171Y-81738095D01*
X191819600Y-82523809D02*
X191867219Y-82422619D01*
X191867219Y-82422619D02*
X191867219Y-82232142D01*
X191867219Y-82232142D02*
X191819600Y-82142857D01*
X191819600Y-82142857D02*
X191724361Y-82107142D01*
X191724361Y-82107142D02*
X191343409Y-82154762D01*
X191343409Y-82154762D02*
X191248171Y-82214285D01*
X191248171Y-82214285D02*
X191200552Y-82315476D01*
X191200552Y-82315476D02*
X191200552Y-82505952D01*
X191200552Y-82505952D02*
X191248171Y-82595238D01*
X191248171Y-82595238D02*
X191343409Y-82630952D01*
X191343409Y-82630952D02*
X191438647Y-82619047D01*
X191438647Y-82619047D02*
X191533885Y-82130952D01*
X190867219Y-83880952D02*
X191676742Y-83779762D01*
X191676742Y-83779762D02*
X191771980Y-83815476D01*
X191771980Y-83815476D02*
X191819600Y-83857143D01*
X191819600Y-83857143D02*
X191867219Y-83946429D01*
X191867219Y-83946429D02*
X191867219Y-84136905D01*
X191867219Y-84136905D02*
X191819600Y-84238095D01*
X191819600Y-84238095D02*
X191771980Y-84291667D01*
X191771980Y-84291667D02*
X191676742Y-84351190D01*
X191676742Y-84351190D02*
X190867219Y-84452381D01*
X191200552Y-84886905D02*
X192200552Y-84761905D01*
X191248171Y-84880952D02*
X191200552Y-84982143D01*
X191200552Y-84982143D02*
X191200552Y-85172619D01*
X191200552Y-85172619D02*
X191248171Y-85261905D01*
X191248171Y-85261905D02*
X191295790Y-85303571D01*
X191295790Y-85303571D02*
X191391028Y-85339286D01*
X191391028Y-85339286D02*
X191676742Y-85303571D01*
X191676742Y-85303571D02*
X191771980Y-85244048D01*
X191771980Y-85244048D02*
X191819600Y-85190476D01*
X191819600Y-85190476D02*
X191867219Y-85089286D01*
X191867219Y-85089286D02*
X191867219Y-84898809D01*
X191867219Y-84898809D02*
X191819600Y-84809524D01*
D10*
X102500000Y-45695000D02*
X103500000Y-45695000D01*
X102500000Y-46695000D02*
X102500000Y-45695000D01*
X102500000Y-59695000D02*
X102500000Y-58695000D01*
X103500000Y-59695000D02*
X102500000Y-59695000D01*
X115500000Y-45695000D02*
X116500000Y-45695000D01*
X116500000Y-45695000D02*
X116500000Y-46695000D01*
X116500000Y-58695000D02*
X116500000Y-59695000D01*
X116500000Y-59695000D02*
X115500000Y-59695000D01*
X121500000Y-60445000D02*
X122500000Y-60445000D01*
X121500000Y-61445000D02*
X121500000Y-60445000D01*
X121500000Y-74445000D02*
X121500000Y-73445000D01*
X122500000Y-74445000D02*
X121500000Y-74445000D01*
X134500000Y-60445000D02*
X135500000Y-60445000D01*
X135500000Y-60445000D02*
X135500000Y-61445000D01*
X135500000Y-73445000D02*
X135500000Y-74445000D01*
X135500000Y-74445000D02*
X134500000Y-74445000D01*
X102500000Y-64695000D02*
X103500000Y-64695000D01*
X102500000Y-65695000D02*
X102500000Y-64695000D01*
X102500000Y-78695000D02*
X102500000Y-77695000D01*
X103500000Y-78695000D02*
X102500000Y-78695000D01*
X115500000Y-64695000D02*
X116500000Y-64695000D01*
X116500000Y-64695000D02*
X116500000Y-65695000D01*
X116500000Y-77695000D02*
X116500000Y-78695000D01*
X116500000Y-78695000D02*
X115500000Y-78695000D01*
X159500000Y-91070000D02*
X160500000Y-91070000D01*
X159500000Y-92070000D02*
X159500000Y-91070000D01*
X159500000Y-105070000D02*
X159500000Y-104070000D01*
X160500000Y-105070000D02*
X159500000Y-105070000D01*
X172500000Y-91070000D02*
X173500000Y-91070000D01*
X173500000Y-91070000D02*
X173500000Y-92070000D01*
X173500000Y-104070000D02*
X173500000Y-105070000D01*
X173500000Y-105070000D02*
X172500000Y-105070000D01*
X140500000Y-81570000D02*
X141500000Y-81570000D01*
X140500000Y-82570000D02*
X140500000Y-81570000D01*
X140500000Y-95570000D02*
X140500000Y-94570000D01*
X141500000Y-95570000D02*
X140500000Y-95570000D01*
X153500000Y-81570000D02*
X154500000Y-81570000D01*
X154500000Y-81570000D02*
X154500000Y-82570000D01*
X154500000Y-94570000D02*
X154500000Y-95570000D01*
X154500000Y-95570000D02*
X153500000Y-95570000D01*
X140500000Y-43570000D02*
X141500000Y-43570000D01*
X140500000Y-44570000D02*
X140500000Y-43570000D01*
X140500000Y-57570000D02*
X140500000Y-56570000D01*
X141500000Y-57570000D02*
X140500000Y-57570000D01*
X153500000Y-43570000D02*
X154500000Y-43570000D01*
X154500000Y-43570000D02*
X154500000Y-44570000D01*
X154500000Y-56570000D02*
X154500000Y-57570000D01*
X154500000Y-57570000D02*
X153500000Y-57570000D01*
X140500000Y-62570000D02*
X141500000Y-62570000D01*
X140500000Y-63570000D02*
X140500000Y-62570000D01*
X140500000Y-76570000D02*
X140500000Y-75570000D01*
X141500000Y-76570000D02*
X140500000Y-76570000D01*
X153500000Y-62570000D02*
X154500000Y-62570000D01*
X154500000Y-62570000D02*
X154500000Y-63570000D01*
X154500000Y-75570000D02*
X154500000Y-76570000D01*
X154500000Y-76570000D02*
X153500000Y-76570000D01*
X180413822Y-125110822D02*
X181279848Y-125610822D01*
X179913822Y-125976848D02*
X180413822Y-125110822D01*
X173413822Y-137235178D02*
X173913822Y-136369152D01*
X174279848Y-137735178D02*
X173413822Y-137235178D01*
X191672152Y-131610822D02*
X192538178Y-132110822D01*
X192538178Y-132110822D02*
X192038178Y-132976848D01*
X186038178Y-143369152D02*
X185538178Y-144235178D01*
X185538178Y-144235178D02*
X184672152Y-143735178D01*
X83500000Y-57195000D02*
X84500000Y-57195000D01*
X83500000Y-58195000D02*
X83500000Y-57195000D01*
X83500000Y-71195000D02*
X83500000Y-70195000D01*
X84500000Y-71195000D02*
X83500000Y-71195000D01*
X96500000Y-57195000D02*
X97500000Y-57195000D01*
X97500000Y-57195000D02*
X97500000Y-58195000D01*
X97500000Y-70195000D02*
X97500000Y-71195000D01*
X97500000Y-71195000D02*
X96500000Y-71195000D01*
X83500000Y-76195000D02*
X84500000Y-76195000D01*
X83500000Y-77195000D02*
X83500000Y-76195000D01*
X83500000Y-90195000D02*
X83500000Y-89195000D01*
X84500000Y-90195000D02*
X83500000Y-90195000D01*
X96500000Y-76195000D02*
X97500000Y-76195000D01*
X97500000Y-76195000D02*
X97500000Y-77195000D01*
X97500000Y-89195000D02*
X97500000Y-90195000D01*
X97500000Y-90195000D02*
X96500000Y-90195000D01*
X102500000Y-83695000D02*
X103500000Y-83695000D01*
X102500000Y-84695000D02*
X102500000Y-83695000D01*
X102500000Y-97695000D02*
X102500000Y-96695000D01*
X103500000Y-97695000D02*
X102500000Y-97695000D01*
X115500000Y-83695000D02*
X116500000Y-83695000D01*
X116500000Y-83695000D02*
X116500000Y-84695000D01*
X116500000Y-96695000D02*
X116500000Y-97695000D01*
X116500000Y-97695000D02*
X115500000Y-97695000D01*
X159500000Y-72070000D02*
X160500000Y-72070000D01*
X159500000Y-73070000D02*
X159500000Y-72070000D01*
X159500000Y-86070000D02*
X159500000Y-85070000D01*
X160500000Y-86070000D02*
X159500000Y-86070000D01*
X172500000Y-72070000D02*
X173500000Y-72070000D01*
X173500000Y-72070000D02*
X173500000Y-73070000D01*
X173500000Y-85070000D02*
X173500000Y-86070000D01*
X173500000Y-86070000D02*
X172500000Y-86070000D01*
X121500000Y-79445000D02*
X122500000Y-79445000D01*
X121500000Y-80445000D02*
X121500000Y-79445000D01*
X121500000Y-93445000D02*
X121500000Y-92445000D01*
X122500000Y-93445000D02*
X121500000Y-93445000D01*
X134500000Y-79445000D02*
X135500000Y-79445000D01*
X135500000Y-79445000D02*
X135500000Y-80445000D01*
X135500000Y-92445000D02*
X135500000Y-93445000D01*
X135500000Y-93445000D02*
X134500000Y-93445000D01*
X163937822Y-115377822D02*
X164803848Y-115877822D01*
X163437822Y-116243848D02*
X163937822Y-115377822D01*
X156937822Y-127502178D02*
X157437822Y-126636152D01*
X157803848Y-128002178D02*
X156937822Y-127502178D01*
X175196152Y-121877822D02*
X176062178Y-122377822D01*
X176062178Y-122377822D02*
X175562178Y-123243848D01*
X169562178Y-133636152D02*
X169062178Y-134502178D01*
X169062178Y-134502178D02*
X168196152Y-134002178D01*
X83500000Y-95195000D02*
X84500000Y-95195000D01*
X83500000Y-96195000D02*
X83500000Y-95195000D01*
X83500000Y-109195000D02*
X83500000Y-108195000D01*
X84500000Y-109195000D02*
X83500000Y-109195000D01*
X96500000Y-95195000D02*
X97500000Y-95195000D01*
X97500000Y-95195000D02*
X97500000Y-96195000D01*
X97500000Y-108195000D02*
X97500000Y-109195000D01*
X97500000Y-109195000D02*
X96500000Y-109195000D01*
X121500000Y-41445000D02*
X122500000Y-41445000D01*
X121500000Y-42445000D02*
X121500000Y-41445000D01*
X121500000Y-55445000D02*
X121500000Y-54445000D01*
X122500000Y-55445000D02*
X121500000Y-55445000D01*
X134500000Y-41445000D02*
X135500000Y-41445000D01*
X135500000Y-41445000D02*
X135500000Y-42445000D01*
X135500000Y-54445000D02*
X135500000Y-55445000D01*
X135500000Y-55445000D02*
X134500000Y-55445000D01*
X159500000Y-53070000D02*
X160500000Y-53070000D01*
X159500000Y-54070000D02*
X159500000Y-53070000D01*
X159500000Y-67070000D02*
X159500000Y-66070000D01*
X160500000Y-67070000D02*
X159500000Y-67070000D01*
X172500000Y-53070000D02*
X173500000Y-53070000D01*
X173500000Y-53070000D02*
X173500000Y-54070000D01*
X173500000Y-66070000D02*
X173500000Y-67070000D01*
X173500000Y-67070000D02*
X172500000Y-67070000D01*
D12*
X138000000Y-72330000D02*
X138000000Y-71680000D01*
X136880000Y-71680000D02*
X136880000Y-67440000D01*
X139120000Y-71680000D02*
X136880000Y-71680000D01*
X139120000Y-71080000D02*
X136880000Y-71080000D01*
X139120000Y-70960000D02*
X136880000Y-70960000D01*
X139120000Y-70840000D02*
X136880000Y-70840000D01*
X136880000Y-67440000D02*
X139120000Y-67440000D01*
X139120000Y-67440000D02*
X139120000Y-71680000D01*
X138000000Y-66790000D02*
X138000000Y-67440000D01*
X173209000Y-132499891D02*
X173534000Y-131936974D01*
X172564052Y-131376974D02*
X174684052Y-127705026D01*
X174503948Y-132496974D02*
X172564052Y-131376974D01*
X174803948Y-131977359D02*
X172864052Y-130857359D01*
X174863948Y-131873436D02*
X172924052Y-130753436D01*
X174923948Y-131769513D02*
X172984052Y-130649513D01*
X174684052Y-127705026D02*
X176623948Y-128825026D01*
X176623948Y-128825026D02*
X174503948Y-132496974D01*
X175979000Y-127702110D02*
X175654000Y-128265026D01*
X157000000Y-62830000D02*
X157000000Y-62180000D01*
X155880000Y-62180000D02*
X155880000Y-57940000D01*
X158120000Y-62180000D02*
X155880000Y-62180000D01*
X158120000Y-61580000D02*
X155880000Y-61580000D01*
X158120000Y-61460000D02*
X155880000Y-61460000D01*
X158120000Y-61340000D02*
X155880000Y-61340000D01*
X155880000Y-57940000D02*
X158120000Y-57940000D01*
X158120000Y-57940000D02*
X158120000Y-62180000D01*
X157000000Y-57290000D02*
X157000000Y-57940000D01*
X156699000Y-122847891D02*
X157024000Y-122284974D01*
X156054052Y-121724974D02*
X158174052Y-118053026D01*
X157993948Y-122844974D02*
X156054052Y-121724974D01*
X158293948Y-122325359D02*
X156354052Y-121205359D01*
X158353948Y-122221436D02*
X156414052Y-121101436D01*
X158413948Y-122117513D02*
X156474052Y-120997513D01*
X158174052Y-118053026D02*
X160113948Y-119173026D01*
X160113948Y-119173026D02*
X157993948Y-122844974D01*
X159469000Y-118050110D02*
X159144000Y-118613026D01*
X81000000Y-66955000D02*
X81000000Y-66305000D01*
X79880000Y-66305000D02*
X79880000Y-62065000D01*
X82120000Y-66305000D02*
X79880000Y-66305000D01*
X82120000Y-65705000D02*
X79880000Y-65705000D01*
X82120000Y-65585000D02*
X79880000Y-65585000D01*
X82120000Y-65465000D02*
X79880000Y-65465000D01*
X79880000Y-62065000D02*
X82120000Y-62065000D01*
X82120000Y-62065000D02*
X82120000Y-66305000D01*
X81000000Y-61415000D02*
X81000000Y-62065000D01*
X119000000Y-51205000D02*
X119000000Y-50555000D01*
X117880000Y-50555000D02*
X117880000Y-46315000D01*
X120120000Y-50555000D02*
X117880000Y-50555000D01*
X120120000Y-49955000D02*
X117880000Y-49955000D01*
X120120000Y-49835000D02*
X117880000Y-49835000D01*
X120120000Y-49715000D02*
X117880000Y-49715000D01*
X117880000Y-46315000D02*
X120120000Y-46315000D01*
X120120000Y-46315000D02*
X120120000Y-50555000D01*
X119000000Y-45665000D02*
X119000000Y-46315000D01*
X81000000Y-104955000D02*
X81000000Y-104305000D01*
X79880000Y-104305000D02*
X79880000Y-100065000D01*
X82120000Y-104305000D02*
X79880000Y-104305000D01*
X82120000Y-103705000D02*
X79880000Y-103705000D01*
X82120000Y-103585000D02*
X79880000Y-103585000D01*
X82120000Y-103465000D02*
X79880000Y-103465000D01*
X79880000Y-100065000D02*
X82120000Y-100065000D01*
X82120000Y-100065000D02*
X82120000Y-104305000D01*
X81000000Y-99415000D02*
X81000000Y-100065000D01*
X100000000Y-74455000D02*
X100000000Y-73805000D01*
X98880000Y-73805000D02*
X98880000Y-69565000D01*
X101120000Y-73805000D02*
X98880000Y-73805000D01*
X101120000Y-73205000D02*
X98880000Y-73205000D01*
X101120000Y-73085000D02*
X98880000Y-73085000D01*
X101120000Y-72965000D02*
X98880000Y-72965000D01*
X98880000Y-69565000D02*
X101120000Y-69565000D01*
X101120000Y-69565000D02*
X101120000Y-73805000D01*
X100000000Y-68915000D02*
X100000000Y-69565000D01*
X138000000Y-53330000D02*
X138000000Y-52680000D01*
X136880000Y-52680000D02*
X136880000Y-48440000D01*
X139120000Y-52680000D02*
X136880000Y-52680000D01*
X139120000Y-52080000D02*
X136880000Y-52080000D01*
X139120000Y-51960000D02*
X136880000Y-51960000D01*
X139120000Y-51840000D02*
X136880000Y-51840000D01*
X136880000Y-48440000D02*
X139120000Y-48440000D01*
X139120000Y-48440000D02*
X139120000Y-52680000D01*
X138000000Y-47790000D02*
X138000000Y-48440000D01*
X119000000Y-89205000D02*
X119000000Y-88555000D01*
X117880000Y-88555000D02*
X117880000Y-84315000D01*
X120120000Y-88555000D02*
X117880000Y-88555000D01*
X120120000Y-87955000D02*
X117880000Y-87955000D01*
X120120000Y-87835000D02*
X117880000Y-87835000D01*
X120120000Y-87715000D02*
X117880000Y-87715000D01*
X117880000Y-84315000D02*
X120120000Y-84315000D01*
X120120000Y-84315000D02*
X120120000Y-88555000D01*
X119000000Y-83665000D02*
X119000000Y-84315000D01*
G36*
X149593410Y-111946931D02*
G01*
X149690729Y-112000008D01*
X149686528Y-112090105D01*
X149585661Y-112200795D01*
X149392981Y-112315648D01*
X149281431Y-112366470D01*
X149116697Y-112435031D01*
X149019422Y-112466704D01*
X148997607Y-112471257D01*
X148899512Y-112521506D01*
X148884517Y-112530733D01*
X148771573Y-112555554D01*
X148600534Y-112565983D01*
X148549676Y-112567040D01*
X148378029Y-112583364D01*
X148272883Y-112612904D01*
X148248667Y-112621470D01*
X148115377Y-112637755D01*
X147903838Y-112645939D01*
X147647267Y-112644351D01*
X147531945Y-112641307D01*
X147179756Y-112631869D01*
X146793105Y-112621357D01*
X146436946Y-112611530D01*
X146235108Y-112603275D01*
X145978696Y-112584500D01*
X145785394Y-112560329D01*
X145686207Y-112533964D01*
X145634164Y-112505554D01*
X145508430Y-112461996D01*
X145483163Y-112457476D01*
X145386195Y-112401468D01*
X145394988Y-112286196D01*
X145416372Y-112256532D01*
X145533635Y-112205401D01*
X145701658Y-112189215D01*
X145870350Y-112209519D01*
X145989618Y-112267857D01*
X145996474Y-112272883D01*
X146103985Y-112299485D01*
X146308560Y-112320494D01*
X146586288Y-112335824D01*
X146913258Y-112345391D01*
X147265559Y-112349110D01*
X147619281Y-112346895D01*
X147950512Y-112338663D01*
X148235341Y-112324328D01*
X148449857Y-112303806D01*
X148570150Y-112277012D01*
X148850814Y-112149802D01*
X149095190Y-112045263D01*
X149270176Y-111980903D01*
X149398812Y-111948395D01*
X149504137Y-111939409D01*
X149593410Y-111946931D01*
G37*
G36*
X144147130Y-106003783D02*
G01*
X144622660Y-106062167D01*
X144659460Y-106069017D01*
X144909640Y-106131659D01*
X145094333Y-106221396D01*
X145266804Y-106363115D01*
X145344228Y-106441327D01*
X145456170Y-106595337D01*
X145472551Y-106716635D01*
X145467372Y-106790737D01*
X145495269Y-106973852D01*
X145556942Y-107178270D01*
X145637506Y-107347100D01*
X145649920Y-107373416D01*
X145687042Y-107507153D01*
X145720066Y-107691189D01*
X145729574Y-107751523D01*
X145775613Y-107957328D01*
X145828832Y-108111373D01*
X145867270Y-108236571D01*
X145825739Y-108373575D01*
X145817284Y-108389846D01*
X145777000Y-108528316D01*
X145738849Y-108743869D01*
X145710100Y-108997298D01*
X145703658Y-109068561D01*
X145675787Y-109296128D01*
X145644173Y-109462748D01*
X145614487Y-109536449D01*
X145588790Y-109565440D01*
X145560950Y-109675244D01*
X145542038Y-109758350D01*
X145476779Y-109925578D01*
X145381051Y-110125123D01*
X145300476Y-110285818D01*
X145209060Y-110485555D01*
X145155191Y-110625616D01*
X145145562Y-110653549D01*
X145062865Y-110803695D01*
X144942466Y-110957659D01*
X144817186Y-111077707D01*
X144719847Y-111126109D01*
X144665281Y-111149420D01*
X144579456Y-111243485D01*
X144565865Y-111262173D01*
X144425755Y-111348497D01*
X144172858Y-111402504D01*
X144046013Y-111421571D01*
X143859247Y-111462046D01*
X143746259Y-111503135D01*
X143728465Y-111511977D01*
X143596717Y-111540745D01*
X143399365Y-111557225D01*
X143174441Y-111561477D01*
X142959974Y-111553563D01*
X142793994Y-111533543D01*
X142714532Y-111501478D01*
X142674749Y-111467858D01*
X142555376Y-111438916D01*
X142542459Y-111438377D01*
X142391330Y-111392884D01*
X142199571Y-111292405D01*
X142006194Y-111162769D01*
X141850208Y-111029804D01*
X141770625Y-110919339D01*
X141708586Y-110783995D01*
X141605416Y-110625616D01*
X141462399Y-110399190D01*
X141349508Y-110121369D01*
X141306897Y-109870929D01*
X141290167Y-109740863D01*
X141244335Y-109655911D01*
X141225927Y-109626456D01*
X141200439Y-109495816D01*
X141186315Y-109298171D01*
X141183573Y-109070977D01*
X141192231Y-108851685D01*
X141212307Y-108677750D01*
X141243819Y-108586625D01*
X141272030Y-108510179D01*
X141233585Y-108333092D01*
X141197566Y-108184188D01*
X141214886Y-108022896D01*
X141246051Y-107946957D01*
X141278087Y-107841626D01*
X141291150Y-107782313D01*
X141355714Y-107599297D01*
X141438350Y-107434976D01*
X141467685Y-107385104D01*
X141533026Y-107247291D01*
X141591863Y-107167373D01*
X141721631Y-107040387D01*
X141889160Y-106896274D01*
X142062546Y-106761085D01*
X142209884Y-106660869D01*
X142299270Y-106621675D01*
X142321768Y-106618453D01*
X142370444Y-106559113D01*
X142375147Y-106537392D01*
X142445667Y-106496552D01*
X142469289Y-106491110D01*
X142577705Y-106425661D01*
X142713500Y-106309868D01*
X142723376Y-106300528D01*
X142962196Y-106152686D01*
X143294216Y-106051986D01*
X143696754Y-106001370D01*
X144147130Y-106003783D01*
G37*
G36*
X153966141Y-104638362D02*
G01*
X153963162Y-104968147D01*
X153954489Y-105278139D01*
X153940243Y-105542082D01*
X153920542Y-105733723D01*
X153895505Y-105826805D01*
X153889479Y-105836589D01*
X153856420Y-105951888D01*
X153824844Y-106148767D01*
X153800858Y-106390829D01*
X153797104Y-106439444D01*
X153771354Y-106675395D01*
X153739393Y-106858978D01*
X153707255Y-106953883D01*
X153638676Y-107074347D01*
X153610995Y-107303208D01*
X153648508Y-107403695D01*
X153695931Y-107530727D01*
X153702440Y-107540791D01*
X153784676Y-107707400D01*
X153818800Y-107852053D01*
X153831305Y-107937234D01*
X153880624Y-108008457D01*
X153910674Y-108041477D01*
X153959743Y-108178866D01*
X154006910Y-108395397D01*
X154049047Y-108662727D01*
X154083029Y-108952513D01*
X154105729Y-109236414D01*
X154111645Y-109414568D01*
X154114020Y-109486084D01*
X154104776Y-109673183D01*
X154074870Y-109769366D01*
X154048098Y-109803972D01*
X154006511Y-109934311D01*
X153986303Y-110022904D01*
X153979083Y-110054559D01*
X153912669Y-110210477D01*
X153875395Y-110282619D01*
X153828675Y-110389766D01*
X153841210Y-110431106D01*
X153913054Y-110437931D01*
X153977048Y-110453551D01*
X154001343Y-110522190D01*
X153928695Y-110606867D01*
X153887264Y-110648705D01*
X153795606Y-110781322D01*
X153694089Y-110960880D01*
X153631366Y-111082322D01*
X153489755Y-111349062D01*
X153379657Y-111537744D01*
X153284019Y-111673615D01*
X153185788Y-111781921D01*
X153067910Y-111887909D01*
X153031828Y-111918870D01*
X152851969Y-112078015D01*
X152631673Y-112278043D01*
X152410543Y-112483100D01*
X152336096Y-112551608D01*
X152128208Y-112730056D01*
X151943118Y-112872139D01*
X151813806Y-112951943D01*
X151684702Y-113036725D01*
X151629557Y-113174632D01*
X151629360Y-113188073D01*
X151593417Y-113288714D01*
X151472926Y-113315764D01*
X151440991Y-113317800D01*
X151269923Y-113360412D01*
X151082843Y-113440887D01*
X151032259Y-113466760D01*
X150863262Y-113537578D01*
X150742673Y-113566010D01*
X150686589Y-113573761D01*
X150597291Y-113628572D01*
X150574455Y-113646403D01*
X150453520Y-113678441D01*
X150274803Y-113691133D01*
X150209494Y-113693193D01*
X149993070Y-113723356D01*
X149824924Y-113778049D01*
X149748541Y-113813656D01*
X149538031Y-113884079D01*
X149251520Y-113949355D01*
X148876739Y-114011669D01*
X148401422Y-114073204D01*
X147813301Y-114136145D01*
X147611531Y-114158333D01*
X147351748Y-114193741D01*
X147153261Y-114229008D01*
X147047770Y-114259044D01*
X147012268Y-114271742D01*
X146862081Y-114295044D01*
X146643694Y-114309556D01*
X146389282Y-114315389D01*
X146131022Y-114312657D01*
X145901092Y-114301471D01*
X145731668Y-114281944D01*
X145654926Y-114254187D01*
X145618490Y-114206837D01*
X145576277Y-114206705D01*
X145547693Y-114301737D01*
X145530393Y-114501862D01*
X145522033Y-114817007D01*
X145517397Y-114990367D01*
X145501124Y-115240815D01*
X145476848Y-115428550D01*
X145447853Y-115522370D01*
X145419054Y-115579190D01*
X145373462Y-115739031D01*
X145337112Y-115944914D01*
X145315005Y-116078714D01*
X145264054Y-116279678D01*
X145207967Y-116410842D01*
X145157268Y-116505067D01*
X145123153Y-116636717D01*
X145119312Y-116665314D01*
X145066704Y-116799634D01*
X144972088Y-116961797D01*
X144933466Y-117022241D01*
X144868108Y-117153379D01*
X144860793Y-117224175D01*
X144870960Y-117241235D01*
X144839814Y-117307513D01*
X144759640Y-117387881D01*
X144642417Y-117610525D01*
X144557358Y-117920734D01*
X144511988Y-118295824D01*
X144501353Y-118501675D01*
X144501374Y-118683530D01*
X144524323Y-118805218D01*
X144578280Y-118903143D01*
X144671325Y-119013711D01*
X144700449Y-119045968D01*
X144816179Y-119156400D01*
X144904967Y-119186994D01*
X145007135Y-119154677D01*
X145060493Y-119130744D01*
X145240295Y-119057794D01*
X145446673Y-118980912D01*
X145541530Y-118944039D01*
X145712756Y-118860326D01*
X145814063Y-118786609D01*
X145863794Y-118739604D01*
X145962503Y-118696059D01*
X145980650Y-118692009D01*
X146081106Y-118625301D01*
X146215594Y-118502594D01*
X146351741Y-118357649D01*
X146457170Y-118224224D01*
X146499508Y-118136080D01*
X146503551Y-118110372D01*
X146547634Y-117986178D01*
X146624631Y-117820197D01*
X146651565Y-117764141D01*
X146722376Y-117577008D01*
X146751744Y-117431680D01*
X146791326Y-117262100D01*
X146890570Y-117124806D01*
X147017774Y-117069458D01*
X147056996Y-117081590D01*
X147097040Y-117150844D01*
X147124262Y-117301058D01*
X147144430Y-117554311D01*
X147190575Y-118061913D01*
X147276668Y-118516888D01*
X147407022Y-118870803D01*
X147589305Y-119134418D01*
X147831185Y-119318495D01*
X148140330Y-119433796D01*
X148524407Y-119491084D01*
X148849187Y-119496520D01*
X149161736Y-119445452D01*
X149373047Y-119332062D01*
X149478617Y-119157923D01*
X149524356Y-119014273D01*
X149605581Y-118825352D01*
X149606296Y-118823975D01*
X149665112Y-118645630D01*
X149689763Y-118442685D01*
X149690072Y-118421969D01*
X149711075Y-118258139D01*
X149754838Y-118155902D01*
X149777423Y-118085864D01*
X149797344Y-117915697D01*
X149811343Y-117675576D01*
X149819285Y-117393344D01*
X149821040Y-117096842D01*
X149816475Y-116813911D01*
X149805457Y-116572391D01*
X149787854Y-116400125D01*
X149763534Y-116324953D01*
X149750892Y-116306937D01*
X149717683Y-116188577D01*
X149684903Y-115989014D01*
X149658103Y-115739096D01*
X149648088Y-115629977D01*
X149619736Y-115398807D01*
X149589066Y-115231652D01*
X149561163Y-115158943D01*
X149530437Y-115117241D01*
X149490596Y-114975042D01*
X149467637Y-114780064D01*
X149465840Y-114577012D01*
X149489489Y-114410591D01*
X149549475Y-114281611D01*
X149663368Y-114222907D01*
X149692397Y-114224544D01*
X149750833Y-114257241D01*
X149778049Y-114354896D01*
X149785290Y-114547441D01*
X149788884Y-114668278D01*
X149806003Y-114833492D01*
X149832211Y-114917597D01*
X149845651Y-114943953D01*
X149868712Y-115070590D01*
X149877833Y-115253087D01*
X149880420Y-115338965D01*
X149902216Y-115508737D01*
X149938957Y-115604080D01*
X149951234Y-115625430D01*
X149984449Y-115752790D01*
X150016610Y-115959526D01*
X150042191Y-116213040D01*
X150051511Y-116321405D01*
X150078814Y-116552875D01*
X150109138Y-116720499D01*
X150137471Y-116793736D01*
X150146816Y-116801816D01*
X150181186Y-116902137D01*
X150188784Y-117055472D01*
X150170713Y-117203631D01*
X150128079Y-117288424D01*
X150115845Y-117306594D01*
X150090084Y-117425488D01*
X150072209Y-117625623D01*
X150065517Y-117876024D01*
X150064726Y-117983671D01*
X150056975Y-118217691D01*
X150042726Y-118388965D01*
X150024163Y-118466314D01*
X149992804Y-118538669D01*
X149968677Y-118680066D01*
X149961769Y-118748014D01*
X149889013Y-119082127D01*
X149764795Y-119368611D01*
X149604628Y-119569559D01*
X149567573Y-119600029D01*
X149443304Y-119691506D01*
X149370575Y-119728325D01*
X149357500Y-119729974D01*
X149274217Y-119779313D01*
X149257328Y-119787658D01*
X149138285Y-119803305D01*
X148938511Y-119807131D01*
X148690309Y-119798096D01*
X148470666Y-119784289D01*
X148166469Y-119761389D01*
X147953257Y-119737431D01*
X147809245Y-119708776D01*
X147712653Y-119671782D01*
X147641699Y-119622808D01*
X147559980Y-119562446D01*
X147421352Y-119489191D01*
X147337783Y-119429286D01*
X147253167Y-119298075D01*
X147200584Y-119191056D01*
X147128982Y-119105095D01*
X147124157Y-119101555D01*
X147080496Y-119007782D01*
X147062562Y-118852463D01*
X147062389Y-118836608D01*
X147042610Y-118685559D01*
X147000000Y-118602217D01*
X146960506Y-118543308D01*
X146937439Y-118410840D01*
X146921530Y-118309660D01*
X146861478Y-118263015D01*
X146778740Y-118315275D01*
X146696994Y-118461453D01*
X146597964Y-118637036D01*
X146410412Y-118833796D01*
X146164864Y-119011374D01*
X145879631Y-119164660D01*
X145573021Y-119288539D01*
X145263346Y-119377900D01*
X144968916Y-119427630D01*
X144708041Y-119432616D01*
X144499032Y-119387746D01*
X144360199Y-119287907D01*
X144309852Y-119127986D01*
X144301310Y-119066518D01*
X144247291Y-118977586D01*
X144234499Y-118957916D01*
X144209005Y-118836871D01*
X144191337Y-118634941D01*
X144184729Y-118382870D01*
X144184743Y-118363350D01*
X144191010Y-118076105D01*
X144213849Y-117870001D01*
X144260812Y-117703689D01*
X144339454Y-117535821D01*
X144388249Y-117437521D01*
X144479888Y-117215688D01*
X144534231Y-117031327D01*
X144538147Y-117011499D01*
X144580774Y-116863588D01*
X144626730Y-116785416D01*
X144626880Y-116785322D01*
X144678427Y-116715355D01*
X144762817Y-116563979D01*
X144861856Y-116363816D01*
X144915107Y-116240892D01*
X145061216Y-115766254D01*
X145153533Y-115219115D01*
X145185715Y-114633367D01*
X145185715Y-114201567D01*
X144982389Y-114158092D01*
X144976287Y-114156772D01*
X144817797Y-114112766D01*
X144716503Y-114067877D01*
X144665033Y-114046639D01*
X144513132Y-114012064D01*
X144311291Y-113982524D01*
X144224589Y-113969936D01*
X143975602Y-113903991D01*
X143789383Y-113811379D01*
X143780303Y-113804768D01*
X143617958Y-113710378D01*
X143475136Y-113661962D01*
X143295704Y-113618344D01*
X142993600Y-113466990D01*
X142645226Y-113208306D01*
X142479258Y-113076911D01*
X142335717Y-112978153D01*
X142254216Y-112940394D01*
X142225008Y-112933000D01*
X142182759Y-112856248D01*
X142151738Y-112772866D01*
X142057636Y-112658867D01*
X141975422Y-112563410D01*
X141932513Y-112460637D01*
X141893992Y-112318292D01*
X141802921Y-112156994D01*
X141697907Y-112045783D01*
X141666568Y-112018731D01*
X141619705Y-111912680D01*
X141605280Y-111856590D01*
X141525862Y-111751724D01*
X141477066Y-111695383D01*
X141432020Y-111565919D01*
X141398134Y-111476868D01*
X141298309Y-111325884D01*
X141155621Y-111152659D01*
X141022237Y-110996035D01*
X140930515Y-110869402D01*
X140905042Y-110805541D01*
X140906116Y-110803468D01*
X140894895Y-110720259D01*
X140837738Y-110585206D01*
X140772596Y-110429210D01*
X140744228Y-110297168D01*
X140735809Y-110239430D01*
X140689571Y-110187685D01*
X140688369Y-110187652D01*
X140635816Y-110126775D01*
X140584505Y-109966909D01*
X140537102Y-109733593D01*
X140496277Y-109452365D01*
X140478273Y-109279285D01*
X140757209Y-109279285D01*
X140764696Y-109353531D01*
X140783514Y-109363318D01*
X140806404Y-109311823D01*
X140801889Y-109278703D01*
X140764696Y-109270115D01*
X140757209Y-109279285D01*
X140478273Y-109279285D01*
X140464696Y-109148764D01*
X140445027Y-108848329D01*
X140444795Y-108835936D01*
X141027885Y-108835936D01*
X141032300Y-109140810D01*
X141041905Y-109311823D01*
X141047181Y-109405762D01*
X141072949Y-109602575D01*
X141110028Y-109703033D01*
X141110702Y-109703715D01*
X141160920Y-109814115D01*
X141181774Y-109977539D01*
X141181823Y-109985621D01*
X141200981Y-110135251D01*
X141244335Y-110218966D01*
X141274247Y-110250153D01*
X141308288Y-110363421D01*
X141344297Y-110482142D01*
X141432020Y-110625616D01*
X141518020Y-110764439D01*
X141555752Y-110884330D01*
X141562707Y-110909272D01*
X141637015Y-111021004D01*
X141775286Y-111179700D01*
X141955824Y-111359586D01*
X141965357Y-111368493D01*
X142176668Y-111556701D01*
X142338982Y-111673452D01*
X142486328Y-111738953D01*
X142652733Y-111773409D01*
X142717184Y-111780842D01*
X142949793Y-111796222D01*
X143237218Y-111804527D01*
X143543505Y-111805858D01*
X143832702Y-111800316D01*
X144068855Y-111788001D01*
X144216010Y-111769016D01*
X144293285Y-111744907D01*
X144403695Y-111690588D01*
X144415046Y-111683339D01*
X144531314Y-111640199D01*
X144700862Y-111600643D01*
X144842311Y-111566020D01*
X144918106Y-111504324D01*
X144935468Y-111388355D01*
X144959009Y-111264930D01*
X145075121Y-111156584D01*
X145176455Y-111087442D01*
X145286759Y-110948963D01*
X145303433Y-110918291D01*
X145408571Y-110765939D01*
X145544187Y-110604874D01*
X145610489Y-110529664D01*
X145833386Y-110207416D01*
X146004289Y-109851629D01*
X146097125Y-109513752D01*
X146112442Y-109421819D01*
X146152944Y-109249433D01*
X146193119Y-109150783D01*
X146219809Y-109078103D01*
X146217981Y-108936453D01*
X146214656Y-108829823D01*
X146256411Y-108708873D01*
X146279837Y-108654509D01*
X146298241Y-108482603D01*
X146288737Y-108235025D01*
X146272847Y-108047220D01*
X146257070Y-107845218D01*
X146248852Y-107719386D01*
X146238611Y-107646452D01*
X146192576Y-107531701D01*
X146146412Y-107429960D01*
X146105052Y-107272070D01*
X146053417Y-107105266D01*
X145924946Y-106839339D01*
X145750438Y-106556069D01*
X145554799Y-106294946D01*
X145362938Y-106095462D01*
X145261854Y-106017333D01*
X145062977Y-105897646D01*
X144893316Y-105833488D01*
X144877479Y-105830379D01*
X144729291Y-105787066D01*
X144649558Y-105738721D01*
X144646256Y-105734409D01*
X144556757Y-105698138D01*
X144403695Y-105683251D01*
X144386569Y-105683091D01*
X144238865Y-105667326D01*
X144161454Y-105633642D01*
X144161178Y-105633215D01*
X144085045Y-105607400D01*
X143933825Y-105596548D01*
X143755932Y-105599797D01*
X143599784Y-105616287D01*
X143513793Y-105645156D01*
X143503839Y-105651626D01*
X143400100Y-105674151D01*
X143235879Y-105683251D01*
X143189014Y-105684404D01*
X143051412Y-105704919D01*
X142996059Y-105742978D01*
X142994867Y-105749557D01*
X142926547Y-105800269D01*
X142785504Y-105842205D01*
X142664944Y-105885102D01*
X142465006Y-106000508D01*
X142259277Y-106157848D01*
X142095300Y-106294923D01*
X141960535Y-106395555D01*
X141888786Y-106433990D01*
X141875213Y-106436656D01*
X141782895Y-106497501D01*
X141652219Y-106617193D01*
X141509352Y-106767103D01*
X141380457Y-106918602D01*
X141291699Y-107043063D01*
X141269244Y-107111858D01*
X141279145Y-107137087D01*
X141245356Y-107215379D01*
X141242326Y-107217484D01*
X141199458Y-107307190D01*
X141181774Y-107459522D01*
X141181733Y-107468613D01*
X141168856Y-107620079D01*
X141139906Y-107706236D01*
X141106440Y-107781546D01*
X141073214Y-107963944D01*
X141048764Y-108219286D01*
X141033514Y-108519356D01*
X141027885Y-108835936D01*
X140444795Y-108835936D01*
X140439938Y-108576596D01*
X140452098Y-108359106D01*
X140484172Y-108221397D01*
X140573253Y-107982698D01*
X140588297Y-107782185D01*
X140518023Y-107656665D01*
X140493038Y-107633410D01*
X140422730Y-107479123D01*
X140382385Y-107209745D01*
X140365125Y-107045670D01*
X140335263Y-106870713D01*
X140304113Y-106778079D01*
X140284905Y-106738526D01*
X140245321Y-106595892D01*
X140210032Y-106402710D01*
X140191522Y-106296055D01*
X140144417Y-106113072D01*
X140094695Y-106002157D01*
X140071654Y-105927842D01*
X140050809Y-105734374D01*
X140036056Y-105423221D01*
X140027284Y-104991947D01*
X140024384Y-104438117D01*
X140024764Y-104275616D01*
X140243350Y-104275616D01*
X140243927Y-104434294D01*
X140250454Y-104795881D01*
X140263546Y-105077168D01*
X140282324Y-105263236D01*
X140305912Y-105339163D01*
X140325281Y-105365701D01*
X140356254Y-105490737D01*
X140368473Y-105673023D01*
X140371736Y-105756170D01*
X140403733Y-105956924D01*
X140458828Y-106097219D01*
X140490958Y-106157788D01*
X140549973Y-106336737D01*
X140592198Y-106550474D01*
X140611947Y-106672627D01*
X140651142Y-106831856D01*
X140689527Y-106908299D01*
X140726605Y-106973636D01*
X140747449Y-107110219D01*
X140750612Y-107167735D01*
X140768731Y-107200799D01*
X140812857Y-107140165D01*
X140894609Y-106975169D01*
X140952745Y-106858058D01*
X141037547Y-106707122D01*
X141094328Y-106631080D01*
X141139121Y-106585192D01*
X141217388Y-106469211D01*
X141238886Y-106440616D01*
X141354541Y-106334994D01*
X141532915Y-106198511D01*
X141741593Y-106054029D01*
X141948159Y-105924409D01*
X142120197Y-105832511D01*
X142142220Y-105821378D01*
X142268353Y-105743457D01*
X142424289Y-105634253D01*
X142447080Y-105618228D01*
X142669681Y-105508553D01*
X142910578Y-105447522D01*
X142986512Y-105437074D01*
X143142529Y-105401583D01*
X143220153Y-105362145D01*
X143230831Y-105353495D01*
X143336549Y-105329617D01*
X143522901Y-105314885D01*
X143755660Y-105309071D01*
X144000602Y-105311949D01*
X144223499Y-105323288D01*
X144390126Y-105342862D01*
X144466256Y-105370444D01*
X144534703Y-105412085D01*
X144673274Y-105433354D01*
X144828719Y-105443832D01*
X145196409Y-105553739D01*
X145524761Y-105776471D01*
X145616258Y-105856788D01*
X145745405Y-105956930D01*
X145819194Y-105996059D01*
X145844822Y-106007299D01*
X145873892Y-106091865D01*
X145884510Y-106140073D01*
X145967734Y-106223682D01*
X146011814Y-106247069D01*
X146061577Y-106314564D01*
X146086189Y-106392689D01*
X146152462Y-106549442D01*
X146245792Y-106749726D01*
X146332773Y-106949075D01*
X146388517Y-107118079D01*
X146397931Y-107213606D01*
X146390674Y-107252831D01*
X146432681Y-107338497D01*
X146473053Y-107392541D01*
X146499508Y-107522083D01*
X146507913Y-107616248D01*
X146540828Y-107705688D01*
X146567070Y-107788733D01*
X146580148Y-107969415D01*
X146579436Y-108214905D01*
X146567413Y-108482603D01*
X146566875Y-108494592D01*
X146544408Y-108777866D01*
X146513975Y-109034117D01*
X146477518Y-109232733D01*
X146436978Y-109343104D01*
X146418520Y-109382676D01*
X146380006Y-109525308D01*
X146345141Y-109718473D01*
X146326697Y-109826400D01*
X146282704Y-110003746D01*
X146238020Y-110106742D01*
X146213724Y-110147516D01*
X146211906Y-110240417D01*
X146215905Y-110286622D01*
X146154730Y-110375941D01*
X146104944Y-110427911D01*
X146061577Y-110521593D01*
X146028336Y-110601845D01*
X145936821Y-110717258D01*
X145709200Y-110973461D01*
X145552128Y-111213509D01*
X145498522Y-111401026D01*
X145479079Y-111510382D01*
X145423744Y-111564040D01*
X145406862Y-111566991D01*
X145302207Y-111625617D01*
X145169774Y-111735716D01*
X145096857Y-111794225D01*
X144892133Y-111910407D01*
X144665858Y-111995869D01*
X144529962Y-112023815D01*
X144285433Y-112055325D01*
X143986078Y-112081088D01*
X143657527Y-112100262D01*
X143325409Y-112112006D01*
X143015354Y-112115479D01*
X142752991Y-112109838D01*
X142563949Y-112094242D01*
X142473859Y-112067849D01*
X142409552Y-112029610D01*
X142268558Y-112001971D01*
X142173239Y-111984909D01*
X142030824Y-111903660D01*
X141977841Y-111853444D01*
X141939728Y-111836959D01*
X141954957Y-111907302D01*
X142022917Y-112077934D01*
X142055700Y-112140269D01*
X142166104Y-112297206D01*
X142319455Y-112483012D01*
X142491893Y-112672089D01*
X142659556Y-112838838D01*
X142798584Y-112957660D01*
X142885118Y-113002956D01*
X142911583Y-113010580D01*
X143020158Y-113077388D01*
X143162022Y-113190641D01*
X143223677Y-113241881D01*
X143365606Y-113339552D01*
X143462235Y-113378325D01*
X143497506Y-113382040D01*
X143569540Y-113425246D01*
X143577582Y-113439634D01*
X143688150Y-113530157D01*
X143879780Y-113619326D01*
X144115614Y-113692646D01*
X144358791Y-113735620D01*
X144511149Y-113755040D01*
X144690929Y-113791351D01*
X144791169Y-113829460D01*
X144801265Y-113835749D01*
X144916469Y-113872881D01*
X145112825Y-113913620D01*
X145354223Y-113950222D01*
X145700137Y-113991871D01*
X146067087Y-114029899D01*
X146353238Y-114052015D01*
X146544303Y-114057163D01*
X146625996Y-114044284D01*
X146630132Y-114041909D01*
X146720398Y-114022909D01*
X146906684Y-113996700D01*
X147164670Y-113966424D01*
X147470033Y-113935223D01*
X147525442Y-113929823D01*
X147824939Y-113896450D01*
X148073223Y-113861943D01*
X148245795Y-113830075D01*
X148318158Y-113804619D01*
X148329343Y-113796192D01*
X148436211Y-113766129D01*
X148626306Y-113736232D01*
X148867713Y-113711887D01*
X148945936Y-113705292D01*
X149173993Y-113678998D01*
X149340326Y-113649128D01*
X149413333Y-113620948D01*
X149443371Y-113600727D01*
X149570378Y-113561706D01*
X149755281Y-113528483D01*
X149866184Y-113510151D01*
X150009456Y-113471419D01*
X150065517Y-113432827D01*
X150090799Y-113400535D01*
X150194683Y-113378325D01*
X150329864Y-113355679D01*
X150536854Y-113285500D01*
X150756526Y-113187393D01*
X150944382Y-113081522D01*
X151055924Y-112988052D01*
X151061401Y-112980609D01*
X151176561Y-112846638D01*
X151315696Y-112711452D01*
X151443470Y-112606948D01*
X151524546Y-112565025D01*
X151567957Y-112546692D01*
X151687783Y-112467173D01*
X151844437Y-112346059D01*
X151955646Y-112260773D01*
X152105664Y-112164541D01*
X152201406Y-112127094D01*
X152284453Y-112085158D01*
X152419431Y-111978401D01*
X152576442Y-111835468D01*
X152725598Y-111684999D01*
X152837009Y-111555639D01*
X152880788Y-111476028D01*
X152868091Y-111458416D01*
X152800123Y-111490542D01*
X152691465Y-111547873D01*
X152468367Y-111613362D01*
X152176805Y-111669587D01*
X151848123Y-111713307D01*
X151513665Y-111741284D01*
X151204778Y-111750278D01*
X150952804Y-111737051D01*
X150789089Y-111698363D01*
X150760569Y-111686330D01*
X150595046Y-111639983D01*
X150395029Y-111606213D01*
X150389703Y-111605600D01*
X149985558Y-111498321D01*
X149597617Y-111271463D01*
X149221290Y-110922353D01*
X149171899Y-110867106D01*
X149021047Y-110688997D01*
X148915035Y-110549224D01*
X148874305Y-110474191D01*
X148866165Y-110446594D01*
X148798986Y-110334708D01*
X148686620Y-110190048D01*
X148501478Y-109973446D01*
X148501478Y-109922246D01*
X148845567Y-109922246D01*
X149352066Y-110477256D01*
X149424537Y-110556379D01*
X149687374Y-110834122D01*
X149900000Y-111034352D01*
X150086114Y-111172480D01*
X150269414Y-111263918D01*
X150473596Y-111324075D01*
X150722360Y-111368362D01*
X151058113Y-111406299D01*
X151447794Y-111423783D01*
X151815606Y-111414743D01*
X152136124Y-111380902D01*
X152383921Y-111323982D01*
X152533572Y-111245704D01*
X152583979Y-111215462D01*
X152716340Y-111188670D01*
X152770418Y-111173491D01*
X152906271Y-111085482D01*
X153066806Y-110946003D01*
X153220500Y-110786248D01*
X153335832Y-110637408D01*
X153381281Y-110530675D01*
X153387324Y-110488635D01*
X153436546Y-110437931D01*
X153470757Y-110421081D01*
X153523290Y-110328448D01*
X153542410Y-110267086D01*
X153599842Y-110109483D01*
X153600612Y-110107600D01*
X153606992Y-110022904D01*
X153513098Y-110000000D01*
X153459280Y-110005075D01*
X153396972Y-110060003D01*
X153380970Y-110203325D01*
X153370057Y-110319926D01*
X153266780Y-110553907D01*
X153065998Y-110724746D01*
X152781842Y-110817949D01*
X152703047Y-110830874D01*
X152447028Y-110880057D01*
X152223892Y-110931715D01*
X152105861Y-110955695D01*
X151850309Y-110983600D01*
X151548517Y-110997306D01*
X151234628Y-110997126D01*
X150942790Y-110983376D01*
X150707145Y-110956369D01*
X150561840Y-110916419D01*
X150423097Y-110854219D01*
X150233392Y-110790489D01*
X150118854Y-110745138D01*
X150065517Y-110686986D01*
X150058442Y-110662320D01*
X149982102Y-110625616D01*
X149978616Y-110625503D01*
X149873784Y-110575458D01*
X149734082Y-110458354D01*
X149592925Y-110309304D01*
X149483727Y-110163423D01*
X149439902Y-110055827D01*
X149431473Y-109995142D01*
X149377340Y-109906158D01*
X149340296Y-109856638D01*
X149314393Y-109730421D01*
X149288051Y-109585680D01*
X149220551Y-109414154D01*
X149194261Y-109353914D01*
X149147887Y-109172352D01*
X149128415Y-108976896D01*
X149138434Y-108812252D01*
X149180532Y-108723126D01*
X149181399Y-108721723D01*
X153634755Y-108721723D01*
X153635589Y-108876155D01*
X153655769Y-109016063D01*
X153694587Y-109093165D01*
X153727142Y-109144953D01*
X153730149Y-109268902D01*
X153698894Y-109420854D01*
X153659269Y-109608990D01*
X153658553Y-109612372D01*
X153644919Y-109758190D01*
X153679306Y-109812315D01*
X153689933Y-109809436D01*
X153742179Y-109733315D01*
X153785169Y-109586072D01*
X153785281Y-109585473D01*
X153801080Y-109414568D01*
X153799630Y-109198260D01*
X153784204Y-108970653D01*
X153758075Y-108765851D01*
X153724516Y-108617960D01*
X153686801Y-108561084D01*
X153653972Y-108601050D01*
X153634755Y-108721723D01*
X149181399Y-108721723D01*
X149192936Y-108703064D01*
X149222579Y-108582392D01*
X149252009Y-108380797D01*
X149276373Y-108128398D01*
X149285085Y-108028614D01*
X149319731Y-107759183D01*
X149363918Y-107533162D01*
X149406203Y-107403695D01*
X153131035Y-107403695D01*
X153162315Y-107434976D01*
X153193596Y-107403695D01*
X153162315Y-107372414D01*
X153131035Y-107403695D01*
X149406203Y-107403695D01*
X149410234Y-107391353D01*
X149474546Y-107245630D01*
X149502078Y-107137808D01*
X149505599Y-107109294D01*
X149551309Y-107059606D01*
X149607569Y-107009500D01*
X149675302Y-106887562D01*
X149709461Y-106812670D01*
X149921215Y-106469649D01*
X150183744Y-106235954D01*
X150511018Y-106102266D01*
X150917007Y-106059267D01*
X151236470Y-106064499D01*
X151543633Y-106091332D01*
X151779744Y-106147802D01*
X151974176Y-106241514D01*
X152156300Y-106380071D01*
X152279329Y-106484023D01*
X152411516Y-106584209D01*
X152483738Y-106623756D01*
X152550377Y-106648942D01*
X152667716Y-106736001D01*
X152772732Y-106844409D01*
X152818227Y-106930834D01*
X152829104Y-106967685D01*
X152912069Y-107036982D01*
X152955382Y-107063924D01*
X153005912Y-107163834D01*
X153013001Y-107203261D01*
X153062727Y-107219561D01*
X153077571Y-107173152D01*
X153046429Y-107048958D01*
X152972734Y-106887692D01*
X152874094Y-106726283D01*
X152768117Y-106601663D01*
X152644480Y-106517295D01*
X152465220Y-106441806D01*
X152344816Y-106386242D01*
X152266944Y-106261412D01*
X152228420Y-106176264D01*
X152092471Y-106045936D01*
X151894622Y-105927568D01*
X151671289Y-105841575D01*
X151458885Y-105808375D01*
X151420474Y-105807500D01*
X151250480Y-105783195D01*
X151144228Y-105735952D01*
X151092190Y-105700508D01*
X150990952Y-105728879D01*
X150967884Y-105743693D01*
X150831568Y-105795435D01*
X150647814Y-105837472D01*
X150589860Y-105848816D01*
X150417185Y-105903909D01*
X150311705Y-105969669D01*
X150263621Y-106015080D01*
X150164188Y-106058621D01*
X150157617Y-106059060D01*
X150051201Y-106111524D01*
X149894092Y-106234005D01*
X149711879Y-106401642D01*
X149530152Y-106589573D01*
X149374502Y-106772935D01*
X149270518Y-106926866D01*
X149240962Y-106985815D01*
X149148307Y-107213455D01*
X149090317Y-107420262D01*
X149084441Y-107450726D01*
X149038101Y-107621124D01*
X148986814Y-107731346D01*
X148963474Y-107773671D01*
X148958802Y-107895767D01*
X148966537Y-107939909D01*
X148924448Y-108050527D01*
X148896279Y-108138930D01*
X148873622Y-108339547D01*
X148858226Y-108637919D01*
X148851135Y-109020259D01*
X148845567Y-109922246D01*
X148501478Y-109922246D01*
X148501478Y-109114553D01*
X148501758Y-109029809D01*
X148507883Y-108720645D01*
X148520854Y-108466944D01*
X148539124Y-108291918D01*
X148561149Y-108218782D01*
X148592151Y-108162989D01*
X148631443Y-108012244D01*
X148663230Y-107807040D01*
X148687883Y-107636311D01*
X148724545Y-107474221D01*
X148759964Y-107398603D01*
X148792721Y-107351800D01*
X148817032Y-107227958D01*
X148823864Y-107155735D01*
X148865002Y-106977750D01*
X148929256Y-106791872D01*
X149000417Y-106641565D01*
X149062279Y-106570292D01*
X149083016Y-106559347D01*
X149127094Y-106472330D01*
X149139644Y-106426551D01*
X149238677Y-106296064D01*
X149420946Y-106130533D01*
X149667995Y-105945772D01*
X149961366Y-105757592D01*
X150125915Y-105666346D01*
X150559576Y-105497544D01*
X150998139Y-105440200D01*
X151473153Y-105488701D01*
X151645254Y-105522194D01*
X151845948Y-105559896D01*
X151973646Y-105582213D01*
X152121485Y-105624339D01*
X152328232Y-105713126D01*
X152550458Y-105828614D01*
X152755333Y-105952301D01*
X152910028Y-106065689D01*
X152981714Y-106150277D01*
X152995488Y-106185544D01*
X153077243Y-106318568D01*
X153193150Y-106461280D01*
X153309601Y-106575156D01*
X153392986Y-106621675D01*
X153420394Y-106603802D01*
X153443843Y-106509064D01*
X153451354Y-106446789D01*
X153503038Y-106337020D01*
X153528522Y-106260357D01*
X153557106Y-106083499D01*
X153584161Y-105834504D01*
X153606184Y-105540430D01*
X153626920Y-105257638D01*
X153652476Y-105013270D01*
X153679054Y-104842232D01*
X153703393Y-104770358D01*
X153735698Y-104720748D01*
X153755010Y-104587810D01*
X153741832Y-104438569D01*
X153697065Y-104334897D01*
X153674537Y-104274619D01*
X153645115Y-104109820D01*
X153617259Y-103871304D01*
X153594826Y-103587286D01*
X153577848Y-103352625D01*
X153553633Y-103102940D01*
X153528784Y-102921511D01*
X153506634Y-102836700D01*
X153462808Y-102740558D01*
X153417518Y-102586453D01*
X153366545Y-102416218D01*
X153257549Y-102158954D01*
X153127765Y-101927277D01*
X153001700Y-101769341D01*
X152993261Y-101761802D01*
X152914320Y-101707203D01*
X152816332Y-101684140D01*
X152664640Y-101689712D01*
X152424584Y-101721017D01*
X152289049Y-101743556D01*
X151997660Y-101820104D01*
X151733705Y-101941913D01*
X151462835Y-102127126D01*
X151150702Y-102393887D01*
X151081430Y-102456411D01*
X150835481Y-102664009D01*
X150632485Y-102805282D01*
X150440887Y-102902854D01*
X150144361Y-103041650D01*
X149882397Y-103205129D01*
X149644767Y-103408848D01*
X149519064Y-103521380D01*
X149402209Y-103604761D01*
X149344988Y-103616986D01*
X149342992Y-103614167D01*
X149258904Y-103566415D01*
X149110736Y-103522466D01*
X148941919Y-103471063D01*
X148820211Y-103408170D01*
X148806666Y-103401094D01*
X148684731Y-103378158D01*
X148466089Y-103359993D01*
X148172915Y-103346589D01*
X147827382Y-103337935D01*
X147451665Y-103334023D01*
X147067938Y-103334841D01*
X146698375Y-103340380D01*
X146365152Y-103350629D01*
X146090441Y-103365579D01*
X145896418Y-103385219D01*
X145805256Y-103409539D01*
X145766483Y-103432669D01*
X145615879Y-103485128D01*
X145420320Y-103526126D01*
X145321127Y-103543925D01*
X145178995Y-103584060D01*
X145123153Y-103622988D01*
X145121035Y-103630679D01*
X145048097Y-103676598D01*
X144903496Y-103716819D01*
X144878507Y-103721819D01*
X144728913Y-103765871D01*
X144649558Y-103813496D01*
X144634091Y-103826503D01*
X144523590Y-103856086D01*
X144353081Y-103866918D01*
X144259828Y-103862969D01*
X144118096Y-103829984D01*
X143982500Y-103744865D01*
X143810194Y-103585391D01*
X143671035Y-103454669D01*
X143538717Y-103347176D01*
X143462170Y-103305911D01*
X143442732Y-103301221D01*
X143342758Y-103235916D01*
X143215025Y-103118227D01*
X143050860Y-102986095D01*
X142843591Y-102930130D01*
X142838849Y-102930083D01*
X142650062Y-102892312D01*
X142464286Y-102805419D01*
X142452107Y-102797532D01*
X142285080Y-102714924D01*
X142140908Y-102680708D01*
X142128477Y-102680287D01*
X141973973Y-102646683D01*
X141796819Y-102575868D01*
X141778664Y-102566779D01*
X141608792Y-102482441D01*
X141479790Y-102419464D01*
X141394437Y-102384990D01*
X141159155Y-102362068D01*
X140920265Y-102451849D01*
X140663619Y-102658474D01*
X140521422Y-102812611D01*
X140410824Y-102962065D01*
X140368473Y-103061432D01*
X140359894Y-103123155D01*
X140305912Y-103212069D01*
X140296247Y-103227494D01*
X140274421Y-103347916D01*
X140257745Y-103572690D01*
X140247095Y-103886897D01*
X140243350Y-104275616D01*
X140024764Y-104275616D01*
X140025232Y-104075226D01*
X140031544Y-103608269D01*
X140047189Y-103240861D01*
X140075862Y-102957504D01*
X140121258Y-102742703D01*
X140187073Y-102580963D01*
X140277001Y-102456786D01*
X140394738Y-102354679D01*
X140543978Y-102259144D01*
X140622471Y-102214598D01*
X140755265Y-102154508D01*
X140893671Y-102125070D01*
X141077334Y-102120063D01*
X141345901Y-102133263D01*
X141610864Y-102156723D01*
X141853758Y-102202456D01*
X141987651Y-102266928D01*
X142079117Y-102326525D01*
X142229536Y-102367488D01*
X142368221Y-102392322D01*
X142537418Y-102457644D01*
X142593670Y-102485783D01*
X142786752Y-102579068D01*
X142996059Y-102676970D01*
X143085223Y-102718429D01*
X143265862Y-102805590D01*
X143387069Y-102868340D01*
X143452524Y-102905590D01*
X143606035Y-102993253D01*
X143688575Y-103037494D01*
X143848065Y-103113704D01*
X143975722Y-103199131D01*
X144107315Y-103332520D01*
X144163524Y-103395471D01*
X144296404Y-103472940D01*
X144494007Y-103493596D01*
X144531523Y-103492719D01*
X144750012Y-103462170D01*
X144932008Y-103401543D01*
X144967799Y-103384602D01*
X145164836Y-103316469D01*
X145382472Y-103267879D01*
X145448594Y-103256219D01*
X145628456Y-103209074D01*
X145742711Y-103156607D01*
X145790576Y-103140799D01*
X145952608Y-103120727D01*
X146203881Y-103105007D01*
X146522967Y-103093630D01*
X146888435Y-103086588D01*
X147278858Y-103083872D01*
X147672805Y-103085472D01*
X148048848Y-103091382D01*
X148385557Y-103101590D01*
X148661503Y-103116089D01*
X148855257Y-103134870D01*
X148945389Y-103157924D01*
X148976151Y-103179889D01*
X149114549Y-103242981D01*
X149266637Y-103278250D01*
X149389420Y-103278768D01*
X149439902Y-103237607D01*
X149440856Y-103221452D01*
X149505827Y-103088405D01*
X149638198Y-102977150D01*
X149789218Y-102930542D01*
X149886914Y-102915844D01*
X150014128Y-102851440D01*
X150054126Y-102815459D01*
X150184371Y-102706246D01*
X150347045Y-102575727D01*
X150468815Y-102475884D01*
X150683482Y-102288503D01*
X150887262Y-102099722D01*
X151062406Y-101951226D01*
X151314187Y-101778889D01*
X151577256Y-101632071D01*
X151816638Y-101529930D01*
X151997360Y-101491626D01*
X152073357Y-101481061D01*
X152161330Y-101429064D01*
X152163593Y-101426177D01*
X152250182Y-101396318D01*
X152423902Y-101375681D01*
X152649875Y-101368584D01*
X152922497Y-101379646D01*
X153107415Y-101414341D01*
X153224903Y-101478067D01*
X153296627Y-101547606D01*
X153428075Y-101711483D01*
X153528871Y-101879277D01*
X153569351Y-102005558D01*
X153569489Y-102009714D01*
X153600586Y-102121840D01*
X153669549Y-102273645D01*
X153674046Y-102282507D01*
X153728021Y-102451693D01*
X153773311Y-102702101D01*
X153802413Y-102993104D01*
X153808530Y-103078412D01*
X153835320Y-103322635D01*
X153869620Y-103512581D01*
X153905540Y-103612864D01*
X153918750Y-103646381D01*
X153939732Y-103792793D01*
X153954545Y-104024430D01*
X153963309Y-104315038D01*
X153965698Y-104587810D01*
X153966141Y-104638362D01*
G37*
X81000000Y-85955000D02*
X81000000Y-85305000D01*
X79880000Y-85305000D02*
X79880000Y-81065000D01*
X82120000Y-85305000D02*
X79880000Y-85305000D01*
X82120000Y-84705000D02*
X79880000Y-84705000D01*
X82120000Y-84585000D02*
X79880000Y-84585000D01*
X82120000Y-84465000D02*
X79880000Y-84465000D01*
X79880000Y-81065000D02*
X82120000Y-81065000D01*
X82120000Y-81065000D02*
X82120000Y-85305000D01*
X81000000Y-80415000D02*
X81000000Y-81065000D01*
X185614000Y-112201000D02*
X185614000Y-109541000D01*
X193294000Y-112201000D02*
X185614000Y-112201000D01*
X193294000Y-112201000D02*
X193294000Y-109541000D01*
X194564000Y-112201000D02*
X195894000Y-112201000D01*
X195894000Y-112201000D02*
X195894000Y-110871000D01*
X193294000Y-109541000D02*
X185614000Y-109541000D01*
X157000000Y-100830000D02*
X157000000Y-100180000D01*
X155880000Y-100180000D02*
X155880000Y-95940000D01*
X158120000Y-100180000D02*
X155880000Y-100180000D01*
X158120000Y-99580000D02*
X155880000Y-99580000D01*
X158120000Y-99460000D02*
X155880000Y-99460000D01*
X158120000Y-99340000D02*
X155880000Y-99340000D01*
X155880000Y-95940000D02*
X158120000Y-95940000D01*
X158120000Y-95940000D02*
X158120000Y-100180000D01*
X157000000Y-95290000D02*
X157000000Y-95940000D01*
X100000000Y-55455000D02*
X100000000Y-54805000D01*
X98880000Y-54805000D02*
X98880000Y-50565000D01*
X101120000Y-54805000D02*
X98880000Y-54805000D01*
X101120000Y-54205000D02*
X98880000Y-54205000D01*
X101120000Y-54085000D02*
X98880000Y-54085000D01*
X101120000Y-53965000D02*
X98880000Y-53965000D01*
X98880000Y-50565000D02*
X101120000Y-50565000D01*
X101120000Y-50565000D02*
X101120000Y-54805000D01*
X100000000Y-49915000D02*
X100000000Y-50565000D01*
X138000000Y-91330000D02*
X138000000Y-90680000D01*
X136880000Y-90680000D02*
X136880000Y-86440000D01*
X139120000Y-90680000D02*
X136880000Y-90680000D01*
X139120000Y-90080000D02*
X136880000Y-90080000D01*
X139120000Y-89960000D02*
X136880000Y-89960000D01*
X139120000Y-89840000D02*
X136880000Y-89840000D01*
X136880000Y-86440000D02*
X139120000Y-86440000D01*
X139120000Y-86440000D02*
X139120000Y-90680000D01*
X138000000Y-85790000D02*
X138000000Y-86440000D01*
X119000000Y-70205000D02*
X119000000Y-69555000D01*
X117880000Y-69555000D02*
X117880000Y-65315000D01*
X120120000Y-69555000D02*
X117880000Y-69555000D01*
X120120000Y-68955000D02*
X117880000Y-68955000D01*
X120120000Y-68835000D02*
X117880000Y-68835000D01*
X120120000Y-68715000D02*
X117880000Y-68715000D01*
X117880000Y-65315000D02*
X120120000Y-65315000D01*
X120120000Y-65315000D02*
X120120000Y-69555000D01*
X119000000Y-64665000D02*
X119000000Y-65315000D01*
X100000000Y-93455000D02*
X100000000Y-92805000D01*
X98880000Y-92805000D02*
X98880000Y-88565000D01*
X101120000Y-92805000D02*
X98880000Y-92805000D01*
X101120000Y-92205000D02*
X98880000Y-92205000D01*
X101120000Y-92085000D02*
X98880000Y-92085000D01*
X101120000Y-91965000D02*
X98880000Y-91965000D01*
X98880000Y-88565000D02*
X101120000Y-88565000D01*
X101120000Y-88565000D02*
X101120000Y-92805000D01*
X100000000Y-87915000D02*
X100000000Y-88565000D01*
X197738234Y-128084807D02*
X196006183Y-127084807D01*
X200088234Y-124014488D02*
X197738234Y-128084807D01*
X200088234Y-124014488D02*
X200238234Y-123754680D01*
X200238234Y-123754680D02*
X198506183Y-122754680D01*
X195606183Y-127777628D02*
X184347853Y-121277628D01*
X196006183Y-127084807D02*
X195606183Y-127777628D01*
X198506183Y-122754680D02*
X198906183Y-122061860D01*
X198906183Y-122061860D02*
X187647853Y-115561860D01*
X187647853Y-115561860D02*
X184347853Y-121277628D01*
%LPC*%
D13*
X104420000Y-52695000D03*
D14*
X109500000Y-52695000D03*
D13*
X114580000Y-52695000D03*
D15*
X105690000Y-50155000D03*
X106960000Y-47615000D03*
X112040000Y-47615000D03*
X113310000Y-50155000D03*
D13*
X123420000Y-67445000D03*
D14*
X128500000Y-67445000D03*
D13*
X133580000Y-67445000D03*
D15*
X124690000Y-64905000D03*
X125960000Y-62365000D03*
X131040000Y-62365000D03*
X132310000Y-64905000D03*
D13*
X104420000Y-71695000D03*
D14*
X109500000Y-71695000D03*
D13*
X114580000Y-71695000D03*
D15*
X105690000Y-69155000D03*
X106960000Y-66615000D03*
X112040000Y-66615000D03*
X113310000Y-69155000D03*
D13*
X161420000Y-98070000D03*
D14*
X166500000Y-98070000D03*
D13*
X171580000Y-98070000D03*
D15*
X162690000Y-95530000D03*
X163960000Y-92990000D03*
X169040000Y-92990000D03*
X170310000Y-95530000D03*
D13*
X142420000Y-88570000D03*
D14*
X147500000Y-88570000D03*
D13*
X152580000Y-88570000D03*
D15*
X143690000Y-86030000D03*
X144960000Y-83490000D03*
X150040000Y-83490000D03*
X151310000Y-86030000D03*
D16*
X119000000Y-71245000D03*
D17*
X119000000Y-63625000D03*
D16*
X100000000Y-56495000D03*
D17*
X100000000Y-48875000D03*
D13*
X142420000Y-50570000D03*
D14*
X147500000Y-50570000D03*
D13*
X152580000Y-50570000D03*
D15*
X143690000Y-48030000D03*
X144960000Y-45490000D03*
X150040000Y-45490000D03*
X151310000Y-48030000D03*
D13*
X142420000Y-69570000D03*
D14*
X147500000Y-69570000D03*
D13*
X152580000Y-69570000D03*
D15*
X143690000Y-67030000D03*
X144960000Y-64490000D03*
X150040000Y-64490000D03*
X151310000Y-67030000D03*
D16*
X119000000Y-90245000D03*
D17*
X119000000Y-82625000D03*
D16*
X138000000Y-54370000D03*
D17*
X138000000Y-46750000D03*
D18*
X194554000Y-107061000D03*
D19*
X192014000Y-107061000D03*
X189474000Y-107061000D03*
X186934000Y-107061000D03*
D20*
X188029000Y-54486000D03*
D21*
X188329000Y-57516000D03*
X193179000Y-57516000D03*
D20*
X193479000Y-54486000D03*
D19*
X181864000Y-54356000D03*
X181864000Y-56896000D03*
D18*
X181864000Y-59436000D03*
D19*
X181864000Y-61976000D03*
X181864000Y-64516000D03*
X181864000Y-67056000D03*
X181864000Y-69596000D03*
D18*
X181864000Y-72136000D03*
D19*
X181864000Y-74676000D03*
X181864000Y-77216000D03*
X181864000Y-79756000D03*
X181864000Y-82296000D03*
D18*
X181864000Y-84836000D03*
D19*
X181864000Y-87376000D03*
X181864000Y-89916000D03*
X181864000Y-92456000D03*
X181864000Y-94996000D03*
D18*
X181864000Y-97536000D03*
D19*
X181864000Y-100076000D03*
X181864000Y-102616000D03*
X199644000Y-102616000D03*
X199644000Y-100076000D03*
D18*
X199644000Y-97536000D03*
D19*
X199644000Y-94996000D03*
X199644000Y-92456000D03*
X199644000Y-89916000D03*
X199644000Y-87376000D03*
D18*
X199644000Y-84836000D03*
D19*
X199644000Y-82296000D03*
X199644000Y-79756000D03*
X199644000Y-77216000D03*
X199644000Y-74676000D03*
D18*
X199644000Y-72136000D03*
D19*
X199644000Y-69596000D03*
X199644000Y-67056000D03*
X199644000Y-64516000D03*
X199644000Y-61976000D03*
D18*
X199644000Y-59436000D03*
D19*
X199644000Y-56896000D03*
X199644000Y-54356000D03*
X188214000Y-102386000D03*
D18*
X190754000Y-102386000D03*
D19*
X193294000Y-102386000D03*
D13*
X178576591Y-132133000D03*
D14*
X182976000Y-134673000D03*
D13*
X187375409Y-137213000D03*
D15*
X180946443Y-130568295D03*
X183316295Y-129003591D03*
X187715705Y-131543591D03*
X187545557Y-134378295D03*
D13*
X85420000Y-64195000D03*
D14*
X90500000Y-64195000D03*
D13*
X95580000Y-64195000D03*
D15*
X86690000Y-61655000D03*
X87960000Y-59115000D03*
X93040000Y-59115000D03*
X94310000Y-61655000D03*
D16*
X119000000Y-52245000D03*
D17*
X119000000Y-44625000D03*
D13*
X85420000Y-83195000D03*
D14*
X90500000Y-83195000D03*
D13*
X95580000Y-83195000D03*
D15*
X86690000Y-80655000D03*
X87960000Y-78115000D03*
X93040000Y-78115000D03*
X94310000Y-80655000D03*
D13*
X104420000Y-90695000D03*
D14*
X109500000Y-90695000D03*
D13*
X114580000Y-90695000D03*
D15*
X105690000Y-88155000D03*
X106960000Y-85615000D03*
X112040000Y-85615000D03*
X113310000Y-88155000D03*
D13*
X161420000Y-79070000D03*
D14*
X166500000Y-79070000D03*
D13*
X171580000Y-79070000D03*
D15*
X162690000Y-76530000D03*
X163960000Y-73990000D03*
X169040000Y-73990000D03*
X170310000Y-76530000D03*
D16*
X81000000Y-67995000D03*
D17*
X81000000Y-60375000D03*
D16*
X81000000Y-86995000D03*
D17*
X81000000Y-79375000D03*
D13*
X123420000Y-86445000D03*
D14*
X128500000Y-86445000D03*
D13*
X133580000Y-86445000D03*
D15*
X124690000Y-83905000D03*
X125960000Y-81365000D03*
X131040000Y-81365000D03*
X132310000Y-83905000D03*
D16*
X100000000Y-75495000D03*
D17*
X100000000Y-67875000D03*
D22*
X191580127Y-122449488D03*
X188116025Y-120449488D03*
X194178203Y-123949488D03*
X189450000Y-116138976D03*
D16*
X157000000Y-101870000D03*
D17*
X157000000Y-94250000D03*
D16*
X138000000Y-73370000D03*
D17*
X138000000Y-65750000D03*
D13*
X162100591Y-122400000D03*
D14*
X166500000Y-124940000D03*
D13*
X170899409Y-127480000D03*
D15*
X164470443Y-120835295D03*
X166840295Y-119270591D03*
X171239705Y-121810591D03*
X171069557Y-124645295D03*
D16*
X157000000Y-82870000D03*
D17*
X157000000Y-75250000D03*
D16*
X81000000Y-105995000D03*
D17*
X81000000Y-98375000D03*
D13*
X85420000Y-102195000D03*
D14*
X90500000Y-102195000D03*
D13*
X95580000Y-102195000D03*
D15*
X86690000Y-99655000D03*
X87960000Y-97115000D03*
X93040000Y-97115000D03*
X94310000Y-99655000D03*
D16*
X157000000Y-63870000D03*
D17*
X157000000Y-56250000D03*
D13*
X123420000Y-48445000D03*
D14*
X128500000Y-48445000D03*
D13*
X133580000Y-48445000D03*
D15*
X124690000Y-45905000D03*
X125960000Y-43365000D03*
X131040000Y-43365000D03*
X132310000Y-45905000D03*
D16*
X100000000Y-94495000D03*
D17*
X100000000Y-86875000D03*
D23*
X172689000Y-133400557D03*
D24*
X176499000Y-126801443D03*
D23*
X156179000Y-123748557D03*
D24*
X159989000Y-117149443D03*
D13*
X161420000Y-60070000D03*
D14*
X166500000Y-60070000D03*
D13*
X171580000Y-60070000D03*
D15*
X162690000Y-57530000D03*
X163960000Y-54990000D03*
X169040000Y-54990000D03*
X170310000Y-57530000D03*
D16*
X138000000Y-73370000D03*
D17*
X138000000Y-65750000D03*
D23*
X172689000Y-133400557D03*
D24*
X176499000Y-126801443D03*
D16*
X157000000Y-63870000D03*
D17*
X157000000Y-56250000D03*
D23*
X156179000Y-123748557D03*
D24*
X159989000Y-117149443D03*
D16*
X81000000Y-67995000D03*
D17*
X81000000Y-60375000D03*
D16*
X119000000Y-52245000D03*
D17*
X119000000Y-44625000D03*
D16*
X81000000Y-105995000D03*
D17*
X81000000Y-98375000D03*
D16*
X100000000Y-75495000D03*
D17*
X100000000Y-67875000D03*
D16*
X138000000Y-54370000D03*
D17*
X138000000Y-46750000D03*
D16*
X119000000Y-90245000D03*
D17*
X119000000Y-82625000D03*
D16*
X81000000Y-86995000D03*
D17*
X81000000Y-79375000D03*
D18*
X194564000Y-110871000D03*
D19*
X192024000Y-110871000D03*
X189484000Y-110871000D03*
X186944000Y-110871000D03*
D16*
X157000000Y-101870000D03*
D17*
X157000000Y-94250000D03*
D16*
X100000000Y-56495000D03*
D17*
X100000000Y-48875000D03*
D16*
X138000000Y-92370000D03*
D17*
X138000000Y-84750000D03*
D16*
X119000000Y-71245000D03*
D17*
X119000000Y-63625000D03*
D16*
X100000000Y-94495000D03*
D17*
X100000000Y-86875000D03*
D22*
X193030127Y-119939488D03*
X189566025Y-117939488D03*
X195628203Y-121439488D03*
X186500000Y-121250000D03*
%LPD*%
M02*
