G04 #@! TF.GenerationSoftware,KiCad,Pcbnew,7.0.10*
G04 #@! TF.CreationDate,2024-01-12T14:03:53+00:00*
G04 #@! TF.ProjectId,eobard,656f6261-7264-42e6-9b69-6361645f7063,0.2.6*
G04 #@! TF.SameCoordinates,Original*
G04 #@! TF.FileFunction,Soldermask,Bot*
G04 #@! TF.FilePolarity,Negative*
%FSLAX46Y46*%
G04 Gerber Fmt 4.6, Leading zero omitted, Abs format (unit mm)*
G04 Created by KiCad (PCBNEW 7.0.10) date 2024-01-12 14:03:53*
%MOMM*%
%LPD*%
G01*
G04 APERTURE LIST*
G04 Aperture macros list*
%AMHorizOval*
0 Thick line with rounded ends*
0 $1 width*
0 $2 $3 position (X,Y) of the first rounded end (center of the circle)*
0 $4 $5 position (X,Y) of the second rounded end (center of the circle)*
0 Add line between two ends*
20,1,$1,$2,$3,$4,$5,0*
0 Add two circle primitives to create the rounded ends*
1,1,$1,$2,$3*
1,1,$1,$4,$5*%
%AMRotRect*
0 Rectangle, with rotation*
0 The origin of the aperture is its center*
0 $1 length*
0 $2 width*
0 $3 Rotation angle, in degrees counterclockwise*
0 Add horizontal line*
21,1,$1,$2,0,0,$3*%
G04 Aperture macros list end*
%ADD10C,1.701800*%
%ADD11C,3.987800*%
%ADD12C,2.286000*%
%ADD13R,1.600000X1.600000*%
%ADD14O,1.600000X1.600000*%
%ADD15R,1.700000X1.700000*%
%ADD16O,1.700000X1.700000*%
%ADD17O,1.800000X1.800000*%
%ADD18O,1.500000X1.500000*%
%ADD19C,1.600000*%
%ADD20RotRect,1.600000X1.600000X60.000000*%
%ADD21HorizOval,1.600000X0.000000X0.000000X0.000000X0.000000X0*%
G04 APERTURE END LIST*
D10*
X104420000Y-52695000D03*
D11*
X109500000Y-52695000D03*
D10*
X114580000Y-52695000D03*
D12*
X105690000Y-50155000D03*
X106960000Y-47615000D03*
X112040000Y-47615000D03*
X113310000Y-50155000D03*
D10*
X123420000Y-67445000D03*
D11*
X128500000Y-67445000D03*
D10*
X133580000Y-67445000D03*
D12*
X124690000Y-64905000D03*
X125960000Y-62365000D03*
X131040000Y-62365000D03*
X132310000Y-64905000D03*
D10*
X104420000Y-71695000D03*
D11*
X109500000Y-71695000D03*
D10*
X114580000Y-71695000D03*
D12*
X105690000Y-69155000D03*
X106960000Y-66615000D03*
X112040000Y-66615000D03*
X113310000Y-69155000D03*
D10*
X161420000Y-98070000D03*
D11*
X166500000Y-98070000D03*
D10*
X171580000Y-98070000D03*
D12*
X162690000Y-95530000D03*
X163960000Y-92990000D03*
X169040000Y-92990000D03*
X170310000Y-95530000D03*
D10*
X142420000Y-88570000D03*
D11*
X147500000Y-88570000D03*
D10*
X152580000Y-88570000D03*
D12*
X143690000Y-86030000D03*
X144960000Y-83490000D03*
X150040000Y-83490000D03*
X151310000Y-86030000D03*
D13*
X119000000Y-71245000D03*
D14*
X119000000Y-63625000D03*
D13*
X100000000Y-56495000D03*
D14*
X100000000Y-48875000D03*
D10*
X142420000Y-50570000D03*
D11*
X147500000Y-50570000D03*
D10*
X152580000Y-50570000D03*
D12*
X143690000Y-48030000D03*
X144960000Y-45490000D03*
X150040000Y-45490000D03*
X151310000Y-48030000D03*
D10*
X142420000Y-69570000D03*
D11*
X147500000Y-69570000D03*
D10*
X152580000Y-69570000D03*
D12*
X143690000Y-67030000D03*
X144960000Y-64490000D03*
X150040000Y-64490000D03*
X151310000Y-67030000D03*
D13*
X119000000Y-90245000D03*
D14*
X119000000Y-82625000D03*
D13*
X138000000Y-54370000D03*
D14*
X138000000Y-46750000D03*
D15*
X194554000Y-102870000D03*
D16*
X192014000Y-102870000D03*
X189474000Y-102870000D03*
X186934000Y-102870000D03*
D10*
X178576591Y-132133000D03*
D11*
X182976000Y-134673000D03*
D10*
X187375409Y-137213000D03*
D12*
X180946443Y-130568295D03*
X183316295Y-129003591D03*
X187715705Y-131543591D03*
X187545557Y-134378295D03*
D10*
X85420000Y-64195000D03*
D11*
X90500000Y-64195000D03*
D10*
X95580000Y-64195000D03*
D12*
X86690000Y-61655000D03*
X87960000Y-59115000D03*
X93040000Y-59115000D03*
X94310000Y-61655000D03*
D17*
X188029000Y-50000000D03*
D18*
X188329000Y-53030000D03*
X193179000Y-53030000D03*
D17*
X193479000Y-50000000D03*
D16*
X181864000Y-49870000D03*
X181864000Y-52410000D03*
D15*
X181864000Y-54950000D03*
D16*
X181864000Y-57490000D03*
X181864000Y-60030000D03*
X181864000Y-62570000D03*
X181864000Y-65110000D03*
D15*
X181864000Y-67650000D03*
D16*
X181864000Y-70190000D03*
X181864000Y-72730000D03*
X181864000Y-75270000D03*
X181864000Y-77810000D03*
D15*
X181864000Y-80350000D03*
D16*
X181864000Y-82890000D03*
X181864000Y-85430000D03*
X181864000Y-87970000D03*
X181864000Y-90510000D03*
D15*
X181864000Y-93050000D03*
D16*
X181864000Y-95590000D03*
X181864000Y-98130000D03*
X199644000Y-98130000D03*
X199644000Y-95590000D03*
D15*
X199644000Y-93050000D03*
D16*
X199644000Y-90510000D03*
X199644000Y-87970000D03*
X199644000Y-85430000D03*
X199644000Y-82890000D03*
D15*
X199644000Y-80350000D03*
D16*
X199644000Y-77810000D03*
X199644000Y-75270000D03*
X199644000Y-72730000D03*
X199644000Y-70190000D03*
D15*
X199644000Y-67650000D03*
D16*
X199644000Y-65110000D03*
X199644000Y-62570000D03*
X199644000Y-60030000D03*
X199644000Y-57490000D03*
D15*
X199644000Y-54950000D03*
D16*
X199644000Y-52410000D03*
X199644000Y-49870000D03*
X188214000Y-97900000D03*
D15*
X190754000Y-97900000D03*
D16*
X193294000Y-97900000D03*
D13*
X119000000Y-52245000D03*
D14*
X119000000Y-44625000D03*
D10*
X85420000Y-83195000D03*
D11*
X90500000Y-83195000D03*
D10*
X95580000Y-83195000D03*
D12*
X86690000Y-80655000D03*
X87960000Y-78115000D03*
X93040000Y-78115000D03*
X94310000Y-80655000D03*
D10*
X104420000Y-90695000D03*
D11*
X109500000Y-90695000D03*
D10*
X114580000Y-90695000D03*
D12*
X105690000Y-88155000D03*
X106960000Y-85615000D03*
X112040000Y-85615000D03*
X113310000Y-88155000D03*
D10*
X161420000Y-79070000D03*
D11*
X166500000Y-79070000D03*
D10*
X171580000Y-79070000D03*
D12*
X162690000Y-76530000D03*
X163960000Y-73990000D03*
X169040000Y-73990000D03*
X170310000Y-76530000D03*
D13*
X81000000Y-67995000D03*
D14*
X81000000Y-60375000D03*
D13*
X81000000Y-86995000D03*
D14*
X81000000Y-79375000D03*
D10*
X123420000Y-86445000D03*
D11*
X128500000Y-86445000D03*
D10*
X133580000Y-86445000D03*
D12*
X124690000Y-83905000D03*
X125960000Y-81365000D03*
X131040000Y-81365000D03*
X132310000Y-83905000D03*
D13*
X100000000Y-75495000D03*
D14*
X100000000Y-67875000D03*
D19*
X191580127Y-122449488D03*
X188116025Y-120449488D03*
X194178203Y-123949488D03*
X189450000Y-116138976D03*
D13*
X157000000Y-101870000D03*
D14*
X157000000Y-94250000D03*
D13*
X138000000Y-73370000D03*
D14*
X138000000Y-65750000D03*
D10*
X162100591Y-122400000D03*
D11*
X166500000Y-124940000D03*
D10*
X170899409Y-127480000D03*
D12*
X164470443Y-120835295D03*
X166840295Y-119270591D03*
X171239705Y-121810591D03*
X171069557Y-124645295D03*
D13*
X157000000Y-82870000D03*
D14*
X157000000Y-75250000D03*
D13*
X81000000Y-105995000D03*
D14*
X81000000Y-98375000D03*
D10*
X85420000Y-102195000D03*
D11*
X90500000Y-102195000D03*
D10*
X95580000Y-102195000D03*
D12*
X86690000Y-99655000D03*
X87960000Y-97115000D03*
X93040000Y-97115000D03*
X94310000Y-99655000D03*
D13*
X157000000Y-63870000D03*
D14*
X157000000Y-56250000D03*
D10*
X123420000Y-48445000D03*
D11*
X128500000Y-48445000D03*
D10*
X133580000Y-48445000D03*
D12*
X124690000Y-45905000D03*
X125960000Y-43365000D03*
X131040000Y-43365000D03*
X132310000Y-45905000D03*
D13*
X100000000Y-94495000D03*
D14*
X100000000Y-86875000D03*
D20*
X172689000Y-133400557D03*
D21*
X176499000Y-126801443D03*
D20*
X156179000Y-123748557D03*
D21*
X159989000Y-117149443D03*
D10*
X161420000Y-60070000D03*
D11*
X166500000Y-60070000D03*
D10*
X171580000Y-60070000D03*
D12*
X162690000Y-57530000D03*
X163960000Y-54990000D03*
X169040000Y-54990000D03*
X170310000Y-57530000D03*
D13*
X138000000Y-73370000D03*
D14*
X138000000Y-65750000D03*
D20*
X172689000Y-133400557D03*
D21*
X176499000Y-126801443D03*
D13*
X157000000Y-63870000D03*
D14*
X157000000Y-56250000D03*
D20*
X156179000Y-123748557D03*
D21*
X159989000Y-117149443D03*
D13*
X81000000Y-67995000D03*
D14*
X81000000Y-60375000D03*
D13*
X119000000Y-52245000D03*
D14*
X119000000Y-44625000D03*
D13*
X81000000Y-105995000D03*
D14*
X81000000Y-98375000D03*
D13*
X100000000Y-75495000D03*
D14*
X100000000Y-67875000D03*
D13*
X138000000Y-54370000D03*
D14*
X138000000Y-46750000D03*
D13*
X119000000Y-90245000D03*
D14*
X119000000Y-82625000D03*
D13*
X81000000Y-86995000D03*
D14*
X81000000Y-79375000D03*
D15*
X194564000Y-106680000D03*
D16*
X192024000Y-106680000D03*
X189484000Y-106680000D03*
X186944000Y-106680000D03*
D13*
X157000000Y-101870000D03*
D14*
X157000000Y-94250000D03*
D13*
X100000000Y-56495000D03*
D14*
X100000000Y-48875000D03*
D13*
X138000000Y-92370000D03*
D14*
X138000000Y-84750000D03*
D13*
X119000000Y-71245000D03*
D14*
X119000000Y-63625000D03*
D13*
X100000000Y-94495000D03*
D14*
X100000000Y-86875000D03*
D19*
X193030127Y-119939488D03*
X189566025Y-117939488D03*
X195628203Y-121439488D03*
X186500000Y-121250000D03*
M02*
