M48
; DRILL file {KiCad 8.0.1} date 2024-03-26T16:43:55+0000
; FORMAT={-:-/ absolute / metric / decimal}
; #@! TF.CreationDate,2024-03-26T16:43:55+00:00
; #@! TF.GenerationSoftware,Kicad,Pcbnew,8.0.1
; #@! TF.FileFunction,NonPlated,1,2,NPTH
FMAT,2
METRIC
; #@! TA.AperFunction,NonPlated,NPTH,ComponentDrill
T1C1.500
; #@! TA.AperFunction,NonPlated,NPTH,ComponentDrill
T2C1.702
; #@! TA.AperFunction,NonPlated,NPTH,ComponentDrill
T3C1.800
; #@! TA.AperFunction,NonPlated,NPTH,ComponentDrill
T4C3.988
%
G90
G05
T1
X188.185Y-50.52
X191.755Y-102.616
X191.777Y-104.775
X193.035Y-50.52
X198.755Y-102.616
X198.777Y-104.775
T2
X85.42Y-64.195
X85.42Y-83.195
X85.42Y-102.195
X95.58Y-64.195
X95.58Y-83.195
X95.58Y-102.195
X104.42Y-52.695
X104.42Y-71.695
X104.42Y-90.695
X114.58Y-52.695
X114.58Y-71.695
X114.58Y-90.695
X123.42Y-48.445
X123.42Y-67.445
X123.42Y-86.445
X133.58Y-48.445
X133.58Y-67.445
X133.58Y-86.445
X142.42Y-50.57
X142.42Y-69.57
X142.42Y-88.57
X152.58Y-50.57
X152.58Y-69.57
X152.58Y-88.57
X161.42Y-53.08
X161.42Y-72.08
X161.42Y-91.08
X162.101Y-122.4
X170.899Y-127.48
X171.58Y-53.08
X171.58Y-72.08
X171.58Y-91.08
X178.577Y-132.133
X187.375Y-137.213
T3
X187.885Y-47.49
X193.335Y-47.49
T4
X90.5Y-64.195
X90.5Y-83.195
X90.5Y-102.195
X109.5Y-52.695
X109.5Y-71.695
X109.5Y-90.695
X128.5Y-48.445
X128.5Y-67.445
X128.5Y-86.445
X147.5Y-50.57
X147.5Y-69.57
X147.5Y-88.57
X166.5Y-53.08
X166.5Y-72.08
X166.5Y-91.08
X166.5Y-124.94
X182.976Y-134.673
M30
