G04 #@! TF.GenerationSoftware,KiCad,Pcbnew,7.0.10*
G04 #@! TF.CreationDate,2024-01-08T18:21:28+00:00*
G04 #@! TF.ProjectId,eobard,656f6261-7264-42e6-9b69-6361645f7063,2.2*
G04 #@! TF.SameCoordinates,Original*
G04 #@! TF.FileFunction,Legend,Bot*
G04 #@! TF.FilePolarity,Positive*
%FSLAX46Y46*%
G04 Gerber Fmt 4.6, Leading zero omitted, Abs format (unit mm)*
G04 Created by KiCad (PCBNEW 7.0.10) date 2024-01-08 18:21:28*
%MOMM*%
%LPD*%
G01*
G04 APERTURE LIST*
G04 Aperture macros list*
%AMHorizOval*
0 Thick line with rounded ends*
0 $1 width*
0 $2 $3 position (X,Y) of the first rounded end (center of the circle)*
0 $4 $5 position (X,Y) of the second rounded end (center of the circle)*
0 Add line between two ends*
20,1,$1,$2,$3,$4,$5,0*
0 Add two circle primitives to create the rounded ends*
1,1,$1,$2,$3*
1,1,$1,$4,$5*%
%AMRotRect*
0 Rectangle, with rotation*
0 The origin of the aperture is its center*
0 $1 length*
0 $2 width*
0 $3 Rotation angle, in degrees counterclockwise*
0 Add horizontal line*
21,1,$1,$2,0,0,$3*%
G04 Aperture macros list end*
%ADD10C,0.150000*%
%ADD11C,0.200000*%
%ADD12C,0.120000*%
%ADD13C,1.701800*%
%ADD14C,3.987800*%
%ADD15C,2.286000*%
%ADD16R,1.600000X1.600000*%
%ADD17O,1.600000X1.600000*%
%ADD18R,1.700000X1.700000*%
%ADD19O,1.700000X1.700000*%
%ADD20O,1.800000X1.800000*%
%ADD21O,1.500000X1.500000*%
%ADD22C,1.600000*%
%ADD23RotRect,1.600000X1.600000X60.000000*%
%ADD24HorizOval,1.600000X0.000000X0.000000X0.000000X0.000000X0*%
G04 APERTURE END LIST*
D10*
X180238400Y-52984400D02*
X201269600Y-52984400D01*
X201269600Y-103987600D01*
X180238400Y-103987600D01*
X180238400Y-52984400D01*
D11*
X183660088Y-111367219D02*
X184136279Y-111367219D01*
X184136279Y-111367219D02*
X184011279Y-110367219D01*
X183261278Y-110843409D02*
X182927945Y-110843409D01*
X182850564Y-111367219D02*
X183326755Y-111367219D01*
X183326755Y-111367219D02*
X183201755Y-110367219D01*
X183201755Y-110367219D02*
X182725564Y-110367219D01*
X182023183Y-110843409D02*
X182356516Y-110843409D01*
X182421993Y-111367219D02*
X182296993Y-110367219D01*
X182296993Y-110367219D02*
X181820802Y-110367219D01*
X181582707Y-110367219D02*
X181011278Y-110367219D01*
X181421993Y-111367219D02*
X181296993Y-110367219D01*
X190257219Y-73494047D02*
X189781028Y-73220237D01*
X190257219Y-72922618D02*
X189257219Y-73047618D01*
X189257219Y-73047618D02*
X189257219Y-73428571D01*
X189257219Y-73428571D02*
X189304838Y-73517856D01*
X189304838Y-73517856D02*
X189352457Y-73559523D01*
X189352457Y-73559523D02*
X189447695Y-73595237D01*
X189447695Y-73595237D02*
X189590552Y-73577380D01*
X189590552Y-73577380D02*
X189685790Y-73517856D01*
X189685790Y-73517856D02*
X189733409Y-73464285D01*
X189733409Y-73464285D02*
X189781028Y-73363095D01*
X189781028Y-73363095D02*
X189781028Y-72982142D01*
X190257219Y-74351190D02*
X189733409Y-74416666D01*
X189733409Y-74416666D02*
X189638171Y-74380952D01*
X189638171Y-74380952D02*
X189590552Y-74291666D01*
X189590552Y-74291666D02*
X189590552Y-74101190D01*
X189590552Y-74101190D02*
X189638171Y-73999999D01*
X190209600Y-74357142D02*
X190257219Y-74255952D01*
X190257219Y-74255952D02*
X190257219Y-74017856D01*
X190257219Y-74017856D02*
X190209600Y-73928571D01*
X190209600Y-73928571D02*
X190114361Y-73892856D01*
X190114361Y-73892856D02*
X190019123Y-73904761D01*
X190019123Y-73904761D02*
X189923885Y-73964285D01*
X189923885Y-73964285D02*
X189876266Y-74065476D01*
X189876266Y-74065476D02*
X189876266Y-74303571D01*
X189876266Y-74303571D02*
X189828647Y-74404761D01*
X190209600Y-74785714D02*
X190257219Y-74874999D01*
X190257219Y-74874999D02*
X190257219Y-75065476D01*
X190257219Y-75065476D02*
X190209600Y-75166666D01*
X190209600Y-75166666D02*
X190114361Y-75226190D01*
X190114361Y-75226190D02*
X190066742Y-75232142D01*
X190066742Y-75232142D02*
X189971504Y-75196428D01*
X189971504Y-75196428D02*
X189923885Y-75107142D01*
X189923885Y-75107142D02*
X189923885Y-74964285D01*
X189923885Y-74964285D02*
X189876266Y-74874999D01*
X189876266Y-74874999D02*
X189781028Y-74839285D01*
X189781028Y-74839285D02*
X189733409Y-74845238D01*
X189733409Y-74845238D02*
X189638171Y-74904761D01*
X189638171Y-74904761D02*
X189590552Y-75005952D01*
X189590552Y-75005952D02*
X189590552Y-75148809D01*
X189590552Y-75148809D02*
X189638171Y-75238095D01*
X189590552Y-75720238D02*
X190590552Y-75595238D01*
X189638171Y-75714285D02*
X189590552Y-75815476D01*
X189590552Y-75815476D02*
X189590552Y-76005952D01*
X189590552Y-76005952D02*
X189638171Y-76095238D01*
X189638171Y-76095238D02*
X189685790Y-76136904D01*
X189685790Y-76136904D02*
X189781028Y-76172619D01*
X189781028Y-76172619D02*
X190066742Y-76136904D01*
X190066742Y-76136904D02*
X190161980Y-76077381D01*
X190161980Y-76077381D02*
X190209600Y-76023809D01*
X190209600Y-76023809D02*
X190257219Y-75922619D01*
X190257219Y-75922619D02*
X190257219Y-75732142D01*
X190257219Y-75732142D02*
X190209600Y-75642857D01*
X190257219Y-76541666D02*
X189257219Y-76666666D01*
X189638171Y-76619047D02*
X189590552Y-76720238D01*
X189590552Y-76720238D02*
X189590552Y-76910714D01*
X189590552Y-76910714D02*
X189638171Y-77000000D01*
X189638171Y-77000000D02*
X189685790Y-77041666D01*
X189685790Y-77041666D02*
X189781028Y-77077381D01*
X189781028Y-77077381D02*
X190066742Y-77041666D01*
X190066742Y-77041666D02*
X190161980Y-76982143D01*
X190161980Y-76982143D02*
X190209600Y-76928571D01*
X190209600Y-76928571D02*
X190257219Y-76827381D01*
X190257219Y-76827381D02*
X190257219Y-76636904D01*
X190257219Y-76636904D02*
X190209600Y-76547619D01*
X190209600Y-77833333D02*
X190257219Y-77732143D01*
X190257219Y-77732143D02*
X190257219Y-77541666D01*
X190257219Y-77541666D02*
X190209600Y-77452381D01*
X190209600Y-77452381D02*
X190114361Y-77416666D01*
X190114361Y-77416666D02*
X189733409Y-77464286D01*
X189733409Y-77464286D02*
X189638171Y-77523809D01*
X189638171Y-77523809D02*
X189590552Y-77625000D01*
X189590552Y-77625000D02*
X189590552Y-77815476D01*
X189590552Y-77815476D02*
X189638171Y-77904762D01*
X189638171Y-77904762D02*
X189733409Y-77940476D01*
X189733409Y-77940476D02*
X189828647Y-77928571D01*
X189828647Y-77928571D02*
X189923885Y-77440476D01*
X190257219Y-78303571D02*
X189590552Y-78386905D01*
X189781028Y-78363095D02*
X189685790Y-78422619D01*
X189685790Y-78422619D02*
X189638171Y-78476190D01*
X189638171Y-78476190D02*
X189590552Y-78577381D01*
X189590552Y-78577381D02*
X189590552Y-78672619D01*
X190257219Y-78922619D02*
X189590552Y-79005953D01*
X189781028Y-78982143D02*
X189685790Y-79041667D01*
X189685790Y-79041667D02*
X189638171Y-79095238D01*
X189638171Y-79095238D02*
X189590552Y-79196429D01*
X189590552Y-79196429D02*
X189590552Y-79291667D01*
X189590552Y-79529763D02*
X190257219Y-79684525D01*
X189590552Y-80005953D02*
X190257219Y-79684525D01*
X190257219Y-79684525D02*
X190495314Y-79559525D01*
X190495314Y-79559525D02*
X190542933Y-79505953D01*
X190542933Y-79505953D02*
X190590552Y-79404763D01*
X190257219Y-81065477D02*
X189257219Y-81190477D01*
X189257219Y-81190477D02*
X189257219Y-81571430D01*
X189257219Y-81571430D02*
X189304838Y-81660715D01*
X189304838Y-81660715D02*
X189352457Y-81702382D01*
X189352457Y-81702382D02*
X189447695Y-81738096D01*
X189447695Y-81738096D02*
X189590552Y-81720239D01*
X189590552Y-81720239D02*
X189685790Y-81660715D01*
X189685790Y-81660715D02*
X189733409Y-81607144D01*
X189733409Y-81607144D02*
X189781028Y-81505954D01*
X189781028Y-81505954D02*
X189781028Y-81125001D01*
X190257219Y-82065477D02*
X189590552Y-82148811D01*
X189257219Y-82190477D02*
X189304838Y-82136906D01*
X189304838Y-82136906D02*
X189352457Y-82178573D01*
X189352457Y-82178573D02*
X189304838Y-82232144D01*
X189304838Y-82232144D02*
X189257219Y-82190477D01*
X189257219Y-82190477D02*
X189352457Y-82178573D01*
X190257219Y-83303572D02*
X189257219Y-83428572D01*
X189257219Y-83428572D02*
X189257219Y-83809525D01*
X189257219Y-83809525D02*
X189304838Y-83898810D01*
X189304838Y-83898810D02*
X189352457Y-83940477D01*
X189352457Y-83940477D02*
X189447695Y-83976191D01*
X189447695Y-83976191D02*
X189590552Y-83958334D01*
X189590552Y-83958334D02*
X189685790Y-83898810D01*
X189685790Y-83898810D02*
X189733409Y-83845239D01*
X189733409Y-83845239D02*
X189781028Y-83744049D01*
X189781028Y-83744049D02*
X189781028Y-83363096D01*
X190257219Y-84303572D02*
X189590552Y-84386906D01*
X189257219Y-84428572D02*
X189304838Y-84375001D01*
X189304838Y-84375001D02*
X189352457Y-84416668D01*
X189352457Y-84416668D02*
X189304838Y-84470239D01*
X189304838Y-84470239D02*
X189257219Y-84428572D01*
X189257219Y-84428572D02*
X189352457Y-84416668D01*
X190209600Y-85214286D02*
X190257219Y-85113096D01*
X190257219Y-85113096D02*
X190257219Y-84922620D01*
X190257219Y-84922620D02*
X190209600Y-84833334D01*
X190209600Y-84833334D02*
X190161980Y-84791667D01*
X190161980Y-84791667D02*
X190066742Y-84755953D01*
X190066742Y-84755953D02*
X189781028Y-84791667D01*
X189781028Y-84791667D02*
X189685790Y-84851191D01*
X189685790Y-84851191D02*
X189638171Y-84904762D01*
X189638171Y-84904762D02*
X189590552Y-85005953D01*
X189590552Y-85005953D02*
X189590552Y-85196429D01*
X189590552Y-85196429D02*
X189638171Y-85285715D01*
X190257219Y-85779763D02*
X190209600Y-85690477D01*
X190209600Y-85690477D02*
X190161980Y-85648810D01*
X190161980Y-85648810D02*
X190066742Y-85613096D01*
X190066742Y-85613096D02*
X189781028Y-85648810D01*
X189781028Y-85648810D02*
X189685790Y-85708334D01*
X189685790Y-85708334D02*
X189638171Y-85761905D01*
X189638171Y-85761905D02*
X189590552Y-85863096D01*
X189590552Y-85863096D02*
X189590552Y-86005953D01*
X189590552Y-86005953D02*
X189638171Y-86095239D01*
X189638171Y-86095239D02*
X189685790Y-86136905D01*
X189685790Y-86136905D02*
X189781028Y-86172620D01*
X189781028Y-86172620D02*
X190066742Y-86136905D01*
X190066742Y-86136905D02*
X190161980Y-86077382D01*
X190161980Y-86077382D02*
X190209600Y-86023810D01*
X190209600Y-86023810D02*
X190257219Y-85922620D01*
X190257219Y-85922620D02*
X190257219Y-85779763D01*
X191343409Y-74154761D02*
X191391028Y-74291666D01*
X191391028Y-74291666D02*
X191438647Y-74333332D01*
X191438647Y-74333332D02*
X191533885Y-74369047D01*
X191533885Y-74369047D02*
X191676742Y-74351189D01*
X191676742Y-74351189D02*
X191771980Y-74291666D01*
X191771980Y-74291666D02*
X191819600Y-74238094D01*
X191819600Y-74238094D02*
X191867219Y-74136904D01*
X191867219Y-74136904D02*
X191867219Y-73755951D01*
X191867219Y-73755951D02*
X190867219Y-73880951D01*
X190867219Y-73880951D02*
X190867219Y-74214285D01*
X190867219Y-74214285D02*
X190914838Y-74303570D01*
X190914838Y-74303570D02*
X190962457Y-74345237D01*
X190962457Y-74345237D02*
X191057695Y-74380951D01*
X191057695Y-74380951D02*
X191152933Y-74369047D01*
X191152933Y-74369047D02*
X191248171Y-74309523D01*
X191248171Y-74309523D02*
X191295790Y-74255951D01*
X191295790Y-74255951D02*
X191343409Y-74154761D01*
X191343409Y-74154761D02*
X191343409Y-73821428D01*
X191867219Y-74898809D02*
X191819600Y-74809523D01*
X191819600Y-74809523D02*
X191771980Y-74767856D01*
X191771980Y-74767856D02*
X191676742Y-74732142D01*
X191676742Y-74732142D02*
X191391028Y-74767856D01*
X191391028Y-74767856D02*
X191295790Y-74827380D01*
X191295790Y-74827380D02*
X191248171Y-74880951D01*
X191248171Y-74880951D02*
X191200552Y-74982142D01*
X191200552Y-74982142D02*
X191200552Y-75124999D01*
X191200552Y-75124999D02*
X191248171Y-75214285D01*
X191248171Y-75214285D02*
X191295790Y-75255951D01*
X191295790Y-75255951D02*
X191391028Y-75291666D01*
X191391028Y-75291666D02*
X191676742Y-75255951D01*
X191676742Y-75255951D02*
X191771980Y-75196428D01*
X191771980Y-75196428D02*
X191819600Y-75142856D01*
X191819600Y-75142856D02*
X191867219Y-75041666D01*
X191867219Y-75041666D02*
X191867219Y-74898809D01*
X191200552Y-75601190D02*
X191200552Y-75982142D01*
X190867219Y-75785713D02*
X191724361Y-75678571D01*
X191724361Y-75678571D02*
X191819600Y-75714285D01*
X191819600Y-75714285D02*
X191867219Y-75803571D01*
X191867219Y-75803571D02*
X191867219Y-75898809D01*
X191200552Y-76172619D02*
X191200552Y-76553571D01*
X190867219Y-76357142D02*
X191724361Y-76250000D01*
X191724361Y-76250000D02*
X191819600Y-76285714D01*
X191819600Y-76285714D02*
X191867219Y-76375000D01*
X191867219Y-76375000D02*
X191867219Y-76470238D01*
X191867219Y-76946429D02*
X191819600Y-76857143D01*
X191819600Y-76857143D02*
X191771980Y-76815476D01*
X191771980Y-76815476D02*
X191676742Y-76779762D01*
X191676742Y-76779762D02*
X191391028Y-76815476D01*
X191391028Y-76815476D02*
X191295790Y-76875000D01*
X191295790Y-76875000D02*
X191248171Y-76928571D01*
X191248171Y-76928571D02*
X191200552Y-77029762D01*
X191200552Y-77029762D02*
X191200552Y-77172619D01*
X191200552Y-77172619D02*
X191248171Y-77261905D01*
X191248171Y-77261905D02*
X191295790Y-77303571D01*
X191295790Y-77303571D02*
X191391028Y-77339286D01*
X191391028Y-77339286D02*
X191676742Y-77303571D01*
X191676742Y-77303571D02*
X191771980Y-77244048D01*
X191771980Y-77244048D02*
X191819600Y-77190476D01*
X191819600Y-77190476D02*
X191867219Y-77089286D01*
X191867219Y-77089286D02*
X191867219Y-76946429D01*
X191867219Y-77708333D02*
X191200552Y-77791667D01*
X191295790Y-77779762D02*
X191248171Y-77833333D01*
X191248171Y-77833333D02*
X191200552Y-77934524D01*
X191200552Y-77934524D02*
X191200552Y-78077381D01*
X191200552Y-78077381D02*
X191248171Y-78166667D01*
X191248171Y-78166667D02*
X191343409Y-78202381D01*
X191343409Y-78202381D02*
X191867219Y-78136905D01*
X191343409Y-78202381D02*
X191248171Y-78261905D01*
X191248171Y-78261905D02*
X191200552Y-78363095D01*
X191200552Y-78363095D02*
X191200552Y-78505952D01*
X191200552Y-78505952D02*
X191248171Y-78595238D01*
X191248171Y-78595238D02*
X191343409Y-78630952D01*
X191343409Y-78630952D02*
X191867219Y-78565476D01*
X191819600Y-79761905D02*
X191867219Y-79898809D01*
X191867219Y-79898809D02*
X191867219Y-80136905D01*
X191867219Y-80136905D02*
X191819600Y-80238095D01*
X191819600Y-80238095D02*
X191771980Y-80291667D01*
X191771980Y-80291667D02*
X191676742Y-80351190D01*
X191676742Y-80351190D02*
X191581504Y-80363095D01*
X191581504Y-80363095D02*
X191486266Y-80327381D01*
X191486266Y-80327381D02*
X191438647Y-80285714D01*
X191438647Y-80285714D02*
X191391028Y-80196429D01*
X191391028Y-80196429D02*
X191343409Y-80011905D01*
X191343409Y-80011905D02*
X191295790Y-79922619D01*
X191295790Y-79922619D02*
X191248171Y-79880952D01*
X191248171Y-79880952D02*
X191152933Y-79845238D01*
X191152933Y-79845238D02*
X191057695Y-79857143D01*
X191057695Y-79857143D02*
X190962457Y-79916667D01*
X190962457Y-79916667D02*
X190914838Y-79970238D01*
X190914838Y-79970238D02*
X190867219Y-80071429D01*
X190867219Y-80071429D02*
X190867219Y-80309524D01*
X190867219Y-80309524D02*
X190914838Y-80446429D01*
X191867219Y-80755952D02*
X191200552Y-80839286D01*
X190867219Y-80880952D02*
X190914838Y-80827381D01*
X190914838Y-80827381D02*
X190962457Y-80869048D01*
X190962457Y-80869048D02*
X190914838Y-80922619D01*
X190914838Y-80922619D02*
X190867219Y-80880952D01*
X190867219Y-80880952D02*
X190962457Y-80869048D01*
X191867219Y-81660714D02*
X190867219Y-81785714D01*
X191819600Y-81666666D02*
X191867219Y-81565476D01*
X191867219Y-81565476D02*
X191867219Y-81375000D01*
X191867219Y-81375000D02*
X191819600Y-81285714D01*
X191819600Y-81285714D02*
X191771980Y-81244047D01*
X191771980Y-81244047D02*
X191676742Y-81208333D01*
X191676742Y-81208333D02*
X191391028Y-81244047D01*
X191391028Y-81244047D02*
X191295790Y-81303571D01*
X191295790Y-81303571D02*
X191248171Y-81357142D01*
X191248171Y-81357142D02*
X191200552Y-81458333D01*
X191200552Y-81458333D02*
X191200552Y-81648809D01*
X191200552Y-81648809D02*
X191248171Y-81738095D01*
X191819600Y-82523809D02*
X191867219Y-82422619D01*
X191867219Y-82422619D02*
X191867219Y-82232142D01*
X191867219Y-82232142D02*
X191819600Y-82142857D01*
X191819600Y-82142857D02*
X191724361Y-82107142D01*
X191724361Y-82107142D02*
X191343409Y-82154762D01*
X191343409Y-82154762D02*
X191248171Y-82214285D01*
X191248171Y-82214285D02*
X191200552Y-82315476D01*
X191200552Y-82315476D02*
X191200552Y-82505952D01*
X191200552Y-82505952D02*
X191248171Y-82595238D01*
X191248171Y-82595238D02*
X191343409Y-82630952D01*
X191343409Y-82630952D02*
X191438647Y-82619047D01*
X191438647Y-82619047D02*
X191533885Y-82130952D01*
X190867219Y-83880952D02*
X191676742Y-83779762D01*
X191676742Y-83779762D02*
X191771980Y-83815476D01*
X191771980Y-83815476D02*
X191819600Y-83857143D01*
X191819600Y-83857143D02*
X191867219Y-83946429D01*
X191867219Y-83946429D02*
X191867219Y-84136905D01*
X191867219Y-84136905D02*
X191819600Y-84238095D01*
X191819600Y-84238095D02*
X191771980Y-84291667D01*
X191771980Y-84291667D02*
X191676742Y-84351190D01*
X191676742Y-84351190D02*
X190867219Y-84452381D01*
X191200552Y-84886905D02*
X192200552Y-84761905D01*
X191248171Y-84880952D02*
X191200552Y-84982143D01*
X191200552Y-84982143D02*
X191200552Y-85172619D01*
X191200552Y-85172619D02*
X191248171Y-85261905D01*
X191248171Y-85261905D02*
X191295790Y-85303571D01*
X191295790Y-85303571D02*
X191391028Y-85339286D01*
X191391028Y-85339286D02*
X191676742Y-85303571D01*
X191676742Y-85303571D02*
X191771980Y-85244048D01*
X191771980Y-85244048D02*
X191819600Y-85190476D01*
X191819600Y-85190476D02*
X191867219Y-85089286D01*
X191867219Y-85089286D02*
X191867219Y-84898809D01*
X191867219Y-84898809D02*
X191819600Y-84809524D01*
D10*
X102500000Y-45695000D02*
X103500000Y-45695000D01*
X102500000Y-46695000D02*
X102500000Y-45695000D01*
X102500000Y-59695000D02*
X102500000Y-58695000D01*
X103500000Y-59695000D02*
X102500000Y-59695000D01*
X115500000Y-45695000D02*
X116500000Y-45695000D01*
X116500000Y-45695000D02*
X116500000Y-46695000D01*
X116500000Y-58695000D02*
X116500000Y-59695000D01*
X116500000Y-59695000D02*
X115500000Y-59695000D01*
X121500000Y-60445000D02*
X122500000Y-60445000D01*
X121500000Y-61445000D02*
X121500000Y-60445000D01*
X121500000Y-74445000D02*
X121500000Y-73445000D01*
X122500000Y-74445000D02*
X121500000Y-74445000D01*
X134500000Y-60445000D02*
X135500000Y-60445000D01*
X135500000Y-60445000D02*
X135500000Y-61445000D01*
X135500000Y-73445000D02*
X135500000Y-74445000D01*
X135500000Y-74445000D02*
X134500000Y-74445000D01*
X102500000Y-64695000D02*
X103500000Y-64695000D01*
X102500000Y-65695000D02*
X102500000Y-64695000D01*
X102500000Y-78695000D02*
X102500000Y-77695000D01*
X103500000Y-78695000D02*
X102500000Y-78695000D01*
X115500000Y-64695000D02*
X116500000Y-64695000D01*
X116500000Y-64695000D02*
X116500000Y-65695000D01*
X116500000Y-77695000D02*
X116500000Y-78695000D01*
X116500000Y-78695000D02*
X115500000Y-78695000D01*
X159500000Y-91070000D02*
X160500000Y-91070000D01*
X159500000Y-92070000D02*
X159500000Y-91070000D01*
X159500000Y-105070000D02*
X159500000Y-104070000D01*
X160500000Y-105070000D02*
X159500000Y-105070000D01*
X172500000Y-91070000D02*
X173500000Y-91070000D01*
X173500000Y-91070000D02*
X173500000Y-92070000D01*
X173500000Y-104070000D02*
X173500000Y-105070000D01*
X173500000Y-105070000D02*
X172500000Y-105070000D01*
X140500000Y-81570000D02*
X141500000Y-81570000D01*
X140500000Y-82570000D02*
X140500000Y-81570000D01*
X140500000Y-95570000D02*
X140500000Y-94570000D01*
X141500000Y-95570000D02*
X140500000Y-95570000D01*
X153500000Y-81570000D02*
X154500000Y-81570000D01*
X154500000Y-81570000D02*
X154500000Y-82570000D01*
X154500000Y-94570000D02*
X154500000Y-95570000D01*
X154500000Y-95570000D02*
X153500000Y-95570000D01*
X140500000Y-43570000D02*
X141500000Y-43570000D01*
X140500000Y-44570000D02*
X140500000Y-43570000D01*
X140500000Y-57570000D02*
X140500000Y-56570000D01*
X141500000Y-57570000D02*
X140500000Y-57570000D01*
X153500000Y-43570000D02*
X154500000Y-43570000D01*
X154500000Y-43570000D02*
X154500000Y-44570000D01*
X154500000Y-56570000D02*
X154500000Y-57570000D01*
X154500000Y-57570000D02*
X153500000Y-57570000D01*
X140500000Y-62570000D02*
X141500000Y-62570000D01*
X140500000Y-63570000D02*
X140500000Y-62570000D01*
X140500000Y-76570000D02*
X140500000Y-75570000D01*
X141500000Y-76570000D02*
X140500000Y-76570000D01*
X153500000Y-62570000D02*
X154500000Y-62570000D01*
X154500000Y-62570000D02*
X154500000Y-63570000D01*
X154500000Y-75570000D02*
X154500000Y-76570000D01*
X154500000Y-76570000D02*
X153500000Y-76570000D01*
X180413822Y-125110822D02*
X181279848Y-125610822D01*
X179913822Y-125976848D02*
X180413822Y-125110822D01*
X173413822Y-137235178D02*
X173913822Y-136369152D01*
X174279848Y-137735178D02*
X173413822Y-137235178D01*
X191672152Y-131610822D02*
X192538178Y-132110822D01*
X192538178Y-132110822D02*
X192038178Y-132976848D01*
X186038178Y-143369152D02*
X185538178Y-144235178D01*
X185538178Y-144235178D02*
X184672152Y-143735178D01*
X83500000Y-57195000D02*
X84500000Y-57195000D01*
X83500000Y-58195000D02*
X83500000Y-57195000D01*
X83500000Y-71195000D02*
X83500000Y-70195000D01*
X84500000Y-71195000D02*
X83500000Y-71195000D01*
X96500000Y-57195000D02*
X97500000Y-57195000D01*
X97500000Y-57195000D02*
X97500000Y-58195000D01*
X97500000Y-70195000D02*
X97500000Y-71195000D01*
X97500000Y-71195000D02*
X96500000Y-71195000D01*
X83500000Y-76195000D02*
X84500000Y-76195000D01*
X83500000Y-77195000D02*
X83500000Y-76195000D01*
X83500000Y-90195000D02*
X83500000Y-89195000D01*
X84500000Y-90195000D02*
X83500000Y-90195000D01*
X96500000Y-76195000D02*
X97500000Y-76195000D01*
X97500000Y-76195000D02*
X97500000Y-77195000D01*
X97500000Y-89195000D02*
X97500000Y-90195000D01*
X97500000Y-90195000D02*
X96500000Y-90195000D01*
X102500000Y-83695000D02*
X103500000Y-83695000D01*
X102500000Y-84695000D02*
X102500000Y-83695000D01*
X102500000Y-97695000D02*
X102500000Y-96695000D01*
X103500000Y-97695000D02*
X102500000Y-97695000D01*
X115500000Y-83695000D02*
X116500000Y-83695000D01*
X116500000Y-83695000D02*
X116500000Y-84695000D01*
X116500000Y-96695000D02*
X116500000Y-97695000D01*
X116500000Y-97695000D02*
X115500000Y-97695000D01*
X159500000Y-72070000D02*
X160500000Y-72070000D01*
X159500000Y-73070000D02*
X159500000Y-72070000D01*
X159500000Y-86070000D02*
X159500000Y-85070000D01*
X160500000Y-86070000D02*
X159500000Y-86070000D01*
X172500000Y-72070000D02*
X173500000Y-72070000D01*
X173500000Y-72070000D02*
X173500000Y-73070000D01*
X173500000Y-85070000D02*
X173500000Y-86070000D01*
X173500000Y-86070000D02*
X172500000Y-86070000D01*
X121500000Y-79445000D02*
X122500000Y-79445000D01*
X121500000Y-80445000D02*
X121500000Y-79445000D01*
X121500000Y-93445000D02*
X121500000Y-92445000D01*
X122500000Y-93445000D02*
X121500000Y-93445000D01*
X134500000Y-79445000D02*
X135500000Y-79445000D01*
X135500000Y-79445000D02*
X135500000Y-80445000D01*
X135500000Y-92445000D02*
X135500000Y-93445000D01*
X135500000Y-93445000D02*
X134500000Y-93445000D01*
X163937822Y-115377822D02*
X164803848Y-115877822D01*
X163437822Y-116243848D02*
X163937822Y-115377822D01*
X156937822Y-127502178D02*
X157437822Y-126636152D01*
X157803848Y-128002178D02*
X156937822Y-127502178D01*
X175196152Y-121877822D02*
X176062178Y-122377822D01*
X176062178Y-122377822D02*
X175562178Y-123243848D01*
X169562178Y-133636152D02*
X169062178Y-134502178D01*
X169062178Y-134502178D02*
X168196152Y-134002178D01*
X83500000Y-95195000D02*
X84500000Y-95195000D01*
X83500000Y-96195000D02*
X83500000Y-95195000D01*
X83500000Y-109195000D02*
X83500000Y-108195000D01*
X84500000Y-109195000D02*
X83500000Y-109195000D01*
X96500000Y-95195000D02*
X97500000Y-95195000D01*
X97500000Y-95195000D02*
X97500000Y-96195000D01*
X97500000Y-108195000D02*
X97500000Y-109195000D01*
X97500000Y-109195000D02*
X96500000Y-109195000D01*
X121500000Y-41445000D02*
X122500000Y-41445000D01*
X121500000Y-42445000D02*
X121500000Y-41445000D01*
X121500000Y-55445000D02*
X121500000Y-54445000D01*
X122500000Y-55445000D02*
X121500000Y-55445000D01*
X134500000Y-41445000D02*
X135500000Y-41445000D01*
X135500000Y-41445000D02*
X135500000Y-42445000D01*
X135500000Y-54445000D02*
X135500000Y-55445000D01*
X135500000Y-55445000D02*
X134500000Y-55445000D01*
X159500000Y-53070000D02*
X160500000Y-53070000D01*
X159500000Y-54070000D02*
X159500000Y-53070000D01*
X159500000Y-67070000D02*
X159500000Y-66070000D01*
X160500000Y-67070000D02*
X159500000Y-67070000D01*
X172500000Y-53070000D02*
X173500000Y-53070000D01*
X173500000Y-53070000D02*
X173500000Y-54070000D01*
X173500000Y-66070000D02*
X173500000Y-67070000D01*
X173500000Y-67070000D02*
X172500000Y-67070000D01*
D12*
X138000000Y-72330000D02*
X138000000Y-71680000D01*
X136880000Y-71680000D02*
X136880000Y-67440000D01*
X139120000Y-71680000D02*
X136880000Y-71680000D01*
X139120000Y-71080000D02*
X136880000Y-71080000D01*
X139120000Y-70960000D02*
X136880000Y-70960000D01*
X139120000Y-70840000D02*
X136880000Y-70840000D01*
X136880000Y-67440000D02*
X139120000Y-67440000D01*
X139120000Y-67440000D02*
X139120000Y-71680000D01*
X138000000Y-66790000D02*
X138000000Y-67440000D01*
X173209000Y-132499891D02*
X173534000Y-131936974D01*
X172564052Y-131376974D02*
X174684052Y-127705026D01*
X174503948Y-132496974D02*
X172564052Y-131376974D01*
X174803948Y-131977359D02*
X172864052Y-130857359D01*
X174863948Y-131873436D02*
X172924052Y-130753436D01*
X174923948Y-131769513D02*
X172984052Y-130649513D01*
X174684052Y-127705026D02*
X176623948Y-128825026D01*
X176623948Y-128825026D02*
X174503948Y-132496974D01*
X175979000Y-127702110D02*
X175654000Y-128265026D01*
X157000000Y-62830000D02*
X157000000Y-62180000D01*
X155880000Y-62180000D02*
X155880000Y-57940000D01*
X158120000Y-62180000D02*
X155880000Y-62180000D01*
X158120000Y-61580000D02*
X155880000Y-61580000D01*
X158120000Y-61460000D02*
X155880000Y-61460000D01*
X158120000Y-61340000D02*
X155880000Y-61340000D01*
X155880000Y-57940000D02*
X158120000Y-57940000D01*
X158120000Y-57940000D02*
X158120000Y-62180000D01*
X157000000Y-57290000D02*
X157000000Y-57940000D01*
X156699000Y-122847891D02*
X157024000Y-122284974D01*
X156054052Y-121724974D02*
X158174052Y-118053026D01*
X157993948Y-122844974D02*
X156054052Y-121724974D01*
X158293948Y-122325359D02*
X156354052Y-121205359D01*
X158353948Y-122221436D02*
X156414052Y-121101436D01*
X158413948Y-122117513D02*
X156474052Y-120997513D01*
X158174052Y-118053026D02*
X160113948Y-119173026D01*
X160113948Y-119173026D02*
X157993948Y-122844974D01*
X159469000Y-118050110D02*
X159144000Y-118613026D01*
X81000000Y-66955000D02*
X81000000Y-66305000D01*
X79880000Y-66305000D02*
X79880000Y-62065000D01*
X82120000Y-66305000D02*
X79880000Y-66305000D01*
X82120000Y-65705000D02*
X79880000Y-65705000D01*
X82120000Y-65585000D02*
X79880000Y-65585000D01*
X82120000Y-65465000D02*
X79880000Y-65465000D01*
X79880000Y-62065000D02*
X82120000Y-62065000D01*
X82120000Y-62065000D02*
X82120000Y-66305000D01*
X81000000Y-61415000D02*
X81000000Y-62065000D01*
X119000000Y-51205000D02*
X119000000Y-50555000D01*
X117880000Y-50555000D02*
X117880000Y-46315000D01*
X120120000Y-50555000D02*
X117880000Y-50555000D01*
X120120000Y-49955000D02*
X117880000Y-49955000D01*
X120120000Y-49835000D02*
X117880000Y-49835000D01*
X120120000Y-49715000D02*
X117880000Y-49715000D01*
X117880000Y-46315000D02*
X120120000Y-46315000D01*
X120120000Y-46315000D02*
X120120000Y-50555000D01*
X119000000Y-45665000D02*
X119000000Y-46315000D01*
X81000000Y-104955000D02*
X81000000Y-104305000D01*
X79880000Y-104305000D02*
X79880000Y-100065000D01*
X82120000Y-104305000D02*
X79880000Y-104305000D01*
X82120000Y-103705000D02*
X79880000Y-103705000D01*
X82120000Y-103585000D02*
X79880000Y-103585000D01*
X82120000Y-103465000D02*
X79880000Y-103465000D01*
X79880000Y-100065000D02*
X82120000Y-100065000D01*
X82120000Y-100065000D02*
X82120000Y-104305000D01*
X81000000Y-99415000D02*
X81000000Y-100065000D01*
X100000000Y-74455000D02*
X100000000Y-73805000D01*
X98880000Y-73805000D02*
X98880000Y-69565000D01*
X101120000Y-73805000D02*
X98880000Y-73805000D01*
X101120000Y-73205000D02*
X98880000Y-73205000D01*
X101120000Y-73085000D02*
X98880000Y-73085000D01*
X101120000Y-72965000D02*
X98880000Y-72965000D01*
X98880000Y-69565000D02*
X101120000Y-69565000D01*
X101120000Y-69565000D02*
X101120000Y-73805000D01*
X100000000Y-68915000D02*
X100000000Y-69565000D01*
X138000000Y-53330000D02*
X138000000Y-52680000D01*
X136880000Y-52680000D02*
X136880000Y-48440000D01*
X139120000Y-52680000D02*
X136880000Y-52680000D01*
X139120000Y-52080000D02*
X136880000Y-52080000D01*
X139120000Y-51960000D02*
X136880000Y-51960000D01*
X139120000Y-51840000D02*
X136880000Y-51840000D01*
X136880000Y-48440000D02*
X139120000Y-48440000D01*
X139120000Y-48440000D02*
X139120000Y-52680000D01*
X138000000Y-47790000D02*
X138000000Y-48440000D01*
X119000000Y-89205000D02*
X119000000Y-88555000D01*
X117880000Y-88555000D02*
X117880000Y-84315000D01*
X120120000Y-88555000D02*
X117880000Y-88555000D01*
X120120000Y-87955000D02*
X117880000Y-87955000D01*
X120120000Y-87835000D02*
X117880000Y-87835000D01*
X120120000Y-87715000D02*
X117880000Y-87715000D01*
X117880000Y-84315000D02*
X120120000Y-84315000D01*
X120120000Y-84315000D02*
X120120000Y-88555000D01*
X119000000Y-83665000D02*
X119000000Y-84315000D01*
G36*
X146459010Y-111674931D02*
G01*
X146556329Y-111728008D01*
X146552128Y-111818105D01*
X146451261Y-111928795D01*
X146258581Y-112043648D01*
X146147031Y-112094470D01*
X145982297Y-112163031D01*
X145885022Y-112194704D01*
X145863207Y-112199257D01*
X145765112Y-112249506D01*
X145750117Y-112258733D01*
X145637173Y-112283554D01*
X145466134Y-112293983D01*
X145415276Y-112295040D01*
X145243629Y-112311364D01*
X145138483Y-112340904D01*
X145114267Y-112349470D01*
X144980977Y-112365755D01*
X144769438Y-112373939D01*
X144512867Y-112372351D01*
X144397545Y-112369307D01*
X144045356Y-112359869D01*
X143658705Y-112349357D01*
X143302546Y-112339530D01*
X143100708Y-112331275D01*
X142844296Y-112312500D01*
X142650994Y-112288329D01*
X142551807Y-112261964D01*
X142499764Y-112233554D01*
X142374030Y-112189996D01*
X142348763Y-112185476D01*
X142251795Y-112129468D01*
X142260588Y-112014196D01*
X142281972Y-111984532D01*
X142399235Y-111933401D01*
X142567258Y-111917215D01*
X142735950Y-111937519D01*
X142855218Y-111995857D01*
X142862074Y-112000883D01*
X142969585Y-112027485D01*
X143174160Y-112048494D01*
X143451888Y-112063824D01*
X143778858Y-112073391D01*
X144131159Y-112077110D01*
X144484881Y-112074895D01*
X144816112Y-112066663D01*
X145100941Y-112052328D01*
X145315457Y-112031806D01*
X145435750Y-112005012D01*
X145716414Y-111877802D01*
X145960790Y-111773263D01*
X146135776Y-111708903D01*
X146264412Y-111676395D01*
X146369737Y-111667409D01*
X146459010Y-111674931D01*
G37*
G36*
X141012730Y-105731783D02*
G01*
X141488260Y-105790167D01*
X141525060Y-105797017D01*
X141775240Y-105859659D01*
X141959933Y-105949396D01*
X142132404Y-106091115D01*
X142209828Y-106169327D01*
X142321770Y-106323337D01*
X142338151Y-106444635D01*
X142332972Y-106518737D01*
X142360869Y-106701852D01*
X142422542Y-106906270D01*
X142503106Y-107075100D01*
X142515520Y-107101416D01*
X142552642Y-107235153D01*
X142585666Y-107419189D01*
X142595174Y-107479523D01*
X142641213Y-107685328D01*
X142694432Y-107839373D01*
X142732870Y-107964571D01*
X142691339Y-108101575D01*
X142682884Y-108117846D01*
X142642600Y-108256316D01*
X142604449Y-108471869D01*
X142575700Y-108725298D01*
X142569258Y-108796561D01*
X142541387Y-109024128D01*
X142509773Y-109190748D01*
X142480087Y-109264449D01*
X142454390Y-109293440D01*
X142426550Y-109403244D01*
X142407638Y-109486350D01*
X142342379Y-109653578D01*
X142246651Y-109853123D01*
X142166076Y-110013818D01*
X142074660Y-110213555D01*
X142020791Y-110353616D01*
X142011162Y-110381549D01*
X141928465Y-110531695D01*
X141808066Y-110685659D01*
X141682786Y-110805707D01*
X141585447Y-110854109D01*
X141530881Y-110877420D01*
X141445056Y-110971485D01*
X141431465Y-110990173D01*
X141291355Y-111076497D01*
X141038458Y-111130504D01*
X140911613Y-111149571D01*
X140724847Y-111190046D01*
X140611859Y-111231135D01*
X140594065Y-111239977D01*
X140462317Y-111268745D01*
X140264965Y-111285225D01*
X140040041Y-111289477D01*
X139825574Y-111281563D01*
X139659594Y-111261543D01*
X139580132Y-111229478D01*
X139540349Y-111195858D01*
X139420976Y-111166916D01*
X139408059Y-111166377D01*
X139256930Y-111120884D01*
X139065171Y-111020405D01*
X138871794Y-110890769D01*
X138715808Y-110757804D01*
X138636225Y-110647339D01*
X138574186Y-110511995D01*
X138471016Y-110353616D01*
X138327999Y-110127190D01*
X138215108Y-109849369D01*
X138172497Y-109598929D01*
X138155767Y-109468863D01*
X138109935Y-109383911D01*
X138091527Y-109354456D01*
X138066039Y-109223816D01*
X138051915Y-109026171D01*
X138049173Y-108798977D01*
X138057831Y-108579685D01*
X138077907Y-108405750D01*
X138109419Y-108314625D01*
X138137630Y-108238179D01*
X138099185Y-108061092D01*
X138063166Y-107912188D01*
X138080486Y-107750896D01*
X138111651Y-107674957D01*
X138143687Y-107569626D01*
X138156750Y-107510313D01*
X138221314Y-107327297D01*
X138303950Y-107162976D01*
X138333285Y-107113104D01*
X138398626Y-106975291D01*
X138457463Y-106895373D01*
X138587231Y-106768387D01*
X138754760Y-106624274D01*
X138928146Y-106489085D01*
X139075484Y-106388869D01*
X139164870Y-106349675D01*
X139187368Y-106346453D01*
X139236044Y-106287113D01*
X139240747Y-106265392D01*
X139311267Y-106224552D01*
X139334889Y-106219110D01*
X139443305Y-106153661D01*
X139579100Y-106037868D01*
X139588976Y-106028528D01*
X139827796Y-105880686D01*
X140159816Y-105779986D01*
X140562354Y-105729370D01*
X141012730Y-105731783D01*
G37*
G36*
X150831741Y-104366362D02*
G01*
X150828762Y-104696147D01*
X150820089Y-105006139D01*
X150805843Y-105270082D01*
X150786142Y-105461723D01*
X150761105Y-105554805D01*
X150755079Y-105564589D01*
X150722020Y-105679888D01*
X150690444Y-105876767D01*
X150666458Y-106118829D01*
X150662704Y-106167444D01*
X150636954Y-106403395D01*
X150604993Y-106586978D01*
X150572855Y-106681883D01*
X150504276Y-106802347D01*
X150476595Y-107031208D01*
X150514108Y-107131695D01*
X150561531Y-107258727D01*
X150568040Y-107268791D01*
X150650276Y-107435400D01*
X150684400Y-107580053D01*
X150696905Y-107665234D01*
X150746224Y-107736457D01*
X150776274Y-107769477D01*
X150825343Y-107906866D01*
X150872510Y-108123397D01*
X150914647Y-108390727D01*
X150948629Y-108680513D01*
X150971329Y-108964414D01*
X150977245Y-109142568D01*
X150979620Y-109214084D01*
X150970376Y-109401183D01*
X150940470Y-109497366D01*
X150913698Y-109531972D01*
X150872111Y-109662311D01*
X150851903Y-109750904D01*
X150844683Y-109782559D01*
X150778269Y-109938477D01*
X150740995Y-110010619D01*
X150694275Y-110117766D01*
X150706810Y-110159106D01*
X150778654Y-110165931D01*
X150842648Y-110181551D01*
X150866943Y-110250190D01*
X150794295Y-110334867D01*
X150752864Y-110376705D01*
X150661206Y-110509322D01*
X150559689Y-110688880D01*
X150496966Y-110810322D01*
X150355355Y-111077062D01*
X150245257Y-111265744D01*
X150149619Y-111401615D01*
X150051388Y-111509921D01*
X149933510Y-111615909D01*
X149897428Y-111646870D01*
X149717569Y-111806015D01*
X149497273Y-112006043D01*
X149276143Y-112211100D01*
X149201696Y-112279608D01*
X148993808Y-112458056D01*
X148808718Y-112600139D01*
X148679406Y-112679943D01*
X148550302Y-112764725D01*
X148495157Y-112902632D01*
X148494960Y-112916073D01*
X148459017Y-113016714D01*
X148338526Y-113043764D01*
X148306591Y-113045800D01*
X148135523Y-113088412D01*
X147948443Y-113168887D01*
X147897859Y-113194760D01*
X147728862Y-113265578D01*
X147608273Y-113294010D01*
X147552189Y-113301761D01*
X147462891Y-113356572D01*
X147440055Y-113374403D01*
X147319120Y-113406441D01*
X147140403Y-113419133D01*
X147075094Y-113421193D01*
X146858670Y-113451356D01*
X146690524Y-113506049D01*
X146614141Y-113541656D01*
X146403631Y-113612079D01*
X146117120Y-113677355D01*
X145742339Y-113739669D01*
X145267022Y-113801204D01*
X144678901Y-113864145D01*
X144477131Y-113886333D01*
X144217348Y-113921741D01*
X144018861Y-113957008D01*
X143913370Y-113987044D01*
X143877868Y-113999742D01*
X143727681Y-114023044D01*
X143509294Y-114037556D01*
X143254882Y-114043389D01*
X142996622Y-114040657D01*
X142766692Y-114029471D01*
X142597268Y-114009944D01*
X142520526Y-113982187D01*
X142484090Y-113934837D01*
X142441877Y-113934705D01*
X142413293Y-114029737D01*
X142395993Y-114229862D01*
X142387633Y-114545007D01*
X142382997Y-114718367D01*
X142366724Y-114968815D01*
X142342448Y-115156550D01*
X142313453Y-115250370D01*
X142284654Y-115307190D01*
X142239062Y-115467031D01*
X142202712Y-115672914D01*
X142180605Y-115806714D01*
X142129654Y-116007678D01*
X142073567Y-116138842D01*
X142022868Y-116233067D01*
X141988753Y-116364717D01*
X141984912Y-116393314D01*
X141932304Y-116527634D01*
X141837688Y-116689797D01*
X141799066Y-116750241D01*
X141733708Y-116881379D01*
X141726393Y-116952175D01*
X141736560Y-116969235D01*
X141705414Y-117035513D01*
X141625240Y-117115881D01*
X141508017Y-117338525D01*
X141422958Y-117648734D01*
X141377588Y-118023824D01*
X141366953Y-118229675D01*
X141366974Y-118411530D01*
X141389923Y-118533218D01*
X141443880Y-118631143D01*
X141536925Y-118741711D01*
X141566049Y-118773968D01*
X141681779Y-118884400D01*
X141770567Y-118914994D01*
X141872735Y-118882677D01*
X141926093Y-118858744D01*
X142105895Y-118785794D01*
X142312273Y-118708912D01*
X142407130Y-118672039D01*
X142578356Y-118588326D01*
X142679663Y-118514609D01*
X142729394Y-118467604D01*
X142828103Y-118424059D01*
X142846250Y-118420009D01*
X142946706Y-118353301D01*
X143081194Y-118230594D01*
X143217341Y-118085649D01*
X143322770Y-117952224D01*
X143365108Y-117864080D01*
X143369151Y-117838372D01*
X143413234Y-117714178D01*
X143490231Y-117548197D01*
X143517165Y-117492141D01*
X143587976Y-117305008D01*
X143617344Y-117159680D01*
X143656926Y-116990100D01*
X143756170Y-116852806D01*
X143883374Y-116797458D01*
X143922596Y-116809590D01*
X143962640Y-116878844D01*
X143989862Y-117029058D01*
X144010030Y-117282311D01*
X144056175Y-117789913D01*
X144142268Y-118244888D01*
X144272622Y-118598803D01*
X144454905Y-118862418D01*
X144696785Y-119046495D01*
X145005930Y-119161796D01*
X145390007Y-119219084D01*
X145714787Y-119224520D01*
X146027336Y-119173452D01*
X146238647Y-119060062D01*
X146344217Y-118885923D01*
X146389956Y-118742273D01*
X146471181Y-118553352D01*
X146471896Y-118551975D01*
X146530712Y-118373630D01*
X146555363Y-118170685D01*
X146555672Y-118149969D01*
X146576675Y-117986139D01*
X146620438Y-117883902D01*
X146643023Y-117813864D01*
X146662944Y-117643697D01*
X146676943Y-117403576D01*
X146684885Y-117121344D01*
X146686640Y-116824842D01*
X146682075Y-116541911D01*
X146671057Y-116300391D01*
X146653454Y-116128125D01*
X146629134Y-116052953D01*
X146616492Y-116034937D01*
X146583283Y-115916577D01*
X146550503Y-115717014D01*
X146523703Y-115467096D01*
X146513688Y-115357977D01*
X146485336Y-115126807D01*
X146454666Y-114959652D01*
X146426763Y-114886943D01*
X146396037Y-114845241D01*
X146356196Y-114703042D01*
X146333237Y-114508064D01*
X146331440Y-114305012D01*
X146355089Y-114138591D01*
X146415075Y-114009611D01*
X146528968Y-113950907D01*
X146557997Y-113952544D01*
X146616433Y-113985241D01*
X146643649Y-114082896D01*
X146650890Y-114275441D01*
X146654484Y-114396278D01*
X146671603Y-114561492D01*
X146697811Y-114645597D01*
X146711251Y-114671953D01*
X146734312Y-114798590D01*
X146743433Y-114981087D01*
X146746020Y-115066965D01*
X146767816Y-115236737D01*
X146804557Y-115332080D01*
X146816834Y-115353430D01*
X146850049Y-115480790D01*
X146882210Y-115687526D01*
X146907791Y-115941040D01*
X146917111Y-116049405D01*
X146944414Y-116280875D01*
X146974738Y-116448499D01*
X147003071Y-116521736D01*
X147012416Y-116529816D01*
X147046786Y-116630137D01*
X147054384Y-116783472D01*
X147036313Y-116931631D01*
X146993679Y-117016424D01*
X146981445Y-117034594D01*
X146955684Y-117153488D01*
X146937809Y-117353623D01*
X146931117Y-117604024D01*
X146930326Y-117711671D01*
X146922575Y-117945691D01*
X146908326Y-118116965D01*
X146889763Y-118194314D01*
X146858404Y-118266669D01*
X146834277Y-118408066D01*
X146827369Y-118476014D01*
X146754613Y-118810127D01*
X146630395Y-119096611D01*
X146470228Y-119297559D01*
X146433173Y-119328029D01*
X146308904Y-119419506D01*
X146236175Y-119456325D01*
X146223100Y-119457974D01*
X146139817Y-119507313D01*
X146122928Y-119515658D01*
X146003885Y-119531305D01*
X145804111Y-119535131D01*
X145555909Y-119526096D01*
X145336266Y-119512289D01*
X145032069Y-119489389D01*
X144818857Y-119465431D01*
X144674845Y-119436776D01*
X144578253Y-119399782D01*
X144507299Y-119350808D01*
X144425580Y-119290446D01*
X144286952Y-119217191D01*
X144203383Y-119157286D01*
X144118767Y-119026075D01*
X144066184Y-118919056D01*
X143994582Y-118833095D01*
X143989757Y-118829555D01*
X143946096Y-118735782D01*
X143928162Y-118580463D01*
X143927989Y-118564608D01*
X143908210Y-118413559D01*
X143865600Y-118330217D01*
X143826106Y-118271308D01*
X143803039Y-118138840D01*
X143787130Y-118037660D01*
X143727078Y-117991015D01*
X143644340Y-118043275D01*
X143562594Y-118189453D01*
X143463564Y-118365036D01*
X143276012Y-118561796D01*
X143030464Y-118739374D01*
X142745231Y-118892660D01*
X142438621Y-119016539D01*
X142128946Y-119105900D01*
X141834516Y-119155630D01*
X141573641Y-119160616D01*
X141364632Y-119115746D01*
X141225799Y-119015907D01*
X141175452Y-118855986D01*
X141166910Y-118794518D01*
X141112891Y-118705586D01*
X141100099Y-118685916D01*
X141074605Y-118564871D01*
X141056937Y-118362941D01*
X141050329Y-118110870D01*
X141050343Y-118091350D01*
X141056610Y-117804105D01*
X141079449Y-117598001D01*
X141126412Y-117431689D01*
X141205054Y-117263821D01*
X141253849Y-117165521D01*
X141345488Y-116943688D01*
X141399831Y-116759327D01*
X141403747Y-116739499D01*
X141446374Y-116591588D01*
X141492330Y-116513416D01*
X141492480Y-116513322D01*
X141544027Y-116443355D01*
X141628417Y-116291979D01*
X141727456Y-116091816D01*
X141780707Y-115968892D01*
X141926816Y-115494254D01*
X142019133Y-114947115D01*
X142051315Y-114361367D01*
X142051315Y-113929567D01*
X141847989Y-113886092D01*
X141841887Y-113884772D01*
X141683397Y-113840766D01*
X141582103Y-113795877D01*
X141530633Y-113774639D01*
X141378732Y-113740064D01*
X141176891Y-113710524D01*
X141090189Y-113697936D01*
X140841202Y-113631991D01*
X140654983Y-113539379D01*
X140645903Y-113532768D01*
X140483558Y-113438378D01*
X140340736Y-113389962D01*
X140161304Y-113346344D01*
X139859200Y-113194990D01*
X139510826Y-112936306D01*
X139344858Y-112804911D01*
X139201317Y-112706153D01*
X139119816Y-112668394D01*
X139090608Y-112661000D01*
X139048359Y-112584248D01*
X139017338Y-112500866D01*
X138923236Y-112386867D01*
X138841022Y-112291410D01*
X138798113Y-112188637D01*
X138759592Y-112046292D01*
X138668521Y-111884994D01*
X138563507Y-111773783D01*
X138532168Y-111746731D01*
X138485305Y-111640680D01*
X138470880Y-111584590D01*
X138391462Y-111479724D01*
X138342666Y-111423383D01*
X138297620Y-111293919D01*
X138263734Y-111204868D01*
X138163909Y-111053884D01*
X138021221Y-110880659D01*
X137887837Y-110724035D01*
X137796115Y-110597402D01*
X137770642Y-110533541D01*
X137771716Y-110531468D01*
X137760495Y-110448259D01*
X137703338Y-110313206D01*
X137638196Y-110157210D01*
X137609828Y-110025168D01*
X137601409Y-109967430D01*
X137555171Y-109915685D01*
X137553969Y-109915652D01*
X137501416Y-109854775D01*
X137450105Y-109694909D01*
X137402702Y-109461593D01*
X137361877Y-109180365D01*
X137343873Y-109007285D01*
X137622809Y-109007285D01*
X137630296Y-109081531D01*
X137649114Y-109091318D01*
X137672004Y-109039823D01*
X137667489Y-109006703D01*
X137630296Y-108998115D01*
X137622809Y-109007285D01*
X137343873Y-109007285D01*
X137330296Y-108876764D01*
X137310627Y-108576329D01*
X137310395Y-108563936D01*
X137893485Y-108563936D01*
X137897900Y-108868810D01*
X137907505Y-109039823D01*
X137912781Y-109133762D01*
X137938549Y-109330575D01*
X137975628Y-109431033D01*
X137976302Y-109431715D01*
X138026520Y-109542115D01*
X138047374Y-109705539D01*
X138047423Y-109713621D01*
X138066581Y-109863251D01*
X138109935Y-109946966D01*
X138139847Y-109978153D01*
X138173888Y-110091421D01*
X138209897Y-110210142D01*
X138297620Y-110353616D01*
X138383620Y-110492439D01*
X138421352Y-110612330D01*
X138428307Y-110637272D01*
X138502615Y-110749004D01*
X138640886Y-110907700D01*
X138821424Y-111087586D01*
X138830957Y-111096493D01*
X139042268Y-111284701D01*
X139204582Y-111401452D01*
X139351928Y-111466953D01*
X139518333Y-111501409D01*
X139582784Y-111508842D01*
X139815393Y-111524222D01*
X140102818Y-111532527D01*
X140409105Y-111533858D01*
X140698302Y-111528316D01*
X140934455Y-111516001D01*
X141081610Y-111497016D01*
X141158885Y-111472907D01*
X141269295Y-111418588D01*
X141280646Y-111411339D01*
X141396914Y-111368199D01*
X141566462Y-111328643D01*
X141707911Y-111294020D01*
X141783706Y-111232324D01*
X141801068Y-111116355D01*
X141824609Y-110992930D01*
X141940721Y-110884584D01*
X142042055Y-110815442D01*
X142152359Y-110676963D01*
X142169033Y-110646291D01*
X142274171Y-110493939D01*
X142409787Y-110332874D01*
X142476089Y-110257664D01*
X142698986Y-109935416D01*
X142869889Y-109579629D01*
X142962725Y-109241752D01*
X142978042Y-109149819D01*
X143018544Y-108977433D01*
X143058719Y-108878783D01*
X143085409Y-108806103D01*
X143083581Y-108664453D01*
X143080256Y-108557823D01*
X143122011Y-108436873D01*
X143145437Y-108382509D01*
X143163841Y-108210603D01*
X143154337Y-107963025D01*
X143138447Y-107775220D01*
X143122670Y-107573218D01*
X143114452Y-107447386D01*
X143104211Y-107374452D01*
X143058176Y-107259701D01*
X143012012Y-107157960D01*
X142970652Y-107000070D01*
X142919017Y-106833266D01*
X142790546Y-106567339D01*
X142616038Y-106284069D01*
X142420399Y-106022946D01*
X142228538Y-105823462D01*
X142127454Y-105745333D01*
X141928577Y-105625646D01*
X141758916Y-105561488D01*
X141743079Y-105558379D01*
X141594891Y-105515066D01*
X141515158Y-105466721D01*
X141511856Y-105462409D01*
X141422357Y-105426138D01*
X141269295Y-105411251D01*
X141252169Y-105411091D01*
X141104465Y-105395326D01*
X141027054Y-105361642D01*
X141026778Y-105361215D01*
X140950645Y-105335400D01*
X140799425Y-105324548D01*
X140621532Y-105327797D01*
X140465384Y-105344287D01*
X140379393Y-105373156D01*
X140369439Y-105379626D01*
X140265700Y-105402151D01*
X140101479Y-105411251D01*
X140054614Y-105412404D01*
X139917012Y-105432919D01*
X139861659Y-105470978D01*
X139860467Y-105477557D01*
X139792147Y-105528269D01*
X139651104Y-105570205D01*
X139530544Y-105613102D01*
X139330606Y-105728508D01*
X139124877Y-105885848D01*
X138960900Y-106022923D01*
X138826135Y-106123555D01*
X138754386Y-106161990D01*
X138740813Y-106164656D01*
X138648495Y-106225501D01*
X138517819Y-106345193D01*
X138374952Y-106495103D01*
X138246057Y-106646602D01*
X138157299Y-106771063D01*
X138134844Y-106839858D01*
X138144745Y-106865087D01*
X138110956Y-106943379D01*
X138107926Y-106945484D01*
X138065058Y-107035190D01*
X138047374Y-107187522D01*
X138047333Y-107196613D01*
X138034456Y-107348079D01*
X138005506Y-107434236D01*
X137972040Y-107509546D01*
X137938814Y-107691944D01*
X137914364Y-107947286D01*
X137899114Y-108247356D01*
X137893485Y-108563936D01*
X137310395Y-108563936D01*
X137305538Y-108304596D01*
X137317698Y-108087106D01*
X137349772Y-107949397D01*
X137438853Y-107710698D01*
X137453897Y-107510185D01*
X137383623Y-107384665D01*
X137358638Y-107361410D01*
X137288330Y-107207123D01*
X137247985Y-106937745D01*
X137230725Y-106773670D01*
X137200863Y-106598713D01*
X137169713Y-106506079D01*
X137150505Y-106466526D01*
X137110921Y-106323892D01*
X137075632Y-106130710D01*
X137057122Y-106024055D01*
X137010017Y-105841072D01*
X136960295Y-105730157D01*
X136937254Y-105655842D01*
X136916409Y-105462374D01*
X136901656Y-105151221D01*
X136892884Y-104719947D01*
X136889984Y-104166117D01*
X136890364Y-104003616D01*
X137108950Y-104003616D01*
X137109527Y-104162294D01*
X137116054Y-104523881D01*
X137129146Y-104805168D01*
X137147924Y-104991236D01*
X137171512Y-105067163D01*
X137190881Y-105093701D01*
X137221854Y-105218737D01*
X137234073Y-105401023D01*
X137237336Y-105484170D01*
X137269333Y-105684924D01*
X137324428Y-105825219D01*
X137356558Y-105885788D01*
X137415573Y-106064737D01*
X137457798Y-106278474D01*
X137477547Y-106400627D01*
X137516742Y-106559856D01*
X137555127Y-106636299D01*
X137592205Y-106701636D01*
X137613049Y-106838219D01*
X137616212Y-106895735D01*
X137634331Y-106928799D01*
X137678457Y-106868165D01*
X137760209Y-106703169D01*
X137818345Y-106586058D01*
X137903147Y-106435122D01*
X137959928Y-106359080D01*
X138004721Y-106313192D01*
X138082988Y-106197211D01*
X138104486Y-106168616D01*
X138220141Y-106062994D01*
X138398515Y-105926511D01*
X138607193Y-105782029D01*
X138813759Y-105652409D01*
X138985797Y-105560511D01*
X139007820Y-105549378D01*
X139133953Y-105471457D01*
X139289889Y-105362253D01*
X139312680Y-105346228D01*
X139535281Y-105236553D01*
X139776178Y-105175522D01*
X139852112Y-105165074D01*
X140008129Y-105129583D01*
X140085753Y-105090145D01*
X140096431Y-105081495D01*
X140202149Y-105057617D01*
X140388501Y-105042885D01*
X140621260Y-105037071D01*
X140866202Y-105039949D01*
X141089099Y-105051288D01*
X141255726Y-105070862D01*
X141331856Y-105098444D01*
X141400303Y-105140085D01*
X141538874Y-105161354D01*
X141694319Y-105171832D01*
X142062009Y-105281739D01*
X142390361Y-105504471D01*
X142481858Y-105584788D01*
X142611005Y-105684930D01*
X142684794Y-105724059D01*
X142710422Y-105735299D01*
X142739492Y-105819865D01*
X142750110Y-105868073D01*
X142833334Y-105951682D01*
X142877414Y-105975069D01*
X142927177Y-106042564D01*
X142951789Y-106120689D01*
X143018062Y-106277442D01*
X143111392Y-106477726D01*
X143198373Y-106677075D01*
X143254117Y-106846079D01*
X143263531Y-106941606D01*
X143256274Y-106980831D01*
X143298281Y-107066497D01*
X143338653Y-107120541D01*
X143365108Y-107250083D01*
X143373513Y-107344248D01*
X143406428Y-107433688D01*
X143432670Y-107516733D01*
X143445748Y-107697415D01*
X143445036Y-107942905D01*
X143433013Y-108210603D01*
X143432475Y-108222592D01*
X143410008Y-108505866D01*
X143379575Y-108762117D01*
X143343118Y-108960733D01*
X143302578Y-109071104D01*
X143284120Y-109110676D01*
X143245606Y-109253308D01*
X143210741Y-109446473D01*
X143192297Y-109554400D01*
X143148304Y-109731746D01*
X143103620Y-109834742D01*
X143079324Y-109875516D01*
X143077506Y-109968417D01*
X143081505Y-110014622D01*
X143020330Y-110103941D01*
X142970544Y-110155911D01*
X142927177Y-110249593D01*
X142893936Y-110329845D01*
X142802421Y-110445258D01*
X142574800Y-110701461D01*
X142417728Y-110941509D01*
X142364122Y-111129026D01*
X142344679Y-111238382D01*
X142289344Y-111292040D01*
X142272462Y-111294991D01*
X142167807Y-111353617D01*
X142035374Y-111463716D01*
X141962457Y-111522225D01*
X141757733Y-111638407D01*
X141531458Y-111723869D01*
X141395562Y-111751815D01*
X141151033Y-111783325D01*
X140851678Y-111809088D01*
X140523127Y-111828262D01*
X140191009Y-111840006D01*
X139880954Y-111843479D01*
X139618591Y-111837838D01*
X139429549Y-111822242D01*
X139339459Y-111795849D01*
X139275152Y-111757610D01*
X139134158Y-111729971D01*
X139038839Y-111712909D01*
X138896424Y-111631660D01*
X138843441Y-111581444D01*
X138805328Y-111564959D01*
X138820557Y-111635302D01*
X138888517Y-111805934D01*
X138921300Y-111868269D01*
X139031704Y-112025206D01*
X139185055Y-112211012D01*
X139357493Y-112400089D01*
X139525156Y-112566838D01*
X139664184Y-112685660D01*
X139750718Y-112730956D01*
X139777183Y-112738580D01*
X139885758Y-112805388D01*
X140027622Y-112918641D01*
X140089277Y-112969881D01*
X140231206Y-113067552D01*
X140327835Y-113106325D01*
X140363106Y-113110040D01*
X140435140Y-113153246D01*
X140443182Y-113167634D01*
X140553750Y-113258157D01*
X140745380Y-113347326D01*
X140981214Y-113420646D01*
X141224391Y-113463620D01*
X141376749Y-113483040D01*
X141556529Y-113519351D01*
X141656769Y-113557460D01*
X141666865Y-113563749D01*
X141782069Y-113600881D01*
X141978425Y-113641620D01*
X142219823Y-113678222D01*
X142565737Y-113719871D01*
X142932687Y-113757899D01*
X143218838Y-113780015D01*
X143409903Y-113785163D01*
X143491596Y-113772284D01*
X143495732Y-113769909D01*
X143585998Y-113750909D01*
X143772284Y-113724700D01*
X144030270Y-113694424D01*
X144335633Y-113663223D01*
X144391042Y-113657823D01*
X144690539Y-113624450D01*
X144938823Y-113589943D01*
X145111395Y-113558075D01*
X145183758Y-113532619D01*
X145194943Y-113524192D01*
X145301811Y-113494129D01*
X145491906Y-113464232D01*
X145733313Y-113439887D01*
X145811536Y-113433292D01*
X146039593Y-113406998D01*
X146205926Y-113377128D01*
X146278933Y-113348948D01*
X146308971Y-113328727D01*
X146435978Y-113289706D01*
X146620881Y-113256483D01*
X146731784Y-113238151D01*
X146875056Y-113199419D01*
X146931117Y-113160827D01*
X146956399Y-113128535D01*
X147060283Y-113106325D01*
X147195464Y-113083679D01*
X147402454Y-113013500D01*
X147622126Y-112915393D01*
X147809982Y-112809522D01*
X147921524Y-112716052D01*
X147927001Y-112708609D01*
X148042161Y-112574638D01*
X148181296Y-112439452D01*
X148309070Y-112334948D01*
X148390146Y-112293025D01*
X148433557Y-112274692D01*
X148553383Y-112195173D01*
X148710037Y-112074059D01*
X148821246Y-111988773D01*
X148971264Y-111892541D01*
X149067006Y-111855094D01*
X149150053Y-111813158D01*
X149285031Y-111706401D01*
X149442042Y-111563468D01*
X149591198Y-111412999D01*
X149702609Y-111283639D01*
X149746388Y-111204028D01*
X149733691Y-111186416D01*
X149665723Y-111218542D01*
X149557065Y-111275873D01*
X149333967Y-111341362D01*
X149042405Y-111397587D01*
X148713723Y-111441307D01*
X148379265Y-111469284D01*
X148070378Y-111478278D01*
X147818404Y-111465051D01*
X147654689Y-111426363D01*
X147626169Y-111414330D01*
X147460646Y-111367983D01*
X147260629Y-111334213D01*
X147255303Y-111333600D01*
X146851158Y-111226321D01*
X146463217Y-110999463D01*
X146086890Y-110650353D01*
X146037499Y-110595106D01*
X145886647Y-110416997D01*
X145780635Y-110277224D01*
X145739905Y-110202191D01*
X145731765Y-110174594D01*
X145664586Y-110062708D01*
X145552220Y-109918048D01*
X145367078Y-109701446D01*
X145367078Y-109650246D01*
X145711167Y-109650246D01*
X146217666Y-110205256D01*
X146290137Y-110284379D01*
X146552974Y-110562122D01*
X146765600Y-110762352D01*
X146951714Y-110900480D01*
X147135014Y-110991918D01*
X147339196Y-111052075D01*
X147587960Y-111096362D01*
X147923713Y-111134299D01*
X148313394Y-111151783D01*
X148681206Y-111142743D01*
X149001724Y-111108902D01*
X149249521Y-111051982D01*
X149399172Y-110973704D01*
X149449579Y-110943462D01*
X149581940Y-110916670D01*
X149636018Y-110901491D01*
X149771871Y-110813482D01*
X149932406Y-110674003D01*
X150086100Y-110514248D01*
X150201432Y-110365408D01*
X150246881Y-110258675D01*
X150252924Y-110216635D01*
X150302146Y-110165931D01*
X150336357Y-110149081D01*
X150388890Y-110056448D01*
X150408010Y-109995086D01*
X150465442Y-109837483D01*
X150466212Y-109835600D01*
X150472592Y-109750904D01*
X150378698Y-109728000D01*
X150324880Y-109733075D01*
X150262572Y-109788003D01*
X150246570Y-109931325D01*
X150235657Y-110047926D01*
X150132380Y-110281907D01*
X149931598Y-110452746D01*
X149647442Y-110545949D01*
X149568647Y-110558874D01*
X149312628Y-110608057D01*
X149089492Y-110659715D01*
X148971461Y-110683695D01*
X148715909Y-110711600D01*
X148414117Y-110725306D01*
X148100228Y-110725126D01*
X147808390Y-110711376D01*
X147572745Y-110684369D01*
X147427440Y-110644419D01*
X147288697Y-110582219D01*
X147098992Y-110518489D01*
X146984454Y-110473138D01*
X146931117Y-110414986D01*
X146924042Y-110390320D01*
X146847702Y-110353616D01*
X146844216Y-110353503D01*
X146739384Y-110303458D01*
X146599682Y-110186354D01*
X146458525Y-110037304D01*
X146349327Y-109891423D01*
X146305502Y-109783827D01*
X146297073Y-109723142D01*
X146242940Y-109634158D01*
X146205896Y-109584638D01*
X146179993Y-109458421D01*
X146153651Y-109313680D01*
X146086151Y-109142154D01*
X146059861Y-109081914D01*
X146013487Y-108900352D01*
X145994015Y-108704896D01*
X146004034Y-108540252D01*
X146046132Y-108451126D01*
X146046999Y-108449723D01*
X150500355Y-108449723D01*
X150501189Y-108604155D01*
X150521369Y-108744063D01*
X150560187Y-108821165D01*
X150592742Y-108872953D01*
X150595749Y-108996902D01*
X150564494Y-109148854D01*
X150524869Y-109336990D01*
X150524153Y-109340372D01*
X150510519Y-109486190D01*
X150544906Y-109540315D01*
X150555533Y-109537436D01*
X150607779Y-109461315D01*
X150650769Y-109314072D01*
X150650881Y-109313473D01*
X150666680Y-109142568D01*
X150665230Y-108926260D01*
X150649804Y-108698653D01*
X150623675Y-108493851D01*
X150590116Y-108345960D01*
X150552401Y-108289084D01*
X150519572Y-108329050D01*
X150500355Y-108449723D01*
X146046999Y-108449723D01*
X146058536Y-108431064D01*
X146088179Y-108310392D01*
X146117609Y-108108797D01*
X146141973Y-107856398D01*
X146150685Y-107756614D01*
X146185331Y-107487183D01*
X146229518Y-107261162D01*
X146271803Y-107131695D01*
X149996635Y-107131695D01*
X150027915Y-107162976D01*
X150059196Y-107131695D01*
X150027915Y-107100414D01*
X149996635Y-107131695D01*
X146271803Y-107131695D01*
X146275834Y-107119353D01*
X146340146Y-106973630D01*
X146367678Y-106865808D01*
X146371199Y-106837294D01*
X146416909Y-106787606D01*
X146473169Y-106737500D01*
X146540902Y-106615562D01*
X146575061Y-106540670D01*
X146786815Y-106197649D01*
X147049344Y-105963954D01*
X147376618Y-105830266D01*
X147782607Y-105787267D01*
X148102070Y-105792499D01*
X148409233Y-105819332D01*
X148645344Y-105875802D01*
X148839776Y-105969514D01*
X149021900Y-106108071D01*
X149144929Y-106212023D01*
X149277116Y-106312209D01*
X149349338Y-106351756D01*
X149415977Y-106376942D01*
X149533316Y-106464001D01*
X149638332Y-106572409D01*
X149683827Y-106658834D01*
X149694704Y-106695685D01*
X149777669Y-106764982D01*
X149820982Y-106791924D01*
X149871512Y-106891834D01*
X149878601Y-106931261D01*
X149928327Y-106947561D01*
X149943171Y-106901152D01*
X149912029Y-106776958D01*
X149838334Y-106615692D01*
X149739694Y-106454283D01*
X149633717Y-106329663D01*
X149510080Y-106245295D01*
X149330820Y-106169806D01*
X149210416Y-106114242D01*
X149132544Y-105989412D01*
X149094020Y-105904264D01*
X148958071Y-105773936D01*
X148760222Y-105655568D01*
X148536889Y-105569575D01*
X148324485Y-105536375D01*
X148286074Y-105535500D01*
X148116080Y-105511195D01*
X148009828Y-105463952D01*
X147957790Y-105428508D01*
X147856552Y-105456879D01*
X147833484Y-105471693D01*
X147697168Y-105523435D01*
X147513414Y-105565472D01*
X147455460Y-105576816D01*
X147282785Y-105631909D01*
X147177305Y-105697669D01*
X147129221Y-105743080D01*
X147029788Y-105786621D01*
X147023217Y-105787060D01*
X146916801Y-105839524D01*
X146759692Y-105962005D01*
X146577479Y-106129642D01*
X146395752Y-106317573D01*
X146240102Y-106500935D01*
X146136118Y-106654866D01*
X146106562Y-106713815D01*
X146013907Y-106941455D01*
X145955917Y-107148262D01*
X145950041Y-107178726D01*
X145903701Y-107349124D01*
X145852414Y-107459346D01*
X145829074Y-107501671D01*
X145824402Y-107623767D01*
X145832137Y-107667909D01*
X145790048Y-107778527D01*
X145761879Y-107866930D01*
X145739222Y-108067547D01*
X145723826Y-108365919D01*
X145716735Y-108748259D01*
X145711167Y-109650246D01*
X145367078Y-109650246D01*
X145367078Y-108842553D01*
X145367358Y-108757809D01*
X145373483Y-108448645D01*
X145386454Y-108194944D01*
X145404724Y-108019918D01*
X145426749Y-107946782D01*
X145457751Y-107890989D01*
X145497043Y-107740244D01*
X145528830Y-107535040D01*
X145553483Y-107364311D01*
X145590145Y-107202221D01*
X145625564Y-107126603D01*
X145658321Y-107079800D01*
X145682632Y-106955958D01*
X145689464Y-106883735D01*
X145730602Y-106705750D01*
X145794856Y-106519872D01*
X145866017Y-106369565D01*
X145927879Y-106298292D01*
X145948616Y-106287347D01*
X145992694Y-106200330D01*
X146005244Y-106154551D01*
X146104277Y-106024064D01*
X146286546Y-105858533D01*
X146533595Y-105673772D01*
X146826966Y-105485592D01*
X146991515Y-105394346D01*
X147425176Y-105225544D01*
X147863739Y-105168200D01*
X148338753Y-105216701D01*
X148510854Y-105250194D01*
X148711548Y-105287896D01*
X148839246Y-105310213D01*
X148987085Y-105352339D01*
X149193832Y-105441126D01*
X149416058Y-105556614D01*
X149620933Y-105680301D01*
X149775628Y-105793689D01*
X149847314Y-105878277D01*
X149861088Y-105913544D01*
X149942843Y-106046568D01*
X150058750Y-106189280D01*
X150175201Y-106303156D01*
X150258586Y-106349675D01*
X150285994Y-106331802D01*
X150309443Y-106237064D01*
X150316954Y-106174789D01*
X150368638Y-106065020D01*
X150394122Y-105988357D01*
X150422706Y-105811499D01*
X150449761Y-105562504D01*
X150471784Y-105268430D01*
X150492520Y-104985638D01*
X150518076Y-104741270D01*
X150544654Y-104570232D01*
X150568993Y-104498358D01*
X150601298Y-104448748D01*
X150620610Y-104315810D01*
X150607432Y-104166569D01*
X150562665Y-104062897D01*
X150540137Y-104002619D01*
X150510715Y-103837820D01*
X150482859Y-103599304D01*
X150460426Y-103315286D01*
X150443448Y-103080625D01*
X150419233Y-102830940D01*
X150394384Y-102649511D01*
X150372234Y-102564700D01*
X150328408Y-102468558D01*
X150283118Y-102314453D01*
X150232145Y-102144218D01*
X150123149Y-101886954D01*
X149993365Y-101655277D01*
X149867300Y-101497341D01*
X149858861Y-101489802D01*
X149779920Y-101435203D01*
X149681932Y-101412140D01*
X149530240Y-101417712D01*
X149290184Y-101449017D01*
X149154649Y-101471556D01*
X148863260Y-101548104D01*
X148599305Y-101669913D01*
X148328435Y-101855126D01*
X148016302Y-102121887D01*
X147947030Y-102184411D01*
X147701081Y-102392009D01*
X147498085Y-102533282D01*
X147306487Y-102630854D01*
X147009961Y-102769650D01*
X146747997Y-102933129D01*
X146510367Y-103136848D01*
X146384664Y-103249380D01*
X146267809Y-103332761D01*
X146210588Y-103344986D01*
X146208592Y-103342167D01*
X146124504Y-103294415D01*
X145976336Y-103250466D01*
X145807519Y-103199063D01*
X145685811Y-103136170D01*
X145672266Y-103129094D01*
X145550331Y-103106158D01*
X145331689Y-103087993D01*
X145038515Y-103074589D01*
X144692982Y-103065935D01*
X144317265Y-103062023D01*
X143933538Y-103062841D01*
X143563975Y-103068380D01*
X143230752Y-103078629D01*
X142956041Y-103093579D01*
X142762018Y-103113219D01*
X142670856Y-103137539D01*
X142632083Y-103160669D01*
X142481479Y-103213128D01*
X142285920Y-103254126D01*
X142186727Y-103271925D01*
X142044595Y-103312060D01*
X141988753Y-103350988D01*
X141986635Y-103358679D01*
X141913697Y-103404598D01*
X141769096Y-103444819D01*
X141744107Y-103449819D01*
X141594513Y-103493871D01*
X141515158Y-103541496D01*
X141499691Y-103554503D01*
X141389190Y-103584086D01*
X141218681Y-103594918D01*
X141125428Y-103590969D01*
X140983696Y-103557984D01*
X140848100Y-103472865D01*
X140675794Y-103313391D01*
X140536635Y-103182669D01*
X140404317Y-103075176D01*
X140327770Y-103033911D01*
X140308332Y-103029221D01*
X140208358Y-102963916D01*
X140080625Y-102846227D01*
X139916460Y-102714095D01*
X139709191Y-102658130D01*
X139704449Y-102658083D01*
X139515662Y-102620312D01*
X139329886Y-102533419D01*
X139317707Y-102525532D01*
X139150680Y-102442924D01*
X139006508Y-102408708D01*
X138994077Y-102408287D01*
X138839573Y-102374683D01*
X138662419Y-102303868D01*
X138644264Y-102294779D01*
X138474392Y-102210441D01*
X138345390Y-102147464D01*
X138260037Y-102112990D01*
X138024755Y-102090068D01*
X137785865Y-102179849D01*
X137529219Y-102386474D01*
X137387022Y-102540611D01*
X137276424Y-102690065D01*
X137234073Y-102789432D01*
X137225494Y-102851155D01*
X137171512Y-102940069D01*
X137161847Y-102955494D01*
X137140021Y-103075916D01*
X137123345Y-103300690D01*
X137112695Y-103614897D01*
X137108950Y-104003616D01*
X136890364Y-104003616D01*
X136890832Y-103803226D01*
X136897144Y-103336269D01*
X136912789Y-102968861D01*
X136941462Y-102685504D01*
X136986858Y-102470703D01*
X137052673Y-102308963D01*
X137142601Y-102184786D01*
X137260338Y-102082679D01*
X137409578Y-101987144D01*
X137488071Y-101942598D01*
X137620865Y-101882508D01*
X137759271Y-101853070D01*
X137942934Y-101848063D01*
X138211501Y-101861263D01*
X138476464Y-101884723D01*
X138719358Y-101930456D01*
X138853251Y-101994928D01*
X138944717Y-102054525D01*
X139095136Y-102095488D01*
X139233821Y-102120322D01*
X139403018Y-102185644D01*
X139459270Y-102213783D01*
X139652352Y-102307068D01*
X139861659Y-102404970D01*
X139950823Y-102446429D01*
X140131462Y-102533590D01*
X140252669Y-102596340D01*
X140318124Y-102633590D01*
X140471635Y-102721253D01*
X140554175Y-102765494D01*
X140713665Y-102841704D01*
X140841322Y-102927131D01*
X140972915Y-103060520D01*
X141029124Y-103123471D01*
X141162004Y-103200940D01*
X141359607Y-103221596D01*
X141397123Y-103220719D01*
X141615612Y-103190170D01*
X141797608Y-103129543D01*
X141833399Y-103112602D01*
X142030436Y-103044469D01*
X142248072Y-102995879D01*
X142314194Y-102984219D01*
X142494056Y-102937074D01*
X142608311Y-102884607D01*
X142656176Y-102868799D01*
X142818208Y-102848727D01*
X143069481Y-102833007D01*
X143388567Y-102821630D01*
X143754035Y-102814588D01*
X144144458Y-102811872D01*
X144538405Y-102813472D01*
X144914448Y-102819382D01*
X145251157Y-102829590D01*
X145527103Y-102844089D01*
X145720857Y-102862870D01*
X145810989Y-102885924D01*
X145841751Y-102907889D01*
X145980149Y-102970981D01*
X146132237Y-103006250D01*
X146255020Y-103006768D01*
X146305502Y-102965607D01*
X146306456Y-102949452D01*
X146371427Y-102816405D01*
X146503798Y-102705150D01*
X146654818Y-102658542D01*
X146752514Y-102643844D01*
X146879728Y-102579440D01*
X146919726Y-102543459D01*
X147049971Y-102434246D01*
X147212645Y-102303727D01*
X147334415Y-102203884D01*
X147549082Y-102016503D01*
X147752862Y-101827722D01*
X147928006Y-101679226D01*
X148179787Y-101506889D01*
X148442856Y-101360071D01*
X148682238Y-101257930D01*
X148862960Y-101219626D01*
X148938957Y-101209061D01*
X149026930Y-101157064D01*
X149029193Y-101154177D01*
X149115782Y-101124318D01*
X149289502Y-101103681D01*
X149515475Y-101096584D01*
X149788097Y-101107646D01*
X149973015Y-101142341D01*
X150090503Y-101206067D01*
X150162227Y-101275606D01*
X150293675Y-101439483D01*
X150394471Y-101607277D01*
X150434951Y-101733558D01*
X150435089Y-101737714D01*
X150466186Y-101849840D01*
X150535149Y-102001645D01*
X150539646Y-102010507D01*
X150593621Y-102179693D01*
X150638911Y-102430101D01*
X150668013Y-102721104D01*
X150674130Y-102806412D01*
X150700920Y-103050635D01*
X150735220Y-103240581D01*
X150771140Y-103340864D01*
X150784350Y-103374381D01*
X150805332Y-103520793D01*
X150820145Y-103752430D01*
X150828909Y-104043038D01*
X150831298Y-104315810D01*
X150831741Y-104366362D01*
G37*
X81000000Y-85955000D02*
X81000000Y-85305000D01*
X79880000Y-85305000D02*
X79880000Y-81065000D01*
X82120000Y-85305000D02*
X79880000Y-85305000D01*
X82120000Y-84705000D02*
X79880000Y-84705000D01*
X82120000Y-84585000D02*
X79880000Y-84585000D01*
X82120000Y-84465000D02*
X79880000Y-84465000D01*
X79880000Y-81065000D02*
X82120000Y-81065000D01*
X82120000Y-81065000D02*
X82120000Y-85305000D01*
X81000000Y-80415000D02*
X81000000Y-81065000D01*
X185614000Y-112201000D02*
X185614000Y-109541000D01*
X193294000Y-112201000D02*
X185614000Y-112201000D01*
X193294000Y-112201000D02*
X193294000Y-109541000D01*
X194564000Y-112201000D02*
X195894000Y-112201000D01*
X195894000Y-112201000D02*
X195894000Y-110871000D01*
X193294000Y-109541000D02*
X185614000Y-109541000D01*
X157000000Y-100830000D02*
X157000000Y-100180000D01*
X155880000Y-100180000D02*
X155880000Y-95940000D01*
X158120000Y-100180000D02*
X155880000Y-100180000D01*
X158120000Y-99580000D02*
X155880000Y-99580000D01*
X158120000Y-99460000D02*
X155880000Y-99460000D01*
X158120000Y-99340000D02*
X155880000Y-99340000D01*
X155880000Y-95940000D02*
X158120000Y-95940000D01*
X158120000Y-95940000D02*
X158120000Y-100180000D01*
X157000000Y-95290000D02*
X157000000Y-95940000D01*
X100000000Y-55455000D02*
X100000000Y-54805000D01*
X98880000Y-54805000D02*
X98880000Y-50565000D01*
X101120000Y-54805000D02*
X98880000Y-54805000D01*
X101120000Y-54205000D02*
X98880000Y-54205000D01*
X101120000Y-54085000D02*
X98880000Y-54085000D01*
X101120000Y-53965000D02*
X98880000Y-53965000D01*
X98880000Y-50565000D02*
X101120000Y-50565000D01*
X101120000Y-50565000D02*
X101120000Y-54805000D01*
X100000000Y-49915000D02*
X100000000Y-50565000D01*
X138000000Y-91330000D02*
X138000000Y-90680000D01*
X136880000Y-90680000D02*
X136880000Y-86440000D01*
X139120000Y-90680000D02*
X136880000Y-90680000D01*
X139120000Y-90080000D02*
X136880000Y-90080000D01*
X139120000Y-89960000D02*
X136880000Y-89960000D01*
X139120000Y-89840000D02*
X136880000Y-89840000D01*
X136880000Y-86440000D02*
X139120000Y-86440000D01*
X139120000Y-86440000D02*
X139120000Y-90680000D01*
X138000000Y-85790000D02*
X138000000Y-86440000D01*
X119000000Y-70205000D02*
X119000000Y-69555000D01*
X117880000Y-69555000D02*
X117880000Y-65315000D01*
X120120000Y-69555000D02*
X117880000Y-69555000D01*
X120120000Y-68955000D02*
X117880000Y-68955000D01*
X120120000Y-68835000D02*
X117880000Y-68835000D01*
X120120000Y-68715000D02*
X117880000Y-68715000D01*
X117880000Y-65315000D02*
X120120000Y-65315000D01*
X120120000Y-65315000D02*
X120120000Y-69555000D01*
X119000000Y-64665000D02*
X119000000Y-65315000D01*
X100000000Y-93455000D02*
X100000000Y-92805000D01*
X98880000Y-92805000D02*
X98880000Y-88565000D01*
X101120000Y-92805000D02*
X98880000Y-92805000D01*
X101120000Y-92205000D02*
X98880000Y-92205000D01*
X101120000Y-92085000D02*
X98880000Y-92085000D01*
X101120000Y-91965000D02*
X98880000Y-91965000D01*
X98880000Y-88565000D02*
X101120000Y-88565000D01*
X101120000Y-88565000D02*
X101120000Y-92805000D01*
X100000000Y-87915000D02*
X100000000Y-88565000D01*
X197738234Y-128084807D02*
X196006183Y-127084807D01*
X200088234Y-124014488D02*
X197738234Y-128084807D01*
X200088234Y-124014488D02*
X200238234Y-123754680D01*
X200238234Y-123754680D02*
X198506183Y-122754680D01*
X195606183Y-127777628D02*
X184347853Y-121277628D01*
X196006183Y-127084807D02*
X195606183Y-127777628D01*
X198506183Y-122754680D02*
X198906183Y-122061860D01*
X198906183Y-122061860D02*
X187647853Y-115561860D01*
X187647853Y-115561860D02*
X184347853Y-121277628D01*
%LPC*%
D13*
X104420000Y-52695000D03*
D14*
X109500000Y-52695000D03*
D13*
X114580000Y-52695000D03*
D15*
X105690000Y-50155000D03*
X106960000Y-47615000D03*
X112040000Y-47615000D03*
X113310000Y-50155000D03*
D13*
X123420000Y-67445000D03*
D14*
X128500000Y-67445000D03*
D13*
X133580000Y-67445000D03*
D15*
X124690000Y-64905000D03*
X125960000Y-62365000D03*
X131040000Y-62365000D03*
X132310000Y-64905000D03*
D13*
X104420000Y-71695000D03*
D14*
X109500000Y-71695000D03*
D13*
X114580000Y-71695000D03*
D15*
X105690000Y-69155000D03*
X106960000Y-66615000D03*
X112040000Y-66615000D03*
X113310000Y-69155000D03*
D13*
X161420000Y-98070000D03*
D14*
X166500000Y-98070000D03*
D13*
X171580000Y-98070000D03*
D15*
X162690000Y-95530000D03*
X163960000Y-92990000D03*
X169040000Y-92990000D03*
X170310000Y-95530000D03*
D13*
X142420000Y-88570000D03*
D14*
X147500000Y-88570000D03*
D13*
X152580000Y-88570000D03*
D15*
X143690000Y-86030000D03*
X144960000Y-83490000D03*
X150040000Y-83490000D03*
X151310000Y-86030000D03*
D16*
X119000000Y-71245000D03*
D17*
X119000000Y-63625000D03*
D16*
X100000000Y-56495000D03*
D17*
X100000000Y-48875000D03*
D13*
X142420000Y-50570000D03*
D14*
X147500000Y-50570000D03*
D13*
X152580000Y-50570000D03*
D15*
X143690000Y-48030000D03*
X144960000Y-45490000D03*
X150040000Y-45490000D03*
X151310000Y-48030000D03*
D13*
X142420000Y-69570000D03*
D14*
X147500000Y-69570000D03*
D13*
X152580000Y-69570000D03*
D15*
X143690000Y-67030000D03*
X144960000Y-64490000D03*
X150040000Y-64490000D03*
X151310000Y-67030000D03*
D16*
X119000000Y-90245000D03*
D17*
X119000000Y-82625000D03*
D16*
X138000000Y-54370000D03*
D17*
X138000000Y-46750000D03*
D18*
X194554000Y-107061000D03*
D19*
X192014000Y-107061000D03*
X189474000Y-107061000D03*
X186934000Y-107061000D03*
D20*
X188029000Y-54486000D03*
D21*
X188329000Y-57516000D03*
X193179000Y-57516000D03*
D20*
X193479000Y-54486000D03*
D19*
X181864000Y-54356000D03*
X181864000Y-56896000D03*
D18*
X181864000Y-59436000D03*
D19*
X181864000Y-61976000D03*
X181864000Y-64516000D03*
X181864000Y-67056000D03*
X181864000Y-69596000D03*
D18*
X181864000Y-72136000D03*
D19*
X181864000Y-74676000D03*
X181864000Y-77216000D03*
X181864000Y-79756000D03*
X181864000Y-82296000D03*
D18*
X181864000Y-84836000D03*
D19*
X181864000Y-87376000D03*
X181864000Y-89916000D03*
X181864000Y-92456000D03*
X181864000Y-94996000D03*
D18*
X181864000Y-97536000D03*
D19*
X181864000Y-100076000D03*
X181864000Y-102616000D03*
X199644000Y-102616000D03*
X199644000Y-100076000D03*
D18*
X199644000Y-97536000D03*
D19*
X199644000Y-94996000D03*
X199644000Y-92456000D03*
X199644000Y-89916000D03*
X199644000Y-87376000D03*
D18*
X199644000Y-84836000D03*
D19*
X199644000Y-82296000D03*
X199644000Y-79756000D03*
X199644000Y-77216000D03*
X199644000Y-74676000D03*
D18*
X199644000Y-72136000D03*
D19*
X199644000Y-69596000D03*
X199644000Y-67056000D03*
X199644000Y-64516000D03*
X199644000Y-61976000D03*
D18*
X199644000Y-59436000D03*
D19*
X199644000Y-56896000D03*
X199644000Y-54356000D03*
X188214000Y-102386000D03*
D18*
X190754000Y-102386000D03*
D19*
X193294000Y-102386000D03*
D13*
X178576591Y-132133000D03*
D14*
X182976000Y-134673000D03*
D13*
X187375409Y-137213000D03*
D15*
X180946443Y-130568295D03*
X183316295Y-129003591D03*
X187715705Y-131543591D03*
X187545557Y-134378295D03*
D13*
X85420000Y-64195000D03*
D14*
X90500000Y-64195000D03*
D13*
X95580000Y-64195000D03*
D15*
X86690000Y-61655000D03*
X87960000Y-59115000D03*
X93040000Y-59115000D03*
X94310000Y-61655000D03*
D16*
X119000000Y-52245000D03*
D17*
X119000000Y-44625000D03*
D13*
X85420000Y-83195000D03*
D14*
X90500000Y-83195000D03*
D13*
X95580000Y-83195000D03*
D15*
X86690000Y-80655000D03*
X87960000Y-78115000D03*
X93040000Y-78115000D03*
X94310000Y-80655000D03*
D13*
X104420000Y-90695000D03*
D14*
X109500000Y-90695000D03*
D13*
X114580000Y-90695000D03*
D15*
X105690000Y-88155000D03*
X106960000Y-85615000D03*
X112040000Y-85615000D03*
X113310000Y-88155000D03*
D13*
X161420000Y-79070000D03*
D14*
X166500000Y-79070000D03*
D13*
X171580000Y-79070000D03*
D15*
X162690000Y-76530000D03*
X163960000Y-73990000D03*
X169040000Y-73990000D03*
X170310000Y-76530000D03*
D16*
X81000000Y-67995000D03*
D17*
X81000000Y-60375000D03*
D16*
X81000000Y-86995000D03*
D17*
X81000000Y-79375000D03*
D13*
X123420000Y-86445000D03*
D14*
X128500000Y-86445000D03*
D13*
X133580000Y-86445000D03*
D15*
X124690000Y-83905000D03*
X125960000Y-81365000D03*
X131040000Y-81365000D03*
X132310000Y-83905000D03*
D16*
X100000000Y-75495000D03*
D17*
X100000000Y-67875000D03*
D22*
X191580127Y-122449488D03*
X188116025Y-120449488D03*
X194178203Y-123949488D03*
X189450000Y-116138976D03*
D16*
X157000000Y-101870000D03*
D17*
X157000000Y-94250000D03*
D16*
X138000000Y-73370000D03*
D17*
X138000000Y-65750000D03*
D13*
X162100591Y-122400000D03*
D14*
X166500000Y-124940000D03*
D13*
X170899409Y-127480000D03*
D15*
X164470443Y-120835295D03*
X166840295Y-119270591D03*
X171239705Y-121810591D03*
X171069557Y-124645295D03*
D16*
X157000000Y-82870000D03*
D17*
X157000000Y-75250000D03*
D16*
X81000000Y-105995000D03*
D17*
X81000000Y-98375000D03*
D13*
X85420000Y-102195000D03*
D14*
X90500000Y-102195000D03*
D13*
X95580000Y-102195000D03*
D15*
X86690000Y-99655000D03*
X87960000Y-97115000D03*
X93040000Y-97115000D03*
X94310000Y-99655000D03*
D16*
X157000000Y-63870000D03*
D17*
X157000000Y-56250000D03*
D13*
X123420000Y-48445000D03*
D14*
X128500000Y-48445000D03*
D13*
X133580000Y-48445000D03*
D15*
X124690000Y-45905000D03*
X125960000Y-43365000D03*
X131040000Y-43365000D03*
X132310000Y-45905000D03*
D16*
X100000000Y-94495000D03*
D17*
X100000000Y-86875000D03*
D23*
X172689000Y-133400557D03*
D24*
X176499000Y-126801443D03*
D23*
X156179000Y-123748557D03*
D24*
X159989000Y-117149443D03*
D13*
X161420000Y-60070000D03*
D14*
X166500000Y-60070000D03*
D13*
X171580000Y-60070000D03*
D15*
X162690000Y-57530000D03*
X163960000Y-54990000D03*
X169040000Y-54990000D03*
X170310000Y-57530000D03*
D16*
X138000000Y-73370000D03*
D17*
X138000000Y-65750000D03*
D23*
X172689000Y-133400557D03*
D24*
X176499000Y-126801443D03*
D16*
X157000000Y-63870000D03*
D17*
X157000000Y-56250000D03*
D23*
X156179000Y-123748557D03*
D24*
X159989000Y-117149443D03*
D16*
X81000000Y-67995000D03*
D17*
X81000000Y-60375000D03*
D16*
X119000000Y-52245000D03*
D17*
X119000000Y-44625000D03*
D16*
X81000000Y-105995000D03*
D17*
X81000000Y-98375000D03*
D16*
X100000000Y-75495000D03*
D17*
X100000000Y-67875000D03*
D16*
X138000000Y-54370000D03*
D17*
X138000000Y-46750000D03*
D16*
X119000000Y-90245000D03*
D17*
X119000000Y-82625000D03*
D16*
X81000000Y-86995000D03*
D17*
X81000000Y-79375000D03*
D18*
X194564000Y-110871000D03*
D19*
X192024000Y-110871000D03*
X189484000Y-110871000D03*
X186944000Y-110871000D03*
D16*
X157000000Y-101870000D03*
D17*
X157000000Y-94250000D03*
D16*
X100000000Y-56495000D03*
D17*
X100000000Y-48875000D03*
D16*
X138000000Y-92370000D03*
D17*
X138000000Y-84750000D03*
D16*
X119000000Y-71245000D03*
D17*
X119000000Y-63625000D03*
D16*
X100000000Y-94495000D03*
D17*
X100000000Y-86875000D03*
D22*
X193030127Y-119939488D03*
X189566025Y-117939488D03*
X195628203Y-121439488D03*
X186500000Y-121250000D03*
%LPD*%
M02*
