M48
; DRILL file {KiCad 8.0.1} date 2024-03-26T16:43:55+0000
; FORMAT={-:-/ absolute / metric / decimal}
; #@! TF.CreationDate,2024-03-26T16:43:55+00:00
; #@! TF.GenerationSoftware,Kicad,Pcbnew,8.0.1
; #@! TF.FileFunction,Plated,1,2,PTH
FMAT,2
METRIC
; #@! TA.AperFunction,Plated,PTH,ComponentDrill
T1C0.700
; #@! TA.AperFunction,Plated,PTH,ComponentDrill
T2C1.020
; #@! TA.AperFunction,Plated,PTH,ComponentDrill
T3C1.499
; #@! TA.AperFunction,Plated,PTH,ViaDrill
T4C2.100
%
G90
G05
T2
X181.72Y-47.36
X181.72Y-49.9
X181.72Y-52.44
X181.72Y-54.98
X181.72Y-57.52
X181.72Y-60.06
X181.72Y-62.6
X181.72Y-65.14
X181.72Y-67.68
X181.72Y-70.22
X181.72Y-72.76
X181.72Y-75.3
X181.72Y-77.84
X181.72Y-80.38
X181.72Y-82.92
X181.72Y-85.46
X181.72Y-88.0
X181.72Y-90.54
X181.72Y-93.08
X181.72Y-95.62
X188.07Y-95.39
X190.61Y-95.39
X193.15Y-95.39
X199.5Y-47.36
X199.5Y-49.9
X199.5Y-52.44
X199.5Y-54.98
X199.5Y-57.52
X199.5Y-60.06
X199.5Y-62.6
X199.5Y-65.14
X199.5Y-67.68
X199.5Y-70.22
X199.5Y-72.76
X199.5Y-75.3
X199.5Y-77.84
X199.5Y-80.38
X199.5Y-82.92
X199.5Y-85.46
X199.5Y-88.0
X199.5Y-90.54
X199.5Y-93.08
X199.5Y-95.62
T3
X86.69Y-61.655
X86.69Y-80.655
X86.69Y-99.655
X87.96Y-59.115
X87.96Y-78.115
X87.96Y-97.115
X93.04Y-59.115
X93.04Y-78.115
X93.04Y-97.115
X94.31Y-61.655
X94.31Y-80.655
X94.31Y-99.655
X105.69Y-50.155
X105.69Y-69.155
X105.69Y-88.155
X106.96Y-47.615
X106.96Y-66.615
X106.96Y-85.615
X112.04Y-47.615
X112.04Y-66.615
X112.04Y-85.615
X113.31Y-50.155
X113.31Y-69.155
X113.31Y-88.155
X124.69Y-45.905
X124.69Y-64.905
X124.69Y-83.905
X125.96Y-43.365
X125.96Y-62.365
X125.96Y-81.365
X131.04Y-43.365
X131.04Y-62.365
X131.04Y-81.365
X132.31Y-45.905
X132.31Y-64.905
X132.31Y-83.905
X143.69Y-48.03
X143.69Y-67.03
X143.69Y-86.03
X144.96Y-45.49
X144.96Y-64.49
X144.96Y-83.49
X150.04Y-45.49
X150.04Y-64.49
X150.04Y-83.49
X151.31Y-48.03
X151.31Y-67.03
X151.31Y-86.03
X162.69Y-50.54
X162.69Y-69.54
X162.69Y-88.54
X163.96Y-48.0
X163.96Y-67.0
X163.96Y-86.0
X164.47Y-120.835
X166.84Y-119.271
X169.04Y-48.0
X169.04Y-67.0
X169.04Y-86.0
X170.31Y-50.54
X170.31Y-69.54
X170.31Y-88.54
X171.07Y-124.645
X171.24Y-121.811
X180.946Y-130.568
X183.316Y-129.004
X187.546Y-134.378
X187.716Y-131.544
T4
X81.25Y-53.848
X81.25Y-111.5
X100.5Y-81.25
X138.5Y-41.25
X154.0Y-128.5
X156.5Y-79.0
X177.0Y-46.75
X186.25Y-147.0
X200.25Y-122.75
T1
X189.705Y-104.816G85X188.905Y-104.816
G05
X189.727Y-102.575G85X188.927Y-102.575
G05
X190.705Y-100.416G85X189.905Y-100.416
G05
X190.727Y-106.975G85X189.927Y-106.975
G05
X194.705Y-100.416G85X193.905Y-100.416
G05
X194.727Y-106.975G85X193.927Y-106.975
G05
X197.705Y-100.416G85X196.905Y-100.416
G05
X197.727Y-106.975G85X196.927Y-106.975
G05
M30
