G04 #@! TF.GenerationSoftware,KiCad,Pcbnew,7.0.10*
G04 #@! TF.CreationDate,2024-01-08T18:20:54+00:00*
G04 #@! TF.ProjectId,eobard-plate,656f6261-7264-42d7-906c-6174652e6b69,2.2*
G04 #@! TF.SameCoordinates,Original*
G04 #@! TF.FileFunction,Copper,L1,Top*
G04 #@! TF.FilePolarity,Positive*
%FSLAX46Y46*%
G04 Gerber Fmt 4.6, Leading zero omitted, Abs format (unit mm)*
G04 Created by KiCad (PCBNEW 7.0.10) date 2024-01-08 18:20:54*
%MOMM*%
%LPD*%
G01*
G04 APERTURE LIST*
G04 APERTURE END LIST*
G04 #@! TA.AperFunction,Conductor*
G36*
X155028181Y-39016425D02*
G01*
X178936293Y-52464739D01*
X178985072Y-52514761D01*
X178999500Y-52572813D01*
X178999500Y-119391713D01*
X178999046Y-119398522D01*
X178999515Y-119400282D01*
X179000861Y-119401619D01*
X179007096Y-119404677D01*
X196872727Y-129727041D01*
X196892018Y-129738187D01*
X196940218Y-129788769D01*
X196953419Y-129857381D01*
X196937391Y-129907520D01*
X186561788Y-147891896D01*
X186511236Y-147940127D01*
X186442634Y-147953372D01*
X186392403Y-147937330D01*
X167847130Y-137235315D01*
X173413298Y-137235315D01*
X173413299Y-137235319D01*
X173413690Y-137235829D01*
X173416239Y-137237187D01*
X173425306Y-137242386D01*
X173425625Y-137242570D01*
X185516486Y-144223231D01*
X185516645Y-144223371D01*
X185537908Y-144235647D01*
X185538315Y-144235701D01*
X185538315Y-144235700D01*
X185538318Y-144235701D01*
X185538562Y-144235514D01*
X185538562Y-144235512D01*
X185538592Y-144235490D01*
X185539057Y-144235135D01*
X185539279Y-144234966D01*
X185542275Y-144230304D01*
X185542351Y-144230196D01*
X185544753Y-144224853D01*
X185551158Y-144213744D01*
X185551159Y-144213745D01*
X185551200Y-144213621D01*
X192534950Y-132117409D01*
X192535185Y-132117006D01*
X192538643Y-132111093D01*
X192538646Y-132111092D01*
X192538701Y-132110682D01*
X192538700Y-132110681D01*
X192538701Y-132110681D01*
X192538449Y-132110354D01*
X192518297Y-132098603D01*
X192517595Y-132098360D01*
X188883129Y-130000000D01*
X192994659Y-130000000D01*
X193013975Y-130196129D01*
X193071188Y-130384733D01*
X193164086Y-130558532D01*
X193164090Y-130558539D01*
X193289116Y-130710883D01*
X193441460Y-130835909D01*
X193441467Y-130835913D01*
X193576093Y-130907872D01*
X193615273Y-130928814D01*
X193644157Y-130937575D01*
X193651195Y-130939946D01*
X193651791Y-130940166D01*
X193651799Y-130940170D01*
X193655570Y-130941146D01*
X193660422Y-130942509D01*
X193803868Y-130986024D01*
X193834662Y-130989056D01*
X193841911Y-130990344D01*
X193841955Y-130990063D01*
X193848178Y-130991016D01*
X193848182Y-130991017D01*
X193858423Y-130991536D01*
X193864229Y-130991968D01*
X194000000Y-131005341D01*
X194035203Y-131001873D01*
X194044500Y-131001653D01*
X194044498Y-131001610D01*
X194050768Y-131001291D01*
X194050780Y-131001292D01*
X194064926Y-130999124D01*
X194071482Y-130998300D01*
X194196132Y-130986024D01*
X194234291Y-130974448D01*
X194250827Y-130970694D01*
X194251296Y-130970573D01*
X194251299Y-130970573D01*
X194266956Y-130964774D01*
X194274006Y-130962400D01*
X194384727Y-130928814D01*
X194423920Y-130907864D01*
X194439301Y-130900945D01*
X194441530Y-130900120D01*
X194456842Y-130890575D01*
X194463918Y-130886485D01*
X194558533Y-130835913D01*
X194558534Y-130835912D01*
X194558533Y-130835912D01*
X194558538Y-130835910D01*
X194596513Y-130804744D01*
X194609559Y-130795385D01*
X194613684Y-130792815D01*
X194627071Y-130780088D01*
X194633805Y-130774139D01*
X194710883Y-130710883D01*
X194745082Y-130669211D01*
X194755480Y-130658027D01*
X194760715Y-130653052D01*
X194760717Y-130653048D01*
X194760719Y-130653047D01*
X194765618Y-130646007D01*
X194771154Y-130638053D01*
X194777050Y-130630258D01*
X194835910Y-130558538D01*
X194863641Y-130506656D01*
X194871203Y-130494308D01*
X194876601Y-130486553D01*
X194883534Y-130470396D01*
X194888110Y-130460878D01*
X194928814Y-130384727D01*
X194947362Y-130323580D01*
X194952060Y-130310713D01*
X194956600Y-130300135D01*
X194959924Y-130283957D01*
X194962705Y-130273002D01*
X194986024Y-130196132D01*
X194992798Y-130127345D01*
X194994737Y-130114556D01*
X194997435Y-130101429D01*
X194998041Y-130077434D01*
X194998593Y-130068510D01*
X195005341Y-130000000D01*
X194998593Y-129931493D01*
X194998041Y-129922561D01*
X194997435Y-129898571D01*
X194994735Y-129885435D01*
X194992799Y-129872657D01*
X194986024Y-129803868D01*
X194962714Y-129727027D01*
X194959920Y-129716022D01*
X194956600Y-129699865D01*
X194952062Y-129689290D01*
X194947354Y-129676391D01*
X194928814Y-129615273D01*
X194888114Y-129539130D01*
X194883528Y-129529589D01*
X194876602Y-129513450D01*
X194876601Y-129513447D01*
X194871213Y-129505706D01*
X194863636Y-129493334D01*
X194835910Y-129441462D01*
X194835908Y-129441460D01*
X194835908Y-129441459D01*
X194777069Y-129369765D01*
X194771143Y-129361931D01*
X194760716Y-129346949D01*
X194755486Y-129341977D01*
X194745068Y-129330771D01*
X194710883Y-129289116D01*
X194633830Y-129225880D01*
X194627067Y-129219905D01*
X194613686Y-129207187D01*
X194613684Y-129207185D01*
X194609560Y-129204614D01*
X194596493Y-129195239D01*
X194558540Y-129164091D01*
X194558532Y-129164086D01*
X194463957Y-129113535D01*
X194456821Y-129109410D01*
X194441537Y-129099884D01*
X194441532Y-129099881D01*
X194441530Y-129099880D01*
X194441528Y-129099879D01*
X194441522Y-129099876D01*
X194439293Y-129099051D01*
X194423912Y-129092130D01*
X194384728Y-129071186D01*
X194274036Y-129037607D01*
X194266973Y-129035231D01*
X194251300Y-129029427D01*
X194250854Y-129029312D01*
X194234276Y-129025547D01*
X194196130Y-129013975D01*
X194071508Y-129001701D01*
X194064893Y-129000869D01*
X194050786Y-128998708D01*
X194044504Y-128998390D01*
X194044506Y-128998347D01*
X194035205Y-128998125D01*
X194000003Y-128994659D01*
X193999999Y-128994659D01*
X193864257Y-129008027D01*
X193858392Y-129008464D01*
X193848187Y-129008982D01*
X193841974Y-129009934D01*
X193841931Y-129009654D01*
X193834679Y-129010941D01*
X193803869Y-129013975D01*
X193660446Y-129057482D01*
X193655545Y-129058859D01*
X193651795Y-129059830D01*
X193651175Y-129060060D01*
X193644123Y-129062433D01*
X193615270Y-129071186D01*
X193441467Y-129164086D01*
X193441460Y-129164090D01*
X193289116Y-129289116D01*
X193164090Y-129441460D01*
X193164086Y-129441467D01*
X193071188Y-129615266D01*
X193013975Y-129803870D01*
X192994659Y-130000000D01*
X188883129Y-130000000D01*
X180435385Y-125122693D01*
X180435196Y-125122528D01*
X180428029Y-125118393D01*
X180423906Y-125115230D01*
X180418166Y-125112400D01*
X180414413Y-125110395D01*
X180413684Y-125110299D01*
X180413683Y-125110299D01*
X180413682Y-125110299D01*
X180413611Y-125110354D01*
X180413352Y-125110553D01*
X180401558Y-125130777D01*
X180401317Y-125131478D01*
X173425400Y-137214120D01*
X173424804Y-137214807D01*
X173413352Y-137234907D01*
X173413298Y-137235315D01*
X167847130Y-137235315D01*
X149244153Y-126500000D01*
X153494659Y-126500000D01*
X153513975Y-126696129D01*
X153571188Y-126884733D01*
X153664086Y-127058532D01*
X153664090Y-127058539D01*
X153789116Y-127210883D01*
X153941460Y-127335909D01*
X153941467Y-127335913D01*
X154076093Y-127407872D01*
X154115273Y-127428814D01*
X154144157Y-127437575D01*
X154151195Y-127439946D01*
X154151791Y-127440166D01*
X154151799Y-127440170D01*
X154155570Y-127441146D01*
X154160422Y-127442509D01*
X154303868Y-127486024D01*
X154334662Y-127489056D01*
X154341911Y-127490344D01*
X154341955Y-127490063D01*
X154348178Y-127491016D01*
X154348182Y-127491017D01*
X154358423Y-127491536D01*
X154364229Y-127491968D01*
X154500000Y-127505341D01*
X154530716Y-127502315D01*
X156937298Y-127502315D01*
X156937299Y-127502319D01*
X156937690Y-127502829D01*
X156940239Y-127504187D01*
X156949306Y-127509386D01*
X156949625Y-127509570D01*
X169040486Y-134490231D01*
X169040645Y-134490371D01*
X169061908Y-134502647D01*
X169062315Y-134502701D01*
X169062315Y-134502700D01*
X169062318Y-134502701D01*
X169062562Y-134502514D01*
X169062562Y-134502512D01*
X169062592Y-134502490D01*
X169063057Y-134502135D01*
X169063279Y-134501966D01*
X169066275Y-134497304D01*
X169066351Y-134497196D01*
X169068753Y-134491853D01*
X169075158Y-134480744D01*
X169075159Y-134480745D01*
X169075200Y-134480621D01*
X176058950Y-122384409D01*
X176059185Y-122384006D01*
X176062643Y-122378093D01*
X176062646Y-122378092D01*
X176062701Y-122377682D01*
X176062700Y-122377681D01*
X176062701Y-122377681D01*
X176062449Y-122377354D01*
X176042297Y-122365603D01*
X176041595Y-122365360D01*
X163959385Y-115389693D01*
X163959196Y-115389528D01*
X163952029Y-115385393D01*
X163947906Y-115382230D01*
X163942166Y-115379400D01*
X163938413Y-115377395D01*
X163937684Y-115377299D01*
X163937683Y-115377299D01*
X163937682Y-115377299D01*
X163937611Y-115377354D01*
X163937352Y-115377553D01*
X163925558Y-115397777D01*
X163925317Y-115398478D01*
X156949400Y-127481120D01*
X156948804Y-127481807D01*
X156937352Y-127501907D01*
X156937298Y-127502315D01*
X154530716Y-127502315D01*
X154535203Y-127501873D01*
X154544500Y-127501653D01*
X154544498Y-127501610D01*
X154550768Y-127501291D01*
X154550780Y-127501292D01*
X154564926Y-127499124D01*
X154571482Y-127498300D01*
X154696132Y-127486024D01*
X154734291Y-127474448D01*
X154750827Y-127470694D01*
X154751296Y-127470573D01*
X154751299Y-127470573D01*
X154766956Y-127464774D01*
X154774006Y-127462400D01*
X154884727Y-127428814D01*
X154923920Y-127407864D01*
X154939301Y-127400945D01*
X154941530Y-127400120D01*
X154956842Y-127390575D01*
X154963918Y-127386485D01*
X155058533Y-127335913D01*
X155058534Y-127335912D01*
X155058533Y-127335912D01*
X155058538Y-127335910D01*
X155096513Y-127304744D01*
X155109559Y-127295385D01*
X155113684Y-127292815D01*
X155127071Y-127280088D01*
X155133805Y-127274139D01*
X155210883Y-127210883D01*
X155245082Y-127169211D01*
X155255480Y-127158027D01*
X155260715Y-127153052D01*
X155260717Y-127153048D01*
X155260719Y-127153047D01*
X155265618Y-127146007D01*
X155271154Y-127138053D01*
X155277050Y-127130258D01*
X155335910Y-127058538D01*
X155363641Y-127006656D01*
X155371203Y-126994308D01*
X155376601Y-126986553D01*
X155383534Y-126970396D01*
X155388110Y-126960878D01*
X155428814Y-126884727D01*
X155447362Y-126823580D01*
X155452060Y-126810713D01*
X155456600Y-126800135D01*
X155459924Y-126783957D01*
X155462705Y-126773002D01*
X155486024Y-126696132D01*
X155492798Y-126627345D01*
X155494737Y-126614556D01*
X155497435Y-126601429D01*
X155498041Y-126577434D01*
X155498593Y-126568510D01*
X155505341Y-126500000D01*
X155498593Y-126431493D01*
X155498041Y-126422561D01*
X155497435Y-126398571D01*
X155494735Y-126385435D01*
X155492799Y-126372657D01*
X155486024Y-126303868D01*
X155462714Y-126227027D01*
X155459920Y-126216022D01*
X155456600Y-126199865D01*
X155452062Y-126189290D01*
X155447354Y-126176391D01*
X155428814Y-126115273D01*
X155388114Y-126039130D01*
X155383528Y-126029589D01*
X155376602Y-126013450D01*
X155376601Y-126013447D01*
X155371213Y-126005706D01*
X155363636Y-125993334D01*
X155335910Y-125941462D01*
X155335908Y-125941460D01*
X155335908Y-125941459D01*
X155277069Y-125869765D01*
X155271143Y-125861931D01*
X155260716Y-125846949D01*
X155255486Y-125841977D01*
X155245068Y-125830771D01*
X155210883Y-125789116D01*
X155133830Y-125725880D01*
X155127067Y-125719905D01*
X155113686Y-125707187D01*
X155113684Y-125707185D01*
X155109560Y-125704614D01*
X155096493Y-125695239D01*
X155058540Y-125664091D01*
X155058532Y-125664086D01*
X154963957Y-125613535D01*
X154956821Y-125609410D01*
X154941537Y-125599884D01*
X154941532Y-125599881D01*
X154941530Y-125599880D01*
X154941528Y-125599879D01*
X154941522Y-125599876D01*
X154939293Y-125599051D01*
X154923912Y-125592130D01*
X154884728Y-125571186D01*
X154774036Y-125537607D01*
X154766973Y-125535231D01*
X154751300Y-125529427D01*
X154750854Y-125529312D01*
X154734276Y-125525547D01*
X154696130Y-125513975D01*
X154571508Y-125501701D01*
X154564893Y-125500869D01*
X154550786Y-125498708D01*
X154544504Y-125498390D01*
X154544506Y-125498347D01*
X154535205Y-125498125D01*
X154500003Y-125494659D01*
X154499999Y-125494659D01*
X154364257Y-125508027D01*
X154358392Y-125508464D01*
X154348187Y-125508982D01*
X154341974Y-125509934D01*
X154341931Y-125509654D01*
X154334679Y-125510941D01*
X154303869Y-125513975D01*
X154160446Y-125557482D01*
X154155545Y-125558859D01*
X154151795Y-125559830D01*
X154151175Y-125560060D01*
X154144123Y-125562433D01*
X154115270Y-125571186D01*
X153941467Y-125664086D01*
X153941460Y-125664090D01*
X153789116Y-125789116D01*
X153664090Y-125941460D01*
X153664086Y-125941467D01*
X153571188Y-126115266D01*
X153513975Y-126303870D01*
X153494659Y-126500000D01*
X149244153Y-126500000D01*
X123264610Y-111507853D01*
X123257939Y-111502734D01*
X123257775Y-111502666D01*
X123254208Y-111500912D01*
X123252814Y-111500431D01*
X123250146Y-111499437D01*
X123247312Y-111498963D01*
X123245957Y-111498702D01*
X123241994Y-111498443D01*
X123241740Y-111498409D01*
X123233456Y-111499500D01*
X78124500Y-111499500D01*
X78057461Y-111479815D01*
X78011706Y-111427011D01*
X78000500Y-111375500D01*
X78000500Y-109000000D01*
X79494659Y-109000000D01*
X79513975Y-109196129D01*
X79513976Y-109196132D01*
X79543201Y-109292475D01*
X79571188Y-109384733D01*
X79664086Y-109558532D01*
X79664090Y-109558539D01*
X79789116Y-109710883D01*
X79941460Y-109835909D01*
X79941467Y-109835913D01*
X80076093Y-109907872D01*
X80115273Y-109928814D01*
X80144157Y-109937575D01*
X80151195Y-109939946D01*
X80151791Y-109940166D01*
X80151799Y-109940170D01*
X80155570Y-109941146D01*
X80160422Y-109942509D01*
X80303868Y-109986024D01*
X80334662Y-109989056D01*
X80341911Y-109990344D01*
X80341955Y-109990063D01*
X80348178Y-109991016D01*
X80348182Y-109991017D01*
X80358423Y-109991536D01*
X80364229Y-109991968D01*
X80500000Y-110005341D01*
X80535203Y-110001873D01*
X80544500Y-110001653D01*
X80544498Y-110001610D01*
X80550768Y-110001291D01*
X80550780Y-110001292D01*
X80564926Y-109999124D01*
X80571482Y-109998300D01*
X80696132Y-109986024D01*
X80734291Y-109974448D01*
X80750827Y-109970694D01*
X80751296Y-109970573D01*
X80751299Y-109970573D01*
X80766956Y-109964774D01*
X80774006Y-109962400D01*
X80884727Y-109928814D01*
X80923920Y-109907864D01*
X80939301Y-109900945D01*
X80941530Y-109900120D01*
X80956842Y-109890575D01*
X80963918Y-109886485D01*
X81058533Y-109835913D01*
X81058534Y-109835912D01*
X81058533Y-109835912D01*
X81058538Y-109835910D01*
X81096513Y-109804744D01*
X81109559Y-109795385D01*
X81113684Y-109792815D01*
X81127071Y-109780088D01*
X81133805Y-109774139D01*
X81210883Y-109710883D01*
X81238526Y-109677200D01*
X122946659Y-109677200D01*
X122965975Y-109873329D01*
X122982806Y-109928812D01*
X123006020Y-110005340D01*
X123023188Y-110061933D01*
X123116086Y-110235732D01*
X123116090Y-110235739D01*
X123241116Y-110388083D01*
X123393460Y-110513109D01*
X123393467Y-110513113D01*
X123528093Y-110585072D01*
X123567273Y-110606014D01*
X123596157Y-110614775D01*
X123603195Y-110617146D01*
X123603791Y-110617366D01*
X123603799Y-110617370D01*
X123607570Y-110618346D01*
X123612422Y-110619709D01*
X123755868Y-110663224D01*
X123786662Y-110666256D01*
X123793911Y-110667544D01*
X123793955Y-110667263D01*
X123800178Y-110668216D01*
X123800182Y-110668217D01*
X123810423Y-110668736D01*
X123816229Y-110669168D01*
X123952000Y-110682541D01*
X123987203Y-110679073D01*
X123996500Y-110678853D01*
X123996498Y-110678810D01*
X124002768Y-110678491D01*
X124002780Y-110678492D01*
X124016926Y-110676324D01*
X124023482Y-110675500D01*
X124148132Y-110663224D01*
X124186291Y-110651648D01*
X124202827Y-110647894D01*
X124203296Y-110647773D01*
X124203299Y-110647773D01*
X124218956Y-110641974D01*
X124226006Y-110639600D01*
X124336727Y-110606014D01*
X124375920Y-110585064D01*
X124391301Y-110578145D01*
X124393530Y-110577320D01*
X124408842Y-110567775D01*
X124415918Y-110563685D01*
X124510533Y-110513113D01*
X124510534Y-110513112D01*
X124510533Y-110513112D01*
X124510538Y-110513110D01*
X124548513Y-110481944D01*
X124561559Y-110472585D01*
X124565684Y-110470015D01*
X124579071Y-110457288D01*
X124585805Y-110451339D01*
X124662883Y-110388083D01*
X124697082Y-110346411D01*
X124707480Y-110335227D01*
X124712715Y-110330252D01*
X124712717Y-110330248D01*
X124712719Y-110330247D01*
X124717618Y-110323207D01*
X124723154Y-110315253D01*
X124729050Y-110307458D01*
X124787910Y-110235738D01*
X124815641Y-110183856D01*
X124823203Y-110171508D01*
X124828601Y-110163753D01*
X124835534Y-110147596D01*
X124840110Y-110138078D01*
X124880814Y-110061927D01*
X124899362Y-110000780D01*
X124904060Y-109987913D01*
X124908600Y-109977335D01*
X124911924Y-109961157D01*
X124914705Y-109950202D01*
X124938024Y-109873332D01*
X124944798Y-109804545D01*
X124946737Y-109791756D01*
X124949435Y-109778629D01*
X124950041Y-109754634D01*
X124950593Y-109745710D01*
X124957341Y-109677200D01*
X124950593Y-109608693D01*
X124950041Y-109599761D01*
X124949435Y-109575771D01*
X124946735Y-109562635D01*
X124944799Y-109549857D01*
X124938024Y-109481068D01*
X124914714Y-109404227D01*
X124911920Y-109393222D01*
X124908600Y-109377065D01*
X124904062Y-109366490D01*
X124899354Y-109353591D01*
X124886347Y-109310713D01*
X124880815Y-109292475D01*
X124870382Y-109272957D01*
X124840114Y-109216330D01*
X124835528Y-109206789D01*
X124833395Y-109201818D01*
X124828601Y-109190647D01*
X124823213Y-109182906D01*
X124815636Y-109170534D01*
X124787910Y-109118662D01*
X124787908Y-109118660D01*
X124787908Y-109118659D01*
X124729069Y-109046965D01*
X124723143Y-109039131D01*
X124712716Y-109024149D01*
X124707486Y-109019177D01*
X124697068Y-109007971D01*
X124662883Y-108966316D01*
X124585830Y-108903080D01*
X124579067Y-108897105D01*
X124565686Y-108884387D01*
X124565684Y-108884385D01*
X124561560Y-108881814D01*
X124548493Y-108872439D01*
X124510540Y-108841291D01*
X124510532Y-108841286D01*
X124415957Y-108790735D01*
X124408821Y-108786610D01*
X124393537Y-108777084D01*
X124393532Y-108777081D01*
X124393530Y-108777080D01*
X124393528Y-108777079D01*
X124393522Y-108777076D01*
X124391293Y-108776251D01*
X124375912Y-108769330D01*
X124336728Y-108748386D01*
X124226036Y-108714807D01*
X124218973Y-108712431D01*
X124203300Y-108706627D01*
X124202854Y-108706512D01*
X124186276Y-108702747D01*
X124148130Y-108691175D01*
X124023508Y-108678901D01*
X124016893Y-108678069D01*
X124002786Y-108675908D01*
X123996504Y-108675590D01*
X123996506Y-108675547D01*
X123987205Y-108675325D01*
X123952003Y-108671859D01*
X123951999Y-108671859D01*
X123816257Y-108685227D01*
X123810392Y-108685664D01*
X123800187Y-108686182D01*
X123793974Y-108687134D01*
X123793931Y-108686854D01*
X123786679Y-108688141D01*
X123755869Y-108691175D01*
X123612446Y-108734682D01*
X123607545Y-108736059D01*
X123603795Y-108737030D01*
X123603175Y-108737260D01*
X123596123Y-108739633D01*
X123567270Y-108748386D01*
X123393467Y-108841286D01*
X123393460Y-108841290D01*
X123241116Y-108966316D01*
X123116090Y-109118660D01*
X123116086Y-109118667D01*
X123023188Y-109292466D01*
X122965975Y-109481070D01*
X122946659Y-109677200D01*
X81238526Y-109677200D01*
X81245082Y-109669211D01*
X81255480Y-109658027D01*
X81260715Y-109653052D01*
X81260717Y-109653048D01*
X81260719Y-109653047D01*
X81265618Y-109646007D01*
X81271154Y-109638053D01*
X81277050Y-109630258D01*
X81335910Y-109558538D01*
X81363641Y-109506656D01*
X81371203Y-109494308D01*
X81376601Y-109486553D01*
X81383534Y-109470396D01*
X81388110Y-109460878D01*
X81428814Y-109384727D01*
X81447362Y-109323580D01*
X81452060Y-109310713D01*
X81456600Y-109300135D01*
X81459924Y-109283957D01*
X81462705Y-109273002D01*
X81486024Y-109196132D01*
X81488510Y-109170889D01*
X83499416Y-109170889D01*
X83499459Y-109195000D01*
X83499500Y-109195099D01*
X83499617Y-109195383D01*
X83499618Y-109195384D01*
X83499808Y-109195462D01*
X83500000Y-109195541D01*
X83500002Y-109195539D01*
X83524616Y-109195524D01*
X83524616Y-109195528D01*
X83524760Y-109195500D01*
X97475240Y-109195500D01*
X97475383Y-109195528D01*
X97475384Y-109195524D01*
X97499997Y-109195539D01*
X97500000Y-109195541D01*
X97500383Y-109195383D01*
X97500500Y-109195099D01*
X97500541Y-109195000D01*
X97500540Y-109194997D01*
X97500583Y-109170889D01*
X97500500Y-109170467D01*
X97500500Y-106500000D01*
X175494659Y-106500000D01*
X175513975Y-106696129D01*
X175571188Y-106884733D01*
X175664086Y-107058532D01*
X175664090Y-107058539D01*
X175789116Y-107210883D01*
X175941460Y-107335909D01*
X175941467Y-107335913D01*
X176076093Y-107407872D01*
X176115273Y-107428814D01*
X176144157Y-107437575D01*
X176151195Y-107439946D01*
X176151791Y-107440166D01*
X176151799Y-107440170D01*
X176155570Y-107441146D01*
X176160422Y-107442509D01*
X176303868Y-107486024D01*
X176334662Y-107489056D01*
X176341911Y-107490344D01*
X176341955Y-107490063D01*
X176348178Y-107491016D01*
X176348182Y-107491017D01*
X176358423Y-107491536D01*
X176364229Y-107491968D01*
X176500000Y-107505341D01*
X176535203Y-107501873D01*
X176544500Y-107501653D01*
X176544498Y-107501610D01*
X176550768Y-107501291D01*
X176550780Y-107501292D01*
X176564926Y-107499124D01*
X176571482Y-107498300D01*
X176696132Y-107486024D01*
X176734291Y-107474448D01*
X176750827Y-107470694D01*
X176751296Y-107470573D01*
X176751299Y-107470573D01*
X176766956Y-107464774D01*
X176774006Y-107462400D01*
X176884727Y-107428814D01*
X176923920Y-107407864D01*
X176939301Y-107400945D01*
X176941530Y-107400120D01*
X176956842Y-107390575D01*
X176963918Y-107386485D01*
X177058533Y-107335913D01*
X177058534Y-107335912D01*
X177058533Y-107335912D01*
X177058538Y-107335910D01*
X177096513Y-107304744D01*
X177109559Y-107295385D01*
X177113684Y-107292815D01*
X177127071Y-107280088D01*
X177133805Y-107274139D01*
X177210883Y-107210883D01*
X177245082Y-107169211D01*
X177255480Y-107158027D01*
X177260715Y-107153052D01*
X177260717Y-107153048D01*
X177260719Y-107153047D01*
X177265618Y-107146007D01*
X177271154Y-107138053D01*
X177277050Y-107130258D01*
X177335910Y-107058538D01*
X177363641Y-107006656D01*
X177371203Y-106994308D01*
X177376601Y-106986553D01*
X177383534Y-106970396D01*
X177388110Y-106960878D01*
X177428814Y-106884727D01*
X177447362Y-106823580D01*
X177452060Y-106810713D01*
X177456600Y-106800135D01*
X177459924Y-106783957D01*
X177462705Y-106773002D01*
X177486024Y-106696132D01*
X177492798Y-106627345D01*
X177494737Y-106614556D01*
X177497435Y-106601429D01*
X177498041Y-106577434D01*
X177498593Y-106568510D01*
X177505341Y-106500000D01*
X177498593Y-106431493D01*
X177498041Y-106422561D01*
X177497435Y-106398571D01*
X177494735Y-106385435D01*
X177492799Y-106372657D01*
X177486024Y-106303868D01*
X177462714Y-106227027D01*
X177459920Y-106216022D01*
X177456600Y-106199865D01*
X177452062Y-106189290D01*
X177447354Y-106176391D01*
X177428814Y-106115273D01*
X177388114Y-106039130D01*
X177383528Y-106029589D01*
X177376602Y-106013450D01*
X177376601Y-106013447D01*
X177371213Y-106005706D01*
X177363636Y-105993334D01*
X177335910Y-105941462D01*
X177335908Y-105941460D01*
X177335908Y-105941459D01*
X177277069Y-105869765D01*
X177271143Y-105861931D01*
X177260716Y-105846949D01*
X177255486Y-105841977D01*
X177245068Y-105830771D01*
X177210883Y-105789116D01*
X177133830Y-105725880D01*
X177127067Y-105719905D01*
X177113686Y-105707187D01*
X177113684Y-105707185D01*
X177109560Y-105704614D01*
X177096493Y-105695239D01*
X177058540Y-105664091D01*
X177058532Y-105664086D01*
X176963957Y-105613535D01*
X176956821Y-105609410D01*
X176941537Y-105599884D01*
X176941532Y-105599881D01*
X176941530Y-105599880D01*
X176941528Y-105599879D01*
X176941522Y-105599876D01*
X176939293Y-105599051D01*
X176923912Y-105592130D01*
X176884728Y-105571186D01*
X176774036Y-105537607D01*
X176766973Y-105535231D01*
X176751300Y-105529427D01*
X176750854Y-105529312D01*
X176734276Y-105525547D01*
X176696130Y-105513975D01*
X176571508Y-105501701D01*
X176564893Y-105500869D01*
X176550786Y-105498708D01*
X176544504Y-105498390D01*
X176544506Y-105498347D01*
X176535205Y-105498125D01*
X176500003Y-105494659D01*
X176499999Y-105494659D01*
X176364257Y-105508027D01*
X176358392Y-105508464D01*
X176348187Y-105508982D01*
X176341974Y-105509934D01*
X176341931Y-105509654D01*
X176334679Y-105510941D01*
X176303869Y-105513975D01*
X176160446Y-105557482D01*
X176155545Y-105558859D01*
X176151795Y-105559830D01*
X176151175Y-105560060D01*
X176144123Y-105562433D01*
X176115270Y-105571186D01*
X175941467Y-105664086D01*
X175941460Y-105664090D01*
X175789116Y-105789116D01*
X175664090Y-105941460D01*
X175664086Y-105941467D01*
X175571188Y-106115266D01*
X175513975Y-106303870D01*
X175494659Y-106500000D01*
X97500500Y-106500000D01*
X97500500Y-105045889D01*
X159499416Y-105045889D01*
X159499459Y-105070000D01*
X159499500Y-105070099D01*
X159499617Y-105070383D01*
X159499618Y-105070384D01*
X159499808Y-105070462D01*
X159500000Y-105070541D01*
X159500002Y-105070539D01*
X159524616Y-105070524D01*
X159524616Y-105070528D01*
X159524760Y-105070500D01*
X173475240Y-105070500D01*
X173475383Y-105070528D01*
X173475384Y-105070524D01*
X173499997Y-105070539D01*
X173500000Y-105070541D01*
X173500383Y-105070383D01*
X173500500Y-105070099D01*
X173500541Y-105070000D01*
X173500540Y-105069997D01*
X173500583Y-105045889D01*
X173500500Y-105045467D01*
X173500500Y-91094759D01*
X173500528Y-91094616D01*
X173500524Y-91094616D01*
X173500539Y-91070002D01*
X173500541Y-91070000D01*
X173500462Y-91069808D01*
X173500384Y-91069618D01*
X173500380Y-91069614D01*
X173500194Y-91069538D01*
X173500002Y-91069459D01*
X173475446Y-91069459D01*
X173475240Y-91069500D01*
X159524760Y-91069500D01*
X159524554Y-91069459D01*
X159499998Y-91069459D01*
X159499807Y-91069538D01*
X159499619Y-91069615D01*
X159499615Y-91069618D01*
X159499459Y-91069999D01*
X159499476Y-91094616D01*
X159499471Y-91094616D01*
X159499500Y-91094759D01*
X159499500Y-105045467D01*
X159499416Y-105045889D01*
X97500500Y-105045889D01*
X97500500Y-97670889D01*
X102499416Y-97670889D01*
X102499459Y-97695000D01*
X102499500Y-97695099D01*
X102499617Y-97695383D01*
X102499618Y-97695384D01*
X102499808Y-97695462D01*
X102500000Y-97695541D01*
X102500002Y-97695539D01*
X102524616Y-97695524D01*
X102524616Y-97695528D01*
X102524760Y-97695500D01*
X116475240Y-97695500D01*
X116475383Y-97695528D01*
X116475384Y-97695524D01*
X116499997Y-97695539D01*
X116500000Y-97695541D01*
X116500383Y-97695383D01*
X116500500Y-97695099D01*
X116500541Y-97695000D01*
X116500540Y-97694997D01*
X116500583Y-97670889D01*
X116500500Y-97670467D01*
X116500500Y-95545889D01*
X140499416Y-95545889D01*
X140499459Y-95570000D01*
X140499500Y-95570099D01*
X140499617Y-95570383D01*
X140499618Y-95570384D01*
X140499808Y-95570462D01*
X140500000Y-95570541D01*
X140500002Y-95570539D01*
X140524616Y-95570524D01*
X140524616Y-95570528D01*
X140524760Y-95570500D01*
X154475240Y-95570500D01*
X154475383Y-95570528D01*
X154475384Y-95570524D01*
X154499997Y-95570539D01*
X154500000Y-95570541D01*
X154500383Y-95570383D01*
X154500500Y-95570099D01*
X154500541Y-95570000D01*
X154500540Y-95569997D01*
X154500583Y-95545889D01*
X154500500Y-95545467D01*
X154500500Y-86045889D01*
X159499416Y-86045889D01*
X159499459Y-86070000D01*
X159499500Y-86070099D01*
X159499617Y-86070383D01*
X159499618Y-86070384D01*
X159499808Y-86070462D01*
X159500000Y-86070541D01*
X159500002Y-86070539D01*
X159524616Y-86070524D01*
X159524616Y-86070528D01*
X159524760Y-86070500D01*
X173475240Y-86070500D01*
X173475383Y-86070528D01*
X173475384Y-86070524D01*
X173499997Y-86070539D01*
X173500000Y-86070541D01*
X173500383Y-86070383D01*
X173500500Y-86070099D01*
X173500541Y-86070000D01*
X173500540Y-86069997D01*
X173500583Y-86045889D01*
X173500500Y-86045467D01*
X173500500Y-72094759D01*
X173500528Y-72094616D01*
X173500524Y-72094616D01*
X173500539Y-72070002D01*
X173500541Y-72070000D01*
X173500462Y-72069808D01*
X173500384Y-72069618D01*
X173500380Y-72069614D01*
X173500194Y-72069538D01*
X173500002Y-72069459D01*
X173475446Y-72069459D01*
X173475240Y-72069500D01*
X159524760Y-72069500D01*
X159524554Y-72069459D01*
X159499998Y-72069459D01*
X159499807Y-72069538D01*
X159499619Y-72069615D01*
X159499615Y-72069618D01*
X159499459Y-72069999D01*
X159499476Y-72094616D01*
X159499471Y-72094616D01*
X159499500Y-72094759D01*
X159499500Y-86045467D01*
X159499416Y-86045889D01*
X154500500Y-86045889D01*
X154500500Y-81594759D01*
X154500528Y-81594616D01*
X154500524Y-81594616D01*
X154500539Y-81570002D01*
X154500541Y-81570000D01*
X154500462Y-81569808D01*
X154500384Y-81569618D01*
X154500380Y-81569614D01*
X154500194Y-81569538D01*
X154500002Y-81569459D01*
X154475446Y-81569459D01*
X154475240Y-81569500D01*
X140524760Y-81569500D01*
X140524554Y-81569459D01*
X140499998Y-81569459D01*
X140499807Y-81569538D01*
X140499619Y-81569615D01*
X140499615Y-81569618D01*
X140499459Y-81569999D01*
X140499476Y-81594616D01*
X140499471Y-81594616D01*
X140499500Y-81594759D01*
X140499500Y-95545467D01*
X140499416Y-95545889D01*
X116500500Y-95545889D01*
X116500500Y-93420889D01*
X121499416Y-93420889D01*
X121499459Y-93445000D01*
X121499500Y-93445099D01*
X121499617Y-93445383D01*
X121499618Y-93445384D01*
X121499808Y-93445462D01*
X121500000Y-93445541D01*
X121500002Y-93445539D01*
X121524616Y-93445524D01*
X121524616Y-93445528D01*
X121524760Y-93445500D01*
X135475240Y-93445500D01*
X135475383Y-93445528D01*
X135475384Y-93445524D01*
X135499997Y-93445539D01*
X135500000Y-93445541D01*
X135500383Y-93445383D01*
X135500500Y-93445099D01*
X135500541Y-93445000D01*
X135500540Y-93444997D01*
X135500583Y-93420889D01*
X135500500Y-93420467D01*
X135500500Y-79469759D01*
X135500528Y-79469616D01*
X135500524Y-79469616D01*
X135500539Y-79445002D01*
X135500541Y-79445000D01*
X135500462Y-79444808D01*
X135500384Y-79444618D01*
X135500380Y-79444614D01*
X135500194Y-79444538D01*
X135500002Y-79444459D01*
X135475446Y-79444459D01*
X135475240Y-79444500D01*
X121524760Y-79444500D01*
X121524554Y-79444459D01*
X121499998Y-79444459D01*
X121499807Y-79444538D01*
X121499619Y-79444615D01*
X121499615Y-79444618D01*
X121499459Y-79444999D01*
X121499476Y-79469616D01*
X121499471Y-79469616D01*
X121499500Y-79469759D01*
X121499500Y-93420467D01*
X121499416Y-93420889D01*
X116500500Y-93420889D01*
X116500500Y-83719759D01*
X116500528Y-83719616D01*
X116500524Y-83719616D01*
X116500539Y-83695002D01*
X116500541Y-83695000D01*
X116500462Y-83694808D01*
X116500384Y-83694618D01*
X116500380Y-83694614D01*
X116500194Y-83694538D01*
X116500002Y-83694459D01*
X116475446Y-83694459D01*
X116475240Y-83694500D01*
X102524760Y-83694500D01*
X102524554Y-83694459D01*
X102499998Y-83694459D01*
X102499807Y-83694538D01*
X102499619Y-83694615D01*
X102499615Y-83694618D01*
X102499459Y-83694999D01*
X102499476Y-83719616D01*
X102499471Y-83719616D01*
X102499500Y-83719759D01*
X102499500Y-97670467D01*
X102499416Y-97670889D01*
X97500500Y-97670889D01*
X97500500Y-95219759D01*
X97500528Y-95219616D01*
X97500524Y-95219616D01*
X97500539Y-95195002D01*
X97500541Y-95195000D01*
X97500462Y-95194808D01*
X97500384Y-95194618D01*
X97500380Y-95194614D01*
X97500194Y-95194538D01*
X97500002Y-95194459D01*
X97475446Y-95194459D01*
X97475240Y-95194500D01*
X83524760Y-95194500D01*
X83524554Y-95194459D01*
X83499998Y-95194459D01*
X83499807Y-95194538D01*
X83499619Y-95194615D01*
X83499615Y-95194618D01*
X83499459Y-95194999D01*
X83499476Y-95219616D01*
X83499471Y-95219616D01*
X83499500Y-95219759D01*
X83499500Y-109170467D01*
X83499416Y-109170889D01*
X81488510Y-109170889D01*
X81492798Y-109127345D01*
X81494737Y-109114556D01*
X81497435Y-109101429D01*
X81498041Y-109077434D01*
X81498593Y-109068510D01*
X81505341Y-109000000D01*
X81498593Y-108931493D01*
X81498041Y-108922561D01*
X81497435Y-108898571D01*
X81494735Y-108885435D01*
X81492799Y-108872657D01*
X81486024Y-108803868D01*
X81462714Y-108727027D01*
X81459920Y-108716022D01*
X81456600Y-108699865D01*
X81452062Y-108689290D01*
X81447354Y-108676391D01*
X81428814Y-108615273D01*
X81388114Y-108539130D01*
X81383528Y-108529589D01*
X81376602Y-108513450D01*
X81376601Y-108513447D01*
X81371213Y-108505706D01*
X81363636Y-108493334D01*
X81335910Y-108441462D01*
X81335908Y-108441460D01*
X81335908Y-108441459D01*
X81277069Y-108369765D01*
X81271143Y-108361931D01*
X81260716Y-108346949D01*
X81255486Y-108341977D01*
X81245068Y-108330771D01*
X81210883Y-108289116D01*
X81133830Y-108225880D01*
X81127067Y-108219905D01*
X81113686Y-108207187D01*
X81113684Y-108207185D01*
X81109560Y-108204614D01*
X81096493Y-108195239D01*
X81058540Y-108164091D01*
X81058532Y-108164086D01*
X80963957Y-108113535D01*
X80956821Y-108109410D01*
X80941537Y-108099884D01*
X80941532Y-108099881D01*
X80941530Y-108099880D01*
X80941528Y-108099879D01*
X80941522Y-108099876D01*
X80939293Y-108099051D01*
X80923912Y-108092130D01*
X80884728Y-108071186D01*
X80774036Y-108037607D01*
X80766973Y-108035231D01*
X80751300Y-108029427D01*
X80750854Y-108029312D01*
X80734276Y-108025547D01*
X80696130Y-108013975D01*
X80571508Y-108001701D01*
X80564893Y-108000869D01*
X80550786Y-107998708D01*
X80544504Y-107998390D01*
X80544506Y-107998347D01*
X80535205Y-107998125D01*
X80500003Y-107994659D01*
X80499999Y-107994659D01*
X80364257Y-108008027D01*
X80358392Y-108008464D01*
X80348187Y-108008982D01*
X80341974Y-108009934D01*
X80341931Y-108009654D01*
X80334679Y-108010941D01*
X80303869Y-108013975D01*
X80160446Y-108057482D01*
X80155545Y-108058859D01*
X80151795Y-108059830D01*
X80151175Y-108060060D01*
X80144123Y-108062433D01*
X80115270Y-108071186D01*
X79941467Y-108164086D01*
X79941460Y-108164090D01*
X79789116Y-108289116D01*
X79664090Y-108441460D01*
X79664086Y-108441467D01*
X79571188Y-108615266D01*
X79513975Y-108803870D01*
X79494659Y-109000000D01*
X78000500Y-109000000D01*
X78000500Y-90170889D01*
X83499416Y-90170889D01*
X83499459Y-90195000D01*
X83499500Y-90195099D01*
X83499617Y-90195383D01*
X83499618Y-90195384D01*
X83499808Y-90195462D01*
X83500000Y-90195541D01*
X83500002Y-90195539D01*
X83524616Y-90195524D01*
X83524616Y-90195528D01*
X83524760Y-90195500D01*
X97475240Y-90195500D01*
X97475383Y-90195528D01*
X97475384Y-90195524D01*
X97499997Y-90195539D01*
X97500000Y-90195541D01*
X97500383Y-90195383D01*
X97500500Y-90195099D01*
X97500541Y-90195000D01*
X97500540Y-90194997D01*
X97500583Y-90170889D01*
X97500500Y-90170467D01*
X97500500Y-81500000D01*
X99494659Y-81500000D01*
X99513975Y-81696129D01*
X99571188Y-81884733D01*
X99664086Y-82058532D01*
X99664090Y-82058539D01*
X99789116Y-82210883D01*
X99941460Y-82335909D01*
X99941467Y-82335913D01*
X100076093Y-82407872D01*
X100115273Y-82428814D01*
X100144157Y-82437575D01*
X100151195Y-82439946D01*
X100151791Y-82440166D01*
X100151799Y-82440170D01*
X100155570Y-82441146D01*
X100160422Y-82442509D01*
X100303868Y-82486024D01*
X100334662Y-82489056D01*
X100341911Y-82490344D01*
X100341955Y-82490063D01*
X100348178Y-82491016D01*
X100348182Y-82491017D01*
X100358423Y-82491536D01*
X100364229Y-82491968D01*
X100500000Y-82505341D01*
X100535203Y-82501873D01*
X100544500Y-82501653D01*
X100544498Y-82501610D01*
X100550768Y-82501291D01*
X100550780Y-82501292D01*
X100564926Y-82499124D01*
X100571482Y-82498300D01*
X100696132Y-82486024D01*
X100734291Y-82474448D01*
X100750827Y-82470694D01*
X100751296Y-82470573D01*
X100751299Y-82470573D01*
X100766956Y-82464774D01*
X100774006Y-82462400D01*
X100884727Y-82428814D01*
X100923920Y-82407864D01*
X100939301Y-82400945D01*
X100941530Y-82400120D01*
X100956842Y-82390575D01*
X100963918Y-82386485D01*
X101058533Y-82335913D01*
X101058534Y-82335912D01*
X101058533Y-82335912D01*
X101058538Y-82335910D01*
X101096513Y-82304744D01*
X101109559Y-82295385D01*
X101113684Y-82292815D01*
X101127071Y-82280088D01*
X101133805Y-82274139D01*
X101210883Y-82210883D01*
X101245082Y-82169211D01*
X101255480Y-82158027D01*
X101260715Y-82153052D01*
X101260717Y-82153048D01*
X101260719Y-82153047D01*
X101265618Y-82146007D01*
X101271154Y-82138053D01*
X101277050Y-82130258D01*
X101335910Y-82058538D01*
X101363641Y-82006656D01*
X101371203Y-81994308D01*
X101376601Y-81986553D01*
X101383534Y-81970396D01*
X101388110Y-81960878D01*
X101428814Y-81884727D01*
X101447362Y-81823580D01*
X101452060Y-81810713D01*
X101456600Y-81800135D01*
X101459924Y-81783957D01*
X101462705Y-81773002D01*
X101486024Y-81696132D01*
X101492798Y-81627345D01*
X101494737Y-81614556D01*
X101497435Y-81601429D01*
X101498041Y-81577434D01*
X101498593Y-81568510D01*
X101505341Y-81500000D01*
X101498593Y-81431493D01*
X101498041Y-81422561D01*
X101497435Y-81398571D01*
X101494735Y-81385435D01*
X101492799Y-81372657D01*
X101486024Y-81303868D01*
X101462714Y-81227027D01*
X101459920Y-81216022D01*
X101456600Y-81199865D01*
X101452062Y-81189290D01*
X101447354Y-81176391D01*
X101428814Y-81115273D01*
X101388114Y-81039130D01*
X101383528Y-81029589D01*
X101376602Y-81013450D01*
X101376601Y-81013447D01*
X101371213Y-81005706D01*
X101363636Y-80993334D01*
X101335910Y-80941462D01*
X101335908Y-80941460D01*
X101335908Y-80941459D01*
X101277069Y-80869765D01*
X101271143Y-80861931D01*
X101260716Y-80846949D01*
X101255486Y-80841977D01*
X101245068Y-80830771D01*
X101210883Y-80789116D01*
X101133830Y-80725880D01*
X101127067Y-80719905D01*
X101113686Y-80707187D01*
X101113684Y-80707185D01*
X101109560Y-80704614D01*
X101096493Y-80695239D01*
X101058540Y-80664091D01*
X101058532Y-80664086D01*
X100963957Y-80613535D01*
X100956821Y-80609410D01*
X100941537Y-80599884D01*
X100941532Y-80599881D01*
X100941530Y-80599880D01*
X100941528Y-80599879D01*
X100941522Y-80599876D01*
X100939293Y-80599051D01*
X100923912Y-80592130D01*
X100884728Y-80571186D01*
X100774036Y-80537607D01*
X100766973Y-80535231D01*
X100751300Y-80529427D01*
X100750854Y-80529312D01*
X100734276Y-80525547D01*
X100696130Y-80513975D01*
X100571508Y-80501701D01*
X100564893Y-80500869D01*
X100550786Y-80498708D01*
X100544504Y-80498390D01*
X100544506Y-80498347D01*
X100535205Y-80498125D01*
X100500003Y-80494659D01*
X100499999Y-80494659D01*
X100364257Y-80508027D01*
X100358392Y-80508464D01*
X100348187Y-80508982D01*
X100341974Y-80509934D01*
X100341931Y-80509654D01*
X100334679Y-80510941D01*
X100303869Y-80513975D01*
X100160446Y-80557482D01*
X100155545Y-80558859D01*
X100151795Y-80559830D01*
X100151175Y-80560060D01*
X100144123Y-80562433D01*
X100115270Y-80571186D01*
X99941467Y-80664086D01*
X99941460Y-80664090D01*
X99789116Y-80789116D01*
X99664090Y-80941460D01*
X99664086Y-80941467D01*
X99571188Y-81115266D01*
X99513975Y-81303870D01*
X99494659Y-81500000D01*
X97500500Y-81500000D01*
X97500500Y-78670889D01*
X102499416Y-78670889D01*
X102499459Y-78695000D01*
X102499500Y-78695099D01*
X102499617Y-78695383D01*
X102499618Y-78695384D01*
X102499808Y-78695462D01*
X102500000Y-78695541D01*
X102500002Y-78695539D01*
X102524616Y-78695524D01*
X102524616Y-78695528D01*
X102524760Y-78695500D01*
X116475240Y-78695500D01*
X116475383Y-78695528D01*
X116475384Y-78695524D01*
X116499997Y-78695539D01*
X116500000Y-78695541D01*
X116500383Y-78695383D01*
X116500500Y-78695099D01*
X116500541Y-78695000D01*
X116500540Y-78694997D01*
X116500583Y-78670889D01*
X116500500Y-78670467D01*
X116500500Y-76545889D01*
X140499416Y-76545889D01*
X140499459Y-76570000D01*
X140499500Y-76570099D01*
X140499617Y-76570383D01*
X140499618Y-76570384D01*
X140499808Y-76570462D01*
X140500000Y-76570541D01*
X140500002Y-76570539D01*
X140524616Y-76570524D01*
X140524616Y-76570528D01*
X140524760Y-76570500D01*
X154475240Y-76570500D01*
X154475383Y-76570528D01*
X154475384Y-76570524D01*
X154499997Y-76570539D01*
X154500000Y-76570541D01*
X154500383Y-76570383D01*
X154500500Y-76570099D01*
X154500541Y-76570000D01*
X154500540Y-76569997D01*
X154500583Y-76545889D01*
X154500500Y-76545467D01*
X154500500Y-69500000D01*
X156994659Y-69500000D01*
X157013975Y-69696129D01*
X157071188Y-69884733D01*
X157164086Y-70058532D01*
X157164090Y-70058539D01*
X157289116Y-70210883D01*
X157441460Y-70335909D01*
X157441467Y-70335913D01*
X157576093Y-70407872D01*
X157615273Y-70428814D01*
X157644157Y-70437575D01*
X157651195Y-70439946D01*
X157651791Y-70440166D01*
X157651799Y-70440170D01*
X157655570Y-70441146D01*
X157660422Y-70442509D01*
X157803868Y-70486024D01*
X157834662Y-70489056D01*
X157841911Y-70490344D01*
X157841955Y-70490063D01*
X157848178Y-70491016D01*
X157848182Y-70491017D01*
X157858423Y-70491536D01*
X157864229Y-70491968D01*
X158000000Y-70505341D01*
X158035203Y-70501873D01*
X158044500Y-70501653D01*
X158044498Y-70501610D01*
X158050768Y-70501291D01*
X158050780Y-70501292D01*
X158064926Y-70499124D01*
X158071482Y-70498300D01*
X158196132Y-70486024D01*
X158234291Y-70474448D01*
X158250827Y-70470694D01*
X158251296Y-70470573D01*
X158251299Y-70470573D01*
X158266956Y-70464774D01*
X158274006Y-70462400D01*
X158384727Y-70428814D01*
X158423920Y-70407864D01*
X158439301Y-70400945D01*
X158441530Y-70400120D01*
X158456842Y-70390575D01*
X158463918Y-70386485D01*
X158558533Y-70335913D01*
X158558534Y-70335912D01*
X158558533Y-70335912D01*
X158558538Y-70335910D01*
X158596513Y-70304744D01*
X158609559Y-70295385D01*
X158613684Y-70292815D01*
X158627071Y-70280088D01*
X158633805Y-70274139D01*
X158710883Y-70210883D01*
X158745082Y-70169211D01*
X158755480Y-70158027D01*
X158760715Y-70153052D01*
X158760717Y-70153048D01*
X158760719Y-70153047D01*
X158765618Y-70146007D01*
X158771154Y-70138053D01*
X158777050Y-70130258D01*
X158835910Y-70058538D01*
X158863641Y-70006656D01*
X158871203Y-69994308D01*
X158876601Y-69986553D01*
X158883534Y-69970396D01*
X158888110Y-69960878D01*
X158928814Y-69884727D01*
X158947362Y-69823580D01*
X158952060Y-69810713D01*
X158956600Y-69800135D01*
X158959924Y-69783957D01*
X158962705Y-69773002D01*
X158986024Y-69696132D01*
X158992798Y-69627345D01*
X158994737Y-69614556D01*
X158997435Y-69601429D01*
X158998041Y-69577434D01*
X158998593Y-69568510D01*
X159005341Y-69500000D01*
X158998593Y-69431493D01*
X158998041Y-69422561D01*
X158997435Y-69398571D01*
X158994735Y-69385435D01*
X158992799Y-69372657D01*
X158986024Y-69303868D01*
X158962714Y-69227027D01*
X158959920Y-69216022D01*
X158956600Y-69199865D01*
X158952062Y-69189290D01*
X158947354Y-69176391D01*
X158928814Y-69115273D01*
X158888114Y-69039130D01*
X158883528Y-69029589D01*
X158876602Y-69013450D01*
X158876601Y-69013447D01*
X158871213Y-69005706D01*
X158863636Y-68993334D01*
X158835910Y-68941462D01*
X158835908Y-68941460D01*
X158835908Y-68941459D01*
X158777069Y-68869765D01*
X158771143Y-68861931D01*
X158760716Y-68846949D01*
X158755486Y-68841977D01*
X158745068Y-68830771D01*
X158710883Y-68789116D01*
X158633830Y-68725880D01*
X158627067Y-68719905D01*
X158613686Y-68707187D01*
X158613684Y-68707185D01*
X158609560Y-68704614D01*
X158596493Y-68695239D01*
X158558540Y-68664091D01*
X158558532Y-68664086D01*
X158463957Y-68613535D01*
X158456821Y-68609410D01*
X158441537Y-68599884D01*
X158441532Y-68599881D01*
X158441530Y-68599880D01*
X158441528Y-68599879D01*
X158441522Y-68599876D01*
X158439293Y-68599051D01*
X158423912Y-68592130D01*
X158384728Y-68571186D01*
X158274036Y-68537607D01*
X158266973Y-68535231D01*
X158251300Y-68529427D01*
X158250854Y-68529312D01*
X158234276Y-68525547D01*
X158196130Y-68513975D01*
X158071508Y-68501701D01*
X158064893Y-68500869D01*
X158050786Y-68498708D01*
X158044504Y-68498390D01*
X158044506Y-68498347D01*
X158035205Y-68498125D01*
X158000003Y-68494659D01*
X157999999Y-68494659D01*
X157864257Y-68508027D01*
X157858392Y-68508464D01*
X157848187Y-68508982D01*
X157841974Y-68509934D01*
X157841931Y-68509654D01*
X157834679Y-68510941D01*
X157803869Y-68513975D01*
X157660446Y-68557482D01*
X157655545Y-68558859D01*
X157651795Y-68559830D01*
X157651175Y-68560060D01*
X157644123Y-68562433D01*
X157615270Y-68571186D01*
X157441467Y-68664086D01*
X157441460Y-68664090D01*
X157289116Y-68789116D01*
X157164090Y-68941460D01*
X157164086Y-68941467D01*
X157071188Y-69115266D01*
X157013975Y-69303870D01*
X156994659Y-69500000D01*
X154500500Y-69500000D01*
X154500500Y-67045889D01*
X159499416Y-67045889D01*
X159499459Y-67070000D01*
X159499500Y-67070099D01*
X159499617Y-67070383D01*
X159499618Y-67070384D01*
X159499808Y-67070462D01*
X159500000Y-67070541D01*
X159500002Y-67070539D01*
X159524616Y-67070524D01*
X159524616Y-67070528D01*
X159524760Y-67070500D01*
X173475240Y-67070500D01*
X173475383Y-67070528D01*
X173475384Y-67070524D01*
X173499997Y-67070539D01*
X173500000Y-67070541D01*
X173500383Y-67070383D01*
X173500500Y-67070099D01*
X173500541Y-67070000D01*
X173500540Y-67069997D01*
X173500583Y-67045889D01*
X173500500Y-67045467D01*
X173500500Y-54000000D01*
X175494659Y-54000000D01*
X175513975Y-54196129D01*
X175571188Y-54384733D01*
X175664086Y-54558532D01*
X175664090Y-54558539D01*
X175789116Y-54710883D01*
X175941460Y-54835909D01*
X175941467Y-54835913D01*
X176076093Y-54907872D01*
X176115273Y-54928814D01*
X176144157Y-54937575D01*
X176151195Y-54939946D01*
X176151791Y-54940166D01*
X176151799Y-54940170D01*
X176155570Y-54941146D01*
X176160422Y-54942509D01*
X176303868Y-54986024D01*
X176334662Y-54989056D01*
X176341911Y-54990344D01*
X176341955Y-54990063D01*
X176348178Y-54991016D01*
X176348182Y-54991017D01*
X176358423Y-54991536D01*
X176364229Y-54991968D01*
X176500000Y-55005341D01*
X176535203Y-55001873D01*
X176544500Y-55001653D01*
X176544498Y-55001610D01*
X176550768Y-55001291D01*
X176550780Y-55001292D01*
X176564926Y-54999124D01*
X176571482Y-54998300D01*
X176696132Y-54986024D01*
X176734291Y-54974448D01*
X176750827Y-54970694D01*
X176751296Y-54970573D01*
X176751299Y-54970573D01*
X176766956Y-54964774D01*
X176774006Y-54962400D01*
X176884727Y-54928814D01*
X176923920Y-54907864D01*
X176939301Y-54900945D01*
X176941530Y-54900120D01*
X176956842Y-54890575D01*
X176963918Y-54886485D01*
X177058533Y-54835913D01*
X177058534Y-54835912D01*
X177058533Y-54835912D01*
X177058538Y-54835910D01*
X177096513Y-54804744D01*
X177109559Y-54795385D01*
X177113684Y-54792815D01*
X177127071Y-54780088D01*
X177133805Y-54774139D01*
X177210883Y-54710883D01*
X177245082Y-54669211D01*
X177255480Y-54658027D01*
X177260715Y-54653052D01*
X177260717Y-54653048D01*
X177260719Y-54653047D01*
X177265618Y-54646007D01*
X177271154Y-54638053D01*
X177277050Y-54630258D01*
X177335910Y-54558538D01*
X177363641Y-54506656D01*
X177371203Y-54494308D01*
X177376601Y-54486553D01*
X177383534Y-54470396D01*
X177388110Y-54460878D01*
X177428814Y-54384727D01*
X177447362Y-54323580D01*
X177452060Y-54310713D01*
X177456600Y-54300135D01*
X177459924Y-54283957D01*
X177462705Y-54273002D01*
X177486024Y-54196132D01*
X177492798Y-54127345D01*
X177494737Y-54114556D01*
X177497435Y-54101429D01*
X177498041Y-54077434D01*
X177498593Y-54068510D01*
X177505341Y-54000000D01*
X177498593Y-53931493D01*
X177498041Y-53922561D01*
X177497435Y-53898571D01*
X177494735Y-53885435D01*
X177492799Y-53872657D01*
X177486024Y-53803868D01*
X177462714Y-53727027D01*
X177459920Y-53716022D01*
X177456600Y-53699865D01*
X177452062Y-53689290D01*
X177447354Y-53676391D01*
X177428814Y-53615273D01*
X177388114Y-53539130D01*
X177383528Y-53529589D01*
X177376602Y-53513450D01*
X177376601Y-53513447D01*
X177371213Y-53505706D01*
X177363636Y-53493334D01*
X177335910Y-53441462D01*
X177335908Y-53441460D01*
X177335908Y-53441459D01*
X177277069Y-53369765D01*
X177271143Y-53361931D01*
X177260716Y-53346949D01*
X177255486Y-53341977D01*
X177245068Y-53330771D01*
X177210883Y-53289116D01*
X177133830Y-53225880D01*
X177127067Y-53219905D01*
X177113686Y-53207187D01*
X177113684Y-53207185D01*
X177109560Y-53204614D01*
X177096493Y-53195239D01*
X177058540Y-53164091D01*
X177058532Y-53164086D01*
X176963957Y-53113535D01*
X176956821Y-53109410D01*
X176941537Y-53099884D01*
X176941532Y-53099881D01*
X176941530Y-53099880D01*
X176941528Y-53099879D01*
X176941522Y-53099876D01*
X176939293Y-53099051D01*
X176923912Y-53092130D01*
X176884728Y-53071186D01*
X176774036Y-53037607D01*
X176766973Y-53035231D01*
X176751300Y-53029427D01*
X176750854Y-53029312D01*
X176734276Y-53025547D01*
X176696130Y-53013975D01*
X176571508Y-53001701D01*
X176564893Y-53000869D01*
X176550786Y-52998708D01*
X176544504Y-52998390D01*
X176544506Y-52998347D01*
X176535205Y-52998125D01*
X176500003Y-52994659D01*
X176499999Y-52994659D01*
X176364257Y-53008027D01*
X176358392Y-53008464D01*
X176348187Y-53008982D01*
X176341974Y-53009934D01*
X176341931Y-53009654D01*
X176334679Y-53010941D01*
X176303869Y-53013975D01*
X176160446Y-53057482D01*
X176155545Y-53058859D01*
X176151795Y-53059830D01*
X176151175Y-53060060D01*
X176144123Y-53062433D01*
X176115270Y-53071186D01*
X175941467Y-53164086D01*
X175941460Y-53164090D01*
X175789116Y-53289116D01*
X175664090Y-53441460D01*
X175664086Y-53441467D01*
X175571188Y-53615266D01*
X175513975Y-53803870D01*
X175494659Y-54000000D01*
X173500500Y-54000000D01*
X173500500Y-53094759D01*
X173500528Y-53094616D01*
X173500524Y-53094616D01*
X173500539Y-53070002D01*
X173500541Y-53070000D01*
X173500462Y-53069808D01*
X173500384Y-53069618D01*
X173500380Y-53069614D01*
X173500194Y-53069538D01*
X173500002Y-53069459D01*
X173475446Y-53069459D01*
X173475240Y-53069500D01*
X159524760Y-53069500D01*
X159524554Y-53069459D01*
X159499998Y-53069459D01*
X159499807Y-53069538D01*
X159499619Y-53069615D01*
X159499615Y-53069618D01*
X159499459Y-53069999D01*
X159499476Y-53094616D01*
X159499471Y-53094616D01*
X159499500Y-53094759D01*
X159499500Y-67045467D01*
X159499416Y-67045889D01*
X154500500Y-67045889D01*
X154500500Y-62594759D01*
X154500528Y-62594616D01*
X154500524Y-62594616D01*
X154500539Y-62570002D01*
X154500541Y-62570000D01*
X154500462Y-62569808D01*
X154500384Y-62569618D01*
X154500380Y-62569614D01*
X154500194Y-62569538D01*
X154500002Y-62569459D01*
X154475446Y-62569459D01*
X154475240Y-62569500D01*
X140524760Y-62569500D01*
X140524554Y-62569459D01*
X140499998Y-62569459D01*
X140499807Y-62569538D01*
X140499619Y-62569615D01*
X140499615Y-62569618D01*
X140499459Y-62569999D01*
X140499476Y-62594616D01*
X140499471Y-62594616D01*
X140499500Y-62594759D01*
X140499500Y-76545467D01*
X140499416Y-76545889D01*
X116500500Y-76545889D01*
X116500500Y-74420889D01*
X121499416Y-74420889D01*
X121499459Y-74445000D01*
X121499500Y-74445099D01*
X121499617Y-74445383D01*
X121499618Y-74445384D01*
X121499808Y-74445462D01*
X121500000Y-74445541D01*
X121500002Y-74445539D01*
X121524616Y-74445524D01*
X121524616Y-74445528D01*
X121524760Y-74445500D01*
X135475240Y-74445500D01*
X135475383Y-74445528D01*
X135475384Y-74445524D01*
X135499997Y-74445539D01*
X135500000Y-74445541D01*
X135500383Y-74445383D01*
X135500500Y-74445099D01*
X135500541Y-74445000D01*
X135500540Y-74444997D01*
X135500583Y-74420889D01*
X135500500Y-74420467D01*
X135500500Y-60469759D01*
X135500528Y-60469616D01*
X135500524Y-60469616D01*
X135500539Y-60445002D01*
X135500541Y-60445000D01*
X135500462Y-60444808D01*
X135500384Y-60444618D01*
X135500380Y-60444614D01*
X135500194Y-60444538D01*
X135500002Y-60444459D01*
X135475446Y-60444459D01*
X135475240Y-60444500D01*
X121524760Y-60444500D01*
X121524554Y-60444459D01*
X121499998Y-60444459D01*
X121499807Y-60444538D01*
X121499619Y-60444615D01*
X121499615Y-60444618D01*
X121499459Y-60444999D01*
X121499476Y-60469616D01*
X121499471Y-60469616D01*
X121499500Y-60469759D01*
X121499500Y-74420467D01*
X121499416Y-74420889D01*
X116500500Y-74420889D01*
X116500500Y-64719759D01*
X116500528Y-64719616D01*
X116500524Y-64719616D01*
X116500539Y-64695002D01*
X116500541Y-64695000D01*
X116500462Y-64694808D01*
X116500384Y-64694618D01*
X116500380Y-64694614D01*
X116500194Y-64694538D01*
X116500002Y-64694459D01*
X116475446Y-64694459D01*
X116475240Y-64694500D01*
X102524760Y-64694500D01*
X102524554Y-64694459D01*
X102499998Y-64694459D01*
X102499807Y-64694538D01*
X102499619Y-64694615D01*
X102499615Y-64694618D01*
X102499459Y-64694999D01*
X102499476Y-64719616D01*
X102499471Y-64719616D01*
X102499500Y-64719759D01*
X102499500Y-78670467D01*
X102499416Y-78670889D01*
X97500500Y-78670889D01*
X97500500Y-76219759D01*
X97500528Y-76219616D01*
X97500524Y-76219616D01*
X97500539Y-76195002D01*
X97500541Y-76195000D01*
X97500462Y-76194808D01*
X97500384Y-76194618D01*
X97500380Y-76194614D01*
X97500194Y-76194538D01*
X97500002Y-76194459D01*
X97475446Y-76194459D01*
X97475240Y-76194500D01*
X83524760Y-76194500D01*
X83524554Y-76194459D01*
X83499998Y-76194459D01*
X83499807Y-76194538D01*
X83499619Y-76194615D01*
X83499615Y-76194618D01*
X83499459Y-76194999D01*
X83499476Y-76219616D01*
X83499471Y-76219616D01*
X83499500Y-76219759D01*
X83499500Y-90170467D01*
X83499416Y-90170889D01*
X78000500Y-90170889D01*
X78000500Y-71170889D01*
X83499416Y-71170889D01*
X83499459Y-71195000D01*
X83499500Y-71195099D01*
X83499617Y-71195383D01*
X83499618Y-71195384D01*
X83499808Y-71195462D01*
X83500000Y-71195541D01*
X83500002Y-71195539D01*
X83524616Y-71195524D01*
X83524616Y-71195528D01*
X83524760Y-71195500D01*
X97475240Y-71195500D01*
X97475383Y-71195528D01*
X97475384Y-71195524D01*
X97499997Y-71195539D01*
X97500000Y-71195541D01*
X97500383Y-71195383D01*
X97500500Y-71195099D01*
X97500541Y-71195000D01*
X97500540Y-71194997D01*
X97500583Y-71170889D01*
X97500500Y-71170467D01*
X97500500Y-59670889D01*
X102499416Y-59670889D01*
X102499459Y-59695000D01*
X102499500Y-59695099D01*
X102499617Y-59695383D01*
X102499618Y-59695384D01*
X102499808Y-59695462D01*
X102500000Y-59695541D01*
X102500002Y-59695539D01*
X102524616Y-59695524D01*
X102524616Y-59695528D01*
X102524760Y-59695500D01*
X116475240Y-59695500D01*
X116475383Y-59695528D01*
X116475384Y-59695524D01*
X116499997Y-59695539D01*
X116500000Y-59695541D01*
X116500383Y-59695383D01*
X116500500Y-59695099D01*
X116500541Y-59695000D01*
X116500540Y-59694997D01*
X116500583Y-59670889D01*
X116500500Y-59670467D01*
X116500500Y-58000000D01*
X118994659Y-58000000D01*
X119013975Y-58196129D01*
X119071188Y-58384733D01*
X119164086Y-58558532D01*
X119164090Y-58558539D01*
X119289116Y-58710883D01*
X119441460Y-58835909D01*
X119441467Y-58835913D01*
X119576093Y-58907872D01*
X119615273Y-58928814D01*
X119644157Y-58937575D01*
X119651195Y-58939946D01*
X119651791Y-58940166D01*
X119651799Y-58940170D01*
X119655570Y-58941146D01*
X119660422Y-58942509D01*
X119803868Y-58986024D01*
X119834662Y-58989056D01*
X119841911Y-58990344D01*
X119841955Y-58990063D01*
X119848178Y-58991016D01*
X119848182Y-58991017D01*
X119858423Y-58991536D01*
X119864229Y-58991968D01*
X120000000Y-59005341D01*
X120035203Y-59001873D01*
X120044500Y-59001653D01*
X120044498Y-59001610D01*
X120050768Y-59001291D01*
X120050780Y-59001292D01*
X120064926Y-58999124D01*
X120071482Y-58998300D01*
X120196132Y-58986024D01*
X120234291Y-58974448D01*
X120250827Y-58970694D01*
X120251296Y-58970573D01*
X120251299Y-58970573D01*
X120266956Y-58964774D01*
X120274006Y-58962400D01*
X120384727Y-58928814D01*
X120423920Y-58907864D01*
X120439301Y-58900945D01*
X120441530Y-58900120D01*
X120456842Y-58890575D01*
X120463918Y-58886485D01*
X120558533Y-58835913D01*
X120558534Y-58835912D01*
X120558533Y-58835912D01*
X120558538Y-58835910D01*
X120596513Y-58804744D01*
X120609559Y-58795385D01*
X120613684Y-58792815D01*
X120627071Y-58780088D01*
X120633805Y-58774139D01*
X120710883Y-58710883D01*
X120745082Y-58669211D01*
X120755480Y-58658027D01*
X120760715Y-58653052D01*
X120760717Y-58653048D01*
X120760719Y-58653047D01*
X120765618Y-58646007D01*
X120771154Y-58638053D01*
X120777050Y-58630258D01*
X120835910Y-58558538D01*
X120863641Y-58506656D01*
X120871203Y-58494308D01*
X120876601Y-58486553D01*
X120883534Y-58470396D01*
X120888110Y-58460878D01*
X120928814Y-58384727D01*
X120947362Y-58323580D01*
X120952060Y-58310713D01*
X120956600Y-58300135D01*
X120959924Y-58283957D01*
X120962705Y-58273002D01*
X120986024Y-58196132D01*
X120992798Y-58127345D01*
X120994737Y-58114556D01*
X120997435Y-58101429D01*
X120998041Y-58077434D01*
X120998593Y-58068510D01*
X121005341Y-58000000D01*
X120998593Y-57931493D01*
X120998041Y-57922561D01*
X120997435Y-57898571D01*
X120994735Y-57885435D01*
X120992799Y-57872657D01*
X120986024Y-57803868D01*
X120962714Y-57727027D01*
X120959920Y-57716022D01*
X120956600Y-57699865D01*
X120952062Y-57689290D01*
X120947354Y-57676391D01*
X120928814Y-57615273D01*
X120891727Y-57545889D01*
X140499416Y-57545889D01*
X140499459Y-57570000D01*
X140499500Y-57570099D01*
X140499617Y-57570383D01*
X140499618Y-57570384D01*
X140499808Y-57570462D01*
X140500000Y-57570541D01*
X140500002Y-57570539D01*
X140524616Y-57570524D01*
X140524616Y-57570528D01*
X140524760Y-57570500D01*
X154475240Y-57570500D01*
X154475383Y-57570528D01*
X154475384Y-57570524D01*
X154499997Y-57570539D01*
X154500000Y-57570541D01*
X154500383Y-57570383D01*
X154500500Y-57570099D01*
X154500541Y-57570000D01*
X154500540Y-57569997D01*
X154500583Y-57545889D01*
X154500500Y-57545467D01*
X154500500Y-43594759D01*
X154500528Y-43594616D01*
X154500524Y-43594616D01*
X154500539Y-43570002D01*
X154500541Y-43570000D01*
X154500462Y-43569808D01*
X154500384Y-43569618D01*
X154500380Y-43569614D01*
X154500194Y-43569538D01*
X154500002Y-43569459D01*
X154475446Y-43569459D01*
X154475240Y-43569500D01*
X140524760Y-43569500D01*
X140524554Y-43569459D01*
X140499998Y-43569459D01*
X140499807Y-43569538D01*
X140499619Y-43569615D01*
X140499615Y-43569618D01*
X140499459Y-43569999D01*
X140499476Y-43594616D01*
X140499471Y-43594616D01*
X140499500Y-43594759D01*
X140499500Y-57545467D01*
X140499416Y-57545889D01*
X120891727Y-57545889D01*
X120888114Y-57539130D01*
X120883528Y-57529589D01*
X120876602Y-57513450D01*
X120876601Y-57513447D01*
X120871213Y-57505706D01*
X120863636Y-57493334D01*
X120835910Y-57441462D01*
X120835908Y-57441460D01*
X120835908Y-57441459D01*
X120777069Y-57369765D01*
X120771143Y-57361931D01*
X120760716Y-57346949D01*
X120755486Y-57341977D01*
X120745068Y-57330771D01*
X120710883Y-57289116D01*
X120633830Y-57225880D01*
X120627067Y-57219905D01*
X120613686Y-57207187D01*
X120613684Y-57207185D01*
X120609560Y-57204614D01*
X120596493Y-57195239D01*
X120558540Y-57164091D01*
X120558532Y-57164086D01*
X120463957Y-57113535D01*
X120456821Y-57109410D01*
X120441537Y-57099884D01*
X120441532Y-57099881D01*
X120441530Y-57099880D01*
X120441528Y-57099879D01*
X120441522Y-57099876D01*
X120439293Y-57099051D01*
X120423912Y-57092130D01*
X120384728Y-57071186D01*
X120274036Y-57037607D01*
X120266973Y-57035231D01*
X120251300Y-57029427D01*
X120250854Y-57029312D01*
X120234276Y-57025547D01*
X120196130Y-57013975D01*
X120071508Y-57001701D01*
X120064893Y-57000869D01*
X120050786Y-56998708D01*
X120044504Y-56998390D01*
X120044506Y-56998347D01*
X120035205Y-56998125D01*
X120000003Y-56994659D01*
X119999999Y-56994659D01*
X119864257Y-57008027D01*
X119858392Y-57008464D01*
X119848187Y-57008982D01*
X119841974Y-57009934D01*
X119841931Y-57009654D01*
X119834679Y-57010941D01*
X119803869Y-57013975D01*
X119660446Y-57057482D01*
X119655545Y-57058859D01*
X119651795Y-57059830D01*
X119651175Y-57060060D01*
X119644123Y-57062433D01*
X119615270Y-57071186D01*
X119441467Y-57164086D01*
X119441460Y-57164090D01*
X119289116Y-57289116D01*
X119164090Y-57441460D01*
X119164086Y-57441467D01*
X119071188Y-57615266D01*
X119013975Y-57803870D01*
X118994659Y-58000000D01*
X116500500Y-58000000D01*
X116500500Y-55420889D01*
X121499416Y-55420889D01*
X121499459Y-55445000D01*
X121499500Y-55445099D01*
X121499617Y-55445383D01*
X121499618Y-55445384D01*
X121499808Y-55445462D01*
X121500000Y-55445541D01*
X121500002Y-55445539D01*
X121524616Y-55445524D01*
X121524616Y-55445528D01*
X121524760Y-55445500D01*
X135475240Y-55445500D01*
X135475383Y-55445528D01*
X135475384Y-55445524D01*
X135499997Y-55445539D01*
X135500000Y-55445541D01*
X135500383Y-55445383D01*
X135500500Y-55445099D01*
X135500541Y-55445000D01*
X135500540Y-55444997D01*
X135500583Y-55420889D01*
X135500500Y-55420467D01*
X135500500Y-43500000D01*
X156994659Y-43500000D01*
X157013975Y-43696129D01*
X157071188Y-43884733D01*
X157164086Y-44058532D01*
X157164090Y-44058539D01*
X157289116Y-44210883D01*
X157441460Y-44335909D01*
X157441467Y-44335913D01*
X157576093Y-44407872D01*
X157615273Y-44428814D01*
X157644157Y-44437575D01*
X157651195Y-44439946D01*
X157651791Y-44440166D01*
X157651799Y-44440170D01*
X157655570Y-44441146D01*
X157660422Y-44442509D01*
X157803868Y-44486024D01*
X157834662Y-44489056D01*
X157841911Y-44490344D01*
X157841955Y-44490063D01*
X157848178Y-44491016D01*
X157848182Y-44491017D01*
X157858423Y-44491536D01*
X157864229Y-44491968D01*
X158000000Y-44505341D01*
X158035203Y-44501873D01*
X158044500Y-44501653D01*
X158044498Y-44501610D01*
X158050768Y-44501291D01*
X158050780Y-44501292D01*
X158064926Y-44499124D01*
X158071482Y-44498300D01*
X158196132Y-44486024D01*
X158234291Y-44474448D01*
X158250827Y-44470694D01*
X158251296Y-44470573D01*
X158251299Y-44470573D01*
X158266956Y-44464774D01*
X158274006Y-44462400D01*
X158384727Y-44428814D01*
X158423920Y-44407864D01*
X158439301Y-44400945D01*
X158441530Y-44400120D01*
X158456842Y-44390575D01*
X158463918Y-44386485D01*
X158558533Y-44335913D01*
X158558534Y-44335912D01*
X158558533Y-44335912D01*
X158558538Y-44335910D01*
X158596513Y-44304744D01*
X158609559Y-44295385D01*
X158613684Y-44292815D01*
X158627071Y-44280088D01*
X158633805Y-44274139D01*
X158710883Y-44210883D01*
X158745082Y-44169211D01*
X158755480Y-44158027D01*
X158760715Y-44153052D01*
X158760717Y-44153048D01*
X158760719Y-44153047D01*
X158765618Y-44146007D01*
X158771154Y-44138053D01*
X158777050Y-44130258D01*
X158835910Y-44058538D01*
X158863641Y-44006656D01*
X158871203Y-43994308D01*
X158876601Y-43986553D01*
X158883534Y-43970396D01*
X158888110Y-43960878D01*
X158928814Y-43884727D01*
X158947362Y-43823580D01*
X158952060Y-43810713D01*
X158956600Y-43800135D01*
X158959924Y-43783957D01*
X158962705Y-43773002D01*
X158986024Y-43696132D01*
X158992798Y-43627345D01*
X158994737Y-43614556D01*
X158997435Y-43601429D01*
X158998041Y-43577434D01*
X158998593Y-43568510D01*
X159005341Y-43500000D01*
X158998593Y-43431493D01*
X158998041Y-43422561D01*
X158997435Y-43398571D01*
X158994735Y-43385435D01*
X158992799Y-43372657D01*
X158986024Y-43303868D01*
X158962714Y-43227027D01*
X158959920Y-43216022D01*
X158956600Y-43199865D01*
X158952062Y-43189290D01*
X158947354Y-43176391D01*
X158928814Y-43115273D01*
X158888114Y-43039130D01*
X158883528Y-43029589D01*
X158876602Y-43013450D01*
X158876601Y-43013447D01*
X158871213Y-43005706D01*
X158863636Y-42993334D01*
X158835910Y-42941462D01*
X158835908Y-42941460D01*
X158835908Y-42941459D01*
X158777069Y-42869765D01*
X158771143Y-42861931D01*
X158760716Y-42846949D01*
X158755486Y-42841977D01*
X158745068Y-42830771D01*
X158710883Y-42789116D01*
X158633830Y-42725880D01*
X158627067Y-42719905D01*
X158613686Y-42707187D01*
X158613684Y-42707185D01*
X158609560Y-42704614D01*
X158596493Y-42695239D01*
X158558540Y-42664091D01*
X158558532Y-42664086D01*
X158463957Y-42613535D01*
X158456821Y-42609410D01*
X158441537Y-42599884D01*
X158441532Y-42599881D01*
X158441530Y-42599880D01*
X158441528Y-42599879D01*
X158441522Y-42599876D01*
X158439293Y-42599051D01*
X158423912Y-42592130D01*
X158384728Y-42571186D01*
X158274036Y-42537607D01*
X158266973Y-42535231D01*
X158251300Y-42529427D01*
X158250854Y-42529312D01*
X158234276Y-42525547D01*
X158196130Y-42513975D01*
X158071508Y-42501701D01*
X158064893Y-42500869D01*
X158050786Y-42498708D01*
X158044504Y-42498390D01*
X158044506Y-42498347D01*
X158035205Y-42498125D01*
X158000003Y-42494659D01*
X157999999Y-42494659D01*
X157864257Y-42508027D01*
X157858392Y-42508464D01*
X157848187Y-42508982D01*
X157841974Y-42509934D01*
X157841931Y-42509654D01*
X157834679Y-42510941D01*
X157803869Y-42513975D01*
X157660446Y-42557482D01*
X157655545Y-42558859D01*
X157651795Y-42559830D01*
X157651175Y-42560060D01*
X157644123Y-42562433D01*
X157615270Y-42571186D01*
X157441467Y-42664086D01*
X157441460Y-42664090D01*
X157289116Y-42789116D01*
X157164090Y-42941460D01*
X157164086Y-42941467D01*
X157071188Y-43115266D01*
X157013975Y-43303870D01*
X156994659Y-43500000D01*
X135500500Y-43500000D01*
X135500500Y-41469759D01*
X135500528Y-41469616D01*
X135500524Y-41469616D01*
X135500539Y-41445002D01*
X135500541Y-41445000D01*
X135500462Y-41444808D01*
X135500384Y-41444618D01*
X135500380Y-41444614D01*
X135500194Y-41444538D01*
X135500002Y-41444459D01*
X135475446Y-41444459D01*
X135475240Y-41444500D01*
X121524760Y-41444500D01*
X121524554Y-41444459D01*
X121499998Y-41444459D01*
X121499807Y-41444538D01*
X121499619Y-41444615D01*
X121499615Y-41444618D01*
X121499459Y-41444999D01*
X121499476Y-41469616D01*
X121499471Y-41469616D01*
X121499500Y-41469759D01*
X121499500Y-55420467D01*
X121499416Y-55420889D01*
X116500500Y-55420889D01*
X116500500Y-45719759D01*
X116500528Y-45719616D01*
X116500524Y-45719616D01*
X116500539Y-45695002D01*
X116500541Y-45695000D01*
X116500462Y-45694808D01*
X116500384Y-45694618D01*
X116500380Y-45694614D01*
X116500194Y-45694538D01*
X116500002Y-45694459D01*
X116475446Y-45694459D01*
X116475240Y-45694500D01*
X102524760Y-45694500D01*
X102524554Y-45694459D01*
X102499998Y-45694459D01*
X102499807Y-45694538D01*
X102499619Y-45694615D01*
X102499615Y-45694618D01*
X102499459Y-45694999D01*
X102499476Y-45719616D01*
X102499471Y-45719616D01*
X102499500Y-45719759D01*
X102499500Y-59670467D01*
X102499416Y-59670889D01*
X97500500Y-59670889D01*
X97500500Y-57219759D01*
X97500528Y-57219616D01*
X97500524Y-57219616D01*
X97500539Y-57195002D01*
X97500541Y-57195000D01*
X97500462Y-57194808D01*
X97500384Y-57194618D01*
X97500380Y-57194614D01*
X97500194Y-57194538D01*
X97500002Y-57194459D01*
X97475446Y-57194459D01*
X97475240Y-57194500D01*
X83524760Y-57194500D01*
X83524554Y-57194459D01*
X83499998Y-57194459D01*
X83499807Y-57194538D01*
X83499619Y-57194615D01*
X83499615Y-57194618D01*
X83499459Y-57194999D01*
X83499476Y-57219616D01*
X83499471Y-57219616D01*
X83499500Y-57219759D01*
X83499500Y-71170467D01*
X83499416Y-71170889D01*
X78000500Y-71170889D01*
X78000500Y-52572812D01*
X78020185Y-52505773D01*
X78063706Y-52464738D01*
X80667685Y-51000000D01*
X84994659Y-51000000D01*
X85013975Y-51196129D01*
X85071188Y-51384733D01*
X85164086Y-51558532D01*
X85164090Y-51558539D01*
X85289116Y-51710883D01*
X85441460Y-51835909D01*
X85441467Y-51835913D01*
X85576093Y-51907872D01*
X85615273Y-51928814D01*
X85644157Y-51937575D01*
X85651195Y-51939946D01*
X85651791Y-51940166D01*
X85651799Y-51940170D01*
X85655570Y-51941146D01*
X85660422Y-51942509D01*
X85803868Y-51986024D01*
X85834662Y-51989056D01*
X85841911Y-51990344D01*
X85841955Y-51990063D01*
X85848178Y-51991016D01*
X85848182Y-51991017D01*
X85858423Y-51991536D01*
X85864229Y-51991968D01*
X86000000Y-52005341D01*
X86035203Y-52001873D01*
X86044500Y-52001653D01*
X86044498Y-52001610D01*
X86050768Y-52001291D01*
X86050780Y-52001292D01*
X86064926Y-51999124D01*
X86071482Y-51998300D01*
X86196132Y-51986024D01*
X86234291Y-51974448D01*
X86250827Y-51970694D01*
X86251296Y-51970573D01*
X86251299Y-51970573D01*
X86266956Y-51964774D01*
X86274006Y-51962400D01*
X86384727Y-51928814D01*
X86423920Y-51907864D01*
X86439301Y-51900945D01*
X86441530Y-51900120D01*
X86456842Y-51890575D01*
X86463918Y-51886485D01*
X86558533Y-51835913D01*
X86558534Y-51835912D01*
X86558533Y-51835912D01*
X86558538Y-51835910D01*
X86596513Y-51804744D01*
X86609559Y-51795385D01*
X86613684Y-51792815D01*
X86627071Y-51780088D01*
X86633805Y-51774139D01*
X86710883Y-51710883D01*
X86745082Y-51669211D01*
X86755480Y-51658027D01*
X86760715Y-51653052D01*
X86760717Y-51653048D01*
X86760719Y-51653047D01*
X86765618Y-51646007D01*
X86771154Y-51638053D01*
X86777050Y-51630258D01*
X86835910Y-51558538D01*
X86863641Y-51506656D01*
X86871203Y-51494308D01*
X86876601Y-51486553D01*
X86883534Y-51470396D01*
X86888110Y-51460878D01*
X86928814Y-51384727D01*
X86947362Y-51323580D01*
X86952060Y-51310713D01*
X86956600Y-51300135D01*
X86959924Y-51283957D01*
X86962705Y-51273002D01*
X86986024Y-51196132D01*
X86992798Y-51127345D01*
X86994737Y-51114556D01*
X86997435Y-51101429D01*
X86998041Y-51077434D01*
X86998593Y-51068510D01*
X87005341Y-51000000D01*
X86998593Y-50931493D01*
X86998041Y-50922561D01*
X86997435Y-50898571D01*
X86994735Y-50885435D01*
X86992799Y-50872657D01*
X86986024Y-50803868D01*
X86962714Y-50727027D01*
X86959920Y-50716022D01*
X86956600Y-50699865D01*
X86952062Y-50689290D01*
X86947354Y-50676391D01*
X86928814Y-50615273D01*
X86888114Y-50539130D01*
X86883528Y-50529589D01*
X86876602Y-50513450D01*
X86876601Y-50513447D01*
X86871213Y-50505706D01*
X86863636Y-50493334D01*
X86835910Y-50441462D01*
X86835908Y-50441460D01*
X86835908Y-50441459D01*
X86777069Y-50369765D01*
X86771143Y-50361931D01*
X86760716Y-50346949D01*
X86755486Y-50341977D01*
X86745068Y-50330771D01*
X86710883Y-50289116D01*
X86633830Y-50225880D01*
X86627067Y-50219905D01*
X86613686Y-50207187D01*
X86613684Y-50207185D01*
X86609560Y-50204614D01*
X86596493Y-50195239D01*
X86558540Y-50164091D01*
X86558532Y-50164086D01*
X86463957Y-50113535D01*
X86456821Y-50109410D01*
X86441537Y-50099884D01*
X86441532Y-50099881D01*
X86441530Y-50099880D01*
X86441528Y-50099879D01*
X86441522Y-50099876D01*
X86439293Y-50099051D01*
X86423912Y-50092130D01*
X86384728Y-50071186D01*
X86274036Y-50037607D01*
X86266973Y-50035231D01*
X86251300Y-50029427D01*
X86250854Y-50029312D01*
X86234276Y-50025547D01*
X86196130Y-50013975D01*
X86071508Y-50001701D01*
X86064893Y-50000869D01*
X86050786Y-49998708D01*
X86044504Y-49998390D01*
X86044506Y-49998347D01*
X86035205Y-49998125D01*
X86000003Y-49994659D01*
X85999999Y-49994659D01*
X85864257Y-50008027D01*
X85858392Y-50008464D01*
X85848187Y-50008982D01*
X85841974Y-50009934D01*
X85841931Y-50009654D01*
X85834679Y-50010941D01*
X85803869Y-50013975D01*
X85660446Y-50057482D01*
X85655545Y-50058859D01*
X85651795Y-50059830D01*
X85651175Y-50060060D01*
X85644123Y-50062433D01*
X85615270Y-50071186D01*
X85441467Y-50164086D01*
X85441460Y-50164090D01*
X85289116Y-50289116D01*
X85164090Y-50441460D01*
X85164086Y-50441467D01*
X85071188Y-50615266D01*
X85013975Y-50803870D01*
X84994659Y-51000000D01*
X80667685Y-51000000D01*
X97556575Y-41500000D01*
X113994659Y-41500000D01*
X114013975Y-41696129D01*
X114071188Y-41884733D01*
X114164086Y-42058532D01*
X114164090Y-42058539D01*
X114289116Y-42210883D01*
X114441460Y-42335909D01*
X114441467Y-42335913D01*
X114576093Y-42407872D01*
X114615273Y-42428814D01*
X114644157Y-42437575D01*
X114651195Y-42439946D01*
X114651791Y-42440166D01*
X114651799Y-42440170D01*
X114655570Y-42441146D01*
X114660422Y-42442509D01*
X114803868Y-42486024D01*
X114834662Y-42489056D01*
X114841911Y-42490344D01*
X114841955Y-42490063D01*
X114848178Y-42491016D01*
X114848182Y-42491017D01*
X114858423Y-42491536D01*
X114864229Y-42491968D01*
X115000000Y-42505341D01*
X115035203Y-42501873D01*
X115044500Y-42501653D01*
X115044498Y-42501610D01*
X115050768Y-42501291D01*
X115050780Y-42501292D01*
X115064926Y-42499124D01*
X115071482Y-42498300D01*
X115196132Y-42486024D01*
X115234291Y-42474448D01*
X115250827Y-42470694D01*
X115251296Y-42470573D01*
X115251299Y-42470573D01*
X115266956Y-42464774D01*
X115274006Y-42462400D01*
X115384727Y-42428814D01*
X115423920Y-42407864D01*
X115439301Y-42400945D01*
X115441530Y-42400120D01*
X115456842Y-42390575D01*
X115463918Y-42386485D01*
X115558533Y-42335913D01*
X115558534Y-42335912D01*
X115558533Y-42335912D01*
X115558538Y-42335910D01*
X115596513Y-42304744D01*
X115609559Y-42295385D01*
X115613684Y-42292815D01*
X115627071Y-42280088D01*
X115633805Y-42274139D01*
X115710883Y-42210883D01*
X115745082Y-42169211D01*
X115755480Y-42158027D01*
X115760715Y-42153052D01*
X115760717Y-42153048D01*
X115760719Y-42153047D01*
X115765618Y-42146007D01*
X115771154Y-42138053D01*
X115777050Y-42130258D01*
X115835910Y-42058538D01*
X115863641Y-42006656D01*
X115871203Y-41994308D01*
X115876601Y-41986553D01*
X115883534Y-41970396D01*
X115888110Y-41960878D01*
X115928814Y-41884727D01*
X115947362Y-41823580D01*
X115952060Y-41810713D01*
X115956600Y-41800135D01*
X115959924Y-41783957D01*
X115962705Y-41773002D01*
X115986024Y-41696132D01*
X115992798Y-41627345D01*
X115994737Y-41614556D01*
X115997435Y-41601429D01*
X115998041Y-41577434D01*
X115998593Y-41568510D01*
X116005341Y-41500000D01*
X115998593Y-41431493D01*
X115998041Y-41422561D01*
X115997435Y-41398571D01*
X115994735Y-41385435D01*
X115992799Y-41372657D01*
X115986024Y-41303868D01*
X115962714Y-41227027D01*
X115959920Y-41216022D01*
X115956600Y-41199865D01*
X115952062Y-41189290D01*
X115947354Y-41176391D01*
X115928814Y-41115273D01*
X115888114Y-41039130D01*
X115883528Y-41029589D01*
X115876602Y-41013450D01*
X115876601Y-41013447D01*
X115871213Y-41005706D01*
X115863636Y-40993334D01*
X115835910Y-40941462D01*
X115835908Y-40941460D01*
X115835908Y-40941459D01*
X115777069Y-40869765D01*
X115771143Y-40861931D01*
X115760716Y-40846949D01*
X115755486Y-40841977D01*
X115745068Y-40830771D01*
X115710883Y-40789116D01*
X115633830Y-40725880D01*
X115627067Y-40719905D01*
X115613686Y-40707187D01*
X115613684Y-40707185D01*
X115609560Y-40704614D01*
X115596493Y-40695239D01*
X115558540Y-40664091D01*
X115558532Y-40664086D01*
X115463957Y-40613535D01*
X115456821Y-40609410D01*
X115441537Y-40599884D01*
X115441532Y-40599881D01*
X115441530Y-40599880D01*
X115441528Y-40599879D01*
X115441522Y-40599876D01*
X115439293Y-40599051D01*
X115423912Y-40592130D01*
X115384728Y-40571186D01*
X115274036Y-40537607D01*
X115266973Y-40535231D01*
X115251300Y-40529427D01*
X115250854Y-40529312D01*
X115234276Y-40525547D01*
X115196130Y-40513975D01*
X115071508Y-40501701D01*
X115064893Y-40500869D01*
X115050786Y-40498708D01*
X115044504Y-40498390D01*
X115044506Y-40498347D01*
X115035205Y-40498125D01*
X115000003Y-40494659D01*
X114999999Y-40494659D01*
X114864257Y-40508027D01*
X114858392Y-40508464D01*
X114848187Y-40508982D01*
X114841974Y-40509934D01*
X114841931Y-40509654D01*
X114834679Y-40510941D01*
X114803869Y-40513975D01*
X114660446Y-40557482D01*
X114655545Y-40558859D01*
X114651795Y-40559830D01*
X114651175Y-40560060D01*
X114644123Y-40562433D01*
X114615270Y-40571186D01*
X114441467Y-40664086D01*
X114441460Y-40664090D01*
X114289116Y-40789116D01*
X114164090Y-40941460D01*
X114164086Y-40941467D01*
X114071188Y-41115266D01*
X114013975Y-41303870D01*
X113994659Y-41500000D01*
X97556575Y-41500000D01*
X101971820Y-39016425D01*
X102032612Y-39000500D01*
X154967389Y-39000500D01*
X155028181Y-39016425D01*
G37*
G04 #@! TD.AperFunction*
M02*
