G04 #@! TF.GenerationSoftware,KiCad,Pcbnew,7.0.10*
G04 #@! TF.CreationDate,2024-01-08T18:20:54+00:00*
G04 #@! TF.ProjectId,eobard-plate,656f6261-7264-42d7-906c-6174652e6b69,2.2*
G04 #@! TF.SameCoordinates,Original*
G04 #@! TF.FileFunction,Profile,NP*
%FSLAX46Y46*%
G04 Gerber Fmt 4.6, Leading zero omitted, Abs format (unit mm)*
G04 Created by KiCad (PCBNEW 7.0.10) date 2024-01-08 18:20:54*
%MOMM*%
%LPD*%
G01*
G04 APERTURE LIST*
G04 #@! TA.AperFunction,Profile*
%ADD10C,0.100000*%
G04 #@! TD*
G04 #@! TA.AperFunction,Profile*
%ADD11C,0.050000*%
G04 #@! TD*
G04 APERTURE END LIST*
D10*
X155000000Y-39000000D02*
X102000000Y-39000000D01*
X155500000Y-126500000D02*
G75*
G03*
X153500000Y-126500000I-1000000J0D01*
G01*
X153500000Y-126500000D02*
G75*
G03*
X155500000Y-126500000I1000000J0D01*
G01*
X186500000Y-148000000D02*
X197000000Y-129800000D01*
X159000000Y-43500000D02*
G75*
G03*
X157000000Y-43500000I-1000000J0D01*
G01*
X157000000Y-43500000D02*
G75*
G03*
X159000000Y-43500000I1000000J0D01*
G01*
X179000000Y-52500000D02*
X179000000Y-109000000D01*
X78000000Y-111500000D02*
X123250000Y-111500000D01*
X116000000Y-41500000D02*
G75*
G03*
X114000000Y-41500000I-1000000J0D01*
G01*
X114000000Y-41500000D02*
G75*
G03*
X116000000Y-41500000I1000000J0D01*
G01*
X159000000Y-69500000D02*
G75*
G03*
X157000000Y-69500000I-1000000J0D01*
G01*
X157000000Y-69500000D02*
G75*
G03*
X159000000Y-69500000I1000000J0D01*
G01*
X186500000Y-148000000D02*
X123250000Y-111500000D01*
X179000000Y-52500000D02*
X155000000Y-39000000D01*
X177500000Y-106500000D02*
G75*
G03*
X175500000Y-106500000I-1000000J0D01*
G01*
X175500000Y-106500000D02*
G75*
G03*
X177500000Y-106500000I1000000J0D01*
G01*
X124952000Y-109677200D02*
G75*
G03*
X122952000Y-109677200I-1000000J0D01*
G01*
X122952000Y-109677200D02*
G75*
G03*
X124952000Y-109677200I1000000J0D01*
G01*
X102000000Y-39000000D02*
X78000000Y-52500000D01*
X81500000Y-109000000D02*
G75*
G03*
X79500000Y-109000000I-1000000J0D01*
G01*
X79500000Y-109000000D02*
G75*
G03*
X81500000Y-109000000I1000000J0D01*
G01*
X87000000Y-51000000D02*
G75*
G03*
X85000000Y-51000000I-1000000J0D01*
G01*
X85000000Y-51000000D02*
G75*
G03*
X87000000Y-51000000I1000000J0D01*
G01*
X78000000Y-52500000D02*
X78000000Y-111500000D01*
X197000000Y-129800000D02*
X179000000Y-119400000D01*
X177500000Y-54000000D02*
G75*
G03*
X175500000Y-54000000I-1000000J0D01*
G01*
X175500000Y-54000000D02*
G75*
G03*
X177500000Y-54000000I1000000J0D01*
G01*
X121000000Y-58000000D02*
G75*
G03*
X119000000Y-58000000I-1000000J0D01*
G01*
X119000000Y-58000000D02*
G75*
G03*
X121000000Y-58000000I1000000J0D01*
G01*
X101500000Y-81500000D02*
G75*
G03*
X99500000Y-81500000I-1000000J0D01*
G01*
X99500000Y-81500000D02*
G75*
G03*
X101500000Y-81500000I1000000J0D01*
G01*
X195000000Y-130000000D02*
G75*
G03*
X193000000Y-130000000I-1000000J0D01*
G01*
X193000000Y-130000000D02*
G75*
G03*
X195000000Y-130000000I1000000J0D01*
G01*
X179000000Y-119400000D02*
X179000000Y-109000000D01*
D11*
X159500000Y-72070000D02*
X159500000Y-86070000D01*
X159500000Y-86070000D02*
X173500000Y-86070000D01*
X173500000Y-72070000D02*
X159500000Y-72070000D01*
X173500000Y-72070000D02*
X173500000Y-86070000D01*
X102500000Y-83695000D02*
X102500000Y-97695000D01*
X102500000Y-97695000D02*
X116500000Y-97695000D01*
X116500000Y-83695000D02*
X102500000Y-83695000D01*
X116500000Y-83695000D02*
X116500000Y-97695000D01*
X159500000Y-53070000D02*
X159500000Y-67070000D01*
X159500000Y-67070000D02*
X173500000Y-67070000D01*
X173500000Y-53070000D02*
X159500000Y-53070000D01*
X173500000Y-53070000D02*
X173500000Y-67070000D01*
X102500000Y-45695000D02*
X102500000Y-59695000D01*
X102500000Y-59695000D02*
X116500000Y-59695000D01*
X116500000Y-45695000D02*
X102500000Y-45695000D01*
X116500000Y-45695000D02*
X116500000Y-59695000D01*
X121500000Y-41445000D02*
X121500000Y-55445000D01*
X121500000Y-55445000D02*
X135500000Y-55445000D01*
X135500000Y-41445000D02*
X121500000Y-41445000D01*
X135500000Y-41445000D02*
X135500000Y-55445000D01*
X121500000Y-60445000D02*
X121500000Y-74445000D01*
X121500000Y-74445000D02*
X135500000Y-74445000D01*
X135500000Y-60445000D02*
X121500000Y-60445000D01*
X135500000Y-60445000D02*
X135500000Y-74445000D01*
X83500000Y-57195000D02*
X83500000Y-71195000D01*
X83500000Y-71195000D02*
X97500000Y-71195000D01*
X97500000Y-57195000D02*
X83500000Y-57195000D01*
X97500000Y-57195000D02*
X97500000Y-71195000D01*
X140500000Y-43570000D02*
X140500000Y-57570000D01*
X140500000Y-57570000D02*
X154500000Y-57570000D01*
X154500000Y-43570000D02*
X140500000Y-43570000D01*
X154500000Y-43570000D02*
X154500000Y-57570000D01*
X140500000Y-81570000D02*
X140500000Y-95570000D01*
X140500000Y-95570000D02*
X154500000Y-95570000D01*
X154500000Y-81570000D02*
X140500000Y-81570000D01*
X154500000Y-81570000D02*
X154500000Y-95570000D01*
X83500000Y-95195000D02*
X83500000Y-109195000D01*
X83500000Y-109195000D02*
X97500000Y-109195000D01*
X97500000Y-95195000D02*
X83500000Y-95195000D01*
X97500000Y-95195000D02*
X97500000Y-109195000D01*
X169062178Y-134502178D02*
X176062178Y-122377822D01*
X176062178Y-122377822D02*
X163937822Y-115377822D01*
X156937822Y-127502178D02*
X169062178Y-134502178D01*
X156937822Y-127502178D02*
X163937822Y-115377822D01*
X102500000Y-64695000D02*
X102500000Y-78695000D01*
X102500000Y-78695000D02*
X116500000Y-78695000D01*
X116500000Y-64695000D02*
X102500000Y-64695000D01*
X116500000Y-64695000D02*
X116500000Y-78695000D01*
X121500000Y-79445000D02*
X121500000Y-93445000D01*
X121500000Y-93445000D02*
X135500000Y-93445000D01*
X135500000Y-79445000D02*
X121500000Y-79445000D01*
X135500000Y-79445000D02*
X135500000Y-93445000D01*
X140500000Y-62570000D02*
X140500000Y-76570000D01*
X140500000Y-76570000D02*
X154500000Y-76570000D01*
X154500000Y-62570000D02*
X140500000Y-62570000D01*
X154500000Y-62570000D02*
X154500000Y-76570000D01*
X185538178Y-144235178D02*
X192538178Y-132110822D01*
X192538178Y-132110822D02*
X180413822Y-125110822D01*
X173413822Y-137235178D02*
X185538178Y-144235178D01*
X173413822Y-137235178D02*
X180413822Y-125110822D01*
X83500000Y-76195000D02*
X83500000Y-90195000D01*
X83500000Y-90195000D02*
X97500000Y-90195000D01*
X97500000Y-76195000D02*
X83500000Y-76195000D01*
X97500000Y-76195000D02*
X97500000Y-90195000D01*
X159500000Y-91070000D02*
X159500000Y-105070000D01*
X159500000Y-105070000D02*
X173500000Y-105070000D01*
X173500000Y-91070000D02*
X159500000Y-91070000D01*
X173500000Y-91070000D02*
X173500000Y-105070000D01*
M02*
