G04 #@! TF.GenerationSoftware,KiCad,Pcbnew,7.0.10*
G04 #@! TF.CreationDate,2024-01-08T18:20:54+00:00*
G04 #@! TF.ProjectId,eobard-plate,656f6261-7264-42d7-906c-6174652e6b69,2.2*
G04 #@! TF.SameCoordinates,Original*
G04 #@! TF.FileFunction,Legend,Top*
G04 #@! TF.FilePolarity,Positive*
%FSLAX46Y46*%
G04 Gerber Fmt 4.6, Leading zero omitted, Abs format (unit mm)*
G04 Created by KiCad (PCBNEW 7.0.10) date 2024-01-08 18:20:54*
%MOMM*%
%LPD*%
G01*
G04 APERTURE LIST*
G04 APERTURE END LIST*
G36*
X144801188Y-111748395D02*
G01*
X144929824Y-111780903D01*
X145104810Y-111845263D01*
X145349186Y-111949802D01*
X145629850Y-112077012D01*
X145750143Y-112103806D01*
X145964659Y-112124328D01*
X146249488Y-112138663D01*
X146580719Y-112146895D01*
X146934441Y-112149110D01*
X147286742Y-112145391D01*
X147613712Y-112135824D01*
X147891440Y-112120494D01*
X148096015Y-112099485D01*
X148203526Y-112072883D01*
X148210382Y-112067857D01*
X148329650Y-112009519D01*
X148498342Y-111989215D01*
X148666365Y-112005401D01*
X148783628Y-112056532D01*
X148805012Y-112086196D01*
X148813805Y-112201468D01*
X148716837Y-112257476D01*
X148691570Y-112261996D01*
X148565836Y-112305554D01*
X148513793Y-112333964D01*
X148414606Y-112360329D01*
X148221304Y-112384500D01*
X147964892Y-112403275D01*
X147763054Y-112411530D01*
X147406895Y-112421357D01*
X147020244Y-112431869D01*
X146668055Y-112441307D01*
X146552733Y-112444351D01*
X146296162Y-112445939D01*
X146084623Y-112437755D01*
X145951333Y-112421470D01*
X145927117Y-112412904D01*
X145821971Y-112383364D01*
X145650324Y-112367040D01*
X145599466Y-112365983D01*
X145428427Y-112355554D01*
X145315483Y-112330733D01*
X145300488Y-112321506D01*
X145202393Y-112271257D01*
X145180578Y-112266704D01*
X145083303Y-112235031D01*
X144918569Y-112166470D01*
X144807019Y-112115648D01*
X144614339Y-112000795D01*
X144513472Y-111890105D01*
X144509271Y-111800008D01*
X144606590Y-111746931D01*
X144695863Y-111739409D01*
X144801188Y-111748395D01*
G37*
G36*
X150905784Y-105851986D02*
G01*
X151237804Y-105952686D01*
X151476624Y-106100528D01*
X151486500Y-106109868D01*
X151622295Y-106225661D01*
X151730711Y-106291110D01*
X151754333Y-106296552D01*
X151824853Y-106337392D01*
X151829556Y-106359113D01*
X151878232Y-106418453D01*
X151900730Y-106421675D01*
X151990116Y-106460869D01*
X152137454Y-106561085D01*
X152310840Y-106696274D01*
X152478369Y-106840387D01*
X152608137Y-106967373D01*
X152666974Y-107047291D01*
X152732315Y-107185104D01*
X152761650Y-107234976D01*
X152844286Y-107399297D01*
X152908850Y-107582313D01*
X152921913Y-107641626D01*
X152953949Y-107746957D01*
X152985114Y-107822896D01*
X153002434Y-107984188D01*
X152966415Y-108133092D01*
X152927970Y-108310179D01*
X152956181Y-108386625D01*
X152987693Y-108477750D01*
X153007769Y-108651685D01*
X153016427Y-108870977D01*
X153013685Y-109098171D01*
X152999561Y-109295816D01*
X152974073Y-109426456D01*
X152955665Y-109455911D01*
X152909833Y-109540863D01*
X152893103Y-109670929D01*
X152850492Y-109921369D01*
X152737601Y-110199190D01*
X152594584Y-110425616D01*
X152491414Y-110583995D01*
X152429375Y-110719339D01*
X152349792Y-110829804D01*
X152193806Y-110962769D01*
X152000429Y-111092405D01*
X151808670Y-111192884D01*
X151657541Y-111238377D01*
X151644624Y-111238916D01*
X151525251Y-111267858D01*
X151485468Y-111301478D01*
X151406006Y-111333543D01*
X151240026Y-111353563D01*
X151025559Y-111361477D01*
X150800635Y-111357225D01*
X150603283Y-111340745D01*
X150471535Y-111311977D01*
X150453741Y-111303135D01*
X150340753Y-111262046D01*
X150153987Y-111221571D01*
X150027142Y-111202504D01*
X149774245Y-111148497D01*
X149634135Y-111062173D01*
X149620544Y-111043485D01*
X149534719Y-110949420D01*
X149480153Y-110926109D01*
X149382814Y-110877707D01*
X149257534Y-110757659D01*
X149137135Y-110603695D01*
X149054438Y-110453549D01*
X149044809Y-110425616D01*
X148990940Y-110285555D01*
X148899524Y-110085818D01*
X148818949Y-109925123D01*
X148723221Y-109725578D01*
X148657962Y-109558350D01*
X148639050Y-109475244D01*
X148611210Y-109365440D01*
X148585513Y-109336449D01*
X148555827Y-109262748D01*
X148524213Y-109096128D01*
X148496342Y-108868561D01*
X148489900Y-108797298D01*
X148461151Y-108543869D01*
X148423000Y-108328316D01*
X148382716Y-108189846D01*
X148374261Y-108173575D01*
X148332730Y-108036571D01*
X148371168Y-107911373D01*
X148424387Y-107757328D01*
X148470426Y-107551523D01*
X148479934Y-107491189D01*
X148512958Y-107307153D01*
X148550080Y-107173416D01*
X148562494Y-107147100D01*
X148643058Y-106978270D01*
X148704731Y-106773852D01*
X148732628Y-106590737D01*
X148727449Y-106516635D01*
X148743830Y-106395337D01*
X148855772Y-106241327D01*
X148933196Y-106163115D01*
X149105667Y-106021396D01*
X149290360Y-105931659D01*
X149540540Y-105869017D01*
X149577340Y-105862167D01*
X150052870Y-105803783D01*
X150503246Y-105801370D01*
X150905784Y-105851986D01*
G37*
G36*
X141776098Y-101175681D02*
G01*
X141949818Y-101196318D01*
X142036407Y-101226177D01*
X142038670Y-101229064D01*
X142126643Y-101281061D01*
X142202640Y-101291626D01*
X142383362Y-101329930D01*
X142622744Y-101432071D01*
X142885813Y-101578889D01*
X143137594Y-101751226D01*
X143312738Y-101899722D01*
X143516518Y-102088503D01*
X143731185Y-102275884D01*
X143852955Y-102375727D01*
X144015629Y-102506246D01*
X144145874Y-102615459D01*
X144185872Y-102651440D01*
X144313086Y-102715844D01*
X144410782Y-102730542D01*
X144561802Y-102777150D01*
X144694173Y-102888405D01*
X144759144Y-103021452D01*
X144760098Y-103037607D01*
X144810580Y-103078768D01*
X144933363Y-103078250D01*
X145085451Y-103042981D01*
X145223849Y-102979889D01*
X145254611Y-102957924D01*
X145344743Y-102934870D01*
X145538497Y-102916089D01*
X145814443Y-102901590D01*
X146151152Y-102891382D01*
X146527195Y-102885472D01*
X146921142Y-102883872D01*
X147311565Y-102886588D01*
X147677033Y-102893630D01*
X147996119Y-102905007D01*
X148247392Y-102920727D01*
X148409424Y-102940799D01*
X148457289Y-102956607D01*
X148571544Y-103009074D01*
X148751406Y-103056219D01*
X148817528Y-103067879D01*
X149035164Y-103116469D01*
X149232201Y-103184602D01*
X149267992Y-103201543D01*
X149449988Y-103262170D01*
X149668477Y-103292719D01*
X149705993Y-103293596D01*
X149903596Y-103272940D01*
X150036476Y-103195471D01*
X150092685Y-103132520D01*
X150224278Y-102999131D01*
X150351935Y-102913704D01*
X150511425Y-102837494D01*
X150593965Y-102793253D01*
X150747476Y-102705590D01*
X150812931Y-102668340D01*
X150934138Y-102605590D01*
X151114777Y-102518429D01*
X151203941Y-102476970D01*
X151413248Y-102379068D01*
X151606330Y-102285783D01*
X151662582Y-102257644D01*
X151831779Y-102192322D01*
X151970464Y-102167488D01*
X152120883Y-102126525D01*
X152212349Y-102066928D01*
X152346242Y-102002456D01*
X152589136Y-101956723D01*
X152854099Y-101933263D01*
X153122666Y-101920063D01*
X153306329Y-101925070D01*
X153444735Y-101954508D01*
X153577529Y-102014598D01*
X153656022Y-102059144D01*
X153805262Y-102154679D01*
X153922999Y-102256786D01*
X154012927Y-102380963D01*
X154078742Y-102542703D01*
X154124138Y-102757504D01*
X154152811Y-103040861D01*
X154168456Y-103408269D01*
X154174768Y-103875226D01*
X154175616Y-104238117D01*
X154172716Y-104791947D01*
X154163944Y-105223221D01*
X154149191Y-105534374D01*
X154128346Y-105727842D01*
X154105305Y-105802157D01*
X154055583Y-105913072D01*
X154008478Y-106096055D01*
X153989968Y-106202710D01*
X153954679Y-106395892D01*
X153915095Y-106538526D01*
X153895887Y-106578079D01*
X153864737Y-106670713D01*
X153834875Y-106845670D01*
X153817615Y-107009745D01*
X153777270Y-107279123D01*
X153706962Y-107433410D01*
X153681977Y-107456665D01*
X153611703Y-107582185D01*
X153626747Y-107782698D01*
X153715828Y-108021397D01*
X153747902Y-108159106D01*
X153760062Y-108376596D01*
X153754973Y-108648329D01*
X153735304Y-108948764D01*
X153703723Y-109252365D01*
X153662898Y-109533593D01*
X153615495Y-109766909D01*
X153564184Y-109926775D01*
X153511631Y-109987652D01*
X153510429Y-109987685D01*
X153464191Y-110039430D01*
X153455772Y-110097168D01*
X153427404Y-110229210D01*
X153362262Y-110385206D01*
X153305105Y-110520259D01*
X153293884Y-110603468D01*
X153294958Y-110605541D01*
X153269485Y-110669402D01*
X153177763Y-110796035D01*
X153044379Y-110952659D01*
X152901691Y-111125884D01*
X152801866Y-111276868D01*
X152767980Y-111365919D01*
X152722934Y-111495383D01*
X152674138Y-111551724D01*
X152594720Y-111656590D01*
X152580295Y-111712680D01*
X152533432Y-111818731D01*
X152502093Y-111845783D01*
X152397079Y-111956994D01*
X152306008Y-112118292D01*
X152267487Y-112260637D01*
X152224578Y-112363410D01*
X152142364Y-112458867D01*
X152048262Y-112572866D01*
X152017241Y-112656248D01*
X151974992Y-112733000D01*
X151945784Y-112740394D01*
X151864283Y-112778153D01*
X151720742Y-112876911D01*
X151554774Y-113008306D01*
X151206400Y-113266990D01*
X150904296Y-113418344D01*
X150724864Y-113461962D01*
X150582042Y-113510378D01*
X150419697Y-113604768D01*
X150410617Y-113611379D01*
X150224398Y-113703991D01*
X149975411Y-113769936D01*
X149888709Y-113782524D01*
X149686868Y-113812064D01*
X149534967Y-113846639D01*
X149483497Y-113867877D01*
X149382203Y-113912766D01*
X149223713Y-113956772D01*
X149217611Y-113958092D01*
X149014285Y-114001567D01*
X149014285Y-114433367D01*
X149046467Y-115019115D01*
X149138784Y-115566254D01*
X149284893Y-116040892D01*
X149338144Y-116163816D01*
X149437183Y-116363979D01*
X149521573Y-116515355D01*
X149573120Y-116585322D01*
X149573270Y-116585416D01*
X149619226Y-116663588D01*
X149661853Y-116811499D01*
X149665769Y-116831327D01*
X149720112Y-117015688D01*
X149811751Y-117237521D01*
X149860546Y-117335821D01*
X149939188Y-117503689D01*
X149986151Y-117670001D01*
X150008990Y-117876105D01*
X150015257Y-118163350D01*
X150015271Y-118182870D01*
X150008663Y-118434941D01*
X149990995Y-118636871D01*
X149965501Y-118757916D01*
X149952709Y-118777586D01*
X149898690Y-118866518D01*
X149890148Y-118927986D01*
X149839801Y-119087907D01*
X149700968Y-119187746D01*
X149491959Y-119232616D01*
X149231084Y-119227630D01*
X148936654Y-119177900D01*
X148626979Y-119088539D01*
X148320369Y-118964660D01*
X148035136Y-118811374D01*
X147789588Y-118633796D01*
X147602036Y-118437036D01*
X147503006Y-118261453D01*
X147421260Y-118115275D01*
X147338522Y-118063015D01*
X147278470Y-118109660D01*
X147262561Y-118210840D01*
X147239494Y-118343308D01*
X147200000Y-118402217D01*
X147157390Y-118485559D01*
X147137611Y-118636608D01*
X147137438Y-118652463D01*
X147119504Y-118807782D01*
X147075843Y-118901555D01*
X147071018Y-118905095D01*
X146999416Y-118991056D01*
X146946833Y-119098075D01*
X146862217Y-119229286D01*
X146778648Y-119289191D01*
X146640020Y-119362446D01*
X146558301Y-119422808D01*
X146487347Y-119471782D01*
X146390755Y-119508776D01*
X146246743Y-119537431D01*
X146033531Y-119561389D01*
X145729334Y-119584289D01*
X145509691Y-119598096D01*
X145261489Y-119607131D01*
X145061715Y-119603305D01*
X144942672Y-119587658D01*
X144925783Y-119579313D01*
X144842500Y-119529974D01*
X144829425Y-119528325D01*
X144756696Y-119491506D01*
X144632427Y-119400029D01*
X144595372Y-119369559D01*
X144435205Y-119168611D01*
X144310987Y-118882127D01*
X144238231Y-118548014D01*
X144231323Y-118480066D01*
X144207196Y-118338669D01*
X144175837Y-118266314D01*
X144157274Y-118188965D01*
X144143025Y-118017691D01*
X144135274Y-117783671D01*
X144134483Y-117676024D01*
X144127791Y-117425623D01*
X144109916Y-117225488D01*
X144084155Y-117106594D01*
X144071921Y-117088424D01*
X144029287Y-117003631D01*
X144011216Y-116855472D01*
X144018814Y-116702137D01*
X144053184Y-116601816D01*
X144062529Y-116593736D01*
X144090862Y-116520499D01*
X144121186Y-116352875D01*
X144148489Y-116121405D01*
X144157809Y-116013040D01*
X144183390Y-115759526D01*
X144215551Y-115552790D01*
X144248766Y-115425430D01*
X144261043Y-115404080D01*
X144297784Y-115308737D01*
X144319580Y-115138965D01*
X144322167Y-115053087D01*
X144331288Y-114870590D01*
X144354349Y-114743953D01*
X144367789Y-114717597D01*
X144393997Y-114633492D01*
X144411116Y-114468278D01*
X144414710Y-114347441D01*
X144421951Y-114154896D01*
X144449167Y-114057241D01*
X144507603Y-114024544D01*
X144536632Y-114022907D01*
X144650525Y-114081611D01*
X144710511Y-114210591D01*
X144734160Y-114377012D01*
X144732363Y-114580064D01*
X144709404Y-114775042D01*
X144669563Y-114917241D01*
X144638837Y-114958943D01*
X144610934Y-115031652D01*
X144580264Y-115198807D01*
X144551912Y-115429977D01*
X144541897Y-115539096D01*
X144515097Y-115789014D01*
X144482317Y-115988577D01*
X144449108Y-116106937D01*
X144436466Y-116124953D01*
X144412146Y-116200125D01*
X144394543Y-116372391D01*
X144383525Y-116613911D01*
X144378960Y-116896842D01*
X144380715Y-117193344D01*
X144388657Y-117475576D01*
X144402656Y-117715697D01*
X144422577Y-117885864D01*
X144445162Y-117955902D01*
X144488925Y-118058139D01*
X144509928Y-118221969D01*
X144510237Y-118242685D01*
X144534888Y-118445630D01*
X144593704Y-118623975D01*
X144594419Y-118625352D01*
X144675644Y-118814273D01*
X144721383Y-118957923D01*
X144826953Y-119132062D01*
X145038264Y-119245452D01*
X145350813Y-119296520D01*
X145675593Y-119291084D01*
X146059670Y-119233796D01*
X146368815Y-119118495D01*
X146610695Y-118934418D01*
X146792978Y-118670803D01*
X146923332Y-118316888D01*
X147009425Y-117861913D01*
X147055570Y-117354311D01*
X147075738Y-117101058D01*
X147102960Y-116950844D01*
X147143004Y-116881590D01*
X147182226Y-116869458D01*
X147309430Y-116924806D01*
X147408674Y-117062100D01*
X147448256Y-117231680D01*
X147477624Y-117377008D01*
X147548435Y-117564141D01*
X147575369Y-117620197D01*
X147652366Y-117786178D01*
X147696449Y-117910372D01*
X147700492Y-117936080D01*
X147742830Y-118024224D01*
X147848259Y-118157649D01*
X147984406Y-118302594D01*
X148118894Y-118425301D01*
X148219350Y-118492009D01*
X148237497Y-118496059D01*
X148336206Y-118539604D01*
X148385937Y-118586609D01*
X148487244Y-118660326D01*
X148658470Y-118744039D01*
X148753327Y-118780912D01*
X148959705Y-118857794D01*
X149139507Y-118930744D01*
X149192865Y-118954677D01*
X149295033Y-118986994D01*
X149383821Y-118956400D01*
X149499551Y-118845968D01*
X149528675Y-118813711D01*
X149621720Y-118703143D01*
X149675677Y-118605218D01*
X149698626Y-118483530D01*
X149698647Y-118301675D01*
X149688012Y-118095824D01*
X149642642Y-117720734D01*
X149557583Y-117410525D01*
X149440360Y-117187881D01*
X149360186Y-117107513D01*
X149329040Y-117041235D01*
X149339207Y-117024175D01*
X149331892Y-116953379D01*
X149266534Y-116822241D01*
X149227912Y-116761797D01*
X149133296Y-116599634D01*
X149080688Y-116465314D01*
X149076847Y-116436717D01*
X149042732Y-116305067D01*
X148992033Y-116210842D01*
X148935946Y-116079678D01*
X148884995Y-115878714D01*
X148862888Y-115744914D01*
X148826538Y-115539031D01*
X148780946Y-115379190D01*
X148752147Y-115322370D01*
X148723152Y-115228550D01*
X148698876Y-115040815D01*
X148682603Y-114790367D01*
X148677967Y-114617007D01*
X148669607Y-114301862D01*
X148652307Y-114101737D01*
X148623723Y-114006705D01*
X148581510Y-114006837D01*
X148545074Y-114054187D01*
X148468332Y-114081944D01*
X148298908Y-114101471D01*
X148068978Y-114112657D01*
X147810718Y-114115389D01*
X147556306Y-114109556D01*
X147337919Y-114095044D01*
X147187732Y-114071742D01*
X147152230Y-114059044D01*
X147046739Y-114029008D01*
X146848252Y-113993741D01*
X146588469Y-113958333D01*
X146386699Y-113936145D01*
X145798578Y-113873204D01*
X145323261Y-113811669D01*
X144948480Y-113749355D01*
X144661969Y-113684079D01*
X144451459Y-113613656D01*
X144375076Y-113578049D01*
X144206930Y-113523356D01*
X143990506Y-113493193D01*
X143925197Y-113491133D01*
X143746480Y-113478441D01*
X143625545Y-113446403D01*
X143602709Y-113428572D01*
X143513411Y-113373761D01*
X143457327Y-113366010D01*
X143336738Y-113337578D01*
X143167741Y-113266760D01*
X143117157Y-113240887D01*
X142930077Y-113160412D01*
X142759009Y-113117800D01*
X142727074Y-113115764D01*
X142606583Y-113088714D01*
X142570640Y-112988073D01*
X142570443Y-112974632D01*
X142515298Y-112836725D01*
X142386194Y-112751943D01*
X142256882Y-112672139D01*
X142071792Y-112530056D01*
X141863904Y-112351608D01*
X141789457Y-112283100D01*
X141568327Y-112078043D01*
X141348031Y-111878015D01*
X141168172Y-111718870D01*
X141132090Y-111687909D01*
X141014212Y-111581921D01*
X140915981Y-111473615D01*
X140820343Y-111337744D01*
X140710245Y-111149062D01*
X140568634Y-110882322D01*
X140505911Y-110760880D01*
X140404394Y-110581322D01*
X140312736Y-110448705D01*
X140271305Y-110406867D01*
X140198657Y-110322190D01*
X140222952Y-110253551D01*
X140286946Y-110237931D01*
X140358790Y-110231106D01*
X140371325Y-110189766D01*
X140324605Y-110082619D01*
X140287331Y-110010477D01*
X140220917Y-109854559D01*
X140213697Y-109822904D01*
X140593008Y-109822904D01*
X140599388Y-109907600D01*
X140600158Y-109909483D01*
X140657590Y-110067086D01*
X140676710Y-110128448D01*
X140729243Y-110221081D01*
X140763454Y-110237931D01*
X140812676Y-110288635D01*
X140818719Y-110330675D01*
X140864168Y-110437408D01*
X140979500Y-110586248D01*
X141133194Y-110746003D01*
X141293729Y-110885482D01*
X141429582Y-110973491D01*
X141483660Y-110988670D01*
X141616021Y-111015462D01*
X141666428Y-111045704D01*
X141816079Y-111123982D01*
X142063876Y-111180902D01*
X142384394Y-111214743D01*
X142752206Y-111223783D01*
X143141887Y-111206299D01*
X143477640Y-111168362D01*
X143726404Y-111124075D01*
X143930586Y-111063918D01*
X144113886Y-110972480D01*
X144300000Y-110834352D01*
X144512626Y-110634122D01*
X144775463Y-110356379D01*
X144847934Y-110277256D01*
X145354433Y-109722246D01*
X145348865Y-108820259D01*
X145341774Y-108437919D01*
X145326378Y-108139547D01*
X145303721Y-107938930D01*
X145275552Y-107850527D01*
X145233463Y-107739909D01*
X145241198Y-107695767D01*
X145236526Y-107573671D01*
X145213186Y-107531346D01*
X145161899Y-107421124D01*
X145115559Y-107250726D01*
X145109683Y-107220262D01*
X145051693Y-107013455D01*
X144959038Y-106785815D01*
X144929482Y-106726866D01*
X144825498Y-106572935D01*
X144669848Y-106389573D01*
X144488121Y-106201642D01*
X144305908Y-106034005D01*
X144148799Y-105911524D01*
X144042383Y-105859060D01*
X144035812Y-105858621D01*
X143936379Y-105815080D01*
X143888295Y-105769669D01*
X143782815Y-105703909D01*
X143610140Y-105648816D01*
X143552186Y-105637472D01*
X143368432Y-105595435D01*
X143232116Y-105543693D01*
X143209048Y-105528879D01*
X143107810Y-105500508D01*
X143055772Y-105535952D01*
X142949520Y-105583195D01*
X142779526Y-105607500D01*
X142741115Y-105608375D01*
X142528711Y-105641575D01*
X142305378Y-105727568D01*
X142107529Y-105845936D01*
X141971580Y-105976264D01*
X141933056Y-106061412D01*
X141855184Y-106186242D01*
X141734780Y-106241806D01*
X141555520Y-106317295D01*
X141431883Y-106401663D01*
X141325906Y-106526283D01*
X141227266Y-106687692D01*
X141153571Y-106848958D01*
X141122429Y-106973152D01*
X141137273Y-107019561D01*
X141186999Y-107003261D01*
X141194088Y-106963834D01*
X141244618Y-106863924D01*
X141287931Y-106836982D01*
X141370896Y-106767685D01*
X141381773Y-106730834D01*
X141427268Y-106644409D01*
X141532284Y-106536001D01*
X141649623Y-106448942D01*
X141716262Y-106423756D01*
X141788484Y-106384209D01*
X141920671Y-106284023D01*
X142043700Y-106180071D01*
X142225824Y-106041514D01*
X142420256Y-105947802D01*
X142656367Y-105891332D01*
X142963530Y-105864499D01*
X143282993Y-105859267D01*
X143688982Y-105902266D01*
X144016256Y-106035954D01*
X144278785Y-106269649D01*
X144490539Y-106612670D01*
X144524698Y-106687562D01*
X144592431Y-106809500D01*
X144648691Y-106859606D01*
X144694401Y-106909294D01*
X144697922Y-106937808D01*
X144725454Y-107045630D01*
X144789766Y-107191353D01*
X144836082Y-107333162D01*
X144880269Y-107559183D01*
X144914915Y-107828614D01*
X144923627Y-107928398D01*
X144947991Y-108180797D01*
X144977421Y-108382392D01*
X145007064Y-108503064D01*
X145019468Y-108523126D01*
X145061566Y-108612252D01*
X145071585Y-108776896D01*
X145052113Y-108972352D01*
X145005739Y-109153914D01*
X144979449Y-109214154D01*
X144911949Y-109385680D01*
X144885607Y-109530421D01*
X144859704Y-109656638D01*
X144822660Y-109706158D01*
X144768527Y-109795142D01*
X144760098Y-109855827D01*
X144716273Y-109963423D01*
X144607075Y-110109304D01*
X144465918Y-110258354D01*
X144326216Y-110375458D01*
X144221384Y-110425503D01*
X144217898Y-110425616D01*
X144141558Y-110462320D01*
X144134483Y-110486986D01*
X144081146Y-110545138D01*
X143966608Y-110590489D01*
X143776903Y-110654219D01*
X143638160Y-110716419D01*
X143492855Y-110756369D01*
X143257210Y-110783376D01*
X142965372Y-110797126D01*
X142651483Y-110797306D01*
X142349691Y-110783600D01*
X142094139Y-110755695D01*
X141976108Y-110731715D01*
X141752972Y-110680057D01*
X141496953Y-110630874D01*
X141418158Y-110617949D01*
X141134002Y-110524746D01*
X140933220Y-110353907D01*
X140829943Y-110119926D01*
X140819030Y-110003325D01*
X140803028Y-109860003D01*
X140740720Y-109805075D01*
X140686902Y-109800000D01*
X140593008Y-109822904D01*
X140213697Y-109822904D01*
X140193489Y-109734311D01*
X140151902Y-109603972D01*
X140125130Y-109569366D01*
X140095224Y-109473183D01*
X140085980Y-109286084D01*
X140088355Y-109214568D01*
X140398920Y-109214568D01*
X140414719Y-109385473D01*
X140414831Y-109386072D01*
X140457821Y-109533315D01*
X140510067Y-109609436D01*
X140520694Y-109612315D01*
X140555081Y-109558190D01*
X140541447Y-109412372D01*
X140540731Y-109408990D01*
X140501106Y-109220854D01*
X140469851Y-109068902D01*
X140472858Y-108944953D01*
X140505413Y-108893165D01*
X140544231Y-108816063D01*
X140564411Y-108676155D01*
X140565245Y-108521723D01*
X140546028Y-108401050D01*
X140513199Y-108361084D01*
X140475484Y-108417960D01*
X140441925Y-108565851D01*
X140415796Y-108770653D01*
X140400370Y-108998260D01*
X140398920Y-109214568D01*
X140088355Y-109214568D01*
X140094271Y-109036414D01*
X140116971Y-108752513D01*
X140150953Y-108462727D01*
X140193090Y-108195397D01*
X140240257Y-107978866D01*
X140289326Y-107841477D01*
X140319376Y-107808457D01*
X140368695Y-107737234D01*
X140381200Y-107652053D01*
X140415324Y-107507400D01*
X140497560Y-107340791D01*
X140504069Y-107330727D01*
X140551492Y-107203695D01*
X141006404Y-107203695D01*
X141037685Y-107234976D01*
X141068965Y-107203695D01*
X141037685Y-107172414D01*
X141006404Y-107203695D01*
X140551492Y-107203695D01*
X140589005Y-107103208D01*
X140561324Y-106874347D01*
X140492745Y-106753883D01*
X140460607Y-106658978D01*
X140428646Y-106475395D01*
X140402896Y-106239444D01*
X140399142Y-106190829D01*
X140375156Y-105948767D01*
X140343580Y-105751888D01*
X140310521Y-105636589D01*
X140304495Y-105626805D01*
X140279458Y-105533723D01*
X140259757Y-105342082D01*
X140245511Y-105078139D01*
X140236838Y-104768147D01*
X140233859Y-104438362D01*
X140234302Y-104387810D01*
X140444990Y-104387810D01*
X140464302Y-104520748D01*
X140496607Y-104570358D01*
X140520946Y-104642232D01*
X140547524Y-104813270D01*
X140573080Y-105057638D01*
X140593816Y-105340430D01*
X140615839Y-105634504D01*
X140642894Y-105883499D01*
X140671478Y-106060357D01*
X140696962Y-106137020D01*
X140748646Y-106246789D01*
X140756157Y-106309064D01*
X140779606Y-106403802D01*
X140807014Y-106421675D01*
X140890399Y-106375156D01*
X141006850Y-106261280D01*
X141122757Y-106118568D01*
X141204512Y-105985544D01*
X141218286Y-105950277D01*
X141289972Y-105865689D01*
X141444667Y-105752301D01*
X141649542Y-105628614D01*
X141871768Y-105513126D01*
X142078515Y-105424339D01*
X142226354Y-105382213D01*
X142354052Y-105359896D01*
X142554746Y-105322194D01*
X142726847Y-105288701D01*
X143201861Y-105240200D01*
X143640424Y-105297544D01*
X144074085Y-105466346D01*
X144238634Y-105557592D01*
X144532005Y-105745772D01*
X144779054Y-105930533D01*
X144961323Y-106096064D01*
X145060356Y-106226551D01*
X145072906Y-106272330D01*
X145116984Y-106359347D01*
X145137721Y-106370292D01*
X145199583Y-106441565D01*
X145270744Y-106591872D01*
X145334998Y-106777750D01*
X145376136Y-106955735D01*
X145382968Y-107027958D01*
X145407279Y-107151800D01*
X145440036Y-107198603D01*
X145475455Y-107274221D01*
X145512117Y-107436311D01*
X145536770Y-107607040D01*
X145568557Y-107812244D01*
X145607849Y-107962989D01*
X145638851Y-108018782D01*
X145660876Y-108091918D01*
X145679146Y-108266944D01*
X145692117Y-108520645D01*
X145698242Y-108829809D01*
X145698522Y-108914553D01*
X145698522Y-109773446D01*
X145513380Y-109990048D01*
X145401014Y-110134708D01*
X145333835Y-110246594D01*
X145325695Y-110274191D01*
X145284965Y-110349224D01*
X145178953Y-110488997D01*
X145028101Y-110667106D01*
X144978710Y-110722353D01*
X144602383Y-111071463D01*
X144214442Y-111298321D01*
X143810297Y-111405600D01*
X143804971Y-111406213D01*
X143604954Y-111439983D01*
X143439431Y-111486330D01*
X143410911Y-111498363D01*
X143247196Y-111537051D01*
X142995222Y-111550278D01*
X142686335Y-111541284D01*
X142351877Y-111513307D01*
X142023195Y-111469587D01*
X141731633Y-111413362D01*
X141508535Y-111347873D01*
X141399877Y-111290542D01*
X141331909Y-111258416D01*
X141319212Y-111276028D01*
X141362991Y-111355639D01*
X141474402Y-111484999D01*
X141623558Y-111635468D01*
X141780569Y-111778401D01*
X141915547Y-111885158D01*
X141998594Y-111927094D01*
X142094336Y-111964541D01*
X142244354Y-112060773D01*
X142355563Y-112146059D01*
X142512217Y-112267173D01*
X142632043Y-112346692D01*
X142675454Y-112365025D01*
X142756530Y-112406948D01*
X142884304Y-112511452D01*
X143023439Y-112646638D01*
X143138599Y-112780609D01*
X143144076Y-112788052D01*
X143255618Y-112881522D01*
X143443474Y-112987393D01*
X143663146Y-113085500D01*
X143870136Y-113155679D01*
X144005317Y-113178325D01*
X144109201Y-113200535D01*
X144134483Y-113232827D01*
X144190544Y-113271419D01*
X144333816Y-113310151D01*
X144444719Y-113328483D01*
X144629622Y-113361706D01*
X144756629Y-113400727D01*
X144786667Y-113420948D01*
X144859674Y-113449128D01*
X145026007Y-113478998D01*
X145254064Y-113505292D01*
X145332287Y-113511887D01*
X145573694Y-113536232D01*
X145763789Y-113566129D01*
X145870657Y-113596192D01*
X145881842Y-113604619D01*
X145954205Y-113630075D01*
X146126777Y-113661943D01*
X146375061Y-113696450D01*
X146674558Y-113729823D01*
X146729967Y-113735223D01*
X147035330Y-113766424D01*
X147293316Y-113796700D01*
X147479602Y-113822909D01*
X147569868Y-113841909D01*
X147574004Y-113844284D01*
X147655697Y-113857163D01*
X147846762Y-113852015D01*
X148132913Y-113829899D01*
X148499863Y-113791871D01*
X148845777Y-113750222D01*
X149087175Y-113713620D01*
X149283531Y-113672881D01*
X149398735Y-113635749D01*
X149408831Y-113629460D01*
X149509071Y-113591351D01*
X149688851Y-113555040D01*
X149841209Y-113535620D01*
X150084386Y-113492646D01*
X150320220Y-113419326D01*
X150511850Y-113330157D01*
X150622418Y-113239634D01*
X150630460Y-113225246D01*
X150702494Y-113182040D01*
X150737765Y-113178325D01*
X150834394Y-113139552D01*
X150976323Y-113041881D01*
X151037978Y-112990641D01*
X151179842Y-112877388D01*
X151288417Y-112810580D01*
X151314882Y-112802956D01*
X151401416Y-112757660D01*
X151540444Y-112638838D01*
X151708107Y-112472089D01*
X151880545Y-112283012D01*
X152033896Y-112097206D01*
X152144300Y-111940269D01*
X152177083Y-111877934D01*
X152245043Y-111707302D01*
X152260272Y-111636959D01*
X152222159Y-111653444D01*
X152169176Y-111703660D01*
X152026761Y-111784909D01*
X151931442Y-111801971D01*
X151790448Y-111829610D01*
X151726141Y-111867849D01*
X151636051Y-111894242D01*
X151447009Y-111909838D01*
X151184646Y-111915479D01*
X150874591Y-111912006D01*
X150542473Y-111900262D01*
X150213922Y-111881088D01*
X149914567Y-111855325D01*
X149670038Y-111823815D01*
X149534142Y-111795869D01*
X149307867Y-111710407D01*
X149103143Y-111594225D01*
X149030226Y-111535716D01*
X148897793Y-111425617D01*
X148793138Y-111366991D01*
X148776256Y-111364040D01*
X148720921Y-111310382D01*
X148701478Y-111201026D01*
X148647872Y-111013509D01*
X148490800Y-110773461D01*
X148263179Y-110517258D01*
X148171664Y-110401845D01*
X148138423Y-110321593D01*
X148095056Y-110227911D01*
X148045270Y-110175941D01*
X147984095Y-110086622D01*
X147988094Y-110040417D01*
X147986276Y-109947516D01*
X147961980Y-109906742D01*
X147917296Y-109803746D01*
X147873303Y-109626400D01*
X147854859Y-109518473D01*
X147819994Y-109325308D01*
X147781480Y-109182676D01*
X147763022Y-109143104D01*
X147722482Y-109032733D01*
X147686025Y-108834117D01*
X147655592Y-108577866D01*
X147633125Y-108294592D01*
X147632587Y-108282603D01*
X147901759Y-108282603D01*
X147920163Y-108454509D01*
X147943589Y-108508873D01*
X147985344Y-108629823D01*
X147982019Y-108736453D01*
X147980191Y-108878103D01*
X148006881Y-108950783D01*
X148047056Y-109049433D01*
X148087558Y-109221819D01*
X148102875Y-109313752D01*
X148195711Y-109651629D01*
X148366614Y-110007416D01*
X148589511Y-110329664D01*
X148655813Y-110404874D01*
X148791429Y-110565939D01*
X148896567Y-110718291D01*
X148913241Y-110748963D01*
X149023545Y-110887442D01*
X149124879Y-110956584D01*
X149240991Y-111064930D01*
X149264532Y-111188355D01*
X149281894Y-111304324D01*
X149357689Y-111366020D01*
X149499138Y-111400643D01*
X149668686Y-111440199D01*
X149784954Y-111483339D01*
X149796305Y-111490588D01*
X149906715Y-111544907D01*
X149983990Y-111569016D01*
X150131145Y-111588001D01*
X150367298Y-111600316D01*
X150656495Y-111605858D01*
X150962782Y-111604527D01*
X151250207Y-111596222D01*
X151482816Y-111580842D01*
X151547267Y-111573409D01*
X151713672Y-111538953D01*
X151861018Y-111473452D01*
X152023332Y-111356701D01*
X152234643Y-111168493D01*
X152244176Y-111159586D01*
X152424714Y-110979700D01*
X152562985Y-110821004D01*
X152637293Y-110709272D01*
X152644248Y-110684330D01*
X152681980Y-110564439D01*
X152767980Y-110425616D01*
X152855703Y-110282142D01*
X152891712Y-110163421D01*
X152925753Y-110050153D01*
X152955665Y-110018966D01*
X152999019Y-109935251D01*
X153018177Y-109785621D01*
X153018226Y-109777539D01*
X153039080Y-109614115D01*
X153089298Y-109503715D01*
X153089972Y-109503033D01*
X153127051Y-109402575D01*
X153152819Y-109205762D01*
X153158095Y-109111823D01*
X153393596Y-109111823D01*
X153416486Y-109163318D01*
X153435304Y-109153531D01*
X153442791Y-109079285D01*
X153435304Y-109070115D01*
X153398111Y-109078703D01*
X153393596Y-109111823D01*
X153158095Y-109111823D01*
X153167700Y-108940810D01*
X153172115Y-108635936D01*
X153166486Y-108319356D01*
X153151236Y-108019286D01*
X153126786Y-107763944D01*
X153093560Y-107581546D01*
X153060094Y-107506236D01*
X153031144Y-107420079D01*
X153018267Y-107268613D01*
X153018226Y-107259522D01*
X153000542Y-107107190D01*
X152957674Y-107017484D01*
X152954644Y-107015379D01*
X152920855Y-106937087D01*
X152930756Y-106911858D01*
X152908301Y-106843063D01*
X152819543Y-106718602D01*
X152690648Y-106567103D01*
X152547781Y-106417193D01*
X152417105Y-106297501D01*
X152324787Y-106236656D01*
X152311214Y-106233990D01*
X152239465Y-106195555D01*
X152104700Y-106094923D01*
X151940723Y-105957848D01*
X151734994Y-105800508D01*
X151535056Y-105685102D01*
X151414496Y-105642205D01*
X151273453Y-105600269D01*
X151205133Y-105549557D01*
X151203941Y-105542978D01*
X151148588Y-105504919D01*
X151010986Y-105484404D01*
X150964121Y-105483251D01*
X150799900Y-105474151D01*
X150696161Y-105451626D01*
X150686207Y-105445156D01*
X150600216Y-105416287D01*
X150444068Y-105399797D01*
X150266175Y-105396548D01*
X150114955Y-105407400D01*
X150038822Y-105433215D01*
X150038546Y-105433642D01*
X149961135Y-105467326D01*
X149813431Y-105483091D01*
X149796305Y-105483251D01*
X149643243Y-105498138D01*
X149553744Y-105534409D01*
X149550442Y-105538721D01*
X149470709Y-105587066D01*
X149322521Y-105630379D01*
X149306684Y-105633488D01*
X149137023Y-105697646D01*
X148938146Y-105817333D01*
X148837062Y-105895462D01*
X148645201Y-106094946D01*
X148449562Y-106356069D01*
X148275054Y-106639339D01*
X148146583Y-106905266D01*
X148094948Y-107072070D01*
X148053588Y-107229960D01*
X148007424Y-107331701D01*
X147961389Y-107446452D01*
X147951148Y-107519386D01*
X147942930Y-107645218D01*
X147927153Y-107847220D01*
X147911263Y-108035025D01*
X147901759Y-108282603D01*
X147632587Y-108282603D01*
X147620564Y-108014905D01*
X147619852Y-107769415D01*
X147632930Y-107588733D01*
X147659172Y-107505688D01*
X147692087Y-107416248D01*
X147700492Y-107322083D01*
X147726947Y-107192541D01*
X147767319Y-107138497D01*
X147809326Y-107052831D01*
X147802069Y-107013606D01*
X147811483Y-106918079D01*
X147867227Y-106749075D01*
X147954208Y-106549726D01*
X148047538Y-106349442D01*
X148113811Y-106192689D01*
X148138423Y-106114564D01*
X148188186Y-106047069D01*
X148232266Y-106023682D01*
X148315490Y-105940073D01*
X148326108Y-105891865D01*
X148355178Y-105807299D01*
X148380806Y-105796059D01*
X148454595Y-105756930D01*
X148583742Y-105656788D01*
X148675239Y-105576471D01*
X149003591Y-105353739D01*
X149371281Y-105243832D01*
X149526726Y-105233354D01*
X149665297Y-105212085D01*
X149733744Y-105170444D01*
X149809874Y-105142862D01*
X149976501Y-105123288D01*
X150199398Y-105111949D01*
X150444340Y-105109071D01*
X150677099Y-105114885D01*
X150863451Y-105129617D01*
X150969169Y-105153495D01*
X150979847Y-105162145D01*
X151057471Y-105201583D01*
X151213488Y-105237074D01*
X151289422Y-105247522D01*
X151530319Y-105308553D01*
X151752920Y-105418228D01*
X151775711Y-105434253D01*
X151931647Y-105543457D01*
X152057780Y-105621378D01*
X152079803Y-105632511D01*
X152251841Y-105724409D01*
X152458407Y-105854029D01*
X152667085Y-105998511D01*
X152845459Y-106134994D01*
X152961114Y-106240616D01*
X152982612Y-106269211D01*
X153060879Y-106385192D01*
X153105672Y-106431080D01*
X153162453Y-106507122D01*
X153247255Y-106658058D01*
X153305391Y-106775169D01*
X153387143Y-106940165D01*
X153431269Y-107000799D01*
X153449388Y-106967735D01*
X153452551Y-106910219D01*
X153473395Y-106773636D01*
X153510473Y-106708299D01*
X153548858Y-106631856D01*
X153588053Y-106472627D01*
X153607802Y-106350474D01*
X153650027Y-106136737D01*
X153709042Y-105957788D01*
X153741172Y-105897219D01*
X153796267Y-105756924D01*
X153828264Y-105556170D01*
X153831527Y-105473023D01*
X153843746Y-105290737D01*
X153874719Y-105165701D01*
X153894088Y-105139163D01*
X153917676Y-105063236D01*
X153936454Y-104877168D01*
X153949546Y-104595881D01*
X153956073Y-104234294D01*
X153956650Y-104075616D01*
X153952905Y-103686897D01*
X153942255Y-103372690D01*
X153925579Y-103147916D01*
X153903753Y-103027494D01*
X153894088Y-103012069D01*
X153840106Y-102923155D01*
X153831527Y-102861432D01*
X153789176Y-102762065D01*
X153678578Y-102612611D01*
X153536381Y-102458474D01*
X153279735Y-102251849D01*
X153040845Y-102162068D01*
X152805563Y-102184990D01*
X152720210Y-102219464D01*
X152591208Y-102282441D01*
X152421336Y-102366779D01*
X152403181Y-102375868D01*
X152226027Y-102446683D01*
X152071523Y-102480287D01*
X152059092Y-102480708D01*
X151914920Y-102514924D01*
X151747893Y-102597532D01*
X151735714Y-102605419D01*
X151549938Y-102692312D01*
X151361151Y-102730083D01*
X151356409Y-102730130D01*
X151149140Y-102786095D01*
X150984975Y-102918227D01*
X150857242Y-103035916D01*
X150757268Y-103101221D01*
X150737830Y-103105911D01*
X150661283Y-103147176D01*
X150528965Y-103254669D01*
X150389806Y-103385391D01*
X150217500Y-103544865D01*
X150081904Y-103629984D01*
X149940172Y-103662969D01*
X149846919Y-103666918D01*
X149676410Y-103656086D01*
X149565909Y-103626503D01*
X149550442Y-103613496D01*
X149471087Y-103565871D01*
X149321493Y-103521819D01*
X149296504Y-103516819D01*
X149151903Y-103476598D01*
X149078965Y-103430679D01*
X149076847Y-103422988D01*
X149021005Y-103384060D01*
X148878873Y-103343925D01*
X148779680Y-103326126D01*
X148584121Y-103285128D01*
X148433517Y-103232669D01*
X148394744Y-103209539D01*
X148303582Y-103185219D01*
X148109559Y-103165579D01*
X147834848Y-103150629D01*
X147501625Y-103140380D01*
X147132062Y-103134841D01*
X146748335Y-103134023D01*
X146372618Y-103137935D01*
X146027085Y-103146589D01*
X145733911Y-103159993D01*
X145515269Y-103178158D01*
X145393334Y-103201094D01*
X145379789Y-103208170D01*
X145258081Y-103271063D01*
X145089264Y-103322466D01*
X144941096Y-103366415D01*
X144857008Y-103414167D01*
X144855012Y-103416986D01*
X144797791Y-103404761D01*
X144680936Y-103321380D01*
X144555233Y-103208848D01*
X144317603Y-103005129D01*
X144055639Y-102841650D01*
X143759113Y-102702854D01*
X143567515Y-102605282D01*
X143364519Y-102464009D01*
X143118570Y-102256411D01*
X143049298Y-102193887D01*
X142737165Y-101927126D01*
X142466295Y-101741913D01*
X142202340Y-101620104D01*
X141910951Y-101543556D01*
X141775416Y-101521017D01*
X141535360Y-101489712D01*
X141383668Y-101484140D01*
X141285680Y-101507203D01*
X141206739Y-101561802D01*
X141198300Y-101569341D01*
X141072235Y-101727277D01*
X140942451Y-101958954D01*
X140833455Y-102216218D01*
X140782482Y-102386453D01*
X140737192Y-102540558D01*
X140693366Y-102636700D01*
X140671216Y-102721511D01*
X140646367Y-102902940D01*
X140622152Y-103152625D01*
X140605174Y-103387286D01*
X140582741Y-103671304D01*
X140554885Y-103909820D01*
X140525463Y-104074619D01*
X140502935Y-104134897D01*
X140458168Y-104238569D01*
X140444990Y-104387810D01*
X140234302Y-104387810D01*
X140236691Y-104115038D01*
X140245455Y-103824430D01*
X140260268Y-103592793D01*
X140281250Y-103446381D01*
X140294460Y-103412864D01*
X140330380Y-103312581D01*
X140364680Y-103122635D01*
X140391470Y-102878412D01*
X140397587Y-102793104D01*
X140426689Y-102502101D01*
X140471979Y-102251693D01*
X140525954Y-102082507D01*
X140530451Y-102073645D01*
X140599414Y-101921840D01*
X140630511Y-101809714D01*
X140630649Y-101805558D01*
X140671129Y-101679277D01*
X140771925Y-101511483D01*
X140903373Y-101347606D01*
X140975097Y-101278067D01*
X141092585Y-101214341D01*
X141277503Y-101179646D01*
X141550125Y-101168584D01*
X141776098Y-101175681D01*
G37*
%LPC*%
%LPD*%
M02*
