G04 #@! TF.GenerationSoftware,KiCad,Pcbnew,7.0.9*
G04 #@! TF.CreationDate,2023-12-10T23:46:28+00:00*
G04 #@! TF.ProjectId,eobard-plate,656f6261-7264-42d7-906c-6174652e6b69,2.2*
G04 #@! TF.SameCoordinates,Original*
G04 #@! TF.FileFunction,Legend,Bot*
G04 #@! TF.FilePolarity,Positive*
%FSLAX46Y46*%
G04 Gerber Fmt 4.6, Leading zero omitted, Abs format (unit mm)*
G04 Created by KiCad (PCBNEW 7.0.9) date 2023-12-10 23:46:28*
%MOMM*%
%LPD*%
G01*
G04 APERTURE LIST*
G04 APERTURE END LIST*
G36*
X149793410Y-111746931D02*
G01*
X149890729Y-111800008D01*
X149886528Y-111890105D01*
X149785661Y-112000795D01*
X149592981Y-112115648D01*
X149481431Y-112166470D01*
X149316697Y-112235031D01*
X149219422Y-112266704D01*
X149197607Y-112271257D01*
X149099512Y-112321506D01*
X149084517Y-112330733D01*
X148971573Y-112355554D01*
X148800534Y-112365983D01*
X148749676Y-112367040D01*
X148578029Y-112383364D01*
X148472883Y-112412904D01*
X148448667Y-112421470D01*
X148315377Y-112437755D01*
X148103838Y-112445939D01*
X147847267Y-112444351D01*
X147731945Y-112441307D01*
X147379756Y-112431869D01*
X146993105Y-112421357D01*
X146636946Y-112411530D01*
X146435108Y-112403275D01*
X146178696Y-112384500D01*
X145985394Y-112360329D01*
X145886207Y-112333964D01*
X145834164Y-112305554D01*
X145708430Y-112261996D01*
X145683163Y-112257476D01*
X145586195Y-112201468D01*
X145594988Y-112086196D01*
X145616372Y-112056532D01*
X145733635Y-112005401D01*
X145901658Y-111989215D01*
X146070350Y-112009519D01*
X146189618Y-112067857D01*
X146196474Y-112072883D01*
X146303985Y-112099485D01*
X146508560Y-112120494D01*
X146786288Y-112135824D01*
X147113258Y-112145391D01*
X147465559Y-112149110D01*
X147819281Y-112146895D01*
X148150512Y-112138663D01*
X148435341Y-112124328D01*
X148649857Y-112103806D01*
X148770150Y-112077012D01*
X149050814Y-111949802D01*
X149295190Y-111845263D01*
X149470176Y-111780903D01*
X149598812Y-111748395D01*
X149704137Y-111739409D01*
X149793410Y-111746931D01*
G37*
G36*
X144347130Y-105803783D02*
G01*
X144822660Y-105862167D01*
X144859460Y-105869017D01*
X145109640Y-105931659D01*
X145294333Y-106021396D01*
X145466804Y-106163115D01*
X145544228Y-106241327D01*
X145656170Y-106395337D01*
X145672551Y-106516635D01*
X145667372Y-106590737D01*
X145695269Y-106773852D01*
X145756942Y-106978270D01*
X145837506Y-107147100D01*
X145849920Y-107173416D01*
X145887042Y-107307153D01*
X145920066Y-107491189D01*
X145929574Y-107551523D01*
X145975613Y-107757328D01*
X146028832Y-107911373D01*
X146067270Y-108036571D01*
X146025739Y-108173575D01*
X146017284Y-108189846D01*
X145977000Y-108328316D01*
X145938849Y-108543869D01*
X145910100Y-108797298D01*
X145903658Y-108868561D01*
X145875787Y-109096128D01*
X145844173Y-109262748D01*
X145814487Y-109336449D01*
X145788790Y-109365440D01*
X145760950Y-109475244D01*
X145742038Y-109558350D01*
X145676779Y-109725578D01*
X145581051Y-109925123D01*
X145500476Y-110085818D01*
X145409060Y-110285555D01*
X145355191Y-110425616D01*
X145345562Y-110453549D01*
X145262865Y-110603695D01*
X145142466Y-110757659D01*
X145017186Y-110877707D01*
X144919847Y-110926109D01*
X144865281Y-110949420D01*
X144779456Y-111043485D01*
X144765865Y-111062173D01*
X144625755Y-111148497D01*
X144372858Y-111202504D01*
X144246013Y-111221571D01*
X144059247Y-111262046D01*
X143946259Y-111303135D01*
X143928465Y-111311977D01*
X143796717Y-111340745D01*
X143599365Y-111357225D01*
X143374441Y-111361477D01*
X143159974Y-111353563D01*
X142993994Y-111333543D01*
X142914532Y-111301478D01*
X142874749Y-111267858D01*
X142755376Y-111238916D01*
X142742459Y-111238377D01*
X142591330Y-111192884D01*
X142399571Y-111092405D01*
X142206194Y-110962769D01*
X142050208Y-110829804D01*
X141970625Y-110719339D01*
X141908586Y-110583995D01*
X141805416Y-110425616D01*
X141662399Y-110199190D01*
X141549508Y-109921369D01*
X141506897Y-109670929D01*
X141490167Y-109540863D01*
X141444335Y-109455911D01*
X141425927Y-109426456D01*
X141400439Y-109295816D01*
X141386315Y-109098171D01*
X141383573Y-108870977D01*
X141392231Y-108651685D01*
X141412307Y-108477750D01*
X141443819Y-108386625D01*
X141472030Y-108310179D01*
X141433585Y-108133092D01*
X141397566Y-107984188D01*
X141414886Y-107822896D01*
X141446051Y-107746957D01*
X141478087Y-107641626D01*
X141491150Y-107582313D01*
X141555714Y-107399297D01*
X141638350Y-107234976D01*
X141667685Y-107185104D01*
X141733026Y-107047291D01*
X141791863Y-106967373D01*
X141921631Y-106840387D01*
X142089160Y-106696274D01*
X142262546Y-106561085D01*
X142409884Y-106460869D01*
X142499270Y-106421675D01*
X142521768Y-106418453D01*
X142570444Y-106359113D01*
X142575147Y-106337392D01*
X142645667Y-106296552D01*
X142669289Y-106291110D01*
X142777705Y-106225661D01*
X142913500Y-106109868D01*
X142923376Y-106100528D01*
X143162196Y-105952686D01*
X143494216Y-105851986D01*
X143896754Y-105801370D01*
X144347130Y-105803783D01*
G37*
G36*
X154166141Y-104438362D02*
G01*
X154163162Y-104768147D01*
X154154489Y-105078139D01*
X154140243Y-105342082D01*
X154120542Y-105533723D01*
X154095505Y-105626805D01*
X154089479Y-105636589D01*
X154056420Y-105751888D01*
X154024844Y-105948767D01*
X154000858Y-106190829D01*
X153997104Y-106239444D01*
X153971354Y-106475395D01*
X153939393Y-106658978D01*
X153907255Y-106753883D01*
X153838676Y-106874347D01*
X153810995Y-107103208D01*
X153848508Y-107203695D01*
X153895931Y-107330727D01*
X153902440Y-107340791D01*
X153984676Y-107507400D01*
X154018800Y-107652053D01*
X154031305Y-107737234D01*
X154080624Y-107808457D01*
X154110674Y-107841477D01*
X154159743Y-107978866D01*
X154206910Y-108195397D01*
X154249047Y-108462727D01*
X154283029Y-108752513D01*
X154305729Y-109036414D01*
X154311645Y-109214568D01*
X154314020Y-109286084D01*
X154304776Y-109473183D01*
X154274870Y-109569366D01*
X154248098Y-109603972D01*
X154206511Y-109734311D01*
X154186303Y-109822904D01*
X154179083Y-109854559D01*
X154112669Y-110010477D01*
X154075395Y-110082619D01*
X154028675Y-110189766D01*
X154041210Y-110231106D01*
X154113054Y-110237931D01*
X154177048Y-110253551D01*
X154201343Y-110322190D01*
X154128695Y-110406867D01*
X154087264Y-110448705D01*
X153995606Y-110581322D01*
X153894089Y-110760880D01*
X153831366Y-110882322D01*
X153689755Y-111149062D01*
X153579657Y-111337744D01*
X153484019Y-111473615D01*
X153385788Y-111581921D01*
X153267910Y-111687909D01*
X153231828Y-111718870D01*
X153051969Y-111878015D01*
X152831673Y-112078043D01*
X152610543Y-112283100D01*
X152536096Y-112351608D01*
X152328208Y-112530056D01*
X152143118Y-112672139D01*
X152013806Y-112751943D01*
X151884702Y-112836725D01*
X151829557Y-112974632D01*
X151829360Y-112988073D01*
X151793417Y-113088714D01*
X151672926Y-113115764D01*
X151640991Y-113117800D01*
X151469923Y-113160412D01*
X151282843Y-113240887D01*
X151232259Y-113266760D01*
X151063262Y-113337578D01*
X150942673Y-113366010D01*
X150886589Y-113373761D01*
X150797291Y-113428572D01*
X150774455Y-113446403D01*
X150653520Y-113478441D01*
X150474803Y-113491133D01*
X150409494Y-113493193D01*
X150193070Y-113523356D01*
X150024924Y-113578049D01*
X149948541Y-113613656D01*
X149738031Y-113684079D01*
X149451520Y-113749355D01*
X149076739Y-113811669D01*
X148601422Y-113873204D01*
X148013301Y-113936145D01*
X147811531Y-113958333D01*
X147551748Y-113993741D01*
X147353261Y-114029008D01*
X147247770Y-114059044D01*
X147212268Y-114071742D01*
X147062081Y-114095044D01*
X146843694Y-114109556D01*
X146589282Y-114115389D01*
X146331022Y-114112657D01*
X146101092Y-114101471D01*
X145931668Y-114081944D01*
X145854926Y-114054187D01*
X145818490Y-114006837D01*
X145776277Y-114006705D01*
X145747693Y-114101737D01*
X145730393Y-114301862D01*
X145722033Y-114617007D01*
X145717397Y-114790367D01*
X145701124Y-115040815D01*
X145676848Y-115228550D01*
X145647853Y-115322370D01*
X145619054Y-115379190D01*
X145573462Y-115539031D01*
X145537112Y-115744914D01*
X145515005Y-115878714D01*
X145464054Y-116079678D01*
X145407967Y-116210842D01*
X145357268Y-116305067D01*
X145323153Y-116436717D01*
X145319312Y-116465314D01*
X145266704Y-116599634D01*
X145172088Y-116761797D01*
X145133466Y-116822241D01*
X145068108Y-116953379D01*
X145060793Y-117024175D01*
X145070960Y-117041235D01*
X145039814Y-117107513D01*
X144959640Y-117187881D01*
X144842417Y-117410525D01*
X144757358Y-117720734D01*
X144711988Y-118095824D01*
X144701353Y-118301675D01*
X144701374Y-118483530D01*
X144724323Y-118605218D01*
X144778280Y-118703143D01*
X144871325Y-118813711D01*
X144900449Y-118845968D01*
X145016179Y-118956400D01*
X145104967Y-118986994D01*
X145207135Y-118954677D01*
X145260493Y-118930744D01*
X145440295Y-118857794D01*
X145646673Y-118780912D01*
X145741530Y-118744039D01*
X145912756Y-118660326D01*
X146014063Y-118586609D01*
X146063794Y-118539604D01*
X146162503Y-118496059D01*
X146180650Y-118492009D01*
X146281106Y-118425301D01*
X146415594Y-118302594D01*
X146551741Y-118157649D01*
X146657170Y-118024224D01*
X146699508Y-117936080D01*
X146703551Y-117910372D01*
X146747634Y-117786178D01*
X146824631Y-117620197D01*
X146851565Y-117564141D01*
X146922376Y-117377008D01*
X146951744Y-117231680D01*
X146991326Y-117062100D01*
X147090570Y-116924806D01*
X147217774Y-116869458D01*
X147256996Y-116881590D01*
X147297040Y-116950844D01*
X147324262Y-117101058D01*
X147344430Y-117354311D01*
X147390575Y-117861913D01*
X147476668Y-118316888D01*
X147607022Y-118670803D01*
X147789305Y-118934418D01*
X148031185Y-119118495D01*
X148340330Y-119233796D01*
X148724407Y-119291084D01*
X149049187Y-119296520D01*
X149361736Y-119245452D01*
X149573047Y-119132062D01*
X149678617Y-118957923D01*
X149724356Y-118814273D01*
X149805581Y-118625352D01*
X149806296Y-118623975D01*
X149865112Y-118445630D01*
X149889763Y-118242685D01*
X149890072Y-118221969D01*
X149911075Y-118058139D01*
X149954838Y-117955902D01*
X149977423Y-117885864D01*
X149997344Y-117715697D01*
X150011343Y-117475576D01*
X150019285Y-117193344D01*
X150021040Y-116896842D01*
X150016475Y-116613911D01*
X150005457Y-116372391D01*
X149987854Y-116200125D01*
X149963534Y-116124953D01*
X149950892Y-116106937D01*
X149917683Y-115988577D01*
X149884903Y-115789014D01*
X149858103Y-115539096D01*
X149848088Y-115429977D01*
X149819736Y-115198807D01*
X149789066Y-115031652D01*
X149761163Y-114958943D01*
X149730437Y-114917241D01*
X149690596Y-114775042D01*
X149667637Y-114580064D01*
X149665840Y-114377012D01*
X149689489Y-114210591D01*
X149749475Y-114081611D01*
X149863368Y-114022907D01*
X149892397Y-114024544D01*
X149950833Y-114057241D01*
X149978049Y-114154896D01*
X149985290Y-114347441D01*
X149988884Y-114468278D01*
X150006003Y-114633492D01*
X150032211Y-114717597D01*
X150045651Y-114743953D01*
X150068712Y-114870590D01*
X150077833Y-115053087D01*
X150080420Y-115138965D01*
X150102216Y-115308737D01*
X150138957Y-115404080D01*
X150151234Y-115425430D01*
X150184449Y-115552790D01*
X150216610Y-115759526D01*
X150242191Y-116013040D01*
X150251511Y-116121405D01*
X150278814Y-116352875D01*
X150309138Y-116520499D01*
X150337471Y-116593736D01*
X150346816Y-116601816D01*
X150381186Y-116702137D01*
X150388784Y-116855472D01*
X150370713Y-117003631D01*
X150328079Y-117088424D01*
X150315845Y-117106594D01*
X150290084Y-117225488D01*
X150272209Y-117425623D01*
X150265517Y-117676024D01*
X150264726Y-117783671D01*
X150256975Y-118017691D01*
X150242726Y-118188965D01*
X150224163Y-118266314D01*
X150192804Y-118338669D01*
X150168677Y-118480066D01*
X150161769Y-118548014D01*
X150089013Y-118882127D01*
X149964795Y-119168611D01*
X149804628Y-119369559D01*
X149767573Y-119400029D01*
X149643304Y-119491506D01*
X149570575Y-119528325D01*
X149557500Y-119529974D01*
X149474217Y-119579313D01*
X149457328Y-119587658D01*
X149338285Y-119603305D01*
X149138511Y-119607131D01*
X148890309Y-119598096D01*
X148670666Y-119584289D01*
X148366469Y-119561389D01*
X148153257Y-119537431D01*
X148009245Y-119508776D01*
X147912653Y-119471782D01*
X147841699Y-119422808D01*
X147759980Y-119362446D01*
X147621352Y-119289191D01*
X147537783Y-119229286D01*
X147453167Y-119098075D01*
X147400584Y-118991056D01*
X147328982Y-118905095D01*
X147324157Y-118901555D01*
X147280496Y-118807782D01*
X147262562Y-118652463D01*
X147262389Y-118636608D01*
X147242610Y-118485559D01*
X147200000Y-118402217D01*
X147160506Y-118343308D01*
X147137439Y-118210840D01*
X147121530Y-118109660D01*
X147061478Y-118063015D01*
X146978740Y-118115275D01*
X146896994Y-118261453D01*
X146797964Y-118437036D01*
X146610412Y-118633796D01*
X146364864Y-118811374D01*
X146079631Y-118964660D01*
X145773021Y-119088539D01*
X145463346Y-119177900D01*
X145168916Y-119227630D01*
X144908041Y-119232616D01*
X144699032Y-119187746D01*
X144560199Y-119087907D01*
X144509852Y-118927986D01*
X144501310Y-118866518D01*
X144447291Y-118777586D01*
X144434499Y-118757916D01*
X144409005Y-118636871D01*
X144391337Y-118434941D01*
X144384729Y-118182870D01*
X144384743Y-118163350D01*
X144391010Y-117876105D01*
X144413849Y-117670001D01*
X144460812Y-117503689D01*
X144539454Y-117335821D01*
X144588249Y-117237521D01*
X144679888Y-117015688D01*
X144734231Y-116831327D01*
X144738147Y-116811499D01*
X144780774Y-116663588D01*
X144826730Y-116585416D01*
X144826880Y-116585322D01*
X144878427Y-116515355D01*
X144962817Y-116363979D01*
X145061856Y-116163816D01*
X145115107Y-116040892D01*
X145261216Y-115566254D01*
X145353533Y-115019115D01*
X145385715Y-114433367D01*
X145385715Y-114001567D01*
X145182389Y-113958092D01*
X145176287Y-113956772D01*
X145017797Y-113912766D01*
X144916503Y-113867877D01*
X144865033Y-113846639D01*
X144713132Y-113812064D01*
X144511291Y-113782524D01*
X144424589Y-113769936D01*
X144175602Y-113703991D01*
X143989383Y-113611379D01*
X143980303Y-113604768D01*
X143817958Y-113510378D01*
X143675136Y-113461962D01*
X143495704Y-113418344D01*
X143193600Y-113266990D01*
X142845226Y-113008306D01*
X142679258Y-112876911D01*
X142535717Y-112778153D01*
X142454216Y-112740394D01*
X142425008Y-112733000D01*
X142382759Y-112656248D01*
X142351738Y-112572866D01*
X142257636Y-112458867D01*
X142175422Y-112363410D01*
X142132513Y-112260637D01*
X142093992Y-112118292D01*
X142002921Y-111956994D01*
X141897907Y-111845783D01*
X141866568Y-111818731D01*
X141819705Y-111712680D01*
X141805280Y-111656590D01*
X141725862Y-111551724D01*
X141677066Y-111495383D01*
X141632020Y-111365919D01*
X141598134Y-111276868D01*
X141498309Y-111125884D01*
X141355621Y-110952659D01*
X141222237Y-110796035D01*
X141130515Y-110669402D01*
X141105042Y-110605541D01*
X141106116Y-110603468D01*
X141094895Y-110520259D01*
X141037738Y-110385206D01*
X140972596Y-110229210D01*
X140944228Y-110097168D01*
X140935809Y-110039430D01*
X140889571Y-109987685D01*
X140888369Y-109987652D01*
X140835816Y-109926775D01*
X140784505Y-109766909D01*
X140737102Y-109533593D01*
X140696277Y-109252365D01*
X140678273Y-109079285D01*
X140957209Y-109079285D01*
X140964696Y-109153531D01*
X140983514Y-109163318D01*
X141006404Y-109111823D01*
X141001889Y-109078703D01*
X140964696Y-109070115D01*
X140957209Y-109079285D01*
X140678273Y-109079285D01*
X140664696Y-108948764D01*
X140645027Y-108648329D01*
X140644795Y-108635936D01*
X141227885Y-108635936D01*
X141232300Y-108940810D01*
X141241905Y-109111823D01*
X141247181Y-109205762D01*
X141272949Y-109402575D01*
X141310028Y-109503033D01*
X141310702Y-109503715D01*
X141360920Y-109614115D01*
X141381774Y-109777539D01*
X141381823Y-109785621D01*
X141400981Y-109935251D01*
X141444335Y-110018966D01*
X141474247Y-110050153D01*
X141508288Y-110163421D01*
X141544297Y-110282142D01*
X141632020Y-110425616D01*
X141718020Y-110564439D01*
X141755752Y-110684330D01*
X141762707Y-110709272D01*
X141837015Y-110821004D01*
X141975286Y-110979700D01*
X142155824Y-111159586D01*
X142165357Y-111168493D01*
X142376668Y-111356701D01*
X142538982Y-111473452D01*
X142686328Y-111538953D01*
X142852733Y-111573409D01*
X142917184Y-111580842D01*
X143149793Y-111596222D01*
X143437218Y-111604527D01*
X143743505Y-111605858D01*
X144032702Y-111600316D01*
X144268855Y-111588001D01*
X144416010Y-111569016D01*
X144493285Y-111544907D01*
X144603695Y-111490588D01*
X144615046Y-111483339D01*
X144731314Y-111440199D01*
X144900862Y-111400643D01*
X145042311Y-111366020D01*
X145118106Y-111304324D01*
X145135468Y-111188355D01*
X145159009Y-111064930D01*
X145275121Y-110956584D01*
X145376455Y-110887442D01*
X145486759Y-110748963D01*
X145503433Y-110718291D01*
X145608571Y-110565939D01*
X145744187Y-110404874D01*
X145810489Y-110329664D01*
X146033386Y-110007416D01*
X146204289Y-109651629D01*
X146297125Y-109313752D01*
X146312442Y-109221819D01*
X146352944Y-109049433D01*
X146393119Y-108950783D01*
X146419809Y-108878103D01*
X146417981Y-108736453D01*
X146414656Y-108629823D01*
X146456411Y-108508873D01*
X146479837Y-108454509D01*
X146498241Y-108282603D01*
X146488737Y-108035025D01*
X146472847Y-107847220D01*
X146457070Y-107645218D01*
X146448852Y-107519386D01*
X146438611Y-107446452D01*
X146392576Y-107331701D01*
X146346412Y-107229960D01*
X146305052Y-107072070D01*
X146253417Y-106905266D01*
X146124946Y-106639339D01*
X145950438Y-106356069D01*
X145754799Y-106094946D01*
X145562938Y-105895462D01*
X145461854Y-105817333D01*
X145262977Y-105697646D01*
X145093316Y-105633488D01*
X145077479Y-105630379D01*
X144929291Y-105587066D01*
X144849558Y-105538721D01*
X144846256Y-105534409D01*
X144756757Y-105498138D01*
X144603695Y-105483251D01*
X144586569Y-105483091D01*
X144438865Y-105467326D01*
X144361454Y-105433642D01*
X144361178Y-105433215D01*
X144285045Y-105407400D01*
X144133825Y-105396548D01*
X143955932Y-105399797D01*
X143799784Y-105416287D01*
X143713793Y-105445156D01*
X143703839Y-105451626D01*
X143600100Y-105474151D01*
X143435879Y-105483251D01*
X143389014Y-105484404D01*
X143251412Y-105504919D01*
X143196059Y-105542978D01*
X143194867Y-105549557D01*
X143126547Y-105600269D01*
X142985504Y-105642205D01*
X142864944Y-105685102D01*
X142665006Y-105800508D01*
X142459277Y-105957848D01*
X142295300Y-106094923D01*
X142160535Y-106195555D01*
X142088786Y-106233990D01*
X142075213Y-106236656D01*
X141982895Y-106297501D01*
X141852219Y-106417193D01*
X141709352Y-106567103D01*
X141580457Y-106718602D01*
X141491699Y-106843063D01*
X141469244Y-106911858D01*
X141479145Y-106937087D01*
X141445356Y-107015379D01*
X141442326Y-107017484D01*
X141399458Y-107107190D01*
X141381774Y-107259522D01*
X141381733Y-107268613D01*
X141368856Y-107420079D01*
X141339906Y-107506236D01*
X141306440Y-107581546D01*
X141273214Y-107763944D01*
X141248764Y-108019286D01*
X141233514Y-108319356D01*
X141227885Y-108635936D01*
X140644795Y-108635936D01*
X140639938Y-108376596D01*
X140652098Y-108159106D01*
X140684172Y-108021397D01*
X140773253Y-107782698D01*
X140788297Y-107582185D01*
X140718023Y-107456665D01*
X140693038Y-107433410D01*
X140622730Y-107279123D01*
X140582385Y-107009745D01*
X140565125Y-106845670D01*
X140535263Y-106670713D01*
X140504113Y-106578079D01*
X140484905Y-106538526D01*
X140445321Y-106395892D01*
X140410032Y-106202710D01*
X140391522Y-106096055D01*
X140344417Y-105913072D01*
X140294695Y-105802157D01*
X140271654Y-105727842D01*
X140250809Y-105534374D01*
X140236056Y-105223221D01*
X140227284Y-104791947D01*
X140224384Y-104238117D01*
X140224764Y-104075616D01*
X140443350Y-104075616D01*
X140443927Y-104234294D01*
X140450454Y-104595881D01*
X140463546Y-104877168D01*
X140482324Y-105063236D01*
X140505912Y-105139163D01*
X140525281Y-105165701D01*
X140556254Y-105290737D01*
X140568473Y-105473023D01*
X140571736Y-105556170D01*
X140603733Y-105756924D01*
X140658828Y-105897219D01*
X140690958Y-105957788D01*
X140749973Y-106136737D01*
X140792198Y-106350474D01*
X140811947Y-106472627D01*
X140851142Y-106631856D01*
X140889527Y-106708299D01*
X140926605Y-106773636D01*
X140947449Y-106910219D01*
X140950612Y-106967735D01*
X140968731Y-107000799D01*
X141012857Y-106940165D01*
X141094609Y-106775169D01*
X141152745Y-106658058D01*
X141237547Y-106507122D01*
X141294328Y-106431080D01*
X141339121Y-106385192D01*
X141417388Y-106269211D01*
X141438886Y-106240616D01*
X141554541Y-106134994D01*
X141732915Y-105998511D01*
X141941593Y-105854029D01*
X142148159Y-105724409D01*
X142320197Y-105632511D01*
X142342220Y-105621378D01*
X142468353Y-105543457D01*
X142624289Y-105434253D01*
X142647080Y-105418228D01*
X142869681Y-105308553D01*
X143110578Y-105247522D01*
X143186512Y-105237074D01*
X143342529Y-105201583D01*
X143420153Y-105162145D01*
X143430831Y-105153495D01*
X143536549Y-105129617D01*
X143722901Y-105114885D01*
X143955660Y-105109071D01*
X144200602Y-105111949D01*
X144423499Y-105123288D01*
X144590126Y-105142862D01*
X144666256Y-105170444D01*
X144734703Y-105212085D01*
X144873274Y-105233354D01*
X145028719Y-105243832D01*
X145396409Y-105353739D01*
X145724761Y-105576471D01*
X145816258Y-105656788D01*
X145945405Y-105756930D01*
X146019194Y-105796059D01*
X146044822Y-105807299D01*
X146073892Y-105891865D01*
X146084510Y-105940073D01*
X146167734Y-106023682D01*
X146211814Y-106047069D01*
X146261577Y-106114564D01*
X146286189Y-106192689D01*
X146352462Y-106349442D01*
X146445792Y-106549726D01*
X146532773Y-106749075D01*
X146588517Y-106918079D01*
X146597931Y-107013606D01*
X146590674Y-107052831D01*
X146632681Y-107138497D01*
X146673053Y-107192541D01*
X146699508Y-107322083D01*
X146707913Y-107416248D01*
X146740828Y-107505688D01*
X146767070Y-107588733D01*
X146780148Y-107769415D01*
X146779436Y-108014905D01*
X146767413Y-108282603D01*
X146766875Y-108294592D01*
X146744408Y-108577866D01*
X146713975Y-108834117D01*
X146677518Y-109032733D01*
X146636978Y-109143104D01*
X146618520Y-109182676D01*
X146580006Y-109325308D01*
X146545141Y-109518473D01*
X146526697Y-109626400D01*
X146482704Y-109803746D01*
X146438020Y-109906742D01*
X146413724Y-109947516D01*
X146411906Y-110040417D01*
X146415905Y-110086622D01*
X146354730Y-110175941D01*
X146304944Y-110227911D01*
X146261577Y-110321593D01*
X146228336Y-110401845D01*
X146136821Y-110517258D01*
X145909200Y-110773461D01*
X145752128Y-111013509D01*
X145698522Y-111201026D01*
X145679079Y-111310382D01*
X145623744Y-111364040D01*
X145606862Y-111366991D01*
X145502207Y-111425617D01*
X145369774Y-111535716D01*
X145296857Y-111594225D01*
X145092133Y-111710407D01*
X144865858Y-111795869D01*
X144729962Y-111823815D01*
X144485433Y-111855325D01*
X144186078Y-111881088D01*
X143857527Y-111900262D01*
X143525409Y-111912006D01*
X143215354Y-111915479D01*
X142952991Y-111909838D01*
X142763949Y-111894242D01*
X142673859Y-111867849D01*
X142609552Y-111829610D01*
X142468558Y-111801971D01*
X142373239Y-111784909D01*
X142230824Y-111703660D01*
X142177841Y-111653444D01*
X142139728Y-111636959D01*
X142154957Y-111707302D01*
X142222917Y-111877934D01*
X142255700Y-111940269D01*
X142366104Y-112097206D01*
X142519455Y-112283012D01*
X142691893Y-112472089D01*
X142859556Y-112638838D01*
X142998584Y-112757660D01*
X143085118Y-112802956D01*
X143111583Y-112810580D01*
X143220158Y-112877388D01*
X143362022Y-112990641D01*
X143423677Y-113041881D01*
X143565606Y-113139552D01*
X143662235Y-113178325D01*
X143697506Y-113182040D01*
X143769540Y-113225246D01*
X143777582Y-113239634D01*
X143888150Y-113330157D01*
X144079780Y-113419326D01*
X144315614Y-113492646D01*
X144558791Y-113535620D01*
X144711149Y-113555040D01*
X144890929Y-113591351D01*
X144991169Y-113629460D01*
X145001265Y-113635749D01*
X145116469Y-113672881D01*
X145312825Y-113713620D01*
X145554223Y-113750222D01*
X145900137Y-113791871D01*
X146267087Y-113829899D01*
X146553238Y-113852015D01*
X146744303Y-113857163D01*
X146825996Y-113844284D01*
X146830132Y-113841909D01*
X146920398Y-113822909D01*
X147106684Y-113796700D01*
X147364670Y-113766424D01*
X147670033Y-113735223D01*
X147725442Y-113729823D01*
X148024939Y-113696450D01*
X148273223Y-113661943D01*
X148445795Y-113630075D01*
X148518158Y-113604619D01*
X148529343Y-113596192D01*
X148636211Y-113566129D01*
X148826306Y-113536232D01*
X149067713Y-113511887D01*
X149145936Y-113505292D01*
X149373993Y-113478998D01*
X149540326Y-113449128D01*
X149613333Y-113420948D01*
X149643371Y-113400727D01*
X149770378Y-113361706D01*
X149955281Y-113328483D01*
X150066184Y-113310151D01*
X150209456Y-113271419D01*
X150265517Y-113232827D01*
X150290799Y-113200535D01*
X150394683Y-113178325D01*
X150529864Y-113155679D01*
X150736854Y-113085500D01*
X150956526Y-112987393D01*
X151144382Y-112881522D01*
X151255924Y-112788052D01*
X151261401Y-112780609D01*
X151376561Y-112646638D01*
X151515696Y-112511452D01*
X151643470Y-112406948D01*
X151724546Y-112365025D01*
X151767957Y-112346692D01*
X151887783Y-112267173D01*
X152044437Y-112146059D01*
X152155646Y-112060773D01*
X152305664Y-111964541D01*
X152401406Y-111927094D01*
X152484453Y-111885158D01*
X152619431Y-111778401D01*
X152776442Y-111635468D01*
X152925598Y-111484999D01*
X153037009Y-111355639D01*
X153080788Y-111276028D01*
X153068091Y-111258416D01*
X153000123Y-111290542D01*
X152891465Y-111347873D01*
X152668367Y-111413362D01*
X152376805Y-111469587D01*
X152048123Y-111513307D01*
X151713665Y-111541284D01*
X151404778Y-111550278D01*
X151152804Y-111537051D01*
X150989089Y-111498363D01*
X150960569Y-111486330D01*
X150795046Y-111439983D01*
X150595029Y-111406213D01*
X150589703Y-111405600D01*
X150185558Y-111298321D01*
X149797617Y-111071463D01*
X149421290Y-110722353D01*
X149371899Y-110667106D01*
X149221047Y-110488997D01*
X149115035Y-110349224D01*
X149074305Y-110274191D01*
X149066165Y-110246594D01*
X148998986Y-110134708D01*
X148886620Y-109990048D01*
X148701478Y-109773446D01*
X148701478Y-109722246D01*
X149045567Y-109722246D01*
X149552066Y-110277256D01*
X149624537Y-110356379D01*
X149887374Y-110634122D01*
X150100000Y-110834352D01*
X150286114Y-110972480D01*
X150469414Y-111063918D01*
X150673596Y-111124075D01*
X150922360Y-111168362D01*
X151258113Y-111206299D01*
X151647794Y-111223783D01*
X152015606Y-111214743D01*
X152336124Y-111180902D01*
X152583921Y-111123982D01*
X152733572Y-111045704D01*
X152783979Y-111015462D01*
X152916340Y-110988670D01*
X152970418Y-110973491D01*
X153106271Y-110885482D01*
X153266806Y-110746003D01*
X153420500Y-110586248D01*
X153535832Y-110437408D01*
X153581281Y-110330675D01*
X153587324Y-110288635D01*
X153636546Y-110237931D01*
X153670757Y-110221081D01*
X153723290Y-110128448D01*
X153742410Y-110067086D01*
X153799842Y-109909483D01*
X153800612Y-109907600D01*
X153806992Y-109822904D01*
X153713098Y-109800000D01*
X153659280Y-109805075D01*
X153596972Y-109860003D01*
X153580970Y-110003325D01*
X153570057Y-110119926D01*
X153466780Y-110353907D01*
X153265998Y-110524746D01*
X152981842Y-110617949D01*
X152903047Y-110630874D01*
X152647028Y-110680057D01*
X152423892Y-110731715D01*
X152305861Y-110755695D01*
X152050309Y-110783600D01*
X151748517Y-110797306D01*
X151434628Y-110797126D01*
X151142790Y-110783376D01*
X150907145Y-110756369D01*
X150761840Y-110716419D01*
X150623097Y-110654219D01*
X150433392Y-110590489D01*
X150318854Y-110545138D01*
X150265517Y-110486986D01*
X150258442Y-110462320D01*
X150182102Y-110425616D01*
X150178616Y-110425503D01*
X150073784Y-110375458D01*
X149934082Y-110258354D01*
X149792925Y-110109304D01*
X149683727Y-109963423D01*
X149639902Y-109855827D01*
X149631473Y-109795142D01*
X149577340Y-109706158D01*
X149540296Y-109656638D01*
X149514393Y-109530421D01*
X149488051Y-109385680D01*
X149420551Y-109214154D01*
X149394261Y-109153914D01*
X149347887Y-108972352D01*
X149328415Y-108776896D01*
X149338434Y-108612252D01*
X149380532Y-108523126D01*
X149381399Y-108521723D01*
X153834755Y-108521723D01*
X153835589Y-108676155D01*
X153855769Y-108816063D01*
X153894587Y-108893165D01*
X153927142Y-108944953D01*
X153930149Y-109068902D01*
X153898894Y-109220854D01*
X153859269Y-109408990D01*
X153858553Y-109412372D01*
X153844919Y-109558190D01*
X153879306Y-109612315D01*
X153889933Y-109609436D01*
X153942179Y-109533315D01*
X153985169Y-109386072D01*
X153985281Y-109385473D01*
X154001080Y-109214568D01*
X153999630Y-108998260D01*
X153984204Y-108770653D01*
X153958075Y-108565851D01*
X153924516Y-108417960D01*
X153886801Y-108361084D01*
X153853972Y-108401050D01*
X153834755Y-108521723D01*
X149381399Y-108521723D01*
X149392936Y-108503064D01*
X149422579Y-108382392D01*
X149452009Y-108180797D01*
X149476373Y-107928398D01*
X149485085Y-107828614D01*
X149519731Y-107559183D01*
X149563918Y-107333162D01*
X149606203Y-107203695D01*
X153331035Y-107203695D01*
X153362315Y-107234976D01*
X153393596Y-107203695D01*
X153362315Y-107172414D01*
X153331035Y-107203695D01*
X149606203Y-107203695D01*
X149610234Y-107191353D01*
X149674546Y-107045630D01*
X149702078Y-106937808D01*
X149705599Y-106909294D01*
X149751309Y-106859606D01*
X149807569Y-106809500D01*
X149875302Y-106687562D01*
X149909461Y-106612670D01*
X150121215Y-106269649D01*
X150383744Y-106035954D01*
X150711018Y-105902266D01*
X151117007Y-105859267D01*
X151436470Y-105864499D01*
X151743633Y-105891332D01*
X151979744Y-105947802D01*
X152174176Y-106041514D01*
X152356300Y-106180071D01*
X152479329Y-106284023D01*
X152611516Y-106384209D01*
X152683738Y-106423756D01*
X152750377Y-106448942D01*
X152867716Y-106536001D01*
X152972732Y-106644409D01*
X153018227Y-106730834D01*
X153029104Y-106767685D01*
X153112069Y-106836982D01*
X153155382Y-106863924D01*
X153205912Y-106963834D01*
X153213001Y-107003261D01*
X153262727Y-107019561D01*
X153277571Y-106973152D01*
X153246429Y-106848958D01*
X153172734Y-106687692D01*
X153074094Y-106526283D01*
X152968117Y-106401663D01*
X152844480Y-106317295D01*
X152665220Y-106241806D01*
X152544816Y-106186242D01*
X152466944Y-106061412D01*
X152428420Y-105976264D01*
X152292471Y-105845936D01*
X152094622Y-105727568D01*
X151871289Y-105641575D01*
X151658885Y-105608375D01*
X151620474Y-105607500D01*
X151450480Y-105583195D01*
X151344228Y-105535952D01*
X151292190Y-105500508D01*
X151190952Y-105528879D01*
X151167884Y-105543693D01*
X151031568Y-105595435D01*
X150847814Y-105637472D01*
X150789860Y-105648816D01*
X150617185Y-105703909D01*
X150511705Y-105769669D01*
X150463621Y-105815080D01*
X150364188Y-105858621D01*
X150357617Y-105859060D01*
X150251201Y-105911524D01*
X150094092Y-106034005D01*
X149911879Y-106201642D01*
X149730152Y-106389573D01*
X149574502Y-106572935D01*
X149470518Y-106726866D01*
X149440962Y-106785815D01*
X149348307Y-107013455D01*
X149290317Y-107220262D01*
X149284441Y-107250726D01*
X149238101Y-107421124D01*
X149186814Y-107531346D01*
X149163474Y-107573671D01*
X149158802Y-107695767D01*
X149166537Y-107739909D01*
X149124448Y-107850527D01*
X149096279Y-107938930D01*
X149073622Y-108139547D01*
X149058226Y-108437919D01*
X149051135Y-108820259D01*
X149045567Y-109722246D01*
X148701478Y-109722246D01*
X148701478Y-108914553D01*
X148701758Y-108829809D01*
X148707883Y-108520645D01*
X148720854Y-108266944D01*
X148739124Y-108091918D01*
X148761149Y-108018782D01*
X148792151Y-107962989D01*
X148831443Y-107812244D01*
X148863230Y-107607040D01*
X148887883Y-107436311D01*
X148924545Y-107274221D01*
X148959964Y-107198603D01*
X148992721Y-107151800D01*
X149017032Y-107027958D01*
X149023864Y-106955735D01*
X149065002Y-106777750D01*
X149129256Y-106591872D01*
X149200417Y-106441565D01*
X149262279Y-106370292D01*
X149283016Y-106359347D01*
X149327094Y-106272330D01*
X149339644Y-106226551D01*
X149438677Y-106096064D01*
X149620946Y-105930533D01*
X149867995Y-105745772D01*
X150161366Y-105557592D01*
X150325915Y-105466346D01*
X150759576Y-105297544D01*
X151198139Y-105240200D01*
X151673153Y-105288701D01*
X151845254Y-105322194D01*
X152045948Y-105359896D01*
X152173646Y-105382213D01*
X152321485Y-105424339D01*
X152528232Y-105513126D01*
X152750458Y-105628614D01*
X152955333Y-105752301D01*
X153110028Y-105865689D01*
X153181714Y-105950277D01*
X153195488Y-105985544D01*
X153277243Y-106118568D01*
X153393150Y-106261280D01*
X153509601Y-106375156D01*
X153592986Y-106421675D01*
X153620394Y-106403802D01*
X153643843Y-106309064D01*
X153651354Y-106246789D01*
X153703038Y-106137020D01*
X153728522Y-106060357D01*
X153757106Y-105883499D01*
X153784161Y-105634504D01*
X153806184Y-105340430D01*
X153826920Y-105057638D01*
X153852476Y-104813270D01*
X153879054Y-104642232D01*
X153903393Y-104570358D01*
X153935698Y-104520748D01*
X153955010Y-104387810D01*
X153941832Y-104238569D01*
X153897065Y-104134897D01*
X153874537Y-104074619D01*
X153845115Y-103909820D01*
X153817259Y-103671304D01*
X153794826Y-103387286D01*
X153777848Y-103152625D01*
X153753633Y-102902940D01*
X153728784Y-102721511D01*
X153706634Y-102636700D01*
X153662808Y-102540558D01*
X153617518Y-102386453D01*
X153566545Y-102216218D01*
X153457549Y-101958954D01*
X153327765Y-101727277D01*
X153201700Y-101569341D01*
X153193261Y-101561802D01*
X153114320Y-101507203D01*
X153016332Y-101484140D01*
X152864640Y-101489712D01*
X152624584Y-101521017D01*
X152489049Y-101543556D01*
X152197660Y-101620104D01*
X151933705Y-101741913D01*
X151662835Y-101927126D01*
X151350702Y-102193887D01*
X151281430Y-102256411D01*
X151035481Y-102464009D01*
X150832485Y-102605282D01*
X150640887Y-102702854D01*
X150344361Y-102841650D01*
X150082397Y-103005129D01*
X149844767Y-103208848D01*
X149719064Y-103321380D01*
X149602209Y-103404761D01*
X149544988Y-103416986D01*
X149542992Y-103414167D01*
X149458904Y-103366415D01*
X149310736Y-103322466D01*
X149141919Y-103271063D01*
X149020211Y-103208170D01*
X149006666Y-103201094D01*
X148884731Y-103178158D01*
X148666089Y-103159993D01*
X148372915Y-103146589D01*
X148027382Y-103137935D01*
X147651665Y-103134023D01*
X147267938Y-103134841D01*
X146898375Y-103140380D01*
X146565152Y-103150629D01*
X146290441Y-103165579D01*
X146096418Y-103185219D01*
X146005256Y-103209539D01*
X145966483Y-103232669D01*
X145815879Y-103285128D01*
X145620320Y-103326126D01*
X145521127Y-103343925D01*
X145378995Y-103384060D01*
X145323153Y-103422988D01*
X145321035Y-103430679D01*
X145248097Y-103476598D01*
X145103496Y-103516819D01*
X145078507Y-103521819D01*
X144928913Y-103565871D01*
X144849558Y-103613496D01*
X144834091Y-103626503D01*
X144723590Y-103656086D01*
X144553081Y-103666918D01*
X144459828Y-103662969D01*
X144318096Y-103629984D01*
X144182500Y-103544865D01*
X144010194Y-103385391D01*
X143871035Y-103254669D01*
X143738717Y-103147176D01*
X143662170Y-103105911D01*
X143642732Y-103101221D01*
X143542758Y-103035916D01*
X143415025Y-102918227D01*
X143250860Y-102786095D01*
X143043591Y-102730130D01*
X143038849Y-102730083D01*
X142850062Y-102692312D01*
X142664286Y-102605419D01*
X142652107Y-102597532D01*
X142485080Y-102514924D01*
X142340908Y-102480708D01*
X142328477Y-102480287D01*
X142173973Y-102446683D01*
X141996819Y-102375868D01*
X141978664Y-102366779D01*
X141808792Y-102282441D01*
X141679790Y-102219464D01*
X141594437Y-102184990D01*
X141359155Y-102162068D01*
X141120265Y-102251849D01*
X140863619Y-102458474D01*
X140721422Y-102612611D01*
X140610824Y-102762065D01*
X140568473Y-102861432D01*
X140559894Y-102923155D01*
X140505912Y-103012069D01*
X140496247Y-103027494D01*
X140474421Y-103147916D01*
X140457745Y-103372690D01*
X140447095Y-103686897D01*
X140443350Y-104075616D01*
X140224764Y-104075616D01*
X140225232Y-103875226D01*
X140231544Y-103408269D01*
X140247189Y-103040861D01*
X140275862Y-102757504D01*
X140321258Y-102542703D01*
X140387073Y-102380963D01*
X140477001Y-102256786D01*
X140594738Y-102154679D01*
X140743978Y-102059144D01*
X140822471Y-102014598D01*
X140955265Y-101954508D01*
X141093671Y-101925070D01*
X141277334Y-101920063D01*
X141545901Y-101933263D01*
X141810864Y-101956723D01*
X142053758Y-102002456D01*
X142187651Y-102066928D01*
X142279117Y-102126525D01*
X142429536Y-102167488D01*
X142568221Y-102192322D01*
X142737418Y-102257644D01*
X142793670Y-102285783D01*
X142986752Y-102379068D01*
X143196059Y-102476970D01*
X143285223Y-102518429D01*
X143465862Y-102605590D01*
X143587069Y-102668340D01*
X143652524Y-102705590D01*
X143806035Y-102793253D01*
X143888575Y-102837494D01*
X144048065Y-102913704D01*
X144175722Y-102999131D01*
X144307315Y-103132520D01*
X144363524Y-103195471D01*
X144496404Y-103272940D01*
X144694007Y-103293596D01*
X144731523Y-103292719D01*
X144950012Y-103262170D01*
X145132008Y-103201543D01*
X145167799Y-103184602D01*
X145364836Y-103116469D01*
X145582472Y-103067879D01*
X145648594Y-103056219D01*
X145828456Y-103009074D01*
X145942711Y-102956607D01*
X145990576Y-102940799D01*
X146152608Y-102920727D01*
X146403881Y-102905007D01*
X146722967Y-102893630D01*
X147088435Y-102886588D01*
X147478858Y-102883872D01*
X147872805Y-102885472D01*
X148248848Y-102891382D01*
X148585557Y-102901590D01*
X148861503Y-102916089D01*
X149055257Y-102934870D01*
X149145389Y-102957924D01*
X149176151Y-102979889D01*
X149314549Y-103042981D01*
X149466637Y-103078250D01*
X149589420Y-103078768D01*
X149639902Y-103037607D01*
X149640856Y-103021452D01*
X149705827Y-102888405D01*
X149838198Y-102777150D01*
X149989218Y-102730542D01*
X150086914Y-102715844D01*
X150214128Y-102651440D01*
X150254126Y-102615459D01*
X150384371Y-102506246D01*
X150547045Y-102375727D01*
X150668815Y-102275884D01*
X150883482Y-102088503D01*
X151087262Y-101899722D01*
X151262406Y-101751226D01*
X151514187Y-101578889D01*
X151777256Y-101432071D01*
X152016638Y-101329930D01*
X152197360Y-101291626D01*
X152273357Y-101281061D01*
X152361330Y-101229064D01*
X152363593Y-101226177D01*
X152450182Y-101196318D01*
X152623902Y-101175681D01*
X152849875Y-101168584D01*
X153122497Y-101179646D01*
X153307415Y-101214341D01*
X153424903Y-101278067D01*
X153496627Y-101347606D01*
X153628075Y-101511483D01*
X153728871Y-101679277D01*
X153769351Y-101805558D01*
X153769489Y-101809714D01*
X153800586Y-101921840D01*
X153869549Y-102073645D01*
X153874046Y-102082507D01*
X153928021Y-102251693D01*
X153973311Y-102502101D01*
X154002413Y-102793104D01*
X154008530Y-102878412D01*
X154035320Y-103122635D01*
X154069620Y-103312581D01*
X154105540Y-103412864D01*
X154118750Y-103446381D01*
X154139732Y-103592793D01*
X154154545Y-103824430D01*
X154163309Y-104115038D01*
X154165698Y-104387810D01*
X154166141Y-104438362D01*
G37*
%LPC*%
%LPD*%
M02*
