G04 #@! TF.GenerationSoftware,KiCad,Pcbnew,7.0.10*
G04 #@! TF.CreationDate,2024-01-12T14:59:42+00:00*
G04 #@! TF.ProjectId,eobard-plate,656f6261-7264-42d7-906c-6174652e6b69,0.2.8*
G04 #@! TF.SameCoordinates,Original*
G04 #@! TF.FileFunction,Profile,NP*
%FSLAX46Y46*%
G04 Gerber Fmt 4.6, Leading zero omitted, Abs format (unit mm)*
G04 Created by KiCad (PCBNEW 7.0.10) date 2024-01-12 14:59:42*
%MOMM*%
%LPD*%
G01*
G04 APERTURE LIST*
G04 #@! TA.AperFunction,Profile*
%ADD10C,0.100000*%
G04 #@! TD*
G04 #@! TA.AperFunction,Profile*
%ADD11C,0.050000*%
G04 #@! TD*
G04 APERTURE END LIST*
D10*
X177926973Y-114131932D02*
G75*
G03*
X178732694Y-115526633I1610027J32D01*
G01*
X197822388Y-128395030D02*
G75*
G03*
X197232486Y-126195225I-1394188J805130D01*
G01*
X177927002Y-50927798D02*
G75*
G03*
X177008880Y-49474043I-1610002J-2D01*
G01*
X177008880Y-49474043D02*
X155327466Y-39155300D01*
X177927000Y-114131932D02*
X177927000Y-50927798D01*
X197232486Y-126195225D02*
X178732694Y-115526633D01*
X154637575Y-39000000D02*
X102421741Y-39000000D01*
X187304751Y-146608600D02*
X197822413Y-128395044D01*
X185107310Y-147197484D02*
G75*
G03*
X187304750Y-146608600I803790J1394984D01*
G01*
X79610000Y-111700000D02*
X123069353Y-111700000D01*
X185107283Y-147197530D02*
X123873139Y-111914999D01*
X123873151Y-111914979D02*
G75*
G03*
X123069353Y-111700000I-803751J-1395021D01*
G01*
X78000000Y-110090000D02*
G75*
G03*
X79610000Y-111700000I1610000J0D01*
G01*
X101632420Y-39206763D02*
X78820680Y-52038368D01*
X102421741Y-39000010D02*
G75*
G03*
X101632420Y-39206764I59J-1610290D01*
G01*
X78820678Y-52038364D02*
G75*
G03*
X78000000Y-53441604I789322J-1403236D01*
G01*
X155327462Y-39155308D02*
G75*
G03*
X154637575Y-39000000I-689862J-1454492D01*
G01*
X78000000Y-53441604D02*
X78000000Y-110090000D01*
D11*
X83500000Y-95195000D02*
X83500000Y-109195000D01*
X83500000Y-109195000D02*
X97500000Y-109195000D01*
X97500000Y-95195000D02*
X83500000Y-95195000D01*
X97500000Y-95195000D02*
X97500000Y-109195000D01*
X180413822Y-125110822D02*
X173413822Y-137235178D01*
X173413822Y-137235178D02*
X185538178Y-144235178D01*
X192538178Y-132110822D02*
X180413822Y-125110822D01*
X192538178Y-132110822D02*
X185538178Y-144235178D01*
X163937822Y-115377822D02*
X156937822Y-127502178D01*
X156937822Y-127502178D02*
X169062178Y-134502178D01*
X176062178Y-122377822D02*
X163937822Y-115377822D01*
X176062178Y-122377822D02*
X169062178Y-134502178D01*
X159500000Y-91070000D02*
X159500000Y-105070000D01*
X159500000Y-105070000D02*
X173500000Y-105070000D01*
X173500000Y-91070000D02*
X159500000Y-91070000D01*
X173500000Y-91070000D02*
X173500000Y-105070000D01*
X159500000Y-72070000D02*
X159500000Y-86070000D01*
X159500000Y-86070000D02*
X173500000Y-86070000D01*
X173500000Y-72070000D02*
X159500000Y-72070000D01*
X173500000Y-72070000D02*
X173500000Y-86070000D01*
X159500000Y-53070000D02*
X159500000Y-67070000D01*
X159500000Y-67070000D02*
X173500000Y-67070000D01*
X173500000Y-53070000D02*
X159500000Y-53070000D01*
X173500000Y-53070000D02*
X173500000Y-67070000D01*
X140500000Y-81570000D02*
X140500000Y-95570000D01*
X140500000Y-95570000D02*
X154500000Y-95570000D01*
X154500000Y-81570000D02*
X140500000Y-81570000D01*
X154500000Y-81570000D02*
X154500000Y-95570000D01*
X140500000Y-62570000D02*
X140500000Y-76570000D01*
X140500000Y-76570000D02*
X154500000Y-76570000D01*
X154500000Y-62570000D02*
X140500000Y-62570000D01*
X154500000Y-62570000D02*
X154500000Y-76570000D01*
X140500000Y-43570000D02*
X140500000Y-57570000D01*
X140500000Y-57570000D02*
X154500000Y-57570000D01*
X154500000Y-43570000D02*
X140500000Y-43570000D01*
X154500000Y-43570000D02*
X154500000Y-57570000D01*
X121500000Y-41445000D02*
X121500000Y-55445000D01*
X121500000Y-55445000D02*
X135500000Y-55445000D01*
X135500000Y-41445000D02*
X121500000Y-41445000D01*
X135500000Y-41445000D02*
X135500000Y-55445000D01*
X121500000Y-60445000D02*
X121500000Y-74445000D01*
X121500000Y-74445000D02*
X135500000Y-74445000D01*
X135500000Y-60445000D02*
X121500000Y-60445000D01*
X135500000Y-60445000D02*
X135500000Y-74445000D01*
X121500000Y-79445000D02*
X121500000Y-93445000D01*
X121500000Y-93445000D02*
X135500000Y-93445000D01*
X135500000Y-79445000D02*
X121500000Y-79445000D01*
X135500000Y-79445000D02*
X135500000Y-93445000D01*
X102500000Y-83695000D02*
X102500000Y-97695000D01*
X102500000Y-97695000D02*
X116500000Y-97695000D01*
X116500000Y-83695000D02*
X102500000Y-83695000D01*
X116500000Y-83695000D02*
X116500000Y-97695000D01*
X102500000Y-64695000D02*
X102500000Y-78695000D01*
X102500000Y-78695000D02*
X116500000Y-78695000D01*
X116500000Y-64695000D02*
X102500000Y-64695000D01*
X116500000Y-64695000D02*
X116500000Y-78695000D01*
X102500000Y-45695000D02*
X102500000Y-59695000D01*
X102500000Y-59695000D02*
X116500000Y-59695000D01*
X116500000Y-45695000D02*
X102500000Y-45695000D01*
X116500000Y-45695000D02*
X116500000Y-59695000D01*
X83500000Y-57195000D02*
X83500000Y-71195000D01*
X83500000Y-71195000D02*
X97500000Y-71195000D01*
X97500000Y-57195000D02*
X83500000Y-57195000D01*
X97500000Y-57195000D02*
X97500000Y-71195000D01*
X83500000Y-76195000D02*
X83500000Y-90195000D01*
X83500000Y-90195000D02*
X97500000Y-90195000D01*
X97500000Y-76195000D02*
X83500000Y-76195000D01*
X97500000Y-76195000D02*
X97500000Y-90195000D01*
M02*
