G04 #@! TF.GenerationSoftware,KiCad,Pcbnew,7.0.9*
G04 #@! TF.CreationDate,2023-12-10T23:46:28+00:00*
G04 #@! TF.ProjectId,eobard-plate,656f6261-7264-42d7-906c-6174652e6b69,2.2*
G04 #@! TF.SameCoordinates,Original*
G04 #@! TF.FileFunction,Copper,L2,Bot*
G04 #@! TF.FilePolarity,Positive*
%FSLAX46Y46*%
G04 Gerber Fmt 4.6, Leading zero omitted, Abs format (unit mm)*
G04 Created by KiCad (PCBNEW 7.0.9) date 2023-12-10 23:46:28*
%MOMM*%
%LPD*%
G01*
G04 APERTURE LIST*
G04 APERTURE END LIST*
G04 #@! TA.AperFunction,Conductor*
G36*
X155028181Y-39016425D02*
G01*
X178936293Y-52464739D01*
X178985072Y-52514761D01*
X178999500Y-52572813D01*
X178999500Y-119395836D01*
X178999266Y-119399346D01*
X178999515Y-119400282D01*
X179000224Y-119400987D01*
X179003433Y-119402560D01*
X196868007Y-129724314D01*
X196892018Y-129738187D01*
X196940218Y-129788769D01*
X196953419Y-129857381D01*
X196937391Y-129907520D01*
X186561788Y-147891896D01*
X186511236Y-147940127D01*
X186442634Y-147953372D01*
X186392403Y-147937330D01*
X167847130Y-137235315D01*
X173413298Y-137235315D01*
X173413299Y-137235318D01*
X173413603Y-137235715D01*
X173414566Y-137236228D01*
X173425466Y-137242478D01*
X185516486Y-144223231D01*
X185516645Y-144223371D01*
X185537908Y-144235647D01*
X185538315Y-144235701D01*
X185538315Y-144235700D01*
X185538318Y-144235701D01*
X185538562Y-144235514D01*
X185538563Y-144235511D01*
X185538646Y-144235448D01*
X185538646Y-144235447D01*
X185538824Y-144235312D01*
X185538944Y-144235220D01*
X185540540Y-144232738D01*
X185542351Y-144230196D01*
X185544753Y-144224853D01*
X185551158Y-144213744D01*
X185551159Y-144213745D01*
X185551200Y-144213621D01*
X192535075Y-132117193D01*
X192538643Y-132111093D01*
X192538646Y-132111092D01*
X192538701Y-132110682D01*
X192538700Y-132110681D01*
X192538701Y-132110681D01*
X192538449Y-132110354D01*
X192518297Y-132098603D01*
X192517595Y-132098360D01*
X188883129Y-130000000D01*
X192994659Y-130000000D01*
X193013975Y-130196129D01*
X193071188Y-130384733D01*
X193164086Y-130558532D01*
X193164090Y-130558539D01*
X193289116Y-130710883D01*
X193441460Y-130835909D01*
X193441467Y-130835913D01*
X193441469Y-130835914D01*
X193615273Y-130928814D01*
X193645937Y-130938116D01*
X193649436Y-130939294D01*
X193651796Y-130940168D01*
X193651799Y-130940170D01*
X193658005Y-130941776D01*
X193803868Y-130986024D01*
X193834662Y-130989056D01*
X193841911Y-130990344D01*
X193841955Y-130990063D01*
X193848175Y-130991015D01*
X193848182Y-130991017D01*
X193859880Y-130991610D01*
X193862782Y-130991826D01*
X194000000Y-131005341D01*
X194035203Y-131001873D01*
X194044500Y-131001653D01*
X194044498Y-131001610D01*
X194050768Y-131001291D01*
X194050780Y-131001292D01*
X194066580Y-130998871D01*
X194069831Y-130998463D01*
X194196132Y-130986024D01*
X194234291Y-130974448D01*
X194250827Y-130970694D01*
X194251296Y-130970573D01*
X194251299Y-130970573D01*
X194268704Y-130964127D01*
X194272227Y-130962940D01*
X194384727Y-130928814D01*
X194427647Y-130905872D01*
X194435331Y-130902415D01*
X194441530Y-130900120D01*
X194458615Y-130889470D01*
X194462088Y-130887463D01*
X194558538Y-130835910D01*
X194599627Y-130802188D01*
X194606142Y-130797515D01*
X194613684Y-130792815D01*
X194628726Y-130778516D01*
X194632034Y-130775592D01*
X194710883Y-130710883D01*
X194747511Y-130666251D01*
X194752696Y-130660674D01*
X194760715Y-130653052D01*
X194772568Y-130636021D01*
X194775484Y-130632165D01*
X194835910Y-130558538D01*
X194865356Y-130503446D01*
X194869125Y-130497293D01*
X194876601Y-130486553D01*
X194884578Y-130467963D01*
X194886862Y-130463213D01*
X194928814Y-130384727D01*
X194948361Y-130320288D01*
X194950696Y-130313892D01*
X194956600Y-130300135D01*
X194960497Y-130281170D01*
X194961881Y-130275719D01*
X194986024Y-130196132D01*
X194993116Y-130124121D01*
X194994082Y-130117740D01*
X194997435Y-130101429D01*
X194998098Y-130075196D01*
X194998373Y-130070741D01*
X195005341Y-130000000D01*
X194998373Y-129929261D01*
X194998098Y-129924800D01*
X194997435Y-129898571D01*
X194994081Y-129882253D01*
X194993116Y-129875881D01*
X194986024Y-129803868D01*
X194961888Y-129724305D01*
X194960492Y-129718804D01*
X194956600Y-129699865D01*
X194950702Y-129686121D01*
X194948354Y-129679687D01*
X194928814Y-129615273D01*
X194886871Y-129536803D01*
X194884577Y-129532035D01*
X194876601Y-129513447D01*
X194869135Y-129502721D01*
X194865347Y-129496535D01*
X194835910Y-129441462D01*
X194835908Y-129441460D01*
X194835908Y-129441459D01*
X194816696Y-129418050D01*
X194775498Y-129367850D01*
X194772561Y-129363969D01*
X194760715Y-129346948D01*
X194752711Y-129339339D01*
X194747497Y-129333731D01*
X194710883Y-129289116D01*
X194632085Y-129224448D01*
X194628703Y-129221460D01*
X194613686Y-129207187D01*
X194613684Y-129207185D01*
X194606145Y-129202486D01*
X194599606Y-129197794D01*
X194558540Y-129164091D01*
X194558532Y-129164086D01*
X194493705Y-129129436D01*
X194462130Y-129112558D01*
X194458570Y-129110501D01*
X194441535Y-129099883D01*
X194441534Y-129099882D01*
X194441530Y-129099880D01*
X194441526Y-129099878D01*
X194441523Y-129099877D01*
X194435335Y-129097585D01*
X194427635Y-129094120D01*
X194384728Y-129071186D01*
X194272253Y-129037066D01*
X194268721Y-129035878D01*
X194251300Y-129029427D01*
X194250854Y-129029312D01*
X194234276Y-129025547D01*
X194196132Y-129013976D01*
X194196130Y-129013975D01*
X194196132Y-129013975D01*
X194069849Y-129001537D01*
X194066541Y-129001122D01*
X194050784Y-128998708D01*
X194044504Y-128998390D01*
X194044506Y-128998347D01*
X194035205Y-128998125D01*
X194000003Y-128994659D01*
X193999999Y-128994659D01*
X193862793Y-129008171D01*
X193859860Y-129008390D01*
X193848185Y-129008982D01*
X193841974Y-129009934D01*
X193841931Y-129009654D01*
X193834679Y-129010941D01*
X193803869Y-129013975D01*
X193658009Y-129058221D01*
X193651793Y-129059831D01*
X193649430Y-129060706D01*
X193645903Y-129061893D01*
X193615270Y-129071186D01*
X193441467Y-129164086D01*
X193441460Y-129164090D01*
X193289116Y-129289116D01*
X193164090Y-129441460D01*
X193164086Y-129441467D01*
X193071188Y-129615266D01*
X193013975Y-129803870D01*
X192994659Y-130000000D01*
X188883129Y-130000000D01*
X180435385Y-125122693D01*
X180435196Y-125122528D01*
X180428029Y-125118393D01*
X180423906Y-125115230D01*
X180416356Y-125111507D01*
X180414229Y-125110370D01*
X180413684Y-125110299D01*
X180413683Y-125110299D01*
X180413682Y-125110299D01*
X180413611Y-125110354D01*
X180413352Y-125110553D01*
X180401558Y-125130777D01*
X180401317Y-125131478D01*
X173425400Y-137214120D01*
X173424804Y-137214807D01*
X173413352Y-137234907D01*
X173413298Y-137235315D01*
X167847130Y-137235315D01*
X149244153Y-126500000D01*
X153494659Y-126500000D01*
X153513975Y-126696129D01*
X153571188Y-126884733D01*
X153664086Y-127058532D01*
X153664090Y-127058539D01*
X153789116Y-127210883D01*
X153941460Y-127335909D01*
X153941467Y-127335913D01*
X153941469Y-127335914D01*
X154115273Y-127428814D01*
X154145937Y-127438116D01*
X154149436Y-127439294D01*
X154151796Y-127440168D01*
X154151799Y-127440170D01*
X154158005Y-127441776D01*
X154303868Y-127486024D01*
X154334662Y-127489056D01*
X154341911Y-127490344D01*
X154341955Y-127490063D01*
X154348175Y-127491015D01*
X154348182Y-127491017D01*
X154359880Y-127491610D01*
X154362782Y-127491826D01*
X154500000Y-127505341D01*
X154530716Y-127502315D01*
X156937298Y-127502315D01*
X156937299Y-127502318D01*
X156937603Y-127502715D01*
X156938566Y-127503228D01*
X156949466Y-127509478D01*
X160420442Y-129513447D01*
X164919692Y-132111090D01*
X169040486Y-134490231D01*
X169040645Y-134490371D01*
X169061908Y-134502647D01*
X169062315Y-134502701D01*
X169062315Y-134502700D01*
X169062318Y-134502701D01*
X169062562Y-134502514D01*
X169062563Y-134502511D01*
X169062646Y-134502448D01*
X169062646Y-134502447D01*
X169062824Y-134502312D01*
X169062944Y-134502220D01*
X169064540Y-134499738D01*
X169066351Y-134497196D01*
X169068753Y-134491853D01*
X169075158Y-134480744D01*
X169075159Y-134480745D01*
X169075200Y-134480621D01*
X176059075Y-122384193D01*
X176062643Y-122378093D01*
X176062646Y-122378092D01*
X176062701Y-122377682D01*
X176062700Y-122377681D01*
X176062701Y-122377681D01*
X176062449Y-122377354D01*
X176042297Y-122365603D01*
X176041595Y-122365360D01*
X163959385Y-115389693D01*
X163959196Y-115389528D01*
X163952029Y-115385393D01*
X163947906Y-115382230D01*
X163940356Y-115378507D01*
X163938229Y-115377370D01*
X163937684Y-115377299D01*
X163937683Y-115377299D01*
X163937682Y-115377299D01*
X163937611Y-115377354D01*
X163937352Y-115377553D01*
X163925558Y-115397777D01*
X163925317Y-115398478D01*
X156949400Y-127481120D01*
X156948804Y-127481807D01*
X156937352Y-127501907D01*
X156937298Y-127502315D01*
X154530716Y-127502315D01*
X154535203Y-127501873D01*
X154544500Y-127501653D01*
X154544498Y-127501610D01*
X154550768Y-127501291D01*
X154550780Y-127501292D01*
X154566580Y-127498871D01*
X154569831Y-127498463D01*
X154696132Y-127486024D01*
X154734291Y-127474448D01*
X154750827Y-127470694D01*
X154751296Y-127470573D01*
X154751299Y-127470573D01*
X154768704Y-127464127D01*
X154772227Y-127462940D01*
X154884727Y-127428814D01*
X154927647Y-127405872D01*
X154935331Y-127402415D01*
X154941530Y-127400120D01*
X154958615Y-127389470D01*
X154962088Y-127387463D01*
X155058538Y-127335910D01*
X155099627Y-127302188D01*
X155106142Y-127297515D01*
X155113684Y-127292815D01*
X155128726Y-127278516D01*
X155132034Y-127275592D01*
X155210883Y-127210883D01*
X155247511Y-127166251D01*
X155252696Y-127160674D01*
X155260715Y-127153052D01*
X155272568Y-127136021D01*
X155275484Y-127132165D01*
X155335910Y-127058538D01*
X155365356Y-127003446D01*
X155369125Y-126997293D01*
X155376601Y-126986553D01*
X155384578Y-126967963D01*
X155386862Y-126963213D01*
X155428814Y-126884727D01*
X155448361Y-126820288D01*
X155450696Y-126813892D01*
X155456600Y-126800135D01*
X155460497Y-126781170D01*
X155461881Y-126775719D01*
X155486024Y-126696132D01*
X155493116Y-126624121D01*
X155494082Y-126617740D01*
X155497435Y-126601429D01*
X155498098Y-126575196D01*
X155498373Y-126570741D01*
X155505341Y-126500000D01*
X155498373Y-126429261D01*
X155498098Y-126424800D01*
X155497435Y-126398571D01*
X155494081Y-126382253D01*
X155493116Y-126375881D01*
X155486024Y-126303868D01*
X155461888Y-126224305D01*
X155460492Y-126218804D01*
X155456600Y-126199865D01*
X155450702Y-126186121D01*
X155448354Y-126179687D01*
X155428814Y-126115273D01*
X155386871Y-126036803D01*
X155384577Y-126032035D01*
X155376601Y-126013447D01*
X155369135Y-126002721D01*
X155365347Y-125996535D01*
X155335910Y-125941462D01*
X155335908Y-125941460D01*
X155335908Y-125941459D01*
X155316696Y-125918050D01*
X155275498Y-125867850D01*
X155272561Y-125863969D01*
X155260715Y-125846948D01*
X155252711Y-125839339D01*
X155247497Y-125833731D01*
X155210883Y-125789116D01*
X155132085Y-125724448D01*
X155128703Y-125721460D01*
X155113686Y-125707187D01*
X155113684Y-125707185D01*
X155106145Y-125702486D01*
X155099606Y-125697794D01*
X155058540Y-125664091D01*
X155058532Y-125664086D01*
X154993705Y-125629436D01*
X154962130Y-125612558D01*
X154958570Y-125610501D01*
X154941535Y-125599883D01*
X154941534Y-125599882D01*
X154941530Y-125599880D01*
X154941526Y-125599878D01*
X154941523Y-125599877D01*
X154935335Y-125597585D01*
X154927635Y-125594120D01*
X154884728Y-125571186D01*
X154772253Y-125537066D01*
X154768721Y-125535878D01*
X154751300Y-125529427D01*
X154750854Y-125529312D01*
X154734276Y-125525547D01*
X154696132Y-125513976D01*
X154696130Y-125513975D01*
X154696132Y-125513975D01*
X154569849Y-125501537D01*
X154566541Y-125501122D01*
X154550784Y-125498708D01*
X154544504Y-125498390D01*
X154544506Y-125498347D01*
X154535205Y-125498125D01*
X154500003Y-125494659D01*
X154499999Y-125494659D01*
X154362793Y-125508171D01*
X154359860Y-125508390D01*
X154348185Y-125508982D01*
X154341974Y-125509934D01*
X154341931Y-125509654D01*
X154334679Y-125510941D01*
X154303869Y-125513975D01*
X154158009Y-125558221D01*
X154151793Y-125559831D01*
X154149430Y-125560706D01*
X154145903Y-125561893D01*
X154115270Y-125571186D01*
X153941467Y-125664086D01*
X153941460Y-125664090D01*
X153789116Y-125789116D01*
X153664090Y-125941460D01*
X153664086Y-125941467D01*
X153571188Y-126115266D01*
X153513975Y-126303870D01*
X153494659Y-126500000D01*
X149244153Y-126500000D01*
X125114184Y-112575196D01*
X124983879Y-112500000D01*
X128994659Y-112500000D01*
X129013975Y-112696129D01*
X129071188Y-112884733D01*
X129164086Y-113058532D01*
X129164090Y-113058539D01*
X129289116Y-113210883D01*
X129441460Y-113335909D01*
X129441467Y-113335913D01*
X129441469Y-113335914D01*
X129615273Y-113428814D01*
X129645937Y-113438116D01*
X129649436Y-113439294D01*
X129651796Y-113440168D01*
X129651799Y-113440170D01*
X129658005Y-113441776D01*
X129803868Y-113486024D01*
X129834662Y-113489056D01*
X129841911Y-113490344D01*
X129841955Y-113490063D01*
X129848175Y-113491015D01*
X129848182Y-113491017D01*
X129859880Y-113491610D01*
X129862782Y-113491826D01*
X130000000Y-113505341D01*
X130035203Y-113501873D01*
X130044500Y-113501653D01*
X130044498Y-113501610D01*
X130050768Y-113501291D01*
X130050780Y-113501292D01*
X130066580Y-113498871D01*
X130069831Y-113498463D01*
X130196132Y-113486024D01*
X130234291Y-113474448D01*
X130250827Y-113470694D01*
X130251296Y-113470573D01*
X130251299Y-113470573D01*
X130268704Y-113464127D01*
X130272227Y-113462940D01*
X130384727Y-113428814D01*
X130427647Y-113405872D01*
X130435331Y-113402415D01*
X130441530Y-113400120D01*
X130458615Y-113389470D01*
X130462088Y-113387463D01*
X130558538Y-113335910D01*
X130599627Y-113302188D01*
X130606142Y-113297515D01*
X130613684Y-113292815D01*
X130628726Y-113278516D01*
X130632034Y-113275592D01*
X130710883Y-113210883D01*
X130747511Y-113166251D01*
X130752696Y-113160674D01*
X130760715Y-113153052D01*
X130772568Y-113136021D01*
X130775484Y-113132165D01*
X130835910Y-113058538D01*
X130865356Y-113003446D01*
X130869125Y-112997293D01*
X130876601Y-112986553D01*
X130884578Y-112967963D01*
X130886862Y-112963213D01*
X130928814Y-112884727D01*
X130948361Y-112820288D01*
X130950696Y-112813892D01*
X130956600Y-112800135D01*
X130960497Y-112781170D01*
X130961881Y-112775719D01*
X130986024Y-112696132D01*
X130993116Y-112624121D01*
X130994082Y-112617740D01*
X130997435Y-112601429D01*
X130998098Y-112575196D01*
X130998373Y-112570741D01*
X131005341Y-112500000D01*
X130998373Y-112429261D01*
X130998098Y-112424800D01*
X130997435Y-112398571D01*
X130994081Y-112382253D01*
X130993116Y-112375881D01*
X130986024Y-112303868D01*
X130961888Y-112224305D01*
X130960492Y-112218804D01*
X130956600Y-112199865D01*
X130950702Y-112186121D01*
X130948354Y-112179687D01*
X130928814Y-112115273D01*
X130886871Y-112036803D01*
X130884577Y-112032035D01*
X130876601Y-112013447D01*
X130869135Y-112002721D01*
X130865347Y-111996535D01*
X130835910Y-111941462D01*
X130835908Y-111941460D01*
X130835908Y-111941459D01*
X130816696Y-111918050D01*
X130775498Y-111867850D01*
X130772561Y-111863969D01*
X130760715Y-111846948D01*
X130752711Y-111839339D01*
X130747497Y-111833731D01*
X130710883Y-111789116D01*
X130632085Y-111724448D01*
X130628703Y-111721460D01*
X130613686Y-111707187D01*
X130613684Y-111707185D01*
X130606145Y-111702486D01*
X130599606Y-111697794D01*
X130558540Y-111664091D01*
X130558532Y-111664086D01*
X130493705Y-111629436D01*
X130462130Y-111612558D01*
X130458570Y-111610501D01*
X130441535Y-111599883D01*
X130441534Y-111599882D01*
X130441530Y-111599880D01*
X130441526Y-111599878D01*
X130441523Y-111599877D01*
X130435335Y-111597585D01*
X130427635Y-111594120D01*
X130384728Y-111571186D01*
X130272253Y-111537066D01*
X130268721Y-111535878D01*
X130251300Y-111529427D01*
X130250854Y-111529312D01*
X130234276Y-111525547D01*
X130196132Y-111513976D01*
X130196130Y-111513975D01*
X130196132Y-111513975D01*
X130069849Y-111501537D01*
X130066541Y-111501122D01*
X130050784Y-111498708D01*
X130044504Y-111498390D01*
X130044506Y-111498347D01*
X130035205Y-111498125D01*
X130000003Y-111494659D01*
X129999999Y-111494659D01*
X129862793Y-111508171D01*
X129859860Y-111508390D01*
X129848185Y-111508982D01*
X129841974Y-111509934D01*
X129841931Y-111509654D01*
X129834679Y-111510941D01*
X129803869Y-111513975D01*
X129658009Y-111558221D01*
X129651793Y-111559831D01*
X129649430Y-111560706D01*
X129645903Y-111561893D01*
X129615270Y-111571186D01*
X129441467Y-111664086D01*
X129441460Y-111664090D01*
X129289116Y-111789116D01*
X129164090Y-111941460D01*
X129164086Y-111941467D01*
X129071188Y-112115266D01*
X129013975Y-112303870D01*
X128994659Y-112500000D01*
X124983879Y-112500000D01*
X123264609Y-111507852D01*
X123257942Y-111502735D01*
X123254003Y-111501111D01*
X123252165Y-111500207D01*
X123251403Y-111499944D01*
X123250136Y-111499472D01*
X123248778Y-111499245D01*
X123248046Y-111499104D01*
X123246011Y-111498971D01*
X123241740Y-111498409D01*
X123233456Y-111499500D01*
X78124500Y-111499500D01*
X78057461Y-111479815D01*
X78011706Y-111427011D01*
X78000500Y-111375500D01*
X78000500Y-109000000D01*
X79494659Y-109000000D01*
X79513975Y-109196129D01*
X79571188Y-109384733D01*
X79664086Y-109558532D01*
X79664090Y-109558539D01*
X79789116Y-109710883D01*
X79941460Y-109835909D01*
X79941467Y-109835913D01*
X79941469Y-109835914D01*
X80115273Y-109928814D01*
X80145937Y-109938116D01*
X80149436Y-109939294D01*
X80151796Y-109940168D01*
X80151799Y-109940170D01*
X80158005Y-109941776D01*
X80303868Y-109986024D01*
X80334662Y-109989056D01*
X80341911Y-109990344D01*
X80341955Y-109990063D01*
X80348175Y-109991015D01*
X80348182Y-109991017D01*
X80359880Y-109991610D01*
X80362782Y-109991826D01*
X80500000Y-110005341D01*
X80535203Y-110001873D01*
X80544500Y-110001653D01*
X80544498Y-110001610D01*
X80550768Y-110001291D01*
X80550780Y-110001292D01*
X80566580Y-109998871D01*
X80569831Y-109998463D01*
X80696132Y-109986024D01*
X80734291Y-109974448D01*
X80750827Y-109970694D01*
X80751296Y-109970573D01*
X80751299Y-109970573D01*
X80768704Y-109964127D01*
X80772227Y-109962940D01*
X80884727Y-109928814D01*
X80927647Y-109905872D01*
X80935331Y-109902415D01*
X80941530Y-109900120D01*
X80958615Y-109889470D01*
X80962088Y-109887463D01*
X81058538Y-109835910D01*
X81099627Y-109802188D01*
X81106142Y-109797515D01*
X81113684Y-109792815D01*
X81128726Y-109778516D01*
X81132034Y-109775592D01*
X81210883Y-109710883D01*
X81247511Y-109666251D01*
X81252696Y-109660674D01*
X81260715Y-109653052D01*
X81272568Y-109636021D01*
X81275484Y-109632165D01*
X81335910Y-109558538D01*
X81365356Y-109503446D01*
X81369125Y-109497293D01*
X81376601Y-109486553D01*
X81384578Y-109467963D01*
X81386862Y-109463213D01*
X81428814Y-109384727D01*
X81448361Y-109320288D01*
X81450696Y-109313892D01*
X81456600Y-109300135D01*
X81460497Y-109281170D01*
X81461881Y-109275719D01*
X81486024Y-109196132D01*
X81488510Y-109170889D01*
X83499416Y-109170889D01*
X83499459Y-109195001D01*
X83499500Y-109195099D01*
X83499616Y-109195382D01*
X83499618Y-109195384D01*
X83499808Y-109195462D01*
X83500000Y-109195541D01*
X83500002Y-109195539D01*
X83524616Y-109195524D01*
X83524616Y-109195528D01*
X83524760Y-109195500D01*
X97475240Y-109195500D01*
X97475383Y-109195528D01*
X97475384Y-109195524D01*
X97499997Y-109195539D01*
X97500000Y-109195541D01*
X97500383Y-109195383D01*
X97500500Y-109195099D01*
X97500541Y-109195000D01*
X97500540Y-109194997D01*
X97500583Y-109170889D01*
X97500500Y-109170467D01*
X97500500Y-106500000D01*
X175494659Y-106500000D01*
X175513975Y-106696129D01*
X175571188Y-106884733D01*
X175664086Y-107058532D01*
X175664090Y-107058539D01*
X175789116Y-107210883D01*
X175941460Y-107335909D01*
X175941467Y-107335913D01*
X175941469Y-107335914D01*
X176115273Y-107428814D01*
X176145937Y-107438116D01*
X176149436Y-107439294D01*
X176151796Y-107440168D01*
X176151799Y-107440170D01*
X176158005Y-107441776D01*
X176303868Y-107486024D01*
X176334662Y-107489056D01*
X176341911Y-107490344D01*
X176341955Y-107490063D01*
X176348175Y-107491015D01*
X176348182Y-107491017D01*
X176359880Y-107491610D01*
X176362782Y-107491826D01*
X176500000Y-107505341D01*
X176535203Y-107501873D01*
X176544500Y-107501653D01*
X176544498Y-107501610D01*
X176550768Y-107501291D01*
X176550780Y-107501292D01*
X176566580Y-107498871D01*
X176569831Y-107498463D01*
X176696132Y-107486024D01*
X176734291Y-107474448D01*
X176750827Y-107470694D01*
X176751296Y-107470573D01*
X176751299Y-107470573D01*
X176768704Y-107464127D01*
X176772227Y-107462940D01*
X176884727Y-107428814D01*
X176927647Y-107405872D01*
X176935331Y-107402415D01*
X176941530Y-107400120D01*
X176958615Y-107389470D01*
X176962088Y-107387463D01*
X177058538Y-107335910D01*
X177099627Y-107302188D01*
X177106142Y-107297515D01*
X177113684Y-107292815D01*
X177128726Y-107278516D01*
X177132034Y-107275592D01*
X177210883Y-107210883D01*
X177247511Y-107166251D01*
X177252696Y-107160674D01*
X177260715Y-107153052D01*
X177272568Y-107136021D01*
X177275484Y-107132165D01*
X177335910Y-107058538D01*
X177365356Y-107003446D01*
X177369125Y-106997293D01*
X177376601Y-106986553D01*
X177384578Y-106967963D01*
X177386862Y-106963213D01*
X177428814Y-106884727D01*
X177448361Y-106820288D01*
X177450696Y-106813892D01*
X177456600Y-106800135D01*
X177460497Y-106781170D01*
X177461881Y-106775719D01*
X177486024Y-106696132D01*
X177493116Y-106624121D01*
X177494082Y-106617740D01*
X177497435Y-106601429D01*
X177498098Y-106575196D01*
X177498373Y-106570741D01*
X177505341Y-106500000D01*
X177498373Y-106429261D01*
X177498098Y-106424800D01*
X177497435Y-106398571D01*
X177494081Y-106382253D01*
X177493116Y-106375881D01*
X177486024Y-106303868D01*
X177461888Y-106224305D01*
X177460492Y-106218804D01*
X177456600Y-106199865D01*
X177450702Y-106186121D01*
X177448354Y-106179687D01*
X177428814Y-106115273D01*
X177386871Y-106036803D01*
X177384577Y-106032035D01*
X177376601Y-106013447D01*
X177369135Y-106002721D01*
X177365347Y-105996535D01*
X177335910Y-105941462D01*
X177335908Y-105941460D01*
X177335908Y-105941459D01*
X177316696Y-105918050D01*
X177275498Y-105867850D01*
X177272561Y-105863969D01*
X177260715Y-105846948D01*
X177252711Y-105839339D01*
X177247497Y-105833731D01*
X177210883Y-105789116D01*
X177132085Y-105724448D01*
X177128703Y-105721460D01*
X177113686Y-105707187D01*
X177113684Y-105707185D01*
X177106145Y-105702486D01*
X177099606Y-105697794D01*
X177058540Y-105664091D01*
X177058532Y-105664086D01*
X176993705Y-105629436D01*
X176962130Y-105612558D01*
X176958570Y-105610501D01*
X176941535Y-105599883D01*
X176941534Y-105599882D01*
X176941530Y-105599880D01*
X176941526Y-105599878D01*
X176941523Y-105599877D01*
X176935335Y-105597585D01*
X176927635Y-105594120D01*
X176884728Y-105571186D01*
X176772253Y-105537066D01*
X176768721Y-105535878D01*
X176751300Y-105529427D01*
X176750854Y-105529312D01*
X176734276Y-105525547D01*
X176696132Y-105513976D01*
X176696130Y-105513975D01*
X176696132Y-105513975D01*
X176569849Y-105501537D01*
X176566541Y-105501122D01*
X176550784Y-105498708D01*
X176544504Y-105498390D01*
X176544506Y-105498347D01*
X176535205Y-105498125D01*
X176500003Y-105494659D01*
X176499999Y-105494659D01*
X176362793Y-105508171D01*
X176359860Y-105508390D01*
X176348185Y-105508982D01*
X176341974Y-105509934D01*
X176341931Y-105509654D01*
X176334679Y-105510941D01*
X176303869Y-105513975D01*
X176158009Y-105558221D01*
X176151793Y-105559831D01*
X176149430Y-105560706D01*
X176145903Y-105561893D01*
X176115270Y-105571186D01*
X175941467Y-105664086D01*
X175941460Y-105664090D01*
X175789116Y-105789116D01*
X175664090Y-105941460D01*
X175664086Y-105941467D01*
X175571188Y-106115266D01*
X175513975Y-106303870D01*
X175494659Y-106500000D01*
X97500500Y-106500000D01*
X97500500Y-105045889D01*
X159499416Y-105045889D01*
X159499459Y-105070001D01*
X159499500Y-105070099D01*
X159499616Y-105070382D01*
X159499618Y-105070384D01*
X159499808Y-105070462D01*
X159500000Y-105070541D01*
X159500002Y-105070539D01*
X159524616Y-105070524D01*
X159524616Y-105070528D01*
X159524760Y-105070500D01*
X173475240Y-105070500D01*
X173475383Y-105070528D01*
X173475384Y-105070524D01*
X173499997Y-105070539D01*
X173500000Y-105070541D01*
X173500383Y-105070383D01*
X173500500Y-105070099D01*
X173500541Y-105070000D01*
X173500540Y-105069997D01*
X173500583Y-105045889D01*
X173500500Y-105045467D01*
X173500500Y-91094759D01*
X173500528Y-91094616D01*
X173500524Y-91094616D01*
X173500539Y-91070002D01*
X173500541Y-91070000D01*
X173500462Y-91069808D01*
X173500384Y-91069618D01*
X173500382Y-91069616D01*
X173500099Y-91069500D01*
X173500000Y-91069459D01*
X173475446Y-91069459D01*
X173475240Y-91069500D01*
X159524760Y-91069500D01*
X159524554Y-91069459D01*
X159500000Y-91069459D01*
X159499901Y-91069500D01*
X159499617Y-91069616D01*
X159499615Y-91069618D01*
X159499459Y-91069999D01*
X159499476Y-91094616D01*
X159499471Y-91094616D01*
X159499500Y-91094759D01*
X159499500Y-105045467D01*
X159499416Y-105045889D01*
X97500500Y-105045889D01*
X97500500Y-97670889D01*
X102499416Y-97670889D01*
X102499459Y-97695001D01*
X102499500Y-97695099D01*
X102499616Y-97695382D01*
X102499618Y-97695384D01*
X102499808Y-97695462D01*
X102500000Y-97695541D01*
X102500002Y-97695539D01*
X102524616Y-97695524D01*
X102524616Y-97695528D01*
X102524760Y-97695500D01*
X116475240Y-97695500D01*
X116475383Y-97695528D01*
X116475384Y-97695524D01*
X116499997Y-97695539D01*
X116500000Y-97695541D01*
X116500383Y-97695383D01*
X116500500Y-97695099D01*
X116500541Y-97695000D01*
X116500540Y-97694997D01*
X116500583Y-97670889D01*
X116500500Y-97670467D01*
X116500500Y-95545889D01*
X140499416Y-95545889D01*
X140499459Y-95570001D01*
X140499500Y-95570099D01*
X140499616Y-95570382D01*
X140499618Y-95570384D01*
X140499808Y-95570462D01*
X140500000Y-95570541D01*
X140500002Y-95570539D01*
X140524616Y-95570524D01*
X140524616Y-95570528D01*
X140524760Y-95570500D01*
X154475240Y-95570500D01*
X154475383Y-95570528D01*
X154475384Y-95570524D01*
X154499997Y-95570539D01*
X154500000Y-95570541D01*
X154500383Y-95570383D01*
X154500500Y-95570099D01*
X154500541Y-95570000D01*
X154500540Y-95569997D01*
X154500583Y-95545889D01*
X154500500Y-95545467D01*
X154500500Y-86045889D01*
X159499416Y-86045889D01*
X159499459Y-86070001D01*
X159499500Y-86070099D01*
X159499616Y-86070382D01*
X159499618Y-86070384D01*
X159499808Y-86070462D01*
X159500000Y-86070541D01*
X159500002Y-86070539D01*
X159524616Y-86070524D01*
X159524616Y-86070528D01*
X159524760Y-86070500D01*
X173475240Y-86070500D01*
X173475383Y-86070528D01*
X173475384Y-86070524D01*
X173499997Y-86070539D01*
X173500000Y-86070541D01*
X173500383Y-86070383D01*
X173500500Y-86070099D01*
X173500541Y-86070000D01*
X173500540Y-86069997D01*
X173500583Y-86045889D01*
X173500500Y-86045467D01*
X173500500Y-72094759D01*
X173500528Y-72094616D01*
X173500524Y-72094616D01*
X173500539Y-72070002D01*
X173500541Y-72070000D01*
X173500462Y-72069808D01*
X173500384Y-72069618D01*
X173500382Y-72069616D01*
X173500099Y-72069500D01*
X173500000Y-72069459D01*
X173475446Y-72069459D01*
X173475240Y-72069500D01*
X159524760Y-72069500D01*
X159524554Y-72069459D01*
X159500000Y-72069459D01*
X159499901Y-72069500D01*
X159499617Y-72069616D01*
X159499615Y-72069618D01*
X159499459Y-72069999D01*
X159499476Y-72094616D01*
X159499471Y-72094616D01*
X159499500Y-72094759D01*
X159499500Y-86045467D01*
X159499416Y-86045889D01*
X154500500Y-86045889D01*
X154500500Y-81594759D01*
X154500528Y-81594616D01*
X154500524Y-81594616D01*
X154500539Y-81570002D01*
X154500541Y-81570000D01*
X154500462Y-81569808D01*
X154500384Y-81569618D01*
X154500382Y-81569616D01*
X154500099Y-81569500D01*
X154500000Y-81569459D01*
X154475446Y-81569459D01*
X154475240Y-81569500D01*
X140524760Y-81569500D01*
X140524554Y-81569459D01*
X140500000Y-81569459D01*
X140499901Y-81569500D01*
X140499617Y-81569616D01*
X140499615Y-81569618D01*
X140499459Y-81569999D01*
X140499476Y-81594616D01*
X140499471Y-81594616D01*
X140499500Y-81594759D01*
X140499500Y-95545467D01*
X140499416Y-95545889D01*
X116500500Y-95545889D01*
X116500500Y-93420889D01*
X121499416Y-93420889D01*
X121499459Y-93445001D01*
X121499500Y-93445099D01*
X121499616Y-93445382D01*
X121499618Y-93445384D01*
X121499808Y-93445462D01*
X121500000Y-93445541D01*
X121500002Y-93445539D01*
X121524616Y-93445524D01*
X121524616Y-93445528D01*
X121524760Y-93445500D01*
X135475240Y-93445500D01*
X135475383Y-93445528D01*
X135475384Y-93445524D01*
X135499997Y-93445539D01*
X135500000Y-93445541D01*
X135500383Y-93445383D01*
X135500500Y-93445099D01*
X135500541Y-93445000D01*
X135500540Y-93444997D01*
X135500583Y-93420889D01*
X135500500Y-93420467D01*
X135500500Y-79469759D01*
X135500528Y-79469616D01*
X135500524Y-79469616D01*
X135500539Y-79445002D01*
X135500541Y-79445000D01*
X135500462Y-79444808D01*
X135500384Y-79444618D01*
X135500382Y-79444616D01*
X135500099Y-79444500D01*
X135500000Y-79444459D01*
X135475446Y-79444459D01*
X135475240Y-79444500D01*
X121524760Y-79444500D01*
X121524554Y-79444459D01*
X121500000Y-79444459D01*
X121499901Y-79444500D01*
X121499617Y-79444616D01*
X121499615Y-79444618D01*
X121499459Y-79444999D01*
X121499476Y-79469616D01*
X121499471Y-79469616D01*
X121499500Y-79469759D01*
X121499500Y-93420467D01*
X121499416Y-93420889D01*
X116500500Y-93420889D01*
X116500500Y-83719759D01*
X116500528Y-83719616D01*
X116500524Y-83719616D01*
X116500539Y-83695002D01*
X116500541Y-83695000D01*
X116500462Y-83694808D01*
X116500384Y-83694618D01*
X116500382Y-83694616D01*
X116500099Y-83694500D01*
X116500000Y-83694459D01*
X116475446Y-83694459D01*
X116475240Y-83694500D01*
X102524760Y-83694500D01*
X102524554Y-83694459D01*
X102500000Y-83694459D01*
X102499901Y-83694500D01*
X102499617Y-83694616D01*
X102499615Y-83694618D01*
X102499459Y-83694999D01*
X102499476Y-83719616D01*
X102499471Y-83719616D01*
X102499500Y-83719759D01*
X102499500Y-97670467D01*
X102499416Y-97670889D01*
X97500500Y-97670889D01*
X97500500Y-95219759D01*
X97500528Y-95219616D01*
X97500524Y-95219616D01*
X97500539Y-95195002D01*
X97500541Y-95195000D01*
X97500462Y-95194808D01*
X97500384Y-95194618D01*
X97500382Y-95194616D01*
X97500099Y-95194500D01*
X97500000Y-95194459D01*
X97475446Y-95194459D01*
X97475240Y-95194500D01*
X83524760Y-95194500D01*
X83524554Y-95194459D01*
X83500000Y-95194459D01*
X83499901Y-95194500D01*
X83499617Y-95194616D01*
X83499615Y-95194618D01*
X83499459Y-95194999D01*
X83499476Y-95219616D01*
X83499471Y-95219616D01*
X83499500Y-95219759D01*
X83499500Y-109170467D01*
X83499416Y-109170889D01*
X81488510Y-109170889D01*
X81493116Y-109124121D01*
X81494082Y-109117740D01*
X81497435Y-109101429D01*
X81498098Y-109075196D01*
X81498373Y-109070741D01*
X81505341Y-109000000D01*
X81498373Y-108929261D01*
X81498098Y-108924800D01*
X81497435Y-108898571D01*
X81494081Y-108882253D01*
X81493116Y-108875881D01*
X81486024Y-108803868D01*
X81461888Y-108724305D01*
X81460492Y-108718804D01*
X81456600Y-108699865D01*
X81450702Y-108686121D01*
X81448354Y-108679687D01*
X81428814Y-108615273D01*
X81386871Y-108536803D01*
X81384577Y-108532035D01*
X81376601Y-108513447D01*
X81369135Y-108502721D01*
X81365347Y-108496535D01*
X81335910Y-108441462D01*
X81335908Y-108441460D01*
X81335908Y-108441459D01*
X81316696Y-108418050D01*
X81275498Y-108367850D01*
X81272561Y-108363969D01*
X81260715Y-108346948D01*
X81252711Y-108339339D01*
X81247497Y-108333731D01*
X81210883Y-108289116D01*
X81132085Y-108224448D01*
X81128703Y-108221460D01*
X81113686Y-108207187D01*
X81113684Y-108207185D01*
X81106145Y-108202486D01*
X81099606Y-108197794D01*
X81058540Y-108164091D01*
X81058532Y-108164086D01*
X80993705Y-108129436D01*
X80962130Y-108112558D01*
X80958570Y-108110501D01*
X80941535Y-108099883D01*
X80941534Y-108099882D01*
X80941530Y-108099880D01*
X80941526Y-108099878D01*
X80941523Y-108099877D01*
X80935335Y-108097585D01*
X80927635Y-108094120D01*
X80884728Y-108071186D01*
X80772253Y-108037066D01*
X80768721Y-108035878D01*
X80751300Y-108029427D01*
X80750854Y-108029312D01*
X80734276Y-108025547D01*
X80696132Y-108013976D01*
X80696130Y-108013975D01*
X80696132Y-108013975D01*
X80569849Y-108001537D01*
X80566541Y-108001122D01*
X80550784Y-107998708D01*
X80544504Y-107998390D01*
X80544506Y-107998347D01*
X80535205Y-107998125D01*
X80500003Y-107994659D01*
X80499999Y-107994659D01*
X80362793Y-108008171D01*
X80359860Y-108008390D01*
X80348185Y-108008982D01*
X80341974Y-108009934D01*
X80341931Y-108009654D01*
X80334679Y-108010941D01*
X80303869Y-108013975D01*
X80158009Y-108058221D01*
X80151793Y-108059831D01*
X80149430Y-108060706D01*
X80145903Y-108061893D01*
X80115270Y-108071186D01*
X79941467Y-108164086D01*
X79941460Y-108164090D01*
X79789116Y-108289116D01*
X79664090Y-108441460D01*
X79664086Y-108441467D01*
X79571188Y-108615266D01*
X79513975Y-108803870D01*
X79494659Y-109000000D01*
X78000500Y-109000000D01*
X78000500Y-90170889D01*
X83499416Y-90170889D01*
X83499459Y-90195001D01*
X83499500Y-90195099D01*
X83499616Y-90195382D01*
X83499618Y-90195384D01*
X83499808Y-90195462D01*
X83500000Y-90195541D01*
X83500002Y-90195539D01*
X83524616Y-90195524D01*
X83524616Y-90195528D01*
X83524760Y-90195500D01*
X97475240Y-90195500D01*
X97475383Y-90195528D01*
X97475384Y-90195524D01*
X97499997Y-90195539D01*
X97500000Y-90195541D01*
X97500383Y-90195383D01*
X97500500Y-90195099D01*
X97500541Y-90195000D01*
X97500540Y-90194997D01*
X97500583Y-90170889D01*
X97500500Y-90170467D01*
X97500500Y-81500000D01*
X99494659Y-81500000D01*
X99513975Y-81696129D01*
X99571188Y-81884733D01*
X99664086Y-82058532D01*
X99664090Y-82058539D01*
X99789116Y-82210883D01*
X99941460Y-82335909D01*
X99941467Y-82335913D01*
X99941469Y-82335914D01*
X100115273Y-82428814D01*
X100145937Y-82438116D01*
X100149436Y-82439294D01*
X100151796Y-82440168D01*
X100151799Y-82440170D01*
X100158005Y-82441776D01*
X100303868Y-82486024D01*
X100334662Y-82489056D01*
X100341911Y-82490344D01*
X100341955Y-82490063D01*
X100348175Y-82491015D01*
X100348182Y-82491017D01*
X100359880Y-82491610D01*
X100362782Y-82491826D01*
X100500000Y-82505341D01*
X100535203Y-82501873D01*
X100544500Y-82501653D01*
X100544498Y-82501610D01*
X100550768Y-82501291D01*
X100550780Y-82501292D01*
X100566580Y-82498871D01*
X100569831Y-82498463D01*
X100696132Y-82486024D01*
X100734291Y-82474448D01*
X100750827Y-82470694D01*
X100751296Y-82470573D01*
X100751299Y-82470573D01*
X100768704Y-82464127D01*
X100772227Y-82462940D01*
X100884727Y-82428814D01*
X100927647Y-82405872D01*
X100935331Y-82402415D01*
X100941530Y-82400120D01*
X100958615Y-82389470D01*
X100962088Y-82387463D01*
X101058538Y-82335910D01*
X101099627Y-82302188D01*
X101106142Y-82297515D01*
X101113684Y-82292815D01*
X101128726Y-82278516D01*
X101132034Y-82275592D01*
X101210883Y-82210883D01*
X101247511Y-82166251D01*
X101252696Y-82160674D01*
X101260715Y-82153052D01*
X101272568Y-82136021D01*
X101275484Y-82132165D01*
X101335910Y-82058538D01*
X101365356Y-82003446D01*
X101369125Y-81997293D01*
X101376601Y-81986553D01*
X101384578Y-81967963D01*
X101386862Y-81963213D01*
X101428814Y-81884727D01*
X101448361Y-81820288D01*
X101450696Y-81813892D01*
X101456600Y-81800135D01*
X101460497Y-81781170D01*
X101461881Y-81775719D01*
X101486024Y-81696132D01*
X101493116Y-81624121D01*
X101494082Y-81617740D01*
X101497435Y-81601429D01*
X101498098Y-81575196D01*
X101498373Y-81570741D01*
X101505341Y-81500000D01*
X101498373Y-81429261D01*
X101498098Y-81424800D01*
X101497435Y-81398571D01*
X101494081Y-81382253D01*
X101493116Y-81375881D01*
X101486024Y-81303868D01*
X101461888Y-81224305D01*
X101460492Y-81218804D01*
X101456600Y-81199865D01*
X101450702Y-81186121D01*
X101448354Y-81179687D01*
X101428814Y-81115273D01*
X101386871Y-81036803D01*
X101384577Y-81032035D01*
X101376601Y-81013447D01*
X101369135Y-81002721D01*
X101365347Y-80996535D01*
X101335910Y-80941462D01*
X101335908Y-80941460D01*
X101335908Y-80941459D01*
X101316696Y-80918050D01*
X101275498Y-80867850D01*
X101272561Y-80863969D01*
X101260715Y-80846948D01*
X101252711Y-80839339D01*
X101247497Y-80833731D01*
X101210883Y-80789116D01*
X101132085Y-80724448D01*
X101128703Y-80721460D01*
X101113686Y-80707187D01*
X101113684Y-80707185D01*
X101106145Y-80702486D01*
X101099606Y-80697794D01*
X101058540Y-80664091D01*
X101058532Y-80664086D01*
X100993705Y-80629436D01*
X100962130Y-80612558D01*
X100958570Y-80610501D01*
X100941535Y-80599883D01*
X100941534Y-80599882D01*
X100941530Y-80599880D01*
X100941526Y-80599878D01*
X100941523Y-80599877D01*
X100935335Y-80597585D01*
X100927635Y-80594120D01*
X100884728Y-80571186D01*
X100772253Y-80537066D01*
X100768721Y-80535878D01*
X100751300Y-80529427D01*
X100750854Y-80529312D01*
X100734276Y-80525547D01*
X100696132Y-80513976D01*
X100696130Y-80513975D01*
X100696132Y-80513975D01*
X100569849Y-80501537D01*
X100566541Y-80501122D01*
X100550784Y-80498708D01*
X100544504Y-80498390D01*
X100544506Y-80498347D01*
X100535205Y-80498125D01*
X100500003Y-80494659D01*
X100499999Y-80494659D01*
X100362793Y-80508171D01*
X100359860Y-80508390D01*
X100348185Y-80508982D01*
X100341974Y-80509934D01*
X100341931Y-80509654D01*
X100334679Y-80510941D01*
X100303869Y-80513975D01*
X100158009Y-80558221D01*
X100151793Y-80559831D01*
X100149430Y-80560706D01*
X100145903Y-80561893D01*
X100115270Y-80571186D01*
X99941467Y-80664086D01*
X99941460Y-80664090D01*
X99789116Y-80789116D01*
X99664090Y-80941460D01*
X99664086Y-80941467D01*
X99571188Y-81115266D01*
X99513975Y-81303870D01*
X99494659Y-81500000D01*
X97500500Y-81500000D01*
X97500500Y-78670889D01*
X102499416Y-78670889D01*
X102499459Y-78695001D01*
X102499500Y-78695099D01*
X102499616Y-78695382D01*
X102499618Y-78695384D01*
X102499808Y-78695462D01*
X102500000Y-78695541D01*
X102500002Y-78695539D01*
X102524616Y-78695524D01*
X102524616Y-78695528D01*
X102524760Y-78695500D01*
X116475240Y-78695500D01*
X116475383Y-78695528D01*
X116475384Y-78695524D01*
X116499997Y-78695539D01*
X116500000Y-78695541D01*
X116500383Y-78695383D01*
X116500500Y-78695099D01*
X116500541Y-78695000D01*
X116500540Y-78694997D01*
X116500583Y-78670889D01*
X116500500Y-78670467D01*
X116500500Y-76545889D01*
X140499416Y-76545889D01*
X140499459Y-76570001D01*
X140499500Y-76570099D01*
X140499616Y-76570382D01*
X140499618Y-76570384D01*
X140499808Y-76570462D01*
X140500000Y-76570541D01*
X140500002Y-76570539D01*
X140524616Y-76570524D01*
X140524616Y-76570528D01*
X140524760Y-76570500D01*
X154475240Y-76570500D01*
X154475383Y-76570528D01*
X154475384Y-76570524D01*
X154499997Y-76570539D01*
X154500000Y-76570541D01*
X154500383Y-76570383D01*
X154500500Y-76570099D01*
X154500541Y-76570000D01*
X154500540Y-76569997D01*
X154500583Y-76545889D01*
X154500500Y-76545467D01*
X154500500Y-69500000D01*
X156994659Y-69500000D01*
X157013975Y-69696129D01*
X157071188Y-69884733D01*
X157164086Y-70058532D01*
X157164090Y-70058539D01*
X157289116Y-70210883D01*
X157441460Y-70335909D01*
X157441467Y-70335913D01*
X157441469Y-70335914D01*
X157615273Y-70428814D01*
X157645937Y-70438116D01*
X157649436Y-70439294D01*
X157651796Y-70440168D01*
X157651799Y-70440170D01*
X157658005Y-70441776D01*
X157803868Y-70486024D01*
X157834662Y-70489056D01*
X157841911Y-70490344D01*
X157841955Y-70490063D01*
X157848175Y-70491015D01*
X157848182Y-70491017D01*
X157859880Y-70491610D01*
X157862782Y-70491826D01*
X158000000Y-70505341D01*
X158035203Y-70501873D01*
X158044500Y-70501653D01*
X158044498Y-70501610D01*
X158050768Y-70501291D01*
X158050780Y-70501292D01*
X158066580Y-70498871D01*
X158069831Y-70498463D01*
X158196132Y-70486024D01*
X158234291Y-70474448D01*
X158250827Y-70470694D01*
X158251296Y-70470573D01*
X158251299Y-70470573D01*
X158268704Y-70464127D01*
X158272227Y-70462940D01*
X158384727Y-70428814D01*
X158427647Y-70405872D01*
X158435331Y-70402415D01*
X158441530Y-70400120D01*
X158458615Y-70389470D01*
X158462088Y-70387463D01*
X158558538Y-70335910D01*
X158599627Y-70302188D01*
X158606142Y-70297515D01*
X158613684Y-70292815D01*
X158628726Y-70278516D01*
X158632034Y-70275592D01*
X158710883Y-70210883D01*
X158747511Y-70166251D01*
X158752696Y-70160674D01*
X158760715Y-70153052D01*
X158772568Y-70136021D01*
X158775484Y-70132165D01*
X158835910Y-70058538D01*
X158865356Y-70003446D01*
X158869125Y-69997293D01*
X158876601Y-69986553D01*
X158884578Y-69967963D01*
X158886862Y-69963213D01*
X158928814Y-69884727D01*
X158948361Y-69820288D01*
X158950696Y-69813892D01*
X158956600Y-69800135D01*
X158960497Y-69781170D01*
X158961881Y-69775719D01*
X158986024Y-69696132D01*
X158993116Y-69624121D01*
X158994082Y-69617740D01*
X158997435Y-69601429D01*
X158998098Y-69575196D01*
X158998373Y-69570741D01*
X159005341Y-69500000D01*
X158998373Y-69429261D01*
X158998098Y-69424800D01*
X158997435Y-69398571D01*
X158994081Y-69382253D01*
X158993116Y-69375881D01*
X158986024Y-69303868D01*
X158961888Y-69224305D01*
X158960492Y-69218804D01*
X158956600Y-69199865D01*
X158950702Y-69186121D01*
X158948354Y-69179687D01*
X158928814Y-69115273D01*
X158886871Y-69036803D01*
X158884577Y-69032035D01*
X158876601Y-69013447D01*
X158869135Y-69002721D01*
X158865347Y-68996535D01*
X158835910Y-68941462D01*
X158835908Y-68941460D01*
X158835908Y-68941459D01*
X158816696Y-68918050D01*
X158775498Y-68867850D01*
X158772561Y-68863969D01*
X158760715Y-68846948D01*
X158752711Y-68839339D01*
X158747497Y-68833731D01*
X158710883Y-68789116D01*
X158632085Y-68724448D01*
X158628703Y-68721460D01*
X158613686Y-68707187D01*
X158613684Y-68707185D01*
X158606145Y-68702486D01*
X158599606Y-68697794D01*
X158558540Y-68664091D01*
X158558532Y-68664086D01*
X158493705Y-68629436D01*
X158462130Y-68612558D01*
X158458570Y-68610501D01*
X158441535Y-68599883D01*
X158441534Y-68599882D01*
X158441530Y-68599880D01*
X158441526Y-68599878D01*
X158441523Y-68599877D01*
X158435335Y-68597585D01*
X158427635Y-68594120D01*
X158384728Y-68571186D01*
X158272253Y-68537066D01*
X158268721Y-68535878D01*
X158251300Y-68529427D01*
X158250854Y-68529312D01*
X158234276Y-68525547D01*
X158196132Y-68513976D01*
X158196130Y-68513975D01*
X158196132Y-68513975D01*
X158069849Y-68501537D01*
X158066541Y-68501122D01*
X158050784Y-68498708D01*
X158044504Y-68498390D01*
X158044506Y-68498347D01*
X158035205Y-68498125D01*
X158000003Y-68494659D01*
X157999999Y-68494659D01*
X157862793Y-68508171D01*
X157859860Y-68508390D01*
X157848185Y-68508982D01*
X157841974Y-68509934D01*
X157841931Y-68509654D01*
X157834679Y-68510941D01*
X157803869Y-68513975D01*
X157658009Y-68558221D01*
X157651793Y-68559831D01*
X157649430Y-68560706D01*
X157645903Y-68561893D01*
X157615270Y-68571186D01*
X157441467Y-68664086D01*
X157441460Y-68664090D01*
X157289116Y-68789116D01*
X157164090Y-68941460D01*
X157164086Y-68941467D01*
X157071188Y-69115266D01*
X157013975Y-69303870D01*
X156994659Y-69500000D01*
X154500500Y-69500000D01*
X154500500Y-67045889D01*
X159499416Y-67045889D01*
X159499459Y-67070001D01*
X159499500Y-67070099D01*
X159499616Y-67070382D01*
X159499618Y-67070384D01*
X159499808Y-67070462D01*
X159500000Y-67070541D01*
X159500002Y-67070539D01*
X159524616Y-67070524D01*
X159524616Y-67070528D01*
X159524760Y-67070500D01*
X173475240Y-67070500D01*
X173475383Y-67070528D01*
X173475384Y-67070524D01*
X173499997Y-67070539D01*
X173500000Y-67070541D01*
X173500383Y-67070383D01*
X173500500Y-67070099D01*
X173500541Y-67070000D01*
X173500540Y-67069997D01*
X173500583Y-67045889D01*
X173500500Y-67045467D01*
X173500500Y-54000000D01*
X175494659Y-54000000D01*
X175513975Y-54196129D01*
X175571188Y-54384733D01*
X175664086Y-54558532D01*
X175664090Y-54558539D01*
X175789116Y-54710883D01*
X175941460Y-54835909D01*
X175941467Y-54835913D01*
X175941469Y-54835914D01*
X176115273Y-54928814D01*
X176145937Y-54938116D01*
X176149436Y-54939294D01*
X176151796Y-54940168D01*
X176151799Y-54940170D01*
X176158005Y-54941776D01*
X176303868Y-54986024D01*
X176334662Y-54989056D01*
X176341911Y-54990344D01*
X176341955Y-54990063D01*
X176348175Y-54991015D01*
X176348182Y-54991017D01*
X176359880Y-54991610D01*
X176362782Y-54991826D01*
X176500000Y-55005341D01*
X176535203Y-55001873D01*
X176544500Y-55001653D01*
X176544498Y-55001610D01*
X176550768Y-55001291D01*
X176550780Y-55001292D01*
X176566580Y-54998871D01*
X176569831Y-54998463D01*
X176696132Y-54986024D01*
X176734291Y-54974448D01*
X176750827Y-54970694D01*
X176751296Y-54970573D01*
X176751299Y-54970573D01*
X176768704Y-54964127D01*
X176772227Y-54962940D01*
X176884727Y-54928814D01*
X176927647Y-54905872D01*
X176935331Y-54902415D01*
X176941530Y-54900120D01*
X176958615Y-54889470D01*
X176962088Y-54887463D01*
X177058538Y-54835910D01*
X177099627Y-54802188D01*
X177106142Y-54797515D01*
X177113684Y-54792815D01*
X177128726Y-54778516D01*
X177132034Y-54775592D01*
X177210883Y-54710883D01*
X177247511Y-54666251D01*
X177252696Y-54660674D01*
X177260715Y-54653052D01*
X177272568Y-54636021D01*
X177275484Y-54632165D01*
X177335910Y-54558538D01*
X177365356Y-54503446D01*
X177369125Y-54497293D01*
X177376601Y-54486553D01*
X177384578Y-54467963D01*
X177386862Y-54463213D01*
X177428814Y-54384727D01*
X177448361Y-54320288D01*
X177450696Y-54313892D01*
X177456600Y-54300135D01*
X177460497Y-54281170D01*
X177461881Y-54275719D01*
X177486024Y-54196132D01*
X177493116Y-54124121D01*
X177494082Y-54117740D01*
X177497435Y-54101429D01*
X177498098Y-54075196D01*
X177498373Y-54070741D01*
X177505341Y-54000000D01*
X177498373Y-53929261D01*
X177498098Y-53924800D01*
X177497435Y-53898571D01*
X177494081Y-53882253D01*
X177493116Y-53875881D01*
X177486024Y-53803868D01*
X177461888Y-53724305D01*
X177460492Y-53718804D01*
X177456600Y-53699865D01*
X177450702Y-53686121D01*
X177448354Y-53679687D01*
X177428814Y-53615273D01*
X177386871Y-53536803D01*
X177384577Y-53532035D01*
X177376601Y-53513447D01*
X177369135Y-53502721D01*
X177365347Y-53496535D01*
X177335910Y-53441462D01*
X177335908Y-53441460D01*
X177335908Y-53441459D01*
X177316696Y-53418050D01*
X177275498Y-53367850D01*
X177272561Y-53363969D01*
X177260715Y-53346948D01*
X177252711Y-53339339D01*
X177247497Y-53333731D01*
X177210883Y-53289116D01*
X177132085Y-53224448D01*
X177128703Y-53221460D01*
X177113686Y-53207187D01*
X177113684Y-53207185D01*
X177106145Y-53202486D01*
X177099606Y-53197794D01*
X177058540Y-53164091D01*
X177058532Y-53164086D01*
X176993705Y-53129436D01*
X176962130Y-53112558D01*
X176958570Y-53110501D01*
X176941535Y-53099883D01*
X176941534Y-53099882D01*
X176941530Y-53099880D01*
X176941526Y-53099878D01*
X176941523Y-53099877D01*
X176935335Y-53097585D01*
X176927635Y-53094120D01*
X176884728Y-53071186D01*
X176772253Y-53037066D01*
X176768721Y-53035878D01*
X176751300Y-53029427D01*
X176750854Y-53029312D01*
X176734276Y-53025547D01*
X176696132Y-53013976D01*
X176696130Y-53013975D01*
X176696132Y-53013975D01*
X176569849Y-53001537D01*
X176566541Y-53001122D01*
X176550784Y-52998708D01*
X176544504Y-52998390D01*
X176544506Y-52998347D01*
X176535205Y-52998125D01*
X176500003Y-52994659D01*
X176499999Y-52994659D01*
X176362793Y-53008171D01*
X176359860Y-53008390D01*
X176348185Y-53008982D01*
X176341974Y-53009934D01*
X176341931Y-53009654D01*
X176334679Y-53010941D01*
X176303869Y-53013975D01*
X176158009Y-53058221D01*
X176151793Y-53059831D01*
X176149430Y-53060706D01*
X176145903Y-53061893D01*
X176115270Y-53071186D01*
X175941467Y-53164086D01*
X175941460Y-53164090D01*
X175789116Y-53289116D01*
X175664090Y-53441460D01*
X175664086Y-53441467D01*
X175571188Y-53615266D01*
X175513975Y-53803870D01*
X175494659Y-54000000D01*
X173500500Y-54000000D01*
X173500500Y-53094759D01*
X173500528Y-53094616D01*
X173500524Y-53094616D01*
X173500539Y-53070002D01*
X173500541Y-53070000D01*
X173500462Y-53069808D01*
X173500384Y-53069618D01*
X173500382Y-53069616D01*
X173500099Y-53069500D01*
X173500000Y-53069459D01*
X173475446Y-53069459D01*
X173475240Y-53069500D01*
X159524760Y-53069500D01*
X159524554Y-53069459D01*
X159500000Y-53069459D01*
X159499901Y-53069500D01*
X159499617Y-53069616D01*
X159499615Y-53069618D01*
X159499459Y-53069999D01*
X159499476Y-53094616D01*
X159499471Y-53094616D01*
X159499500Y-53094759D01*
X159499500Y-67045467D01*
X159499416Y-67045889D01*
X154500500Y-67045889D01*
X154500500Y-62594759D01*
X154500528Y-62594616D01*
X154500524Y-62594616D01*
X154500539Y-62570002D01*
X154500541Y-62570000D01*
X154500462Y-62569808D01*
X154500384Y-62569618D01*
X154500382Y-62569616D01*
X154500099Y-62569500D01*
X154500000Y-62569459D01*
X154475446Y-62569459D01*
X154475240Y-62569500D01*
X140524760Y-62569500D01*
X140524554Y-62569459D01*
X140500000Y-62569459D01*
X140499901Y-62569500D01*
X140499617Y-62569616D01*
X140499615Y-62569618D01*
X140499459Y-62569999D01*
X140499476Y-62594616D01*
X140499471Y-62594616D01*
X140499500Y-62594759D01*
X140499500Y-76545467D01*
X140499416Y-76545889D01*
X116500500Y-76545889D01*
X116500500Y-74420889D01*
X121499416Y-74420889D01*
X121499459Y-74445001D01*
X121499500Y-74445099D01*
X121499616Y-74445382D01*
X121499618Y-74445384D01*
X121499808Y-74445462D01*
X121500000Y-74445541D01*
X121500002Y-74445539D01*
X121524616Y-74445524D01*
X121524616Y-74445528D01*
X121524760Y-74445500D01*
X135475240Y-74445500D01*
X135475383Y-74445528D01*
X135475384Y-74445524D01*
X135499997Y-74445539D01*
X135500000Y-74445541D01*
X135500383Y-74445383D01*
X135500500Y-74445099D01*
X135500541Y-74445000D01*
X135500540Y-74444997D01*
X135500583Y-74420889D01*
X135500500Y-74420467D01*
X135500500Y-60469759D01*
X135500528Y-60469616D01*
X135500524Y-60469616D01*
X135500539Y-60445002D01*
X135500541Y-60445000D01*
X135500462Y-60444808D01*
X135500384Y-60444618D01*
X135500382Y-60444616D01*
X135500099Y-60444500D01*
X135500000Y-60444459D01*
X135475446Y-60444459D01*
X135475240Y-60444500D01*
X121524760Y-60444500D01*
X121524554Y-60444459D01*
X121500000Y-60444459D01*
X121499901Y-60444500D01*
X121499617Y-60444616D01*
X121499615Y-60444618D01*
X121499459Y-60444999D01*
X121499476Y-60469616D01*
X121499471Y-60469616D01*
X121499500Y-60469759D01*
X121499500Y-74420467D01*
X121499416Y-74420889D01*
X116500500Y-74420889D01*
X116500500Y-64719759D01*
X116500528Y-64719616D01*
X116500524Y-64719616D01*
X116500539Y-64695002D01*
X116500541Y-64695000D01*
X116500462Y-64694808D01*
X116500384Y-64694618D01*
X116500382Y-64694616D01*
X116500099Y-64694500D01*
X116500000Y-64694459D01*
X116475446Y-64694459D01*
X116475240Y-64694500D01*
X102524760Y-64694500D01*
X102524554Y-64694459D01*
X102500000Y-64694459D01*
X102499901Y-64694500D01*
X102499617Y-64694616D01*
X102499615Y-64694618D01*
X102499459Y-64694999D01*
X102499476Y-64719616D01*
X102499471Y-64719616D01*
X102499500Y-64719759D01*
X102499500Y-78670467D01*
X102499416Y-78670889D01*
X97500500Y-78670889D01*
X97500500Y-76219759D01*
X97500528Y-76219616D01*
X97500524Y-76219616D01*
X97500539Y-76195002D01*
X97500541Y-76195000D01*
X97500462Y-76194808D01*
X97500384Y-76194618D01*
X97500382Y-76194616D01*
X97500099Y-76194500D01*
X97500000Y-76194459D01*
X97475446Y-76194459D01*
X97475240Y-76194500D01*
X83524760Y-76194500D01*
X83524554Y-76194459D01*
X83500000Y-76194459D01*
X83499901Y-76194500D01*
X83499617Y-76194616D01*
X83499615Y-76194618D01*
X83499459Y-76194999D01*
X83499476Y-76219616D01*
X83499471Y-76219616D01*
X83499500Y-76219759D01*
X83499500Y-90170467D01*
X83499416Y-90170889D01*
X78000500Y-90170889D01*
X78000500Y-71170889D01*
X83499416Y-71170889D01*
X83499459Y-71195001D01*
X83499500Y-71195099D01*
X83499616Y-71195382D01*
X83499618Y-71195384D01*
X83499808Y-71195462D01*
X83500000Y-71195541D01*
X83500002Y-71195539D01*
X83524616Y-71195524D01*
X83524616Y-71195528D01*
X83524760Y-71195500D01*
X97475240Y-71195500D01*
X97475383Y-71195528D01*
X97475384Y-71195524D01*
X97499997Y-71195539D01*
X97500000Y-71195541D01*
X97500383Y-71195383D01*
X97500500Y-71195099D01*
X97500541Y-71195000D01*
X97500540Y-71194997D01*
X97500583Y-71170889D01*
X97500500Y-71170467D01*
X97500500Y-59670889D01*
X102499416Y-59670889D01*
X102499459Y-59695001D01*
X102499500Y-59695099D01*
X102499616Y-59695382D01*
X102499618Y-59695384D01*
X102499808Y-59695462D01*
X102500000Y-59695541D01*
X102500002Y-59695539D01*
X102524616Y-59695524D01*
X102524616Y-59695528D01*
X102524760Y-59695500D01*
X116475240Y-59695500D01*
X116475383Y-59695528D01*
X116475384Y-59695524D01*
X116499997Y-59695539D01*
X116500000Y-59695541D01*
X116500383Y-59695383D01*
X116500500Y-59695099D01*
X116500541Y-59695000D01*
X116500540Y-59694997D01*
X116500583Y-59670889D01*
X116500500Y-59670467D01*
X116500500Y-58000000D01*
X118994659Y-58000000D01*
X119013975Y-58196129D01*
X119071188Y-58384733D01*
X119164086Y-58558532D01*
X119164090Y-58558539D01*
X119289116Y-58710883D01*
X119441460Y-58835909D01*
X119441467Y-58835913D01*
X119441469Y-58835914D01*
X119615273Y-58928814D01*
X119645937Y-58938116D01*
X119649436Y-58939294D01*
X119651796Y-58940168D01*
X119651799Y-58940170D01*
X119658005Y-58941776D01*
X119803868Y-58986024D01*
X119834662Y-58989056D01*
X119841911Y-58990344D01*
X119841955Y-58990063D01*
X119848175Y-58991015D01*
X119848182Y-58991017D01*
X119859880Y-58991610D01*
X119862782Y-58991826D01*
X120000000Y-59005341D01*
X120035203Y-59001873D01*
X120044500Y-59001653D01*
X120044498Y-59001610D01*
X120050768Y-59001291D01*
X120050780Y-59001292D01*
X120066580Y-58998871D01*
X120069831Y-58998463D01*
X120196132Y-58986024D01*
X120234291Y-58974448D01*
X120250827Y-58970694D01*
X120251296Y-58970573D01*
X120251299Y-58970573D01*
X120268704Y-58964127D01*
X120272227Y-58962940D01*
X120384727Y-58928814D01*
X120427647Y-58905872D01*
X120435331Y-58902415D01*
X120441530Y-58900120D01*
X120458615Y-58889470D01*
X120462088Y-58887463D01*
X120558538Y-58835910D01*
X120599627Y-58802188D01*
X120606142Y-58797515D01*
X120613684Y-58792815D01*
X120628726Y-58778516D01*
X120632034Y-58775592D01*
X120710883Y-58710883D01*
X120747511Y-58666251D01*
X120752696Y-58660674D01*
X120760715Y-58653052D01*
X120772568Y-58636021D01*
X120775484Y-58632165D01*
X120835910Y-58558538D01*
X120865356Y-58503446D01*
X120869125Y-58497293D01*
X120876601Y-58486553D01*
X120884578Y-58467963D01*
X120886862Y-58463213D01*
X120928814Y-58384727D01*
X120948361Y-58320288D01*
X120950696Y-58313892D01*
X120956600Y-58300135D01*
X120960497Y-58281170D01*
X120961881Y-58275719D01*
X120986024Y-58196132D01*
X120993116Y-58124121D01*
X120994082Y-58117740D01*
X120997435Y-58101429D01*
X120998098Y-58075196D01*
X120998373Y-58070741D01*
X121005341Y-58000000D01*
X120998373Y-57929261D01*
X120998098Y-57924800D01*
X120997435Y-57898571D01*
X120994081Y-57882253D01*
X120993116Y-57875881D01*
X120986024Y-57803868D01*
X120961888Y-57724305D01*
X120960492Y-57718804D01*
X120956600Y-57699865D01*
X120950702Y-57686121D01*
X120948354Y-57679687D01*
X120928814Y-57615273D01*
X120904348Y-57569500D01*
X120891728Y-57545889D01*
X140499416Y-57545889D01*
X140499459Y-57570001D01*
X140499500Y-57570099D01*
X140499616Y-57570382D01*
X140499618Y-57570384D01*
X140499808Y-57570462D01*
X140500000Y-57570541D01*
X140500002Y-57570539D01*
X140524616Y-57570524D01*
X140524616Y-57570528D01*
X140524760Y-57570500D01*
X154475240Y-57570500D01*
X154475383Y-57570528D01*
X154475384Y-57570524D01*
X154499997Y-57570539D01*
X154500000Y-57570541D01*
X154500383Y-57570383D01*
X154500500Y-57570099D01*
X154500541Y-57570000D01*
X154500540Y-57569997D01*
X154500583Y-57545889D01*
X154500500Y-57545467D01*
X154500500Y-43594759D01*
X154500528Y-43594616D01*
X154500524Y-43594616D01*
X154500539Y-43570002D01*
X154500541Y-43570000D01*
X154500462Y-43569808D01*
X154500384Y-43569618D01*
X154500382Y-43569616D01*
X154500099Y-43569500D01*
X154500000Y-43569459D01*
X154475446Y-43569459D01*
X154475240Y-43569500D01*
X140524760Y-43569500D01*
X140524554Y-43569459D01*
X140500000Y-43569459D01*
X140499901Y-43569500D01*
X140499617Y-43569616D01*
X140499615Y-43569618D01*
X140499459Y-43569999D01*
X140499476Y-43594616D01*
X140499471Y-43594616D01*
X140499500Y-43594759D01*
X140499500Y-57545467D01*
X140499416Y-57545889D01*
X120891728Y-57545889D01*
X120886871Y-57536803D01*
X120884577Y-57532035D01*
X120876601Y-57513447D01*
X120869135Y-57502721D01*
X120865347Y-57496535D01*
X120835910Y-57441462D01*
X120835908Y-57441460D01*
X120835908Y-57441459D01*
X120816696Y-57418050D01*
X120775498Y-57367850D01*
X120772561Y-57363969D01*
X120760715Y-57346948D01*
X120752711Y-57339339D01*
X120747497Y-57333731D01*
X120710883Y-57289116D01*
X120632085Y-57224448D01*
X120628703Y-57221460D01*
X120613686Y-57207187D01*
X120613684Y-57207185D01*
X120606145Y-57202486D01*
X120599606Y-57197794D01*
X120596200Y-57194999D01*
X120590703Y-57190487D01*
X120558540Y-57164091D01*
X120558532Y-57164086D01*
X120493705Y-57129436D01*
X120462130Y-57112558D01*
X120458570Y-57110501D01*
X120441535Y-57099883D01*
X120441534Y-57099882D01*
X120441530Y-57099880D01*
X120441526Y-57099878D01*
X120441523Y-57099877D01*
X120435335Y-57097585D01*
X120427635Y-57094120D01*
X120384728Y-57071186D01*
X120272253Y-57037066D01*
X120268721Y-57035878D01*
X120251300Y-57029427D01*
X120250854Y-57029312D01*
X120234276Y-57025547D01*
X120196132Y-57013976D01*
X120196130Y-57013975D01*
X120196132Y-57013975D01*
X120069849Y-57001537D01*
X120066541Y-57001122D01*
X120050784Y-56998708D01*
X120044504Y-56998390D01*
X120044506Y-56998347D01*
X120035205Y-56998125D01*
X120000003Y-56994659D01*
X119999999Y-56994659D01*
X119862793Y-57008171D01*
X119859860Y-57008390D01*
X119848185Y-57008982D01*
X119841974Y-57009934D01*
X119841931Y-57009654D01*
X119834679Y-57010941D01*
X119803869Y-57013975D01*
X119658009Y-57058221D01*
X119651793Y-57059831D01*
X119649430Y-57060706D01*
X119645903Y-57061893D01*
X119615270Y-57071186D01*
X119441467Y-57164086D01*
X119441460Y-57164090D01*
X119289116Y-57289116D01*
X119164090Y-57441460D01*
X119164086Y-57441467D01*
X119071188Y-57615266D01*
X119013975Y-57803870D01*
X118994659Y-58000000D01*
X116500500Y-58000000D01*
X116500500Y-55420889D01*
X121499416Y-55420889D01*
X121499459Y-55445001D01*
X121499500Y-55445099D01*
X121499616Y-55445382D01*
X121499618Y-55445384D01*
X121499808Y-55445462D01*
X121500000Y-55445541D01*
X121500002Y-55445539D01*
X121524616Y-55445524D01*
X121524616Y-55445528D01*
X121524760Y-55445500D01*
X135475240Y-55445500D01*
X135475383Y-55445528D01*
X135475384Y-55445524D01*
X135499997Y-55445539D01*
X135500000Y-55445541D01*
X135500383Y-55445383D01*
X135500500Y-55445099D01*
X135500541Y-55445000D01*
X135500540Y-55444997D01*
X135500583Y-55420889D01*
X135500500Y-55420467D01*
X135500500Y-43500000D01*
X156994659Y-43500000D01*
X157013975Y-43696129D01*
X157071188Y-43884733D01*
X157164086Y-44058532D01*
X157164090Y-44058539D01*
X157289116Y-44210883D01*
X157441460Y-44335909D01*
X157441467Y-44335913D01*
X157441469Y-44335914D01*
X157615273Y-44428814D01*
X157645937Y-44438116D01*
X157649436Y-44439294D01*
X157651796Y-44440168D01*
X157651799Y-44440170D01*
X157658005Y-44441776D01*
X157803868Y-44486024D01*
X157834662Y-44489056D01*
X157841911Y-44490344D01*
X157841955Y-44490063D01*
X157848175Y-44491015D01*
X157848182Y-44491017D01*
X157859880Y-44491610D01*
X157862782Y-44491826D01*
X158000000Y-44505341D01*
X158035203Y-44501873D01*
X158044500Y-44501653D01*
X158044498Y-44501610D01*
X158050768Y-44501291D01*
X158050780Y-44501292D01*
X158066580Y-44498871D01*
X158069831Y-44498463D01*
X158196132Y-44486024D01*
X158234291Y-44474448D01*
X158250827Y-44470694D01*
X158251296Y-44470573D01*
X158251299Y-44470573D01*
X158268704Y-44464127D01*
X158272227Y-44462940D01*
X158384727Y-44428814D01*
X158427647Y-44405872D01*
X158435331Y-44402415D01*
X158441530Y-44400120D01*
X158458615Y-44389470D01*
X158462088Y-44387463D01*
X158558538Y-44335910D01*
X158599627Y-44302188D01*
X158606142Y-44297515D01*
X158613684Y-44292815D01*
X158628726Y-44278516D01*
X158632034Y-44275592D01*
X158710883Y-44210883D01*
X158747511Y-44166251D01*
X158752696Y-44160674D01*
X158760715Y-44153052D01*
X158772568Y-44136021D01*
X158775484Y-44132165D01*
X158835910Y-44058538D01*
X158865356Y-44003446D01*
X158869125Y-43997293D01*
X158876601Y-43986553D01*
X158884578Y-43967963D01*
X158886862Y-43963213D01*
X158928814Y-43884727D01*
X158948361Y-43820288D01*
X158950696Y-43813892D01*
X158956600Y-43800135D01*
X158960497Y-43781170D01*
X158961881Y-43775719D01*
X158986024Y-43696132D01*
X158993116Y-43624121D01*
X158994082Y-43617740D01*
X158997435Y-43601429D01*
X158998098Y-43575196D01*
X158998373Y-43570741D01*
X159005341Y-43500000D01*
X158998373Y-43429261D01*
X158998098Y-43424800D01*
X158997435Y-43398571D01*
X158994081Y-43382253D01*
X158993116Y-43375881D01*
X158986024Y-43303868D01*
X158961888Y-43224305D01*
X158960492Y-43218804D01*
X158956600Y-43199865D01*
X158950702Y-43186121D01*
X158948354Y-43179687D01*
X158928814Y-43115273D01*
X158886871Y-43036803D01*
X158884577Y-43032035D01*
X158876601Y-43013447D01*
X158869135Y-43002721D01*
X158865347Y-42996535D01*
X158835910Y-42941462D01*
X158835908Y-42941460D01*
X158835908Y-42941459D01*
X158816696Y-42918050D01*
X158775498Y-42867850D01*
X158772561Y-42863969D01*
X158760715Y-42846948D01*
X158752711Y-42839339D01*
X158747497Y-42833731D01*
X158710883Y-42789116D01*
X158632085Y-42724448D01*
X158628703Y-42721460D01*
X158613686Y-42707187D01*
X158613684Y-42707185D01*
X158606145Y-42702486D01*
X158599606Y-42697794D01*
X158558540Y-42664091D01*
X158558532Y-42664086D01*
X158493705Y-42629436D01*
X158462130Y-42612558D01*
X158458570Y-42610501D01*
X158441535Y-42599883D01*
X158441534Y-42599882D01*
X158441530Y-42599880D01*
X158441526Y-42599878D01*
X158441523Y-42599877D01*
X158435335Y-42597585D01*
X158427635Y-42594120D01*
X158384728Y-42571186D01*
X158272253Y-42537066D01*
X158268721Y-42535878D01*
X158251300Y-42529427D01*
X158250854Y-42529312D01*
X158234276Y-42525547D01*
X158196132Y-42513976D01*
X158196130Y-42513975D01*
X158196132Y-42513975D01*
X158069849Y-42501537D01*
X158066541Y-42501122D01*
X158050784Y-42498708D01*
X158044504Y-42498390D01*
X158044506Y-42498347D01*
X158035205Y-42498125D01*
X158000003Y-42494659D01*
X157999999Y-42494659D01*
X157862793Y-42508171D01*
X157859860Y-42508390D01*
X157848185Y-42508982D01*
X157841974Y-42509934D01*
X157841931Y-42509654D01*
X157834679Y-42510941D01*
X157803869Y-42513975D01*
X157658009Y-42558221D01*
X157651793Y-42559831D01*
X157649430Y-42560706D01*
X157645903Y-42561893D01*
X157615270Y-42571186D01*
X157441467Y-42664086D01*
X157441460Y-42664090D01*
X157289116Y-42789116D01*
X157164090Y-42941460D01*
X157164086Y-42941467D01*
X157071188Y-43115266D01*
X157013975Y-43303870D01*
X156994659Y-43500000D01*
X135500500Y-43500000D01*
X135500500Y-41469759D01*
X135500528Y-41469616D01*
X135500524Y-41469616D01*
X135500539Y-41445002D01*
X135500541Y-41445000D01*
X135500462Y-41444808D01*
X135500384Y-41444618D01*
X135500382Y-41444616D01*
X135500099Y-41444500D01*
X135500000Y-41444459D01*
X135475446Y-41444459D01*
X135475240Y-41444500D01*
X121524760Y-41444500D01*
X121524554Y-41444459D01*
X121500000Y-41444459D01*
X121499901Y-41444500D01*
X121499617Y-41444616D01*
X121499615Y-41444618D01*
X121499459Y-41444999D01*
X121499476Y-41469616D01*
X121499471Y-41469616D01*
X121499500Y-41469759D01*
X121499500Y-55420467D01*
X121499416Y-55420889D01*
X116500500Y-55420889D01*
X116500500Y-45719759D01*
X116500528Y-45719616D01*
X116500524Y-45719616D01*
X116500539Y-45695002D01*
X116500541Y-45695000D01*
X116500462Y-45694808D01*
X116500384Y-45694618D01*
X116500382Y-45694616D01*
X116500099Y-45694500D01*
X116500000Y-45694459D01*
X116475446Y-45694459D01*
X116475240Y-45694500D01*
X102524760Y-45694500D01*
X102524554Y-45694459D01*
X102500000Y-45694459D01*
X102499901Y-45694500D01*
X102499617Y-45694616D01*
X102499615Y-45694618D01*
X102499459Y-45694999D01*
X102499476Y-45719616D01*
X102499471Y-45719616D01*
X102499500Y-45719759D01*
X102499500Y-59670467D01*
X102499416Y-59670889D01*
X97500500Y-59670889D01*
X97500500Y-57219759D01*
X97500528Y-57219616D01*
X97500524Y-57219616D01*
X97500539Y-57195002D01*
X97500541Y-57195000D01*
X97500462Y-57194808D01*
X97500384Y-57194618D01*
X97500382Y-57194616D01*
X97500099Y-57194500D01*
X97500000Y-57194459D01*
X97475446Y-57194459D01*
X97475240Y-57194500D01*
X83524760Y-57194500D01*
X83524554Y-57194459D01*
X83500000Y-57194459D01*
X83499901Y-57194500D01*
X83499617Y-57194616D01*
X83499615Y-57194618D01*
X83499459Y-57194999D01*
X83499476Y-57219616D01*
X83499471Y-57219616D01*
X83499500Y-57219759D01*
X83499500Y-71170467D01*
X83499416Y-71170889D01*
X78000500Y-71170889D01*
X78000500Y-52572812D01*
X78020185Y-52505773D01*
X78063706Y-52464738D01*
X80667685Y-51000000D01*
X84994659Y-51000000D01*
X85013975Y-51196129D01*
X85071188Y-51384733D01*
X85164086Y-51558532D01*
X85164090Y-51558539D01*
X85289116Y-51710883D01*
X85441460Y-51835909D01*
X85441467Y-51835913D01*
X85441469Y-51835914D01*
X85615273Y-51928814D01*
X85645937Y-51938116D01*
X85649436Y-51939294D01*
X85651796Y-51940168D01*
X85651799Y-51940170D01*
X85658005Y-51941776D01*
X85803868Y-51986024D01*
X85834662Y-51989056D01*
X85841911Y-51990344D01*
X85841955Y-51990063D01*
X85848175Y-51991015D01*
X85848182Y-51991017D01*
X85859880Y-51991610D01*
X85862782Y-51991826D01*
X86000000Y-52005341D01*
X86035203Y-52001873D01*
X86044500Y-52001653D01*
X86044498Y-52001610D01*
X86050768Y-52001291D01*
X86050780Y-52001292D01*
X86066580Y-51998871D01*
X86069831Y-51998463D01*
X86196132Y-51986024D01*
X86234291Y-51974448D01*
X86250827Y-51970694D01*
X86251296Y-51970573D01*
X86251299Y-51970573D01*
X86268704Y-51964127D01*
X86272227Y-51962940D01*
X86384727Y-51928814D01*
X86427647Y-51905872D01*
X86435331Y-51902415D01*
X86441530Y-51900120D01*
X86458615Y-51889470D01*
X86462088Y-51887463D01*
X86558538Y-51835910D01*
X86599627Y-51802188D01*
X86606142Y-51797515D01*
X86613684Y-51792815D01*
X86628726Y-51778516D01*
X86632034Y-51775592D01*
X86710883Y-51710883D01*
X86747511Y-51666251D01*
X86752696Y-51660674D01*
X86760715Y-51653052D01*
X86772568Y-51636021D01*
X86775484Y-51632165D01*
X86835910Y-51558538D01*
X86865356Y-51503446D01*
X86869125Y-51497293D01*
X86876601Y-51486553D01*
X86884578Y-51467963D01*
X86886862Y-51463213D01*
X86928814Y-51384727D01*
X86948361Y-51320288D01*
X86950696Y-51313892D01*
X86956600Y-51300135D01*
X86960497Y-51281170D01*
X86961881Y-51275719D01*
X86986024Y-51196132D01*
X86993116Y-51124121D01*
X86994082Y-51117740D01*
X86997435Y-51101429D01*
X86998098Y-51075196D01*
X86998373Y-51070741D01*
X87005341Y-51000000D01*
X86998373Y-50929261D01*
X86998098Y-50924800D01*
X86997435Y-50898571D01*
X86994081Y-50882253D01*
X86993116Y-50875881D01*
X86986024Y-50803868D01*
X86961888Y-50724305D01*
X86960492Y-50718804D01*
X86956600Y-50699865D01*
X86950702Y-50686121D01*
X86948354Y-50679687D01*
X86928814Y-50615273D01*
X86886871Y-50536803D01*
X86884577Y-50532035D01*
X86876601Y-50513447D01*
X86869135Y-50502721D01*
X86865347Y-50496535D01*
X86835910Y-50441462D01*
X86835908Y-50441460D01*
X86835908Y-50441459D01*
X86816696Y-50418050D01*
X86775498Y-50367850D01*
X86772561Y-50363969D01*
X86760715Y-50346948D01*
X86752711Y-50339339D01*
X86747497Y-50333731D01*
X86710883Y-50289116D01*
X86632085Y-50224448D01*
X86628703Y-50221460D01*
X86613686Y-50207187D01*
X86613684Y-50207185D01*
X86606145Y-50202486D01*
X86599606Y-50197794D01*
X86558540Y-50164091D01*
X86558532Y-50164086D01*
X86493705Y-50129436D01*
X86462130Y-50112558D01*
X86458570Y-50110501D01*
X86441535Y-50099883D01*
X86441534Y-50099882D01*
X86441530Y-50099880D01*
X86441526Y-50099878D01*
X86441523Y-50099877D01*
X86435335Y-50097585D01*
X86427635Y-50094120D01*
X86384728Y-50071186D01*
X86272253Y-50037066D01*
X86268721Y-50035878D01*
X86251300Y-50029427D01*
X86250854Y-50029312D01*
X86234276Y-50025547D01*
X86196132Y-50013976D01*
X86196130Y-50013975D01*
X86196132Y-50013975D01*
X86069849Y-50001537D01*
X86066541Y-50001122D01*
X86050784Y-49998708D01*
X86044504Y-49998390D01*
X86044506Y-49998347D01*
X86035205Y-49998125D01*
X86000003Y-49994659D01*
X85999999Y-49994659D01*
X85862793Y-50008171D01*
X85859860Y-50008390D01*
X85848185Y-50008982D01*
X85841974Y-50009934D01*
X85841931Y-50009654D01*
X85834679Y-50010941D01*
X85803869Y-50013975D01*
X85658009Y-50058221D01*
X85651793Y-50059831D01*
X85649430Y-50060706D01*
X85645903Y-50061893D01*
X85615270Y-50071186D01*
X85441467Y-50164086D01*
X85441460Y-50164090D01*
X85289116Y-50289116D01*
X85164090Y-50441460D01*
X85164086Y-50441467D01*
X85071188Y-50615266D01*
X85013975Y-50803870D01*
X84994659Y-51000000D01*
X80667685Y-51000000D01*
X97556575Y-41500000D01*
X113994659Y-41500000D01*
X114013975Y-41696129D01*
X114071188Y-41884733D01*
X114164086Y-42058532D01*
X114164090Y-42058539D01*
X114289116Y-42210883D01*
X114441460Y-42335909D01*
X114441467Y-42335913D01*
X114441469Y-42335914D01*
X114615273Y-42428814D01*
X114645937Y-42438116D01*
X114649436Y-42439294D01*
X114651796Y-42440168D01*
X114651799Y-42440170D01*
X114658005Y-42441776D01*
X114803868Y-42486024D01*
X114834662Y-42489056D01*
X114841911Y-42490344D01*
X114841955Y-42490063D01*
X114848175Y-42491015D01*
X114848182Y-42491017D01*
X114859880Y-42491610D01*
X114862782Y-42491826D01*
X115000000Y-42505341D01*
X115035203Y-42501873D01*
X115044500Y-42501653D01*
X115044498Y-42501610D01*
X115050768Y-42501291D01*
X115050780Y-42501292D01*
X115066580Y-42498871D01*
X115069831Y-42498463D01*
X115196132Y-42486024D01*
X115234291Y-42474448D01*
X115250827Y-42470694D01*
X115251296Y-42470573D01*
X115251299Y-42470573D01*
X115268704Y-42464127D01*
X115272227Y-42462940D01*
X115384727Y-42428814D01*
X115427647Y-42405872D01*
X115435331Y-42402415D01*
X115441530Y-42400120D01*
X115458615Y-42389470D01*
X115462088Y-42387463D01*
X115558538Y-42335910D01*
X115599627Y-42302188D01*
X115606142Y-42297515D01*
X115613684Y-42292815D01*
X115628726Y-42278516D01*
X115632034Y-42275592D01*
X115710883Y-42210883D01*
X115747511Y-42166251D01*
X115752696Y-42160674D01*
X115760715Y-42153052D01*
X115772568Y-42136021D01*
X115775484Y-42132165D01*
X115835910Y-42058538D01*
X115865356Y-42003446D01*
X115869125Y-41997293D01*
X115876601Y-41986553D01*
X115884578Y-41967963D01*
X115886862Y-41963213D01*
X115928814Y-41884727D01*
X115948361Y-41820288D01*
X115950696Y-41813892D01*
X115956600Y-41800135D01*
X115960497Y-41781170D01*
X115961881Y-41775719D01*
X115986024Y-41696132D01*
X115993116Y-41624121D01*
X115994082Y-41617740D01*
X115997435Y-41601429D01*
X115998098Y-41575196D01*
X115998373Y-41570741D01*
X116005341Y-41500000D01*
X115998373Y-41429261D01*
X115998098Y-41424800D01*
X115997435Y-41398571D01*
X115994081Y-41382253D01*
X115993116Y-41375881D01*
X115986024Y-41303868D01*
X115961888Y-41224305D01*
X115960492Y-41218804D01*
X115956600Y-41199865D01*
X115950702Y-41186121D01*
X115948354Y-41179687D01*
X115928814Y-41115273D01*
X115886871Y-41036803D01*
X115884577Y-41032035D01*
X115876601Y-41013447D01*
X115869135Y-41002721D01*
X115865347Y-40996535D01*
X115835910Y-40941462D01*
X115835908Y-40941460D01*
X115835908Y-40941459D01*
X115816696Y-40918050D01*
X115775498Y-40867850D01*
X115772561Y-40863969D01*
X115760715Y-40846948D01*
X115752711Y-40839339D01*
X115747497Y-40833731D01*
X115710883Y-40789116D01*
X115632085Y-40724448D01*
X115628703Y-40721460D01*
X115613686Y-40707187D01*
X115613684Y-40707185D01*
X115606145Y-40702486D01*
X115599606Y-40697794D01*
X115558540Y-40664091D01*
X115558532Y-40664086D01*
X115493705Y-40629436D01*
X115462130Y-40612558D01*
X115458570Y-40610501D01*
X115441535Y-40599883D01*
X115441534Y-40599882D01*
X115441530Y-40599880D01*
X115441526Y-40599878D01*
X115441523Y-40599877D01*
X115435335Y-40597585D01*
X115427635Y-40594120D01*
X115384728Y-40571186D01*
X115272253Y-40537066D01*
X115268721Y-40535878D01*
X115251300Y-40529427D01*
X115250854Y-40529312D01*
X115234276Y-40525547D01*
X115196132Y-40513976D01*
X115196130Y-40513975D01*
X115196132Y-40513975D01*
X115069849Y-40501537D01*
X115066541Y-40501122D01*
X115050784Y-40498708D01*
X115044504Y-40498390D01*
X115044506Y-40498347D01*
X115035205Y-40498125D01*
X115000003Y-40494659D01*
X114999999Y-40494659D01*
X114862793Y-40508171D01*
X114859860Y-40508390D01*
X114848185Y-40508982D01*
X114841974Y-40509934D01*
X114841931Y-40509654D01*
X114834679Y-40510941D01*
X114803869Y-40513975D01*
X114658009Y-40558221D01*
X114651793Y-40559831D01*
X114649430Y-40560706D01*
X114645903Y-40561893D01*
X114615270Y-40571186D01*
X114441467Y-40664086D01*
X114441460Y-40664090D01*
X114289116Y-40789116D01*
X114164090Y-40941460D01*
X114164086Y-40941467D01*
X114071188Y-41115266D01*
X114013975Y-41303870D01*
X113994659Y-41500000D01*
X97556575Y-41500000D01*
X101971820Y-39016425D01*
X102032612Y-39000500D01*
X154967389Y-39000500D01*
X155028181Y-39016425D01*
G37*
G04 #@! TD.AperFunction*
M02*
