G04 #@! TF.GenerationSoftware,KiCad,Pcbnew,7.0.10*
G04 #@! TF.CreationDate,2024-01-12T10:18:34+00:00*
G04 #@! TF.ProjectId,eobard-plate,656f6261-7264-42d7-906c-6174652e6b69,1.2*
G04 #@! TF.SameCoordinates,Original*
G04 #@! TF.FileFunction,Legend,Top*
G04 #@! TF.FilePolarity,Positive*
%FSLAX46Y46*%
G04 Gerber Fmt 4.6, Leading zero omitted, Abs format (unit mm)*
G04 Created by KiCad (PCBNEW 7.0.10) date 2024-01-12 10:18:34*
%MOMM*%
%LPD*%
G01*
G04 APERTURE LIST*
G04 APERTURE END LIST*
G36*
X144601188Y-111948395D02*
G01*
X144729824Y-111980903D01*
X144904810Y-112045263D01*
X145149186Y-112149802D01*
X145429850Y-112277012D01*
X145550143Y-112303806D01*
X145764659Y-112324328D01*
X146049488Y-112338663D01*
X146380719Y-112346895D01*
X146734441Y-112349110D01*
X147086742Y-112345391D01*
X147413712Y-112335824D01*
X147691440Y-112320494D01*
X147896015Y-112299485D01*
X148003526Y-112272883D01*
X148010382Y-112267857D01*
X148129650Y-112209519D01*
X148298342Y-112189215D01*
X148466365Y-112205401D01*
X148583628Y-112256532D01*
X148605012Y-112286196D01*
X148613805Y-112401468D01*
X148516837Y-112457476D01*
X148491570Y-112461996D01*
X148365836Y-112505554D01*
X148313793Y-112533964D01*
X148214606Y-112560329D01*
X148021304Y-112584500D01*
X147764892Y-112603275D01*
X147563054Y-112611530D01*
X147206895Y-112621357D01*
X146820244Y-112631869D01*
X146468055Y-112641307D01*
X146352733Y-112644351D01*
X146096162Y-112645939D01*
X145884623Y-112637755D01*
X145751333Y-112621470D01*
X145727117Y-112612904D01*
X145621971Y-112583364D01*
X145450324Y-112567040D01*
X145399466Y-112565983D01*
X145228427Y-112555554D01*
X145115483Y-112530733D01*
X145100488Y-112521506D01*
X145002393Y-112471257D01*
X144980578Y-112466704D01*
X144883303Y-112435031D01*
X144718569Y-112366470D01*
X144607019Y-112315648D01*
X144414339Y-112200795D01*
X144313472Y-112090105D01*
X144309271Y-112000008D01*
X144406590Y-111946931D01*
X144495863Y-111939409D01*
X144601188Y-111948395D01*
G37*
G36*
X150705784Y-106051986D02*
G01*
X151037804Y-106152686D01*
X151276624Y-106300528D01*
X151286500Y-106309868D01*
X151422295Y-106425661D01*
X151530711Y-106491110D01*
X151554333Y-106496552D01*
X151624853Y-106537392D01*
X151629556Y-106559113D01*
X151678232Y-106618453D01*
X151700730Y-106621675D01*
X151790116Y-106660869D01*
X151937454Y-106761085D01*
X152110840Y-106896274D01*
X152278369Y-107040387D01*
X152408137Y-107167373D01*
X152466974Y-107247291D01*
X152532315Y-107385104D01*
X152561650Y-107434976D01*
X152644286Y-107599297D01*
X152708850Y-107782313D01*
X152721913Y-107841626D01*
X152753949Y-107946957D01*
X152785114Y-108022896D01*
X152802434Y-108184188D01*
X152766415Y-108333092D01*
X152727970Y-108510179D01*
X152756181Y-108586625D01*
X152787693Y-108677750D01*
X152807769Y-108851685D01*
X152816427Y-109070977D01*
X152813685Y-109298171D01*
X152799561Y-109495816D01*
X152774073Y-109626456D01*
X152755665Y-109655911D01*
X152709833Y-109740863D01*
X152693103Y-109870929D01*
X152650492Y-110121369D01*
X152537601Y-110399190D01*
X152394584Y-110625616D01*
X152291414Y-110783995D01*
X152229375Y-110919339D01*
X152149792Y-111029804D01*
X151993806Y-111162769D01*
X151800429Y-111292405D01*
X151608670Y-111392884D01*
X151457541Y-111438377D01*
X151444624Y-111438916D01*
X151325251Y-111467858D01*
X151285468Y-111501478D01*
X151206006Y-111533543D01*
X151040026Y-111553563D01*
X150825559Y-111561477D01*
X150600635Y-111557225D01*
X150403283Y-111540745D01*
X150271535Y-111511977D01*
X150253741Y-111503135D01*
X150140753Y-111462046D01*
X149953987Y-111421571D01*
X149827142Y-111402504D01*
X149574245Y-111348497D01*
X149434135Y-111262173D01*
X149420544Y-111243485D01*
X149334719Y-111149420D01*
X149280153Y-111126109D01*
X149182814Y-111077707D01*
X149057534Y-110957659D01*
X148937135Y-110803695D01*
X148854438Y-110653549D01*
X148844809Y-110625616D01*
X148790940Y-110485555D01*
X148699524Y-110285818D01*
X148618949Y-110125123D01*
X148523221Y-109925578D01*
X148457962Y-109758350D01*
X148439050Y-109675244D01*
X148411210Y-109565440D01*
X148385513Y-109536449D01*
X148355827Y-109462748D01*
X148324213Y-109296128D01*
X148296342Y-109068561D01*
X148289900Y-108997298D01*
X148261151Y-108743869D01*
X148223000Y-108528316D01*
X148182716Y-108389846D01*
X148174261Y-108373575D01*
X148132730Y-108236571D01*
X148171168Y-108111373D01*
X148224387Y-107957328D01*
X148270426Y-107751523D01*
X148279934Y-107691189D01*
X148312958Y-107507153D01*
X148350080Y-107373416D01*
X148362494Y-107347100D01*
X148443058Y-107178270D01*
X148504731Y-106973852D01*
X148532628Y-106790737D01*
X148527449Y-106716635D01*
X148543830Y-106595337D01*
X148655772Y-106441327D01*
X148733196Y-106363115D01*
X148905667Y-106221396D01*
X149090360Y-106131659D01*
X149340540Y-106069017D01*
X149377340Y-106062167D01*
X149852870Y-106003783D01*
X150303246Y-106001370D01*
X150705784Y-106051986D01*
G37*
G36*
X141576098Y-101375681D02*
G01*
X141749818Y-101396318D01*
X141836407Y-101426177D01*
X141838670Y-101429064D01*
X141926643Y-101481061D01*
X142002640Y-101491626D01*
X142183362Y-101529930D01*
X142422744Y-101632071D01*
X142685813Y-101778889D01*
X142937594Y-101951226D01*
X143112738Y-102099722D01*
X143316518Y-102288503D01*
X143531185Y-102475884D01*
X143652955Y-102575727D01*
X143815629Y-102706246D01*
X143945874Y-102815459D01*
X143985872Y-102851440D01*
X144113086Y-102915844D01*
X144210782Y-102930542D01*
X144361802Y-102977150D01*
X144494173Y-103088405D01*
X144559144Y-103221452D01*
X144560098Y-103237607D01*
X144610580Y-103278768D01*
X144733363Y-103278250D01*
X144885451Y-103242981D01*
X145023849Y-103179889D01*
X145054611Y-103157924D01*
X145144743Y-103134870D01*
X145338497Y-103116089D01*
X145614443Y-103101590D01*
X145951152Y-103091382D01*
X146327195Y-103085472D01*
X146721142Y-103083872D01*
X147111565Y-103086588D01*
X147477033Y-103093630D01*
X147796119Y-103105007D01*
X148047392Y-103120727D01*
X148209424Y-103140799D01*
X148257289Y-103156607D01*
X148371544Y-103209074D01*
X148551406Y-103256219D01*
X148617528Y-103267879D01*
X148835164Y-103316469D01*
X149032201Y-103384602D01*
X149067992Y-103401543D01*
X149249988Y-103462170D01*
X149468477Y-103492719D01*
X149505993Y-103493596D01*
X149703596Y-103472940D01*
X149836476Y-103395471D01*
X149892685Y-103332520D01*
X150024278Y-103199131D01*
X150151935Y-103113704D01*
X150311425Y-103037494D01*
X150393965Y-102993253D01*
X150547476Y-102905590D01*
X150612931Y-102868340D01*
X150734138Y-102805590D01*
X150914777Y-102718429D01*
X151003941Y-102676970D01*
X151213248Y-102579068D01*
X151406330Y-102485783D01*
X151462582Y-102457644D01*
X151631779Y-102392322D01*
X151770464Y-102367488D01*
X151920883Y-102326525D01*
X152012349Y-102266928D01*
X152146242Y-102202456D01*
X152389136Y-102156723D01*
X152654099Y-102133263D01*
X152922666Y-102120063D01*
X153106329Y-102125070D01*
X153244735Y-102154508D01*
X153377529Y-102214598D01*
X153456022Y-102259144D01*
X153605262Y-102354679D01*
X153722999Y-102456786D01*
X153812927Y-102580963D01*
X153878742Y-102742703D01*
X153924138Y-102957504D01*
X153952811Y-103240861D01*
X153968456Y-103608269D01*
X153974768Y-104075226D01*
X153975616Y-104438117D01*
X153972716Y-104991947D01*
X153963944Y-105423221D01*
X153949191Y-105734374D01*
X153928346Y-105927842D01*
X153905305Y-106002157D01*
X153855583Y-106113072D01*
X153808478Y-106296055D01*
X153789968Y-106402710D01*
X153754679Y-106595892D01*
X153715095Y-106738526D01*
X153695887Y-106778079D01*
X153664737Y-106870713D01*
X153634875Y-107045670D01*
X153617615Y-107209745D01*
X153577270Y-107479123D01*
X153506962Y-107633410D01*
X153481977Y-107656665D01*
X153411703Y-107782185D01*
X153426747Y-107982698D01*
X153515828Y-108221397D01*
X153547902Y-108359106D01*
X153560062Y-108576596D01*
X153554973Y-108848329D01*
X153535304Y-109148764D01*
X153503723Y-109452365D01*
X153462898Y-109733593D01*
X153415495Y-109966909D01*
X153364184Y-110126775D01*
X153311631Y-110187652D01*
X153310429Y-110187685D01*
X153264191Y-110239430D01*
X153255772Y-110297168D01*
X153227404Y-110429210D01*
X153162262Y-110585206D01*
X153105105Y-110720259D01*
X153093884Y-110803468D01*
X153094958Y-110805541D01*
X153069485Y-110869402D01*
X152977763Y-110996035D01*
X152844379Y-111152659D01*
X152701691Y-111325884D01*
X152601866Y-111476868D01*
X152567980Y-111565919D01*
X152522934Y-111695383D01*
X152474138Y-111751724D01*
X152394720Y-111856590D01*
X152380295Y-111912680D01*
X152333432Y-112018731D01*
X152302093Y-112045783D01*
X152197079Y-112156994D01*
X152106008Y-112318292D01*
X152067487Y-112460637D01*
X152024578Y-112563410D01*
X151942364Y-112658867D01*
X151848262Y-112772866D01*
X151817241Y-112856248D01*
X151774992Y-112933000D01*
X151745784Y-112940394D01*
X151664283Y-112978153D01*
X151520742Y-113076911D01*
X151354774Y-113208306D01*
X151006400Y-113466990D01*
X150704296Y-113618344D01*
X150524864Y-113661962D01*
X150382042Y-113710378D01*
X150219697Y-113804768D01*
X150210617Y-113811379D01*
X150024398Y-113903991D01*
X149775411Y-113969936D01*
X149688709Y-113982524D01*
X149486868Y-114012064D01*
X149334967Y-114046639D01*
X149283497Y-114067877D01*
X149182203Y-114112766D01*
X149023713Y-114156772D01*
X149017611Y-114158092D01*
X148814285Y-114201567D01*
X148814285Y-114633367D01*
X148846467Y-115219115D01*
X148938784Y-115766254D01*
X149084893Y-116240892D01*
X149138144Y-116363816D01*
X149237183Y-116563979D01*
X149321573Y-116715355D01*
X149373120Y-116785322D01*
X149373270Y-116785416D01*
X149419226Y-116863588D01*
X149461853Y-117011499D01*
X149465769Y-117031327D01*
X149520112Y-117215688D01*
X149611751Y-117437521D01*
X149660546Y-117535821D01*
X149739188Y-117703689D01*
X149786151Y-117870001D01*
X149808990Y-118076105D01*
X149815257Y-118363350D01*
X149815271Y-118382870D01*
X149808663Y-118634941D01*
X149790995Y-118836871D01*
X149765501Y-118957916D01*
X149752709Y-118977586D01*
X149698690Y-119066518D01*
X149690148Y-119127986D01*
X149639801Y-119287907D01*
X149500968Y-119387746D01*
X149291959Y-119432616D01*
X149031084Y-119427630D01*
X148736654Y-119377900D01*
X148426979Y-119288539D01*
X148120369Y-119164660D01*
X147835136Y-119011374D01*
X147589588Y-118833796D01*
X147402036Y-118637036D01*
X147303006Y-118461453D01*
X147221260Y-118315275D01*
X147138522Y-118263015D01*
X147078470Y-118309660D01*
X147062561Y-118410840D01*
X147039494Y-118543308D01*
X147000000Y-118602217D01*
X146957390Y-118685559D01*
X146937611Y-118836608D01*
X146937438Y-118852463D01*
X146919504Y-119007782D01*
X146875843Y-119101555D01*
X146871018Y-119105095D01*
X146799416Y-119191056D01*
X146746833Y-119298075D01*
X146662217Y-119429286D01*
X146578648Y-119489191D01*
X146440020Y-119562446D01*
X146358301Y-119622808D01*
X146287347Y-119671782D01*
X146190755Y-119708776D01*
X146046743Y-119737431D01*
X145833531Y-119761389D01*
X145529334Y-119784289D01*
X145309691Y-119798096D01*
X145061489Y-119807131D01*
X144861715Y-119803305D01*
X144742672Y-119787658D01*
X144725783Y-119779313D01*
X144642500Y-119729974D01*
X144629425Y-119728325D01*
X144556696Y-119691506D01*
X144432427Y-119600029D01*
X144395372Y-119569559D01*
X144235205Y-119368611D01*
X144110987Y-119082127D01*
X144038231Y-118748014D01*
X144031323Y-118680066D01*
X144007196Y-118538669D01*
X143975837Y-118466314D01*
X143957274Y-118388965D01*
X143943025Y-118217691D01*
X143935274Y-117983671D01*
X143934483Y-117876024D01*
X143927791Y-117625623D01*
X143909916Y-117425488D01*
X143884155Y-117306594D01*
X143871921Y-117288424D01*
X143829287Y-117203631D01*
X143811216Y-117055472D01*
X143818814Y-116902137D01*
X143853184Y-116801816D01*
X143862529Y-116793736D01*
X143890862Y-116720499D01*
X143921186Y-116552875D01*
X143948489Y-116321405D01*
X143957809Y-116213040D01*
X143983390Y-115959526D01*
X144015551Y-115752790D01*
X144048766Y-115625430D01*
X144061043Y-115604080D01*
X144097784Y-115508737D01*
X144119580Y-115338965D01*
X144122167Y-115253087D01*
X144131288Y-115070590D01*
X144154349Y-114943953D01*
X144167789Y-114917597D01*
X144193997Y-114833492D01*
X144211116Y-114668278D01*
X144214710Y-114547441D01*
X144221951Y-114354896D01*
X144249167Y-114257241D01*
X144307603Y-114224544D01*
X144336632Y-114222907D01*
X144450525Y-114281611D01*
X144510511Y-114410591D01*
X144534160Y-114577012D01*
X144532363Y-114780064D01*
X144509404Y-114975042D01*
X144469563Y-115117241D01*
X144438837Y-115158943D01*
X144410934Y-115231652D01*
X144380264Y-115398807D01*
X144351912Y-115629977D01*
X144341897Y-115739096D01*
X144315097Y-115989014D01*
X144282317Y-116188577D01*
X144249108Y-116306937D01*
X144236466Y-116324953D01*
X144212146Y-116400125D01*
X144194543Y-116572391D01*
X144183525Y-116813911D01*
X144178960Y-117096842D01*
X144180715Y-117393344D01*
X144188657Y-117675576D01*
X144202656Y-117915697D01*
X144222577Y-118085864D01*
X144245162Y-118155902D01*
X144288925Y-118258139D01*
X144309928Y-118421969D01*
X144310237Y-118442685D01*
X144334888Y-118645630D01*
X144393704Y-118823975D01*
X144394419Y-118825352D01*
X144475644Y-119014273D01*
X144521383Y-119157923D01*
X144626953Y-119332062D01*
X144838264Y-119445452D01*
X145150813Y-119496520D01*
X145475593Y-119491084D01*
X145859670Y-119433796D01*
X146168815Y-119318495D01*
X146410695Y-119134418D01*
X146592978Y-118870803D01*
X146723332Y-118516888D01*
X146809425Y-118061913D01*
X146855570Y-117554311D01*
X146875738Y-117301058D01*
X146902960Y-117150844D01*
X146943004Y-117081590D01*
X146982226Y-117069458D01*
X147109430Y-117124806D01*
X147208674Y-117262100D01*
X147248256Y-117431680D01*
X147277624Y-117577008D01*
X147348435Y-117764141D01*
X147375369Y-117820197D01*
X147452366Y-117986178D01*
X147496449Y-118110372D01*
X147500492Y-118136080D01*
X147542830Y-118224224D01*
X147648259Y-118357649D01*
X147784406Y-118502594D01*
X147918894Y-118625301D01*
X148019350Y-118692009D01*
X148037497Y-118696059D01*
X148136206Y-118739604D01*
X148185937Y-118786609D01*
X148287244Y-118860326D01*
X148458470Y-118944039D01*
X148553327Y-118980912D01*
X148759705Y-119057794D01*
X148939507Y-119130744D01*
X148992865Y-119154677D01*
X149095033Y-119186994D01*
X149183821Y-119156400D01*
X149299551Y-119045968D01*
X149328675Y-119013711D01*
X149421720Y-118903143D01*
X149475677Y-118805218D01*
X149498626Y-118683530D01*
X149498647Y-118501675D01*
X149488012Y-118295824D01*
X149442642Y-117920734D01*
X149357583Y-117610525D01*
X149240360Y-117387881D01*
X149160186Y-117307513D01*
X149129040Y-117241235D01*
X149139207Y-117224175D01*
X149131892Y-117153379D01*
X149066534Y-117022241D01*
X149027912Y-116961797D01*
X148933296Y-116799634D01*
X148880688Y-116665314D01*
X148876847Y-116636717D01*
X148842732Y-116505067D01*
X148792033Y-116410842D01*
X148735946Y-116279678D01*
X148684995Y-116078714D01*
X148662888Y-115944914D01*
X148626538Y-115739031D01*
X148580946Y-115579190D01*
X148552147Y-115522370D01*
X148523152Y-115428550D01*
X148498876Y-115240815D01*
X148482603Y-114990367D01*
X148477967Y-114817007D01*
X148469607Y-114501862D01*
X148452307Y-114301737D01*
X148423723Y-114206705D01*
X148381510Y-114206837D01*
X148345074Y-114254187D01*
X148268332Y-114281944D01*
X148098908Y-114301471D01*
X147868978Y-114312657D01*
X147610718Y-114315389D01*
X147356306Y-114309556D01*
X147137919Y-114295044D01*
X146987732Y-114271742D01*
X146952230Y-114259044D01*
X146846739Y-114229008D01*
X146648252Y-114193741D01*
X146388469Y-114158333D01*
X146186699Y-114136145D01*
X145598578Y-114073204D01*
X145123261Y-114011669D01*
X144748480Y-113949355D01*
X144461969Y-113884079D01*
X144251459Y-113813656D01*
X144175076Y-113778049D01*
X144006930Y-113723356D01*
X143790506Y-113693193D01*
X143725197Y-113691133D01*
X143546480Y-113678441D01*
X143425545Y-113646403D01*
X143402709Y-113628572D01*
X143313411Y-113573761D01*
X143257327Y-113566010D01*
X143136738Y-113537578D01*
X142967741Y-113466760D01*
X142917157Y-113440887D01*
X142730077Y-113360412D01*
X142559009Y-113317800D01*
X142527074Y-113315764D01*
X142406583Y-113288714D01*
X142370640Y-113188073D01*
X142370443Y-113174632D01*
X142315298Y-113036725D01*
X142186194Y-112951943D01*
X142056882Y-112872139D01*
X141871792Y-112730056D01*
X141663904Y-112551608D01*
X141589457Y-112483100D01*
X141368327Y-112278043D01*
X141148031Y-112078015D01*
X140968172Y-111918870D01*
X140932090Y-111887909D01*
X140814212Y-111781921D01*
X140715981Y-111673615D01*
X140620343Y-111537744D01*
X140510245Y-111349062D01*
X140368634Y-111082322D01*
X140305911Y-110960880D01*
X140204394Y-110781322D01*
X140112736Y-110648705D01*
X140071305Y-110606867D01*
X139998657Y-110522190D01*
X140022952Y-110453551D01*
X140086946Y-110437931D01*
X140158790Y-110431106D01*
X140171325Y-110389766D01*
X140124605Y-110282619D01*
X140087331Y-110210477D01*
X140020917Y-110054559D01*
X140013697Y-110022904D01*
X140393008Y-110022904D01*
X140399388Y-110107600D01*
X140400158Y-110109483D01*
X140457590Y-110267086D01*
X140476710Y-110328448D01*
X140529243Y-110421081D01*
X140563454Y-110437931D01*
X140612676Y-110488635D01*
X140618719Y-110530675D01*
X140664168Y-110637408D01*
X140779500Y-110786248D01*
X140933194Y-110946003D01*
X141093729Y-111085482D01*
X141229582Y-111173491D01*
X141283660Y-111188670D01*
X141416021Y-111215462D01*
X141466428Y-111245704D01*
X141616079Y-111323982D01*
X141863876Y-111380902D01*
X142184394Y-111414743D01*
X142552206Y-111423783D01*
X142941887Y-111406299D01*
X143277640Y-111368362D01*
X143526404Y-111324075D01*
X143730586Y-111263918D01*
X143913886Y-111172480D01*
X144100000Y-111034352D01*
X144312626Y-110834122D01*
X144575463Y-110556379D01*
X144647934Y-110477256D01*
X145154433Y-109922246D01*
X145148865Y-109020259D01*
X145141774Y-108637919D01*
X145126378Y-108339547D01*
X145103721Y-108138930D01*
X145075552Y-108050527D01*
X145033463Y-107939909D01*
X145041198Y-107895767D01*
X145036526Y-107773671D01*
X145013186Y-107731346D01*
X144961899Y-107621124D01*
X144915559Y-107450726D01*
X144909683Y-107420262D01*
X144851693Y-107213455D01*
X144759038Y-106985815D01*
X144729482Y-106926866D01*
X144625498Y-106772935D01*
X144469848Y-106589573D01*
X144288121Y-106401642D01*
X144105908Y-106234005D01*
X143948799Y-106111524D01*
X143842383Y-106059060D01*
X143835812Y-106058621D01*
X143736379Y-106015080D01*
X143688295Y-105969669D01*
X143582815Y-105903909D01*
X143410140Y-105848816D01*
X143352186Y-105837472D01*
X143168432Y-105795435D01*
X143032116Y-105743693D01*
X143009048Y-105728879D01*
X142907810Y-105700508D01*
X142855772Y-105735952D01*
X142749520Y-105783195D01*
X142579526Y-105807500D01*
X142541115Y-105808375D01*
X142328711Y-105841575D01*
X142105378Y-105927568D01*
X141907529Y-106045936D01*
X141771580Y-106176264D01*
X141733056Y-106261412D01*
X141655184Y-106386242D01*
X141534780Y-106441806D01*
X141355520Y-106517295D01*
X141231883Y-106601663D01*
X141125906Y-106726283D01*
X141027266Y-106887692D01*
X140953571Y-107048958D01*
X140922429Y-107173152D01*
X140937273Y-107219561D01*
X140986999Y-107203261D01*
X140994088Y-107163834D01*
X141044618Y-107063924D01*
X141087931Y-107036982D01*
X141170896Y-106967685D01*
X141181773Y-106930834D01*
X141227268Y-106844409D01*
X141332284Y-106736001D01*
X141449623Y-106648942D01*
X141516262Y-106623756D01*
X141588484Y-106584209D01*
X141720671Y-106484023D01*
X141843700Y-106380071D01*
X142025824Y-106241514D01*
X142220256Y-106147802D01*
X142456367Y-106091332D01*
X142763530Y-106064499D01*
X143082993Y-106059267D01*
X143488982Y-106102266D01*
X143816256Y-106235954D01*
X144078785Y-106469649D01*
X144290539Y-106812670D01*
X144324698Y-106887562D01*
X144392431Y-107009500D01*
X144448691Y-107059606D01*
X144494401Y-107109294D01*
X144497922Y-107137808D01*
X144525454Y-107245630D01*
X144589766Y-107391353D01*
X144636082Y-107533162D01*
X144680269Y-107759183D01*
X144714915Y-108028614D01*
X144723627Y-108128398D01*
X144747991Y-108380797D01*
X144777421Y-108582392D01*
X144807064Y-108703064D01*
X144819468Y-108723126D01*
X144861566Y-108812252D01*
X144871585Y-108976896D01*
X144852113Y-109172352D01*
X144805739Y-109353914D01*
X144779449Y-109414154D01*
X144711949Y-109585680D01*
X144685607Y-109730421D01*
X144659704Y-109856638D01*
X144622660Y-109906158D01*
X144568527Y-109995142D01*
X144560098Y-110055827D01*
X144516273Y-110163423D01*
X144407075Y-110309304D01*
X144265918Y-110458354D01*
X144126216Y-110575458D01*
X144021384Y-110625503D01*
X144017898Y-110625616D01*
X143941558Y-110662320D01*
X143934483Y-110686986D01*
X143881146Y-110745138D01*
X143766608Y-110790489D01*
X143576903Y-110854219D01*
X143438160Y-110916419D01*
X143292855Y-110956369D01*
X143057210Y-110983376D01*
X142765372Y-110997126D01*
X142451483Y-110997306D01*
X142149691Y-110983600D01*
X141894139Y-110955695D01*
X141776108Y-110931715D01*
X141552972Y-110880057D01*
X141296953Y-110830874D01*
X141218158Y-110817949D01*
X140934002Y-110724746D01*
X140733220Y-110553907D01*
X140629943Y-110319926D01*
X140619030Y-110203325D01*
X140603028Y-110060003D01*
X140540720Y-110005075D01*
X140486902Y-110000000D01*
X140393008Y-110022904D01*
X140013697Y-110022904D01*
X139993489Y-109934311D01*
X139951902Y-109803972D01*
X139925130Y-109769366D01*
X139895224Y-109673183D01*
X139885980Y-109486084D01*
X139888355Y-109414568D01*
X140198920Y-109414568D01*
X140214719Y-109585473D01*
X140214831Y-109586072D01*
X140257821Y-109733315D01*
X140310067Y-109809436D01*
X140320694Y-109812315D01*
X140355081Y-109758190D01*
X140341447Y-109612372D01*
X140340731Y-109608990D01*
X140301106Y-109420854D01*
X140269851Y-109268902D01*
X140272858Y-109144953D01*
X140305413Y-109093165D01*
X140344231Y-109016063D01*
X140364411Y-108876155D01*
X140365245Y-108721723D01*
X140346028Y-108601050D01*
X140313199Y-108561084D01*
X140275484Y-108617960D01*
X140241925Y-108765851D01*
X140215796Y-108970653D01*
X140200370Y-109198260D01*
X140198920Y-109414568D01*
X139888355Y-109414568D01*
X139894271Y-109236414D01*
X139916971Y-108952513D01*
X139950953Y-108662727D01*
X139993090Y-108395397D01*
X140040257Y-108178866D01*
X140089326Y-108041477D01*
X140119376Y-108008457D01*
X140168695Y-107937234D01*
X140181200Y-107852053D01*
X140215324Y-107707400D01*
X140297560Y-107540791D01*
X140304069Y-107530727D01*
X140351492Y-107403695D01*
X140806404Y-107403695D01*
X140837685Y-107434976D01*
X140868965Y-107403695D01*
X140837685Y-107372414D01*
X140806404Y-107403695D01*
X140351492Y-107403695D01*
X140389005Y-107303208D01*
X140361324Y-107074347D01*
X140292745Y-106953883D01*
X140260607Y-106858978D01*
X140228646Y-106675395D01*
X140202896Y-106439444D01*
X140199142Y-106390829D01*
X140175156Y-106148767D01*
X140143580Y-105951888D01*
X140110521Y-105836589D01*
X140104495Y-105826805D01*
X140079458Y-105733723D01*
X140059757Y-105542082D01*
X140045511Y-105278139D01*
X140036838Y-104968147D01*
X140033859Y-104638362D01*
X140034302Y-104587810D01*
X140244990Y-104587810D01*
X140264302Y-104720748D01*
X140296607Y-104770358D01*
X140320946Y-104842232D01*
X140347524Y-105013270D01*
X140373080Y-105257638D01*
X140393816Y-105540430D01*
X140415839Y-105834504D01*
X140442894Y-106083499D01*
X140471478Y-106260357D01*
X140496962Y-106337020D01*
X140548646Y-106446789D01*
X140556157Y-106509064D01*
X140579606Y-106603802D01*
X140607014Y-106621675D01*
X140690399Y-106575156D01*
X140806850Y-106461280D01*
X140922757Y-106318568D01*
X141004512Y-106185544D01*
X141018286Y-106150277D01*
X141089972Y-106065689D01*
X141244667Y-105952301D01*
X141449542Y-105828614D01*
X141671768Y-105713126D01*
X141878515Y-105624339D01*
X142026354Y-105582213D01*
X142154052Y-105559896D01*
X142354746Y-105522194D01*
X142526847Y-105488701D01*
X143001861Y-105440200D01*
X143440424Y-105497544D01*
X143874085Y-105666346D01*
X144038634Y-105757592D01*
X144332005Y-105945772D01*
X144579054Y-106130533D01*
X144761323Y-106296064D01*
X144860356Y-106426551D01*
X144872906Y-106472330D01*
X144916984Y-106559347D01*
X144937721Y-106570292D01*
X144999583Y-106641565D01*
X145070744Y-106791872D01*
X145134998Y-106977750D01*
X145176136Y-107155735D01*
X145182968Y-107227958D01*
X145207279Y-107351800D01*
X145240036Y-107398603D01*
X145275455Y-107474221D01*
X145312117Y-107636311D01*
X145336770Y-107807040D01*
X145368557Y-108012244D01*
X145407849Y-108162989D01*
X145438851Y-108218782D01*
X145460876Y-108291918D01*
X145479146Y-108466944D01*
X145492117Y-108720645D01*
X145498242Y-109029809D01*
X145498522Y-109114553D01*
X145498522Y-109973446D01*
X145313380Y-110190048D01*
X145201014Y-110334708D01*
X145133835Y-110446594D01*
X145125695Y-110474191D01*
X145084965Y-110549224D01*
X144978953Y-110688997D01*
X144828101Y-110867106D01*
X144778710Y-110922353D01*
X144402383Y-111271463D01*
X144014442Y-111498321D01*
X143610297Y-111605600D01*
X143604971Y-111606213D01*
X143404954Y-111639983D01*
X143239431Y-111686330D01*
X143210911Y-111698363D01*
X143047196Y-111737051D01*
X142795222Y-111750278D01*
X142486335Y-111741284D01*
X142151877Y-111713307D01*
X141823195Y-111669587D01*
X141531633Y-111613362D01*
X141308535Y-111547873D01*
X141199877Y-111490542D01*
X141131909Y-111458416D01*
X141119212Y-111476028D01*
X141162991Y-111555639D01*
X141274402Y-111684999D01*
X141423558Y-111835468D01*
X141580569Y-111978401D01*
X141715547Y-112085158D01*
X141798594Y-112127094D01*
X141894336Y-112164541D01*
X142044354Y-112260773D01*
X142155563Y-112346059D01*
X142312217Y-112467173D01*
X142432043Y-112546692D01*
X142475454Y-112565025D01*
X142556530Y-112606948D01*
X142684304Y-112711452D01*
X142823439Y-112846638D01*
X142938599Y-112980609D01*
X142944076Y-112988052D01*
X143055618Y-113081522D01*
X143243474Y-113187393D01*
X143463146Y-113285500D01*
X143670136Y-113355679D01*
X143805317Y-113378325D01*
X143909201Y-113400535D01*
X143934483Y-113432827D01*
X143990544Y-113471419D01*
X144133816Y-113510151D01*
X144244719Y-113528483D01*
X144429622Y-113561706D01*
X144556629Y-113600727D01*
X144586667Y-113620948D01*
X144659674Y-113649128D01*
X144826007Y-113678998D01*
X145054064Y-113705292D01*
X145132287Y-113711887D01*
X145373694Y-113736232D01*
X145563789Y-113766129D01*
X145670657Y-113796192D01*
X145681842Y-113804619D01*
X145754205Y-113830075D01*
X145926777Y-113861943D01*
X146175061Y-113896450D01*
X146474558Y-113929823D01*
X146529967Y-113935223D01*
X146835330Y-113966424D01*
X147093316Y-113996700D01*
X147279602Y-114022909D01*
X147369868Y-114041909D01*
X147374004Y-114044284D01*
X147455697Y-114057163D01*
X147646762Y-114052015D01*
X147932913Y-114029899D01*
X148299863Y-113991871D01*
X148645777Y-113950222D01*
X148887175Y-113913620D01*
X149083531Y-113872881D01*
X149198735Y-113835749D01*
X149208831Y-113829460D01*
X149309071Y-113791351D01*
X149488851Y-113755040D01*
X149641209Y-113735620D01*
X149884386Y-113692646D01*
X150120220Y-113619326D01*
X150311850Y-113530157D01*
X150422418Y-113439634D01*
X150430460Y-113425246D01*
X150502494Y-113382040D01*
X150537765Y-113378325D01*
X150634394Y-113339552D01*
X150776323Y-113241881D01*
X150837978Y-113190641D01*
X150979842Y-113077388D01*
X151088417Y-113010580D01*
X151114882Y-113002956D01*
X151201416Y-112957660D01*
X151340444Y-112838838D01*
X151508107Y-112672089D01*
X151680545Y-112483012D01*
X151833896Y-112297206D01*
X151944300Y-112140269D01*
X151977083Y-112077934D01*
X152045043Y-111907302D01*
X152060272Y-111836959D01*
X152022159Y-111853444D01*
X151969176Y-111903660D01*
X151826761Y-111984909D01*
X151731442Y-112001971D01*
X151590448Y-112029610D01*
X151526141Y-112067849D01*
X151436051Y-112094242D01*
X151247009Y-112109838D01*
X150984646Y-112115479D01*
X150674591Y-112112006D01*
X150342473Y-112100262D01*
X150013922Y-112081088D01*
X149714567Y-112055325D01*
X149470038Y-112023815D01*
X149334142Y-111995869D01*
X149107867Y-111910407D01*
X148903143Y-111794225D01*
X148830226Y-111735716D01*
X148697793Y-111625617D01*
X148593138Y-111566991D01*
X148576256Y-111564040D01*
X148520921Y-111510382D01*
X148501478Y-111401026D01*
X148447872Y-111213509D01*
X148290800Y-110973461D01*
X148063179Y-110717258D01*
X147971664Y-110601845D01*
X147938423Y-110521593D01*
X147895056Y-110427911D01*
X147845270Y-110375941D01*
X147784095Y-110286622D01*
X147788094Y-110240417D01*
X147786276Y-110147516D01*
X147761980Y-110106742D01*
X147717296Y-110003746D01*
X147673303Y-109826400D01*
X147654859Y-109718473D01*
X147619994Y-109525308D01*
X147581480Y-109382676D01*
X147563022Y-109343104D01*
X147522482Y-109232733D01*
X147486025Y-109034117D01*
X147455592Y-108777866D01*
X147433125Y-108494592D01*
X147432587Y-108482603D01*
X147701759Y-108482603D01*
X147720163Y-108654509D01*
X147743589Y-108708873D01*
X147785344Y-108829823D01*
X147782019Y-108936453D01*
X147780191Y-109078103D01*
X147806881Y-109150783D01*
X147847056Y-109249433D01*
X147887558Y-109421819D01*
X147902875Y-109513752D01*
X147995711Y-109851629D01*
X148166614Y-110207416D01*
X148389511Y-110529664D01*
X148455813Y-110604874D01*
X148591429Y-110765939D01*
X148696567Y-110918291D01*
X148713241Y-110948963D01*
X148823545Y-111087442D01*
X148924879Y-111156584D01*
X149040991Y-111264930D01*
X149064532Y-111388355D01*
X149081894Y-111504324D01*
X149157689Y-111566020D01*
X149299138Y-111600643D01*
X149468686Y-111640199D01*
X149584954Y-111683339D01*
X149596305Y-111690588D01*
X149706715Y-111744907D01*
X149783990Y-111769016D01*
X149931145Y-111788001D01*
X150167298Y-111800316D01*
X150456495Y-111805858D01*
X150762782Y-111804527D01*
X151050207Y-111796222D01*
X151282816Y-111780842D01*
X151347267Y-111773409D01*
X151513672Y-111738953D01*
X151661018Y-111673452D01*
X151823332Y-111556701D01*
X152034643Y-111368493D01*
X152044176Y-111359586D01*
X152224714Y-111179700D01*
X152362985Y-111021004D01*
X152437293Y-110909272D01*
X152444248Y-110884330D01*
X152481980Y-110764439D01*
X152567980Y-110625616D01*
X152655703Y-110482142D01*
X152691712Y-110363421D01*
X152725753Y-110250153D01*
X152755665Y-110218966D01*
X152799019Y-110135251D01*
X152818177Y-109985621D01*
X152818226Y-109977539D01*
X152839080Y-109814115D01*
X152889298Y-109703715D01*
X152889972Y-109703033D01*
X152927051Y-109602575D01*
X152952819Y-109405762D01*
X152958095Y-109311823D01*
X153193596Y-109311823D01*
X153216486Y-109363318D01*
X153235304Y-109353531D01*
X153242791Y-109279285D01*
X153235304Y-109270115D01*
X153198111Y-109278703D01*
X153193596Y-109311823D01*
X152958095Y-109311823D01*
X152967700Y-109140810D01*
X152972115Y-108835936D01*
X152966486Y-108519356D01*
X152951236Y-108219286D01*
X152926786Y-107963944D01*
X152893560Y-107781546D01*
X152860094Y-107706236D01*
X152831144Y-107620079D01*
X152818267Y-107468613D01*
X152818226Y-107459522D01*
X152800542Y-107307190D01*
X152757674Y-107217484D01*
X152754644Y-107215379D01*
X152720855Y-107137087D01*
X152730756Y-107111858D01*
X152708301Y-107043063D01*
X152619543Y-106918602D01*
X152490648Y-106767103D01*
X152347781Y-106617193D01*
X152217105Y-106497501D01*
X152124787Y-106436656D01*
X152111214Y-106433990D01*
X152039465Y-106395555D01*
X151904700Y-106294923D01*
X151740723Y-106157848D01*
X151534994Y-106000508D01*
X151335056Y-105885102D01*
X151214496Y-105842205D01*
X151073453Y-105800269D01*
X151005133Y-105749557D01*
X151003941Y-105742978D01*
X150948588Y-105704919D01*
X150810986Y-105684404D01*
X150764121Y-105683251D01*
X150599900Y-105674151D01*
X150496161Y-105651626D01*
X150486207Y-105645156D01*
X150400216Y-105616287D01*
X150244068Y-105599797D01*
X150066175Y-105596548D01*
X149914955Y-105607400D01*
X149838822Y-105633215D01*
X149838546Y-105633642D01*
X149761135Y-105667326D01*
X149613431Y-105683091D01*
X149596305Y-105683251D01*
X149443243Y-105698138D01*
X149353744Y-105734409D01*
X149350442Y-105738721D01*
X149270709Y-105787066D01*
X149122521Y-105830379D01*
X149106684Y-105833488D01*
X148937023Y-105897646D01*
X148738146Y-106017333D01*
X148637062Y-106095462D01*
X148445201Y-106294946D01*
X148249562Y-106556069D01*
X148075054Y-106839339D01*
X147946583Y-107105266D01*
X147894948Y-107272070D01*
X147853588Y-107429960D01*
X147807424Y-107531701D01*
X147761389Y-107646452D01*
X147751148Y-107719386D01*
X147742930Y-107845218D01*
X147727153Y-108047220D01*
X147711263Y-108235025D01*
X147701759Y-108482603D01*
X147432587Y-108482603D01*
X147420564Y-108214905D01*
X147419852Y-107969415D01*
X147432930Y-107788733D01*
X147459172Y-107705688D01*
X147492087Y-107616248D01*
X147500492Y-107522083D01*
X147526947Y-107392541D01*
X147567319Y-107338497D01*
X147609326Y-107252831D01*
X147602069Y-107213606D01*
X147611483Y-107118079D01*
X147667227Y-106949075D01*
X147754208Y-106749726D01*
X147847538Y-106549442D01*
X147913811Y-106392689D01*
X147938423Y-106314564D01*
X147988186Y-106247069D01*
X148032266Y-106223682D01*
X148115490Y-106140073D01*
X148126108Y-106091865D01*
X148155178Y-106007299D01*
X148180806Y-105996059D01*
X148254595Y-105956930D01*
X148383742Y-105856788D01*
X148475239Y-105776471D01*
X148803591Y-105553739D01*
X149171281Y-105443832D01*
X149326726Y-105433354D01*
X149465297Y-105412085D01*
X149533744Y-105370444D01*
X149609874Y-105342862D01*
X149776501Y-105323288D01*
X149999398Y-105311949D01*
X150244340Y-105309071D01*
X150477099Y-105314885D01*
X150663451Y-105329617D01*
X150769169Y-105353495D01*
X150779847Y-105362145D01*
X150857471Y-105401583D01*
X151013488Y-105437074D01*
X151089422Y-105447522D01*
X151330319Y-105508553D01*
X151552920Y-105618228D01*
X151575711Y-105634253D01*
X151731647Y-105743457D01*
X151857780Y-105821378D01*
X151879803Y-105832511D01*
X152051841Y-105924409D01*
X152258407Y-106054029D01*
X152467085Y-106198511D01*
X152645459Y-106334994D01*
X152761114Y-106440616D01*
X152782612Y-106469211D01*
X152860879Y-106585192D01*
X152905672Y-106631080D01*
X152962453Y-106707122D01*
X153047255Y-106858058D01*
X153105391Y-106975169D01*
X153187143Y-107140165D01*
X153231269Y-107200799D01*
X153249388Y-107167735D01*
X153252551Y-107110219D01*
X153273395Y-106973636D01*
X153310473Y-106908299D01*
X153348858Y-106831856D01*
X153388053Y-106672627D01*
X153407802Y-106550474D01*
X153450027Y-106336737D01*
X153509042Y-106157788D01*
X153541172Y-106097219D01*
X153596267Y-105956924D01*
X153628264Y-105756170D01*
X153631527Y-105673023D01*
X153643746Y-105490737D01*
X153674719Y-105365701D01*
X153694088Y-105339163D01*
X153717676Y-105263236D01*
X153736454Y-105077168D01*
X153749546Y-104795881D01*
X153756073Y-104434294D01*
X153756650Y-104275616D01*
X153752905Y-103886897D01*
X153742255Y-103572690D01*
X153725579Y-103347916D01*
X153703753Y-103227494D01*
X153694088Y-103212069D01*
X153640106Y-103123155D01*
X153631527Y-103061432D01*
X153589176Y-102962065D01*
X153478578Y-102812611D01*
X153336381Y-102658474D01*
X153079735Y-102451849D01*
X152840845Y-102362068D01*
X152605563Y-102384990D01*
X152520210Y-102419464D01*
X152391208Y-102482441D01*
X152221336Y-102566779D01*
X152203181Y-102575868D01*
X152026027Y-102646683D01*
X151871523Y-102680287D01*
X151859092Y-102680708D01*
X151714920Y-102714924D01*
X151547893Y-102797532D01*
X151535714Y-102805419D01*
X151349938Y-102892312D01*
X151161151Y-102930083D01*
X151156409Y-102930130D01*
X150949140Y-102986095D01*
X150784975Y-103118227D01*
X150657242Y-103235916D01*
X150557268Y-103301221D01*
X150537830Y-103305911D01*
X150461283Y-103347176D01*
X150328965Y-103454669D01*
X150189806Y-103585391D01*
X150017500Y-103744865D01*
X149881904Y-103829984D01*
X149740172Y-103862969D01*
X149646919Y-103866918D01*
X149476410Y-103856086D01*
X149365909Y-103826503D01*
X149350442Y-103813496D01*
X149271087Y-103765871D01*
X149121493Y-103721819D01*
X149096504Y-103716819D01*
X148951903Y-103676598D01*
X148878965Y-103630679D01*
X148876847Y-103622988D01*
X148821005Y-103584060D01*
X148678873Y-103543925D01*
X148579680Y-103526126D01*
X148384121Y-103485128D01*
X148233517Y-103432669D01*
X148194744Y-103409539D01*
X148103582Y-103385219D01*
X147909559Y-103365579D01*
X147634848Y-103350629D01*
X147301625Y-103340380D01*
X146932062Y-103334841D01*
X146548335Y-103334023D01*
X146172618Y-103337935D01*
X145827085Y-103346589D01*
X145533911Y-103359993D01*
X145315269Y-103378158D01*
X145193334Y-103401094D01*
X145179789Y-103408170D01*
X145058081Y-103471063D01*
X144889264Y-103522466D01*
X144741096Y-103566415D01*
X144657008Y-103614167D01*
X144655012Y-103616986D01*
X144597791Y-103604761D01*
X144480936Y-103521380D01*
X144355233Y-103408848D01*
X144117603Y-103205129D01*
X143855639Y-103041650D01*
X143559113Y-102902854D01*
X143367515Y-102805282D01*
X143164519Y-102664009D01*
X142918570Y-102456411D01*
X142849298Y-102393887D01*
X142537165Y-102127126D01*
X142266295Y-101941913D01*
X142002340Y-101820104D01*
X141710951Y-101743556D01*
X141575416Y-101721017D01*
X141335360Y-101689712D01*
X141183668Y-101684140D01*
X141085680Y-101707203D01*
X141006739Y-101761802D01*
X140998300Y-101769341D01*
X140872235Y-101927277D01*
X140742451Y-102158954D01*
X140633455Y-102416218D01*
X140582482Y-102586453D01*
X140537192Y-102740558D01*
X140493366Y-102836700D01*
X140471216Y-102921511D01*
X140446367Y-103102940D01*
X140422152Y-103352625D01*
X140405174Y-103587286D01*
X140382741Y-103871304D01*
X140354885Y-104109820D01*
X140325463Y-104274619D01*
X140302935Y-104334897D01*
X140258168Y-104438569D01*
X140244990Y-104587810D01*
X140034302Y-104587810D01*
X140036691Y-104315038D01*
X140045455Y-104024430D01*
X140060268Y-103792793D01*
X140081250Y-103646381D01*
X140094460Y-103612864D01*
X140130380Y-103512581D01*
X140164680Y-103322635D01*
X140191470Y-103078412D01*
X140197587Y-102993104D01*
X140226689Y-102702101D01*
X140271979Y-102451693D01*
X140325954Y-102282507D01*
X140330451Y-102273645D01*
X140399414Y-102121840D01*
X140430511Y-102009714D01*
X140430649Y-102005558D01*
X140471129Y-101879277D01*
X140571925Y-101711483D01*
X140703373Y-101547606D01*
X140775097Y-101478067D01*
X140892585Y-101414341D01*
X141077503Y-101379646D01*
X141350125Y-101368584D01*
X141576098Y-101375681D01*
G37*
%LPC*%
%LPD*%
M02*
