M48
; DRILL file {KiCad 7.0.10} date Fri 12 Jan 2024 02:45:01 PM WET
; FORMAT={-:-/ absolute / metric / decimal}
; #@! TF.CreationDate,2024-01-12T14:45:01+00:00
; #@! TF.GenerationSoftware,Kicad,Pcbnew,7.0.10
; #@! TF.FileFunction,Plated,1,2,PTH
FMAT,2
METRIC
; #@! TA.AperFunction,Plated,PTH,ViaDrill
T1C0.400
; #@! TA.AperFunction,Plated,PTH,ComponentDrill
T2C0.700
; #@! TA.AperFunction,Plated,PTH,ComponentDrill
T3C0.800
; #@! TA.AperFunction,Plated,PTH,ComponentDrill
T4C1.000
; #@! TA.AperFunction,Plated,PTH,ComponentDrill
T5C1.020
; #@! TA.AperFunction,Plated,PTH,ComponentDrill
T6C1.499
; #@! TA.AperFunction,Plated,PTH,ViaDrill
T7C2.000
%
G90
G05
T1
X173.736Y-89.916
X174.752Y-69.596
X174.752Y-94.996
X175.514Y-92.456
T3
X81.0Y-60.375
X81.0Y-60.375
X81.0Y-67.995
X81.0Y-67.995
X81.0Y-79.375
X81.0Y-79.375
X81.0Y-86.995
X81.0Y-86.995
X81.0Y-98.375
X81.0Y-98.375
X81.0Y-105.995
X81.0Y-105.995
X100.0Y-48.875
X100.0Y-48.875
X100.0Y-56.495
X100.0Y-56.495
X100.0Y-67.875
X100.0Y-67.875
X100.0Y-75.495
X100.0Y-75.495
X100.0Y-86.875
X100.0Y-86.875
X100.0Y-94.495
X100.0Y-94.495
X119.0Y-44.625
X119.0Y-44.625
X119.0Y-52.245
X119.0Y-52.245
X119.0Y-63.625
X119.0Y-63.625
X119.0Y-71.245
X119.0Y-71.245
X119.0Y-82.625
X119.0Y-82.625
X119.0Y-90.245
X119.0Y-90.245
X138.0Y-46.75
X138.0Y-46.75
X138.0Y-54.37
X138.0Y-54.37
X138.0Y-65.75
X138.0Y-65.75
X138.0Y-73.37
X138.0Y-73.37
X138.0Y-84.75
X138.0Y-84.75
X138.0Y-92.37
X138.0Y-92.37
X156.179Y-123.749
X156.179Y-123.749
X157.0Y-56.25
X157.0Y-56.25
X157.0Y-63.87
X157.0Y-63.87
X157.0Y-75.25
X157.0Y-75.25
X157.0Y-82.87
X157.0Y-82.87
X157.0Y-94.25
X157.0Y-94.25
X157.0Y-101.87
X157.0Y-101.87
X159.989Y-117.149
X159.989Y-117.149
X172.689Y-133.401
X172.689Y-133.401
X176.499Y-126.801
X176.499Y-126.801
T4
X186.934Y-102.87
X186.944Y-106.68
X189.474Y-102.87
X189.484Y-106.68
X192.014Y-102.87
X192.024Y-106.68
X194.554Y-102.87
X194.564Y-106.68
T5
X181.864Y-49.87
X181.864Y-52.41
X181.864Y-54.95
X181.864Y-57.49
X181.864Y-60.03
X181.864Y-62.57
X181.864Y-65.11
X181.864Y-67.65
X181.864Y-70.19
X181.864Y-72.73
X181.864Y-75.27
X181.864Y-77.81
X181.864Y-80.35
X181.864Y-82.89
X181.864Y-85.43
X181.864Y-87.97
X181.864Y-90.51
X181.864Y-93.05
X181.864Y-95.59
X181.864Y-98.13
X188.214Y-97.9
X190.754Y-97.9
X193.294Y-97.9
X199.644Y-49.87
X199.644Y-52.41
X199.644Y-54.95
X199.644Y-57.49
X199.644Y-60.03
X199.644Y-62.57
X199.644Y-65.11
X199.644Y-67.65
X199.644Y-70.19
X199.644Y-72.73
X199.644Y-75.27
X199.644Y-77.81
X199.644Y-80.35
X199.644Y-82.89
X199.644Y-85.43
X199.644Y-87.97
X199.644Y-90.51
X199.644Y-93.05
X199.644Y-95.59
X199.644Y-98.13
T6
X86.69Y-61.655
X86.69Y-80.655
X86.69Y-99.655
X87.96Y-59.115
X87.96Y-78.115
X87.96Y-97.115
X93.04Y-59.115
X93.04Y-78.115
X93.04Y-97.115
X94.31Y-61.655
X94.31Y-80.655
X94.31Y-99.655
X105.69Y-50.155
X105.69Y-69.155
X105.69Y-88.155
X106.96Y-47.615
X106.96Y-66.615
X106.96Y-85.615
X112.04Y-47.615
X112.04Y-66.615
X112.04Y-85.615
X113.31Y-50.155
X113.31Y-69.155
X113.31Y-88.155
X124.69Y-45.905
X124.69Y-64.905
X124.69Y-83.905
X125.96Y-43.365
X125.96Y-62.365
X125.96Y-81.365
X131.04Y-43.365
X131.04Y-62.365
X131.04Y-81.365
X132.31Y-45.905
X132.31Y-64.905
X132.31Y-83.905
X143.69Y-48.03
X143.69Y-67.03
X143.69Y-86.03
X144.96Y-45.49
X144.96Y-64.49
X144.96Y-83.49
X150.04Y-45.49
X150.04Y-64.49
X150.04Y-83.49
X151.31Y-48.03
X151.31Y-67.03
X151.31Y-86.03
X162.69Y-57.53
X162.69Y-76.53
X162.69Y-95.53
X163.96Y-54.99
X163.96Y-73.99
X163.96Y-92.99
X164.47Y-120.835
X166.84Y-119.271
X169.04Y-54.99
X169.04Y-73.99
X169.04Y-92.99
X170.31Y-57.53
X170.31Y-76.53
X170.31Y-95.53
X171.07Y-124.645
X171.24Y-121.811
X180.946Y-130.568
X183.316Y-129.004
X187.546Y-134.378
X187.716Y-131.544
T7
X80.264Y-109.347
X80.645Y-54.102
X100.7Y-81.2
X116.332Y-41.656
X150.114Y-123.952
X157.734Y-69.596
X172.593Y-50.292
X172.593Y-108.204
X194.564Y-128.27
T2
X188.576Y-118.629G85X187.883Y-118.229
G05
X190.192Y-117.828G85X189.499Y-117.428
G05
X191.526Y-113.517G85X190.833Y-113.117
G05
X191.642Y-115.318G85X190.949Y-114.918
G05
X193.656Y-119.828G85X192.964Y-119.428
G05
X195.106Y-117.318G85X194.414Y-116.918
G05
X196.254Y-121.328G85X195.562Y-120.928
G05
X197.704Y-118.818G85X197.012Y-118.418
G05
M30
