G04 #@! TF.GenerationSoftware,KiCad,Pcbnew,7.0.10*
G04 #@! TF.CreationDate,2024-01-12T14:44:59+00:00*
G04 #@! TF.ProjectId,eobard,656f6261-7264-42e6-9b69-6361645f7063,0.2.7*
G04 #@! TF.SameCoordinates,Original*
G04 #@! TF.FileFunction,Profile,NP*
%FSLAX46Y46*%
G04 Gerber Fmt 4.6, Leading zero omitted, Abs format (unit mm)*
G04 Created by KiCad (PCBNEW 7.0.10) date 2024-01-12 14:44:59*
%MOMM*%
%LPD*%
G01*
G04 APERTURE LIST*
G04 #@! TA.AperFunction,Profile*
%ADD10C,0.100000*%
G04 #@! TD*
G04 APERTURE END LIST*
D10*
X154637575Y-39000000D02*
X102421741Y-39000000D01*
X195240000Y-63500000D02*
X192237000Y-63500000D01*
X203200000Y-49616000D02*
G75*
G03*
X201590000Y-48006000I-1610000J0D01*
G01*
X196850000Y-59141000D02*
G75*
G03*
X195240000Y-57531000I-1610000J0D01*
G01*
X187304751Y-146608600D02*
X202983682Y-119500010D01*
X203200000Y-118693939D02*
X203200000Y-49616000D01*
X192237000Y-57531000D02*
X195240000Y-57531000D01*
X185107310Y-147197484D02*
G75*
G03*
X187304750Y-146608600I803790J1394984D01*
G01*
X79610000Y-111700000D02*
X123069353Y-111700000D01*
X190627000Y-61890000D02*
X190627000Y-59141000D01*
X192237000Y-57531000D02*
G75*
G03*
X190627000Y-59141000I0J-1610000D01*
G01*
X185107283Y-147197530D02*
X123873139Y-111914999D01*
X202983700Y-119500020D02*
G75*
G03*
X203200000Y-118693939I-1394000J806120D01*
G01*
X173662538Y-47850692D02*
G75*
G03*
X174352425Y-48006000I689862J1454492D01*
G01*
X123873151Y-111914979D02*
G75*
G03*
X123069353Y-111700000I-803751J-1395021D01*
G01*
X78000000Y-110090000D02*
G75*
G03*
X79610000Y-111700000I1610000J0D01*
G01*
X195240000Y-63500000D02*
G75*
G03*
X196850000Y-61890000I0J1610000D01*
G01*
X101632420Y-39206763D02*
X78820680Y-52038368D01*
X102421741Y-39000010D02*
G75*
G03*
X101632420Y-39206764I59J-1610290D01*
G01*
X78820678Y-52038364D02*
G75*
G03*
X78000000Y-53441604I789322J-1403236D01*
G01*
X155327462Y-39155308D02*
G75*
G03*
X154637575Y-39000000I-689862J-1454492D01*
G01*
X173662534Y-47850700D02*
X155327466Y-39155300D01*
X78000000Y-53441604D02*
X78000000Y-110090000D01*
X196850000Y-59141000D02*
X196850000Y-61890000D01*
X201590000Y-48006000D02*
X174352425Y-48006000D01*
X190627000Y-61890000D02*
G75*
G03*
X192237000Y-63500000I1610000J0D01*
G01*
M02*
